<svg width="166" height="188" viewBox="0 0 166 188" fill="none" xmlns="http://www.w3.org/2000/svg">
<path d="M82.57 187.568C80.8534 187.567 79.1671 187.116 77.68 186.258L4.89 144.258C3.40164 143.397 2.16624 142.158 1.30789 140.668C0.449537 139.178 -0.00152815 137.488 3.88967e-06 135.768V51.7682C0.00197798 50.0518 0.454706 48.366 1.31288 46.8796C2.17106 45.3931 3.40458 44.1581 4.89 43.2982L77.68 1.2982C79.1675 0.447497 80.8514 0 82.565 0C84.2786 0 85.9625 0.447497 87.45 1.2982L160.25 43.2982C161.733 44.1602 162.964 45.3959 163.82 46.8821C164.676 48.3683 165.128 50.053 165.13 51.7682V135.818C165.128 137.533 164.676 139.218 163.82 140.704C162.964 142.191 161.733 143.426 160.25 144.288L87.45 186.288C85.9642 187.136 84.2809 187.578 82.57 187.568V187.568ZM82.57 5.9182C81.9066 5.91289 81.254 6.08555 80.68 6.4182L7.89 48.4182C7.31078 48.7514 6.83052 49.2326 6.49842 49.8124C6.16632 50.3923 5.99431 51.05 6 51.7182V135.768C5.99962 136.431 6.17415 137.083 6.50598 137.657C6.83781 138.231 7.31521 138.708 7.89 139.038L80.68 181.038C81.2538 181.367 81.9036 181.54 82.565 181.54C83.2264 181.54 83.8762 181.367 84.45 181.038L157.25 139.038C157.822 138.705 158.297 138.228 158.627 137.654C158.957 137.081 159.13 136.43 159.13 135.768V51.7682C159.13 51.1063 158.957 50.4558 158.627 49.8819C158.297 49.3081 157.822 48.8309 157.25 48.4982L84.45 6.4982C83.8872 6.13874 83.2375 5.93832 82.57 5.9182V5.9182Z" fill="white"/>
<path d="M77.044 45.2727H64.5085L46.4332 56.8849V68.9588L63.4432 58.0923H63.8693V118H77.044V45.2727Z" fill="#6CABDD"/>
<path d="M103.674 95.1818C103.692 99.4077 106.373 103.012 111.362 103.012C116.334 103.012 119.068 99.4077 119.05 95.1818V93.2642C119.068 89.0028 116.405 85.4339 111.362 85.4339C106.444 85.4339 103.692 89.0384 103.674 93.2642V95.1818ZM85.1903 74.3722C85.2081 78.598 87.8892 82.1669 92.8963 82.1669C97.8501 82.1669 100.585 78.6335 100.567 74.3722V72.4545C100.585 68.1932 97.9212 64.6243 92.8963 64.6243C87.9957 64.6243 85.2081 68.1932 85.1903 72.4545V74.3722ZM86.7884 102H91.245L116.245 65.6364H111.788L86.7884 102ZM108.308 93.2642C108.326 91.3821 109.125 89.4822 111.362 89.4822C113.706 89.4822 114.398 91.3821 114.381 93.2642V95.1818C114.398 97.0639 113.635 98.9283 111.362 98.9283C109.089 98.9283 108.326 97.0462 108.308 95.1818V93.2642ZM89.8601 72.4545C89.8778 70.5902 90.6413 68.6726 92.8963 68.6726C95.2401 68.6726 95.9148 70.5724 95.897 72.4545V74.3722C95.9148 76.2543 95.169 78.1186 92.8963 78.1186C90.6236 78.1186 89.8778 76.2543 89.8601 74.3722V72.4545Z" fill="#6CABDD"/>
<path d="M34.7386 141H35.9339V134.985H41.7188V133.911H35.9339V128.983H42.3132V127.909H34.7386V141ZM56.0178 134.455C56.0178 130.357 53.6655 127.73 50.3544 127.73C47.0497 127.73 44.6974 130.364 44.6974 134.455C44.6974 138.545 47.0433 141.179 50.3544 141.179C53.6655 141.179 56.0178 138.552 56.0178 134.455ZM54.8544 134.455C54.8608 137.977 52.9368 140.054 50.3544 140.054C47.7656 140.054 45.8544 137.964 45.8544 134.455C45.8544 130.926 47.7848 128.855 50.3544 128.855C52.9368 128.855 54.8544 130.933 54.8544 134.455ZM58.9086 141H60.1039V135.707H63.1529C63.3255 135.707 63.4917 135.701 63.6515 135.688L66.5215 141H67.9022L64.8787 135.458C66.5087 134.921 67.3525 133.579 67.3525 131.827C67.3525 129.539 65.9142 127.909 63.1337 127.909H58.9086V141ZM60.1039 134.614V128.983H63.1017C65.1728 128.983 66.1763 130.114 66.1763 131.827C66.1763 133.54 65.1728 134.614 63.1209 134.614H60.1039ZM84.3841 132H85.6113C85.1895 129.692 83.2271 127.73 80.3635 127.73C77.046 127.73 74.7385 130.351 74.7385 134.455C74.7385 138.552 77.0204 141.179 80.4466 141.179C83.5083 141.179 85.7008 139.089 85.7008 135.733V134.659H80.7278V135.733H84.5375C84.5055 138.411 82.8244 140.054 80.4466 140.054C77.8002 140.054 75.8954 137.97 75.8954 134.455C75.8954 130.926 77.813 128.855 80.3635 128.855C82.524 128.855 83.911 130.261 84.3841 132ZM99.4006 134.455C99.4006 130.357 97.0483 127.73 93.7372 127.73C90.4325 127.73 88.0803 130.364 88.0803 134.455C88.0803 138.545 90.4261 141.179 93.7372 141.179C97.0483 141.179 99.4006 138.552 99.4006 134.455ZM98.2372 134.455C98.2436 137.977 96.3196 140.054 93.7372 140.054C91.1484 140.054 89.2372 137.964 89.2372 134.455C89.2372 130.926 91.1676 128.855 93.7372 128.855C96.3196 128.855 98.2372 130.933 98.2372 134.455ZM113.024 134.455C113.024 130.357 110.671 127.73 107.36 127.73C104.056 127.73 101.703 130.364 101.703 134.455C101.703 138.545 104.049 141.179 107.36 141.179C110.671 141.179 113.024 138.552 113.024 134.455ZM111.86 134.455C111.867 137.977 109.943 140.054 107.36 140.054C104.771 140.054 102.86 137.964 102.86 134.455C102.86 130.926 104.791 128.855 107.36 128.855C109.943 128.855 111.86 130.933 111.86 134.455ZM119.75 141C123.687 141 125.931 138.539 125.937 134.423C125.937 130.351 123.725 127.909 119.98 127.909H115.914V141H119.75ZM117.11 139.926V128.983H119.909C123.086 128.983 124.774 131.035 124.78 134.423C124.78 137.842 123.054 139.926 119.679 139.926H117.11Z" fill="#6CABDD"/>
</svg>
