<svg width="632" height="130" viewBox="0 0 632 130" fill="none" xmlns="http://www.w3.org/2000/svg">
<path d="M262.577 68.8182C262.577 72.7836 261.825 76.1572 260.322 78.9389C258.83 81.7206 256.794 83.8454 254.214 85.3132C251.645 86.7692 248.757 87.4972 245.549 87.4972C242.317 87.4972 239.417 86.7633 236.849 85.2955C234.28 83.8277 232.25 81.7029 230.759 78.9212C229.267 76.1394 228.521 72.7718 228.521 68.8182C228.521 64.8527 229.267 61.4792 230.759 58.6974C232.25 55.9157 234.28 53.7969 236.849 52.3409C239.417 50.8731 242.317 50.1392 245.549 50.1392C248.757 50.1392 251.645 50.8731 254.214 52.3409C256.794 53.7969 258.83 55.9157 260.322 58.6974C261.825 61.4792 262.577 64.8527 262.577 68.8182ZM254.782 68.8182C254.782 66.2495 254.397 64.0833 253.628 62.3196C252.87 60.5559 251.799 59.2183 250.414 58.3068C249.029 57.3954 247.407 56.9396 245.549 56.9396C243.691 56.9396 242.069 57.3954 240.684 58.3068C239.299 59.2183 238.222 60.5559 237.452 62.3196C236.695 64.0833 236.316 66.2495 236.316 68.8182C236.316 71.3868 236.695 73.553 237.452 75.3168C238.222 77.0805 239.299 78.4181 240.684 79.3295C242.069 80.241 243.691 80.6967 245.549 80.6967C247.407 80.6967 249.029 80.241 250.414 79.3295C251.799 78.4181 252.87 77.0805 253.628 75.3168C254.397 73.553 254.782 71.3868 254.782 68.8182ZM293.556 59.7273L284.021 87H275.498L265.964 59.7273H273.954L279.618 79.2408H279.902L285.548 59.7273H293.556ZM308.928 87.5327C306.123 87.5327 303.708 86.9645 301.684 85.8281C299.671 84.6799 298.121 83.0582 297.032 80.9631C295.943 78.8561 295.398 76.3643 295.398 73.4879C295.398 70.6825 295.943 68.2204 297.032 66.1016C298.121 63.9827 299.654 62.3314 301.63 61.1477C303.619 59.964 305.951 59.3722 308.626 59.3722C310.425 59.3722 312.1 59.6622 313.651 60.2422C315.213 60.8104 316.575 61.6686 317.735 62.8168C318.907 63.965 319.818 65.4091 320.469 67.1491C321.12 68.8774 321.446 70.9015 321.446 73.2216V75.299H298.417V70.6115H314.326C314.326 69.5225 314.089 68.5578 313.615 67.7173C313.142 66.8769 312.485 66.2199 311.645 65.7464C310.816 65.2611 309.851 65.0185 308.75 65.0185C307.602 65.0185 306.584 65.2848 305.696 65.8175C304.82 66.3383 304.134 67.0426 303.637 67.9304C303.14 68.8063 302.885 69.7829 302.873 70.8601V75.3168C302.873 76.6662 303.122 77.8321 303.619 78.8146C304.128 79.7971 304.844 80.5547 305.767 81.0874C306.691 81.62 307.786 81.8864 309.052 81.8864C309.893 81.8864 310.662 81.768 311.36 81.5312C312.059 81.2945 312.657 80.9394 313.154 80.4659C313.651 79.9924 314.03 79.4124 314.29 78.7259L321.286 79.1875C320.931 80.8684 320.203 82.3362 319.102 83.5909C318.013 84.8338 316.604 85.8045 314.876 86.5028C313.16 87.1894 311.177 87.5327 308.928 87.5327ZM326.382 87V59.7273H333.715V64.4858H333.999C334.496 62.7931 335.331 61.5147 336.502 60.6506C337.674 59.7746 339.024 59.3366 340.551 59.3366C340.93 59.3366 341.338 59.3603 341.776 59.4077C342.214 59.455 342.599 59.5201 342.93 59.603V66.3146C342.575 66.2081 342.084 66.1134 341.456 66.0305C340.829 65.9477 340.255 65.9062 339.734 65.9062C338.621 65.9062 337.627 66.1489 336.751 66.6342C335.887 67.1077 335.2 67.7706 334.691 68.6229C334.194 69.4751 333.946 70.4576 333.946 71.5703V87H326.382ZM371.623 87.4972C369.114 87.4972 366.877 87.0355 364.912 86.1122C362.958 85.1889 361.408 83.9164 360.26 82.2947C359.111 80.6731 358.514 78.8146 358.466 76.7195H365.924C366.007 78.1281 366.598 79.2704 367.699 80.1463C368.8 81.0223 370.108 81.4602 371.623 81.4602C372.831 81.4602 373.896 81.1939 374.819 80.6612C375.754 80.1167 376.482 79.3651 377.003 78.4062C377.536 77.4356 377.802 76.3229 377.802 75.0682C377.802 73.7898 377.53 72.6652 376.985 71.6946C376.453 70.724 375.713 69.9664 374.766 69.4219C373.819 68.8774 372.736 68.5992 371.517 68.5874C370.451 68.5874 369.416 68.8063 368.409 69.2443C367.415 69.6823 366.64 70.2801 366.083 71.0376L359.248 69.8125L360.97 50.6364H383.2V56.9219H367.309L366.368 66.0305H366.581C367.22 65.1309 368.185 64.3852 369.475 63.7933C370.765 63.2015 372.209 62.9055 373.807 62.9055C375.997 62.9055 377.95 63.4205 379.667 64.4503C381.383 65.4801 382.738 66.8946 383.733 68.6939C384.727 70.4813 385.218 72.541 385.206 74.8729C385.218 77.3232 384.65 79.5012 383.502 81.407C382.365 83.3009 380.773 84.7924 378.725 85.8814C376.69 86.9586 374.322 87.4972 371.623 87.4972ZM404.826 87.799C401.772 87.7872 399.145 87.0355 396.943 85.544C394.753 84.0526 393.066 81.8923 391.882 79.0632C390.711 76.2341 390.131 72.831 390.142 68.8537C390.142 64.8883 390.728 61.5088 391.9 58.7152C393.084 55.9216 394.771 53.7969 396.961 52.3409C399.162 50.8731 401.784 50.1392 404.826 50.1392C407.868 50.1392 410.484 50.8731 412.674 52.3409C414.876 53.8087 416.569 55.9394 417.752 58.733C418.936 61.5147 419.522 64.8883 419.51 68.8537C419.51 72.8428 418.918 76.2519 417.735 79.081C416.563 81.91 414.882 84.0703 412.692 85.5618C410.502 87.0533 407.88 87.799 404.826 87.799ZM404.826 81.4247C406.91 81.4247 408.573 80.3771 409.816 78.282C411.059 76.1868 411.674 73.044 411.662 68.8537C411.662 66.0956 411.378 63.7992 410.81 61.9645C410.254 60.1297 409.461 58.7507 408.431 57.8274C407.413 56.9041 406.211 56.4425 404.826 56.4425C402.755 56.4425 401.098 57.4782 399.855 59.5497C398.612 61.6212 397.984 64.7225 397.973 68.8537C397.973 71.6473 398.251 73.9792 398.807 75.8494C399.375 77.7079 400.174 79.1046 401.204 80.0398C402.234 80.9631 403.441 81.4247 404.826 81.4247ZM439.25 87.799C436.196 87.7872 433.568 87.0355 431.367 85.544C429.177 84.0526 427.49 81.8923 426.306 79.0632C425.134 76.2341 424.554 72.831 424.566 68.8537C424.566 64.8883 425.152 61.5088 426.324 58.7152C427.508 55.9216 429.195 53.7969 431.384 52.3409C433.586 50.8731 436.208 50.1392 439.25 50.1392C442.292 50.1392 444.908 50.8731 447.098 52.3409C449.3 53.8087 450.993 55.9394 452.176 58.733C453.36 61.5147 453.946 64.8883 453.934 68.8537C453.934 72.8428 453.342 76.2519 452.159 79.081C450.987 81.91 449.306 84.0703 447.116 85.5618C444.926 87.0533 442.304 87.799 439.25 87.799ZM439.25 81.4247C441.334 81.4247 442.997 80.3771 444.24 78.282C445.482 76.1868 446.098 73.044 446.086 68.8537C446.086 66.0956 445.802 63.7992 445.234 61.9645C444.677 60.1297 443.884 58.7507 442.855 57.8274C441.837 56.9041 440.635 56.4425 439.25 56.4425C437.179 56.4425 435.521 57.4782 434.279 59.5497C433.036 61.6212 432.408 64.7225 432.396 68.8537C432.396 71.6473 432.675 73.9792 433.231 75.8494C433.799 77.7079 434.598 79.1046 435.628 80.0398C436.658 80.9631 437.865 81.4247 439.25 81.4247ZM473.674 87.799C470.62 87.7872 467.992 87.0355 465.79 85.544C463.601 84.0526 461.914 81.8923 460.73 79.0632C459.558 76.2341 458.978 72.831 458.99 68.8537C458.99 64.8883 459.576 61.5088 460.748 58.7152C461.932 55.9216 463.618 53.7969 465.808 52.3409C468.01 50.8731 470.632 50.1392 473.674 50.1392C476.716 50.1392 479.332 50.8731 481.522 52.3409C483.724 53.8087 485.416 55.9394 486.6 58.733C487.784 61.5147 488.37 64.8883 488.358 68.8537C488.358 72.8428 487.766 76.2519 486.582 79.081C485.411 81.91 483.73 84.0703 481.54 85.5618C479.35 87.0533 476.728 87.799 473.674 87.799ZM473.674 81.4247C475.757 81.4247 477.42 80.3771 478.663 78.282C479.906 76.1868 480.522 73.044 480.51 68.8537C480.51 66.0956 480.226 63.7992 479.658 61.9645C479.101 60.1297 478.308 58.7507 477.278 57.8274C476.26 56.9041 475.059 56.4425 473.674 56.4425C471.603 56.4425 469.945 57.4782 468.702 59.5497C467.46 61.6212 466.832 64.7225 466.82 68.8537C466.82 71.6473 467.098 73.9792 467.655 75.8494C468.223 77.7079 469.022 79.1046 470.052 80.0398C471.082 80.9631 472.289 81.4247 473.674 81.4247ZM513.047 50.6364V87H505.483V50.6364H513.047ZM519.106 87V59.7273H526.67V87H519.106ZM522.924 56.2116C521.799 56.2116 520.835 55.8388 520.03 55.093C519.225 54.3355 518.822 53.4299 518.822 52.3764C518.822 51.3348 519.225 50.4411 520.03 49.6953C520.835 48.9377 521.793 48.5589 522.906 48.5589C524.042 48.5589 525.007 48.9377 525.8 49.6953C526.605 50.4411 527.008 51.3348 527.008 52.3764C527.008 53.4299 526.605 54.3355 525.8 55.093C525.007 55.8388 524.048 56.2116 522.924 56.2116ZM539.583 79.152L539.601 70.0788H540.702L549.438 59.7273H558.12L546.384 73.4347H544.59L539.583 79.152ZM532.729 87V50.6364H540.293V87H532.729ZM549.775 87L541.749 75.1214L546.792 69.777L558.635 87H549.775ZM573.137 87.5327C570.331 87.5327 567.917 86.9645 565.893 85.8281C563.88 84.6799 562.33 83.0582 561.241 80.9631C560.152 78.8561 559.607 76.3643 559.607 73.4879C559.607 70.6825 560.152 68.2204 561.241 66.1016C562.33 63.9827 563.863 62.3314 565.839 61.1477C567.828 59.964 570.16 59.3722 572.835 59.3722C574.634 59.3722 576.309 59.6622 577.86 60.2422C579.422 60.8104 580.784 61.6686 581.944 62.8168C583.116 63.965 584.027 65.4091 584.678 67.1491C585.329 68.8774 585.655 70.9015 585.655 73.2216V75.299H562.626V70.6115H578.535C578.535 69.5225 578.298 68.5578 577.824 67.7173C577.351 66.8769 576.694 66.2199 575.854 65.7464C575.025 65.2611 574.06 65.0185 572.959 65.0185C571.811 65.0185 570.793 65.2848 569.905 65.8175C569.029 66.3383 568.343 67.0426 567.846 67.9304C567.349 68.8063 567.094 69.7829 567.082 70.8601V75.3168C567.082 76.6662 567.331 77.8321 567.828 78.8146C568.337 79.7971 569.053 80.5547 569.976 81.0874C570.9 81.62 571.995 81.8864 573.261 81.8864C574.102 81.8864 574.871 81.768 575.569 81.5312C576.268 81.2945 576.866 80.9394 577.363 80.4659C577.86 79.9924 578.239 79.4124 578.499 78.7259L585.495 79.1875C585.14 80.8684 584.412 82.3362 583.311 83.5909C582.222 84.8338 580.813 85.8045 579.085 86.5028C577.369 87.1894 575.386 87.5327 573.137 87.5327ZM613.282 67.5043L606.358 67.9304C606.239 67.3385 605.985 66.8059 605.594 66.3324C605.204 65.8471 604.689 65.4624 604.05 65.1783C603.422 64.8823 602.671 64.7344 601.795 64.7344C600.623 64.7344 599.634 64.983 598.829 65.4801C598.024 65.9654 597.622 66.6165 597.622 67.4332C597.622 68.0843 597.882 68.6347 598.403 69.0845C598.924 69.5343 599.818 69.8954 601.084 70.1676L606.02 71.1619C608.672 71.7064 610.649 72.5824 611.951 73.7898C613.253 74.9972 613.904 76.5833 613.904 78.5483C613.904 80.3357 613.377 81.9041 612.324 83.2536C611.282 84.603 609.85 85.6565 608.027 86.4141C606.216 87.1598 604.126 87.5327 601.759 87.5327C598.149 87.5327 595.272 86.781 593.13 85.2777C590.999 83.7625 589.75 81.7029 589.383 79.0987L596.823 78.7081C597.048 79.8089 597.592 80.6494 598.456 81.2294C599.321 81.7976 600.427 82.0817 601.777 82.0817C603.103 82.0817 604.168 81.8272 604.973 81.3182C605.79 80.7973 606.204 80.1286 606.216 79.3118C606.204 78.6252 605.914 78.063 605.346 77.625C604.778 77.1752 603.902 76.8319 602.718 76.5952L597.995 75.6541C595.331 75.1214 593.349 74.1982 592.047 72.8842C590.756 71.5703 590.111 69.8954 590.111 67.8594C590.111 66.1075 590.585 64.5982 591.532 63.3317C592.491 62.0651 593.834 61.0885 595.562 60.402C597.302 59.7154 599.338 59.3722 601.67 59.3722C605.115 59.3722 607.826 60.1001 609.802 61.5561C611.791 63.0121 612.951 64.9948 613.282 67.5043ZM627.705 50.6364L627.012 76.098H620.513L619.803 50.6364H627.705ZM623.763 87.4616C622.591 87.4616 621.585 87.0473 620.744 86.2188C619.904 85.3783 619.49 84.3722 619.501 83.2003C619.49 82.0402 619.904 81.0459 620.744 80.2173C621.585 79.3887 622.591 78.9744 623.763 78.9744C624.887 78.9744 625.876 79.3887 626.728 80.2173C627.58 81.0459 628.012 82.0402 628.024 83.2003C628.012 83.9815 627.805 84.6977 627.403 85.3487C627.012 85.9879 626.497 86.5028 625.858 86.8935C625.219 87.2723 624.52 87.4616 623.763 87.4616Z" fill="#FF7400"/>
<path d="M21.255 14.0066C18.4971 13.8657 16.1473 15.9872 16.0065 18.7451L13.7115 63.6865C13.5707 66.4443 15.6922 68.7942 18.45 68.935C21.2079 69.0758 23.5577 66.9543 23.6985 64.1965L25.7385 24.2485L65.6864 26.2885C68.4442 26.4293 70.7941 24.3078 70.9349 21.55C71.0757 18.7922 68.9542 16.4423 66.1964 16.3015L21.255 14.0066ZM205.551 78.2146C168.086 89.558 140.105 92.4364 113.169 83.6403C86.0759 74.793 59.2237 53.8764 24.7112 15.6494L17.2887 22.3507C52.1122 60.9221 80.4145 83.4639 110.065 93.1463C139.872 102.88 170.223 99.3591 208.449 87.7855L205.551 78.2146Z" fill="#FF7400"/>
</svg>
