<svg width="223" height="12" viewBox="0 0 223 12" fill="none" xmlns="http://www.w3.org/2000/svg">
<g clip-path="url(#clip0_6_61)">
<path d="M21.345 8.03501C21.685 8.12501 21.975 8.39501 22.345 8.27501C23.055 8.04501 23.215 8.55501 23.345 8.90501C23.5128 9.23624 23.5759 9.61069 23.5259 9.97863C23.4759 10.3466 23.3152 10.6906 23.065 10.965C22.525 11.595 22.125 11.315 21.475 11.255C20.595 11.155 19.475 10.595 19.565 9.69501C19.6299 9.34526 19.801 9.02401 20.055 8.77501C20.172 8.56349 20.3166 8.36845 20.485 8.19501C20.6318 8.10445 20.7948 8.04332 20.965 8.01501C21.0911 7.98646 21.2226 7.99338 21.345 8.03501Z" fill="#404E6B"/>
<path d="M29.335 8.78505C29.465 8.62505 29.715 8.02505 30.085 7.93505C32.385 7.18505 32.885 9.07505 32.785 9.75505C32.685 10.4351 32.255 11.1751 31.895 11.2251C30.185 11.4551 29.455 10.7551 29.335 8.78505Z" fill="#404E6B"/>
<path d="M2.965 11.6851C2.905 11.6851 2.835 11.6851 2.785 11.6151C2.36856 11.5367 1.94781 11.4832 1.525 11.4551C1.135 11.3851 1.085 11.2451 0.934999 10.8551C0.784253 10.6136 0.70433 10.3347 0.70433 10.0501C0.70433 9.76542 0.784253 9.4865 0.934999 9.24506C1.165 8.77506 1.395 8.60506 2.155 8.32506C3.065 7.97506 3.785 8.68506 4.325 9.77506C4.36681 9.87306 4.38836 9.97851 4.38836 10.0851C4.38836 10.1916 4.36681 10.2971 4.325 10.3951C4.135 10.6851 3.885 10.9651 3.655 11.2351C3.425 11.5051 3.305 11.6851 2.965 11.6851Z" fill="#404E6B"/>
<path d="M12.585 8.03506C13.445 8.22506 14.305 9.82506 14.025 10.2651C13.605 10.8951 12.785 11.6851 12.115 11.6851C11.445 11.6851 10.725 10.8451 10.025 10.3751C9.99498 10.0407 10.0426 9.70398 10.1641 9.39106C10.2856 9.07814 10.4777 8.79751 10.7255 8.57104C10.9732 8.34456 11.27 8.17837 11.5925 8.0854C11.915 7.99243 12.2547 7.9752 12.585 8.03506V8.03506Z" fill="#404E6B"/>
<path d="M59.335 7.2451C59.675 7.3351 59.975 7.6051 60.335 7.4851C61.045 7.2451 61.205 7.7451 61.335 8.0951C61.5063 8.4259 61.5732 8.8009 61.5267 9.17051C61.4803 9.54013 61.3228 9.88694 61.075 10.1651C60.535 10.7951 60.135 10.5251 59.495 10.4651C58.605 10.3751 57.495 9.8251 57.565 8.9251C57.6282 8.57401 57.7954 8.25 58.045 7.9951C58.195 7.8151 58.275 7.5751 58.475 7.4251C58.6154 7.32729 58.7761 7.26236 58.945 7.2351C59.0739 7.20661 59.2078 7.21004 59.335 7.2451V7.2451Z" fill="#404E6B"/>
<path d="M67.335 7.93505C67.465 7.77505 67.705 7.17505 68.075 7.08505C70.375 6.31505 70.895 8.20505 70.745 8.88505C70.595 9.56505 70.275 10.3051 69.915 10.3551C68.205 10.6051 67.465 9.90505 67.335 7.93505Z" fill="#404E6B"/>
<path d="M40.995 11.0351C40.9234 11.0261 40.853 11.0093 40.785 10.9851C40.3782 10.9117 39.9675 10.8616 39.555 10.8351C39.165 10.7651 39.105 10.6351 38.955 10.2451C38.8034 10.0021 38.723 9.72149 38.723 9.43509C38.723 9.1487 38.8034 8.86806 38.955 8.62509C39.175 8.16509 39.405 7.98509 40.165 7.69509C41.085 7.34509 41.855 8.00509 42.365 9.13509C42.4068 9.2331 42.4284 9.33854 42.4284 9.44509C42.4284 9.55164 42.4068 9.65709 42.365 9.75509C42.1566 10.0499 41.9329 10.3336 41.695 10.6051C41.385 10.9551 41.335 11.1051 40.995 11.0351Z" fill="#404E6B"/>
<path d="M50.585 7.31508C51.435 7.50508 52.315 9.09508 52.035 9.54508C51.625 10.1751 50.785 10.9451 50.145 10.9351C49.505 10.9251 48.785 10.1151 48.045 9.68508C48.0108 9.35036 48.0545 9.01226 48.1727 8.69725C48.2909 8.38223 48.4804 8.09886 48.7264 7.86932C48.9725 7.63978 49.2683 7.47029 49.5907 7.37414C49.9131 7.27799 50.2534 7.25777 50.585 7.31508Z" fill="#404E6B"/>
<path d="M97.325 6.15506C97.665 6.24506 97.965 6.50506 98.325 6.37506C99.035 6.13506 99.195 6.63506 99.325 6.98506C99.4976 7.31488 99.5661 7.68931 99.5215 8.05889C99.4769 8.42847 99.3212 8.77582 99.075 9.05506C98.545 9.69506 98.135 9.42506 97.495 9.36506C96.605 9.28506 95.495 8.73506 95.555 7.83506C95.6139 7.48543 95.7819 7.16339 96.035 6.91506C96.185 6.72506 96.255 6.48506 96.455 6.33506C96.5954 6.23725 96.7561 6.17232 96.925 6.14506C97.0557 6.10333 97.1966 6.10685 97.325 6.15506V6.15506Z" fill="#404E6B"/>
<path d="M105.325 6.76502C105.455 6.60502 105.695 6.00502 106.065 5.90502C108.355 5.11502 108.885 7.00502 108.745 7.68502C108.605 8.36502 108.285 9.11502 107.935 9.16502C106.225 9.42502 105.475 8.68502 105.325 6.76502Z" fill="#404E6B"/>
<path d="M79.015 10.0851C78.9452 10.0924 78.8748 10.0924 78.805 10.0851C78.3947 10.0143 77.9807 9.96757 77.565 9.94506C77.175 9.87506 77.125 9.74506 76.965 9.35506C76.8154 9.11322 76.7361 8.83446 76.7361 8.55006C76.7361 8.26567 76.8154 7.98691 76.965 7.74506C77.175 7.27506 77.405 7.10506 78.165 6.80506C79.085 6.44506 79.855 7.10506 80.385 8.22506C80.4268 8.32307 80.4484 8.42852 80.4484 8.53506C80.4484 8.64161 80.4268 8.74706 80.385 8.84506C80.17 9.13708 79.9397 9.41748 79.695 9.68506C79.405 10.0051 79.355 10.1451 79.015 10.0851Z" fill="#404E6B"/>
<path d="M88.575 6.28504C89.425 6.46504 90.325 8.05504 90.045 8.50504C89.635 9.13504 88.805 9.91504 88.155 9.91504C87.505 9.91504 86.785 9.10504 86.045 8.68504C86.0103 8.34987 86.053 8.0112 86.1699 7.69515C86.2868 7.37911 86.4747 7.09415 86.7192 6.86224C86.9637 6.63033 87.2581 6.45768 87.5799 6.3576C87.9017 6.25753 88.2421 6.2327 88.575 6.28504V6.28504Z" fill="#404E6B"/>
<path d="M135.305 4.68505C135.645 4.77505 135.945 5.03505 136.305 4.90505C137.005 4.65505 137.175 5.15505 137.305 5.50505C137.48 5.83293 137.552 6.20621 137.511 6.57573C137.47 6.94524 137.318 7.29365 137.075 7.57505C136.545 8.21505 136.145 7.95505 135.495 7.89505C134.605 7.82505 133.495 7.28505 133.545 6.38505C133.607 6.03549 133.77 5.71193 134.015 5.45505C134.165 5.27505 134.235 5.02505 134.425 4.87505C134.568 4.7741 134.732 4.70584 134.905 4.67505C135.037 4.64488 135.175 4.64832 135.305 4.68505V4.68505Z" fill="#404E6B"/>
<path d="M143.305 5.29503C143.445 5.12503 143.665 4.52503 144.045 4.42503C146.325 3.61503 146.875 5.49503 146.735 6.18503C146.625 6.72503 146.285 7.61503 145.935 7.66503C144.225 7.93503 143.475 7.26503 143.305 5.29503Z" fill="#404E6B"/>
<path d="M117.025 8.82512C116.965 8.82512 116.895 8.82512 116.815 8.77512C116.404 8.721 115.99 8.69095 115.575 8.68512C115.185 8.62512 115.125 8.49512 114.965 8.10512C114.81 7.86711 114.723 7.59106 114.714 7.30712C114.706 7.02319 114.775 6.74229 114.915 6.49512C115.125 6.02512 115.355 5.84512 116.105 5.54512C117.025 5.17512 117.805 5.82512 118.335 6.94512C118.377 7.04128 118.399 7.14513 118.399 7.25012C118.399 7.35511 118.377 7.45896 118.335 7.55512C118.133 7.85246 117.916 8.13948 117.685 8.41512C117.415 8.68512 117.365 8.88512 117.025 8.82512Z" fill="#404E6B"/>
<path d="M126.555 4.95511C127.405 5.12511 128.315 6.70511 128.035 7.15511C127.645 7.78511 126.815 8.57511 126.165 8.58511C125.515 8.59511 124.755 7.78511 124.045 7.33511C124.01 7.00255 124.052 6.66644 124.168 6.35278C124.284 6.03911 124.471 5.7563 124.713 5.52623C124.956 5.29616 125.248 5.12498 125.567 5.02595C125.887 4.92692 126.225 4.90268 126.555 4.95511Z" fill="#404E6B"/>
<path d="M173.265 3.00505C173.615 3.09505 173.915 3.35505 174.265 3.22505C174.975 2.96505 175.145 3.46505 175.265 3.81505C175.444 4.14059 175.52 4.51302 175.483 4.8828C175.445 5.25257 175.296 5.60216 175.055 5.88505C174.535 6.52505 174.125 6.27505 173.475 6.22505C172.585 6.15505 171.475 5.63505 171.475 4.73505C171.53 4.38251 171.69 4.05486 171.935 3.79505C172.051 3.58465 172.188 3.38691 172.345 3.20505C172.489 3.11235 172.648 3.04473 172.815 3.00505C172.962 2.96255 173.118 2.96255 173.265 3.00505V3.00505Z" fill="#404E6B"/>
<path d="M181.275 3.50509C181.405 3.33509 181.635 2.73509 182.005 2.63509C184.275 1.80509 184.845 3.63509 184.705 4.36509C184.565 5.09509 184.275 5.80509 183.925 5.86509C182.215 6.14509 181.465 5.47509 181.275 3.50509Z" fill="#404E6B"/>
<path d="M155.025 7.25507C154.95 7.24476 154.877 7.22803 154.805 7.20507C154.398 7.14081 153.987 7.10074 153.575 7.08507C153.185 7.02507 153.125 6.89507 152.965 6.50507C152.804 6.27024 152.711 5.99478 152.699 5.71011C152.687 5.42543 152.755 5.14301 152.895 4.89507C153.105 4.42507 153.325 4.24507 154.075 3.89507C154.995 3.52507 155.775 4.16507 156.315 5.27507C156.359 5.37244 156.382 5.47813 156.382 5.58507C156.382 5.692 156.359 5.79769 156.315 5.89507C156.125 6.19507 155.885 6.47507 155.665 6.76507C155.445 7.05507 155.365 7.30507 155.025 7.25507Z" fill="#404E6B"/>
<path d="M164.515 3.29506C165.375 3.46506 166.295 5.03506 166.025 5.48506C165.829 5.83987 165.563 6.15129 165.243 6.4005C164.924 6.64971 164.557 6.83156 164.165 6.93506C163.465 6.93506 162.745 6.14506 162.035 5.69506C161.998 5.36384 162.037 5.02851 162.15 4.71487C162.263 4.40123 162.446 4.11762 162.685 3.88584C162.925 3.65406 163.214 3.48028 163.532 3.37787C163.849 3.27545 164.185 3.24712 164.515 3.29506V3.29506Z" fill="#404E6B"/>
<path d="M211.215 0.975032C211.565 1.05503 211.865 1.31503 212.215 1.18503C212.925 0.925032 213.095 1.41503 213.215 1.76503C213.396 2.08959 213.473 2.46145 213.438 2.8312C213.402 3.20095 213.254 3.55107 213.015 3.83503C212.495 4.48503 212.095 4.23503 211.445 4.18503C210.555 4.18503 209.445 3.60503 209.445 2.70503C209.496 2.35327 209.653 2.02539 209.895 1.76503C210.035 1.58503 210.105 1.33503 210.295 1.18503C210.436 1.08509 210.596 1.01376 210.765 0.975032C210.912 0.932529 211.068 0.932529 211.215 0.975032V0.975032Z" fill="#404E6B"/>
<path d="M219.225 1.395C219.355 1.225 219.575 0.625003 219.945 0.515003C222.215 -0.324997 222.795 1.515 222.665 2.235C222.565 2.775 222.245 3.675 221.895 3.735C220.195 4.025 219.425 3.365 219.225 1.395Z" fill="#404E6B"/>
<path d="M193.005 5.36505C192.935 5.37242 192.865 5.37242 192.795 5.36505C192.384 5.30405 191.97 5.26732 191.555 5.25505C191.165 5.25505 191.105 5.06505 190.935 4.68505C190.776 4.4494 190.685 4.17491 190.671 3.89118C190.657 3.60745 190.72 3.32526 190.855 3.07505C191.065 2.60505 191.285 2.42505 192.035 2.07505C192.945 1.69505 193.735 2.33505 194.285 3.44505C194.329 3.54071 194.352 3.64475 194.352 3.75005C194.352 3.85534 194.329 3.95938 194.285 4.05505C194.095 4.35505 193.865 4.64505 193.645 4.92505C193.425 5.20505 193.345 5.41505 193.005 5.36505Z" fill="#404E6B"/>
<path d="M202.465 1.33508C203.325 1.49508 204.265 3.05508 203.995 3.50508C203.605 4.15508 202.795 4.94508 202.145 4.96508C201.495 4.98508 200.715 4.19508 200.005 3.75508C199.967 3.42463 200.005 3.08993 200.116 2.77636C200.227 2.4628 200.408 2.17861 200.645 1.94536C200.882 1.71212 201.169 1.53594 201.485 1.4302C201.8 1.32446 202.135 1.29193 202.465 1.33508V1.33508Z" fill="#404E6B"/>
</g>
<defs>
<clipPath id="clip0_6_61">
<rect width="11.38" height="221.99" fill="white" transform="translate(0.695 11.6851) rotate(-90)"/>
</clipPath>
</defs>
</svg>
