<svg width="529" height="500" viewBox="0 0 529 500" fill="none" xmlns="http://www.w3.org/2000/svg">
<circle cx="265" cy="250" r="250" fill="#FF7400"/>
<path d="M154.932 196.26H138.952C138.739 194.619 138.302 193.138 137.642 191.817C136.981 190.496 136.108 189.367 135.021 188.43C133.935 187.492 132.645 186.778 131.154 186.288C129.684 185.777 128.054 185.521 126.264 185.521C123.089 185.521 120.351 186.299 118.05 187.854C115.77 189.41 114.013 191.658 112.777 194.598C111.562 197.538 110.955 201.097 110.955 205.273C110.955 209.619 111.573 213.263 112.809 216.203C114.066 219.122 115.824 221.327 118.082 222.819C120.362 224.289 123.057 225.024 126.168 225.024C127.915 225.024 129.503 224.8 130.93 224.353C132.379 223.906 133.647 223.256 134.734 222.403C135.841 221.53 136.747 220.475 137.45 219.239C138.175 217.982 138.675 216.565 138.952 214.989L154.932 215.085C154.655 217.982 153.814 220.837 152.408 223.65C151.023 226.462 149.116 229.03 146.687 231.352C144.258 233.653 141.296 235.486 137.802 236.849C134.329 238.213 130.344 238.895 125.849 238.895C119.925 238.895 114.62 237.595 109.932 234.996C105.266 232.375 101.58 228.561 98.8741 223.554C96.1682 218.547 94.8152 212.453 94.8152 205.273C94.8152 198.071 96.1895 191.967 98.9381 186.96C101.687 181.952 105.405 178.149 110.092 175.55C114.78 172.95 120.032 171.651 125.849 171.651C129.812 171.651 133.476 172.205 136.843 173.312C140.209 174.399 143.171 175.997 145.728 178.107C148.285 180.195 150.362 182.762 151.96 185.809C153.558 188.856 154.549 192.339 154.932 196.26ZM186.901 238.927C181.744 238.927 177.313 237.872 173.605 235.763C169.919 233.632 167.075 230.67 165.072 226.878C163.09 223.064 162.099 218.643 162.099 213.614C162.099 208.565 163.09 204.143 165.072 200.351C167.075 196.537 169.919 193.575 173.605 191.466C177.313 189.335 181.744 188.27 186.901 188.27C192.057 188.27 196.478 189.335 200.164 191.466C203.871 193.575 206.716 196.537 208.697 200.351C210.7 204.143 211.702 208.565 211.702 213.614C211.702 218.643 210.7 223.064 208.697 226.878C206.716 230.67 203.871 233.632 200.164 235.763C196.478 237.872 192.057 238.927 186.901 238.927ZM186.996 227.134C188.871 227.134 190.459 226.558 191.759 225.408C193.058 224.257 194.049 222.659 194.731 220.614C195.434 218.568 195.786 216.203 195.786 213.518C195.786 210.791 195.434 208.405 194.731 206.359C194.049 204.314 193.058 202.716 191.759 201.565C190.459 200.415 188.871 199.839 186.996 199.839C185.058 199.839 183.417 200.415 182.075 201.565C180.754 202.716 179.741 204.314 179.038 206.359C178.357 208.405 178.016 210.791 178.016 213.518C178.016 216.203 178.357 218.568 179.038 220.614C179.741 222.659 180.754 224.257 182.075 225.408C183.417 226.558 185.058 227.134 186.996 227.134ZM219.708 238V188.909H234.569V197.922H235.113C236.135 194.939 237.861 192.585 240.29 190.859C242.719 189.133 245.617 188.27 248.983 188.27C252.392 188.27 255.311 189.143 257.74 190.891C260.169 192.638 261.714 194.982 262.375 197.922H262.886C263.802 195.003 265.592 192.67 268.255 190.923C270.919 189.154 274.061 188.27 277.684 188.27C282.328 188.27 286.1 189.761 288.998 192.744C291.895 195.706 293.344 199.776 293.344 204.953V238H277.716V208.533C277.716 206.082 277.087 204.218 275.83 202.94C274.573 201.64 272.943 200.99 270.94 200.99C268.788 200.99 267.094 201.693 265.858 203.099C264.644 204.484 264.037 206.349 264.037 208.692V238H249.015V208.373C249.015 206.093 248.397 204.293 247.162 202.972C245.926 201.651 244.296 200.99 242.272 200.99C240.908 200.99 239.704 201.32 238.66 201.981C237.616 202.62 236.796 203.536 236.199 204.729C235.624 205.923 235.336 207.329 235.336 208.948V238H219.708ZM303.028 238V188.909H318.657V238H303.028ZM310.89 183.188C308.674 183.188 306.778 182.464 305.201 181.015C303.625 179.545 302.836 177.776 302.836 175.71C302.836 173.664 303.625 171.917 305.201 170.468C306.778 168.998 308.664 168.263 310.858 168.263C313.074 168.263 314.96 168.998 316.515 170.468C318.092 171.917 318.88 173.664 318.88 175.71C318.88 177.776 318.092 179.545 316.515 181.015C314.96 182.464 313.085 183.188 310.89 183.188ZM344.233 210.003V238H328.604V188.909H343.466V197.922H344.009C345.096 194.918 346.949 192.563 349.57 190.859C352.191 189.133 355.312 188.27 358.934 188.27C362.386 188.27 365.38 189.048 367.915 190.603C370.472 192.137 372.454 194.289 373.86 197.059C375.287 199.808 375.991 203.025 375.969 206.711V238H360.341V209.779C360.362 207.052 359.67 204.921 358.263 203.387C356.878 201.853 354.95 201.086 352.479 201.086C350.838 201.086 349.389 201.448 348.132 202.173C346.896 202.876 345.937 203.888 345.256 205.209C344.595 206.53 344.254 208.128 344.233 210.003ZM408.529 257.016C403.863 257.016 399.868 256.377 396.544 255.099C393.22 253.82 390.61 252.073 388.713 249.857C386.817 247.663 385.677 245.202 385.294 242.474L400.091 241.643C400.368 242.517 400.88 243.295 401.625 243.977C402.392 244.658 403.383 245.191 404.598 245.575C405.833 245.979 407.282 246.182 408.944 246.182C411.565 246.182 413.728 245.564 415.432 244.328C417.158 243.092 418.021 241.004 418.021 238.064V229.435H417.478C416.86 230.947 415.922 232.3 414.665 233.494C413.408 234.687 411.842 235.624 409.967 236.306C408.113 236.988 405.983 237.329 403.575 237.329C399.995 237.329 396.714 236.498 393.731 234.836C390.77 233.153 388.394 230.553 386.604 227.038C384.836 223.501 383.951 218.952 383.951 213.391C383.951 207.659 384.868 202.94 386.7 199.232C388.532 195.504 390.929 192.744 393.891 190.955C396.874 189.165 400.081 188.27 403.511 188.27C406.089 188.27 408.294 188.717 410.127 189.612C411.98 190.486 413.504 191.615 414.697 193C415.89 194.385 416.796 195.823 417.414 197.315H417.861V188.909H433.426V238.192C433.426 242.219 432.382 245.628 430.294 248.419C428.206 251.232 425.287 253.362 421.537 254.811C417.787 256.281 413.451 257.016 408.529 257.016ZM409.008 225.951C410.904 225.951 412.524 225.45 413.866 224.449C415.208 223.447 416.242 222.009 416.966 220.134C417.691 218.259 418.053 216.011 418.053 213.391C418.053 210.727 417.691 208.437 416.966 206.519C416.263 204.58 415.23 203.089 413.866 202.045C412.524 201.001 410.904 200.479 409.008 200.479C407.069 200.479 405.429 201.011 404.086 202.077C402.744 203.142 401.721 204.644 401.018 206.583C400.336 208.501 399.995 210.77 399.995 213.391C399.995 216.011 400.347 218.259 401.05 220.134C401.753 222.009 402.765 223.447 404.086 224.449C405.429 225.45 407.069 225.951 409.008 225.951ZM190.884 282.169C190.671 279.825 189.722 278.004 188.039 276.704C186.377 275.383 184.002 274.722 180.912 274.722C178.867 274.722 177.162 274.989 175.798 275.521C174.435 276.054 173.412 276.789 172.73 277.727C172.048 278.643 171.697 279.697 171.676 280.891C171.633 281.871 171.825 282.734 172.251 283.479C172.698 284.225 173.337 284.886 174.168 285.461C175.021 286.015 176.043 286.505 177.237 286.931C178.43 287.357 179.772 287.73 181.264 288.05L186.889 289.328C190.127 290.031 192.982 290.969 195.454 292.141C197.947 293.312 200.035 294.708 201.718 296.327C203.423 297.947 204.712 299.811 205.585 301.92C206.459 304.03 206.906 306.395 206.928 309.016C206.906 313.149 205.862 316.697 203.796 319.658C201.729 322.62 198.757 324.889 194.879 326.466C191.022 328.043 186.367 328.831 180.912 328.831C175.436 328.831 170.663 328.011 166.594 326.37C162.524 324.729 159.36 322.236 157.102 318.891C154.843 315.546 153.682 311.317 153.618 306.203H168.767C168.895 308.312 169.46 310.07 170.461 311.477C171.462 312.883 172.837 313.948 174.584 314.673C176.352 315.397 178.398 315.759 180.72 315.759C182.851 315.759 184.662 315.472 186.154 314.896C187.666 314.321 188.828 313.522 189.637 312.499C190.447 311.477 190.862 310.305 190.884 308.984C190.862 307.748 190.479 306.693 189.733 305.82C188.987 304.925 187.837 304.158 186.281 303.518C184.747 302.858 182.787 302.251 180.401 301.697L173.561 300.099C167.894 298.799 163.43 296.7 160.17 293.803C156.91 290.884 155.291 286.942 155.312 281.977C155.291 277.929 156.377 274.381 158.572 271.335C160.766 268.288 163.803 265.912 167.681 264.207C171.558 262.503 175.98 261.651 180.944 261.651C186.015 261.651 190.415 262.513 194.144 264.239C197.894 265.944 200.802 268.341 202.869 271.43C204.935 274.52 205.99 278.099 206.033 282.169H190.884ZM237.833 328.927C232.677 328.927 228.245 327.872 224.538 325.763C220.852 323.632 218.007 320.67 216.004 316.878C214.023 313.064 213.032 308.643 213.032 303.614C213.032 298.565 214.023 294.143 216.004 290.351C218.007 286.537 220.852 283.575 224.538 281.466C228.245 279.335 232.677 278.27 237.833 278.27C242.989 278.27 247.411 279.335 251.097 281.466C254.804 283.575 257.649 286.537 259.63 290.351C261.633 294.143 262.634 298.565 262.634 303.614C262.634 308.643 261.633 313.064 259.63 316.878C257.649 320.67 254.804 323.632 251.097 325.763C247.411 327.872 242.989 328.927 237.833 328.927ZM237.929 317.134C239.804 317.134 241.391 316.558 242.691 315.408C243.991 314.257 244.982 312.659 245.663 310.614C246.367 308.568 246.718 306.203 246.718 303.518C246.718 300.791 246.367 298.405 245.663 296.359C244.982 294.314 243.991 292.716 242.691 291.565C241.391 290.415 239.804 289.839 237.929 289.839C235.99 289.839 234.35 290.415 233.007 291.565C231.686 292.716 230.674 294.314 229.971 296.359C229.289 298.405 228.948 300.791 228.948 303.518C228.948 306.203 229.289 308.568 229.971 310.614C230.674 312.659 231.686 314.257 233.007 315.408C234.35 316.558 235.99 317.134 237.929 317.134ZM293.556 328.927C288.4 328.927 283.968 327.872 280.26 325.763C276.574 323.632 273.73 320.67 271.727 316.878C269.745 313.064 268.755 308.643 268.755 303.614C268.755 298.565 269.745 294.143 271.727 290.351C273.73 286.537 276.574 283.575 280.26 281.466C283.968 279.335 288.4 278.27 293.556 278.27C298.712 278.27 303.133 279.335 306.819 281.466C310.527 283.575 313.371 286.537 315.353 290.351C317.356 294.143 318.357 298.565 318.357 303.614C318.357 308.643 317.356 313.064 315.353 316.878C313.371 320.67 310.527 323.632 306.819 325.763C303.133 327.872 298.712 328.927 293.556 328.927ZM293.652 317.134C295.527 317.134 297.114 316.558 298.414 315.408C299.714 314.257 300.704 312.659 301.386 310.614C302.089 308.568 302.441 306.203 302.441 303.518C302.441 300.791 302.089 298.405 301.386 296.359C300.704 294.314 299.714 292.716 298.414 291.565C297.114 290.415 295.527 289.839 293.652 289.839C291.713 289.839 290.072 290.415 288.73 291.565C287.409 292.716 286.397 294.314 285.694 296.359C285.012 298.405 284.671 300.791 284.671 303.518C284.671 306.203 285.012 308.568 285.694 310.614C286.397 312.659 287.409 314.257 288.73 315.408C290.072 316.558 291.713 317.134 293.652 317.134ZM341.992 300.003V328H326.363V278.909H341.225V287.922H341.768C342.855 284.918 344.708 282.563 347.329 280.859C349.95 279.133 353.071 278.27 356.693 278.27C360.145 278.27 363.139 279.048 365.674 280.603C368.231 282.137 370.212 284.289 371.619 287.059C373.046 289.808 373.749 293.025 373.728 296.711V328H358.1V299.779C358.121 297.052 357.428 294.921 356.022 293.387C354.637 291.853 352.709 291.086 350.237 291.086C348.597 291.086 347.148 291.448 345.891 292.173C344.655 292.876 343.696 293.888 343.014 295.209C342.354 296.53 342.013 298.128 341.992 300.003Z" fill="white"/>
</svg>
