<svg width="1920" height="1080" viewBox="0 0 1920 1080" fill="none" xmlns="http://www.w3.org/2000/svg">
<g clip-path="url(#clip0)">
<rect width="1920" height="1080" fill="white"/>
<rect width="1920" height="1080" fill="#6CABDD"/>
<g clip-path="url(#clip1)">
<path d="M24.9621 925.018L74.1764 953.411V1010.2L24.9621 1038.59L-24.2143 1010.2V953.411L24.9621 925.018ZM-16.6429 957.764V1005.84L24.9621 1029.84L66.605 1005.81V957.764L24.9621 933.763L-16.6429 957.764ZM-28 946.786L21.1386 918.393V890H13.5671V914.039L-28 938.041V946.748V946.786ZM-28 1016.82L21.1386 1045.21V1075.5H13.5671V1049.57L-28 1025.57V1016.86V1016.82ZM28.7857 890V918.393L77.9621 946.786H78V938.041H77.9621L36.3571 914.039V890H28.7857ZM28.7857 1075.5V1045.21L77.9621 1016.82H78V1025.57H77.9621L36.3571 1049.57V1075.5H28.7857Z" fill="white" fill-opacity="0.05"/>
</g>
<g clip-path="url(#clip2)">
<path d="M24.9621 740.018L74.1764 768.411V825.196L24.9621 853.589L-24.2143 825.196V768.411L24.9621 740.018ZM-16.6429 772.764V820.843L24.9621 844.844L66.605 820.805V772.764L24.9621 748.763L-16.6429 772.764ZM-28 761.786L21.1386 733.393V705H13.5671V729.039L-28 753.041V761.748V761.786ZM-28 831.821L21.1386 860.214V890.5H13.5671V864.568L-28 840.566V831.859V831.821ZM28.7857 705V733.393L77.9621 761.786H78V753.041H77.9621L36.3571 729.039V705H28.7857ZM28.7857 890.5V860.214L77.9621 831.821H78V840.566H77.9621L36.3571 864.568V890.5H28.7857Z" fill="white" fill-opacity="0.05"/>
</g>
<g clip-path="url(#clip3)">
<path d="M24.9621 555.018L74.1764 583.411V640.196L24.9621 668.589L-24.2143 640.196V583.411L24.9621 555.018ZM-16.6429 587.764V635.843L24.9621 659.844L66.605 635.805V587.764L24.9621 563.763L-16.6429 587.764ZM-28 576.786L21.1386 548.393V520H13.5671V544.039L-28 568.041V576.748V576.786ZM-28 646.821L21.1386 675.214V705.5H13.5671V679.568L-28 655.566V646.859V646.821ZM28.7857 520V548.393L77.9621 576.786H78V568.041H77.9621L36.3571 544.039V520H28.7857ZM28.7857 705.5V675.214L77.9621 646.821H78V655.566H77.9621L36.3571 679.568V705.5H28.7857Z" fill="white" fill-opacity="0.05"/>
</g>
<g clip-path="url(#clip4)">
<path d="M24.9621 370.018L74.1764 398.411V455.196L24.9621 483.589L-24.2143 455.196V398.411L24.9621 370.018ZM-16.6429 402.764V450.843L24.9621 474.844L66.605 450.805V402.764L24.9621 378.763L-16.6429 402.764ZM-28 391.786L21.1386 363.393V335H13.5671V359.039L-28 383.041V391.748V391.786ZM-28 461.821L21.1386 490.214V520.5H13.5671V494.568L-28 470.566V461.859V461.821ZM28.7857 335V363.393L77.9621 391.786H78V383.041H77.9621L36.3571 359.039V335H28.7857ZM28.7857 520.5V490.214L77.9621 461.821H78V470.566H77.9621L36.3571 494.568V520.5H28.7857Z" fill="white" fill-opacity="0.05"/>
</g>
<g clip-path="url(#clip5)">
<path d="M24.9621 185.018L74.1764 213.411V270.196L24.9621 298.589L-24.2143 270.196V213.411L24.9621 185.018ZM-16.6429 217.764V265.843L24.9621 289.844L66.605 265.805V217.764L24.9621 193.763L-16.6429 217.764ZM-28 206.786L21.1386 178.393V150H13.5671V174.039L-28 198.041V206.748V206.786ZM-28 276.821L21.1386 305.214V335.5H13.5671V309.568L-28 285.566V276.859V276.821ZM28.7857 150V178.393L77.9621 206.786H78V198.041H77.9621L36.3571 174.039V150H28.7857ZM28.7857 335.5V305.214L77.9621 276.821H78V285.566H77.9621L36.3571 309.568V335.5H28.7857Z" fill="white" fill-opacity="0.05"/>
</g>
<g clip-path="url(#clip6)">
<path d="M24.9621 0.0178581L74.1764 28.4107V85.1964L24.9621 113.589L-24.2143 85.1964V28.4107L24.9621 0.0178581ZM-16.6429 32.7643V80.8429L24.9621 104.844L66.605 80.805V32.7643L24.9621 8.76286L-16.6429 32.7643ZM-28 21.7857L21.1386 -6.60714V-35H13.5671V-10.9607L-28 13.0407V21.7479V21.7857ZM-28 91.8214L21.1386 120.214V150.5H13.5671V124.568L-28 100.566V91.8593V91.8214ZM28.7857 -35V-6.60714L77.9621 21.7857H78V13.0407H77.9621L36.3571 -10.9607V-35H28.7857ZM28.7857 150.5V120.214L77.9621 91.8214H78V100.566H77.9621L36.3571 124.568V150.5H28.7857Z" fill="white" fill-opacity="0.05"/>
</g>
<g clip-path="url(#clip7)">
<path d="M130.962 925.018L180.176 953.411V1010.2L130.962 1038.59L81.7857 1010.2V953.411L130.962 925.018ZM89.3571 957.764V1005.84L130.962 1029.84L172.605 1005.81V957.764L130.962 933.763L89.3571 957.764ZM78 946.786L127.139 918.393V890H119.567V914.039L78 938.041V946.748V946.786ZM78 1016.82L127.139 1045.21V1075.5H119.567V1049.57L78 1025.57V1016.86V1016.82ZM134.786 890V918.393L183.962 946.786H184V938.041H183.962L142.357 914.039V890H134.786ZM134.786 1075.5V1045.21L183.962 1016.82H184V1025.57H183.962L142.357 1049.57V1075.5H134.786Z" fill="white" fill-opacity="0.05"/>
</g>
<g clip-path="url(#clip8)">
<path d="M130.962 740.018L180.176 768.411V825.196L130.962 853.589L81.7857 825.196V768.411L130.962 740.018ZM89.3571 772.764V820.843L130.962 844.844L172.605 820.805V772.764L130.962 748.763L89.3571 772.764ZM78 761.786L127.139 733.393V705H119.567V729.039L78 753.041V761.748V761.786ZM78 831.821L127.139 860.214V890.5H119.567V864.568L78 840.566V831.859V831.821ZM134.786 705V733.393L183.962 761.786H184V753.041H183.962L142.357 729.039V705H134.786ZM134.786 890.5V860.214L183.962 831.821H184V840.566H183.962L142.357 864.568V890.5H134.786Z" fill="white" fill-opacity="0.05"/>
</g>
<g clip-path="url(#clip9)">
<path d="M130.962 555.018L180.176 583.411V640.196L130.962 668.589L81.7857 640.196V583.411L130.962 555.018ZM89.3571 587.764V635.843L130.962 659.844L172.605 635.805V587.764L130.962 563.763L89.3571 587.764ZM78 576.786L127.139 548.393V520H119.567V544.039L78 568.041V576.748V576.786ZM78 646.821L127.139 675.214V705.5H119.567V679.568L78 655.566V646.859V646.821ZM134.786 520V548.393L183.962 576.786H184V568.041H183.962L142.357 544.039V520H134.786ZM134.786 705.5V675.214L183.962 646.821H184V655.566H183.962L142.357 679.568V705.5H134.786Z" fill="white" fill-opacity="0.05"/>
</g>
<g clip-path="url(#clip10)">
<path d="M130.962 370.018L180.176 398.411V455.196L130.962 483.589L81.7857 455.196V398.411L130.962 370.018ZM89.3571 402.764V450.843L130.962 474.844L172.605 450.805V402.764L130.962 378.763L89.3571 402.764ZM78 391.786L127.139 363.393V335H119.567V359.039L78 383.041V391.748V391.786ZM78 461.821L127.139 490.214V520.5H119.567V494.568L78 470.566V461.859V461.821ZM134.786 335V363.393L183.962 391.786H184V383.041H183.962L142.357 359.039V335H134.786ZM134.786 520.5V490.214L183.962 461.821H184V470.566H183.962L142.357 494.568V520.5H134.786Z" fill="white" fill-opacity="0.05"/>
</g>
<g clip-path="url(#clip11)">
<path d="M130.962 185.018L180.176 213.411V270.196L130.962 298.589L81.7857 270.196V213.411L130.962 185.018ZM89.3571 217.764V265.843L130.962 289.844L172.605 265.805V217.764L130.962 193.763L89.3571 217.764ZM78 206.786L127.139 178.393V150H119.567V174.039L78 198.041V206.748V206.786ZM78 276.821L127.139 305.214V335.5H119.567V309.568L78 285.566V276.859V276.821ZM134.786 150V178.393L183.962 206.786H184V198.041H183.962L142.357 174.039V150H134.786ZM134.786 335.5V305.214L183.962 276.821H184V285.566H183.962L142.357 309.568V335.5H134.786Z" fill="white" fill-opacity="0.05"/>
</g>
<g clip-path="url(#clip12)">
<path d="M130.962 0.0178581L180.176 28.4107V85.1964L130.962 113.589L81.7857 85.1964V28.4107L130.962 0.0178581ZM89.3571 32.7643V80.8429L130.962 104.844L172.605 80.805V32.7643L130.962 8.76286L89.3571 32.7643ZM78 21.7857L127.139 -6.60714V-35H119.567V-10.9607L78 13.0407V21.7479V21.7857ZM78 91.8214L127.139 120.214V150.5H119.567V124.568L78 100.566V91.8593V91.8214ZM134.786 -35V-6.60714L183.962 21.7857H184V13.0407H183.962L142.357 -10.9607V-35H134.786ZM134.786 150.5V120.214L183.962 91.8214H184V100.566H183.962L142.357 124.568V150.5H134.786Z" fill="white" fill-opacity="0.05"/>
</g>
<g clip-path="url(#clip13)">
<path d="M236.962 925.018L286.176 953.411V1010.2L236.962 1038.59L187.786 1010.2V953.411L236.962 925.018ZM195.357 957.764V1005.84L236.962 1029.84L278.605 1005.81V957.764L236.962 933.763L195.357 957.764ZM184 946.786L233.139 918.393V890H225.567V914.039L184 938.041V946.748V946.786ZM184 1016.82L233.139 1045.21V1075.5H225.567V1049.57L184 1025.57V1016.86V1016.82ZM240.786 890V918.393L289.962 946.786H290V938.041H289.962L248.357 914.039V890H240.786ZM240.786 1075.5V1045.21L289.962 1016.82H290V1025.57H289.962L248.357 1049.57V1075.5H240.786Z" fill="white" fill-opacity="0.05"/>
</g>
<g clip-path="url(#clip14)">
<path d="M236.962 740.018L286.176 768.411V825.196L236.962 853.589L187.786 825.196V768.411L236.962 740.018ZM195.357 772.764V820.843L236.962 844.844L278.605 820.805V772.764L236.962 748.763L195.357 772.764ZM184 761.786L233.139 733.393V705H225.567V729.039L184 753.041V761.748V761.786ZM184 831.821L233.139 860.214V890.5H225.567V864.568L184 840.566V831.859V831.821ZM240.786 705V733.393L289.962 761.786H290V753.041H289.962L248.357 729.039V705H240.786ZM240.786 890.5V860.214L289.962 831.821H290V840.566H289.962L248.357 864.568V890.5H240.786Z" fill="white" fill-opacity="0.05"/>
</g>
<g clip-path="url(#clip15)">
<path d="M236.962 555.018L286.176 583.411V640.196L236.962 668.589L187.786 640.196V583.411L236.962 555.018ZM195.357 587.764V635.843L236.962 659.844L278.605 635.805V587.764L236.962 563.763L195.357 587.764ZM184 576.786L233.139 548.393V520H225.567V544.039L184 568.041V576.748V576.786ZM184 646.821L233.139 675.214V705.5H225.567V679.568L184 655.566V646.859V646.821ZM240.786 520V548.393L289.962 576.786H290V568.041H289.962L248.357 544.039V520H240.786ZM240.786 705.5V675.214L289.962 646.821H290V655.566H289.962L248.357 679.568V705.5H240.786Z" fill="white" fill-opacity="0.05"/>
</g>
<g clip-path="url(#clip16)">
<path d="M236.962 370.018L286.176 398.411V455.196L236.962 483.589L187.786 455.196V398.411L236.962 370.018ZM195.357 402.764V450.843L236.962 474.844L278.605 450.805V402.764L236.962 378.763L195.357 402.764ZM184 391.786L233.139 363.393V335H225.567V359.039L184 383.041V391.748V391.786ZM184 461.821L233.139 490.214V520.5H225.567V494.568L184 470.566V461.859V461.821ZM240.786 335V363.393L289.962 391.786H290V383.041H289.962L248.357 359.039V335H240.786ZM240.786 520.5V490.214L289.962 461.821H290V470.566H289.962L248.357 494.568V520.5H240.786Z" fill="white" fill-opacity="0.05"/>
</g>
<g clip-path="url(#clip17)">
<path d="M236.962 185.018L286.176 213.411V270.196L236.962 298.589L187.786 270.196V213.411L236.962 185.018ZM195.357 217.764V265.843L236.962 289.844L278.605 265.805V217.764L236.962 193.763L195.357 217.764ZM184 206.786L233.139 178.393V150H225.567V174.039L184 198.041V206.748V206.786ZM184 276.821L233.139 305.214V335.5H225.567V309.568L184 285.566V276.859V276.821ZM240.786 150V178.393L289.962 206.786H290V198.041H289.962L248.357 174.039V150H240.786ZM240.786 335.5V305.214L289.962 276.821H290V285.566H289.962L248.357 309.568V335.5H240.786Z" fill="white" fill-opacity="0.05"/>
</g>
<g clip-path="url(#clip18)">
<path d="M236.962 0.0178581L286.176 28.4107V85.1964L236.962 113.589L187.786 85.1964V28.4107L236.962 0.0178581ZM195.357 32.7643V80.8429L236.962 104.844L278.605 80.805V32.7643L236.962 8.76286L195.357 32.7643ZM184 21.7857L233.139 -6.60714V-35H225.567V-10.9607L184 13.0407V21.7479V21.7857ZM184 91.8214L233.139 120.214V150.5H225.567V124.568L184 100.566V91.8593V91.8214ZM240.786 -35V-6.60714L289.962 21.7857H290V13.0407H289.962L248.357 -10.9607V-35H240.786ZM240.786 150.5V120.214L289.962 91.8214H290V100.566H289.962L248.357 124.568V150.5H240.786Z" fill="white" fill-opacity="0.05"/>
</g>
<g clip-path="url(#clip19)">
<path d="M342.962 925.018L392.176 953.411V1010.2L342.962 1038.59L293.786 1010.2V953.411L342.962 925.018ZM301.357 957.764V1005.84L342.962 1029.84L384.605 1005.81V957.764L342.962 933.763L301.357 957.764ZM290 946.786L339.139 918.393V890H331.567V914.039L290 938.041V946.748V946.786ZM290 1016.82L339.139 1045.21V1075.5H331.567V1049.57L290 1025.57V1016.86V1016.82ZM346.786 890V918.393L395.962 946.786H396V938.041H395.962L354.357 914.039V890H346.786ZM346.786 1075.5V1045.21L395.962 1016.82H396V1025.57H395.962L354.357 1049.57V1075.5H346.786Z" fill="white" fill-opacity="0.05"/>
</g>
<g clip-path="url(#clip20)">
<path d="M342.962 740.018L392.176 768.411V825.196L342.962 853.589L293.786 825.196V768.411L342.962 740.018ZM301.357 772.764V820.843L342.962 844.844L384.605 820.805V772.764L342.962 748.763L301.357 772.764ZM290 761.786L339.139 733.393V705H331.567V729.039L290 753.041V761.748V761.786ZM290 831.821L339.139 860.214V890.5H331.567V864.568L290 840.566V831.859V831.821ZM346.786 705V733.393L395.962 761.786H396V753.041H395.962L354.357 729.039V705H346.786ZM346.786 890.5V860.214L395.962 831.821H396V840.566H395.962L354.357 864.568V890.5H346.786Z" fill="white" fill-opacity="0.05"/>
</g>
<g clip-path="url(#clip21)">
<path d="M342.962 555.018L392.176 583.411V640.196L342.962 668.589L293.786 640.196V583.411L342.962 555.018ZM301.357 587.764V635.843L342.962 659.844L384.605 635.805V587.764L342.962 563.763L301.357 587.764ZM290 576.786L339.139 548.393V520H331.567V544.039L290 568.041V576.748V576.786ZM290 646.821L339.139 675.214V705.5H331.567V679.568L290 655.566V646.859V646.821ZM346.786 520V548.393L395.962 576.786H396V568.041H395.962L354.357 544.039V520H346.786ZM346.786 705.5V675.214L395.962 646.821H396V655.566H395.962L354.357 679.568V705.5H346.786Z" fill="white" fill-opacity="0.05"/>
</g>
<g clip-path="url(#clip22)">
<path d="M342.962 370.018L392.176 398.411V455.196L342.962 483.589L293.786 455.196V398.411L342.962 370.018ZM301.357 402.764V450.843L342.962 474.844L384.605 450.805V402.764L342.962 378.763L301.357 402.764ZM290 391.786L339.139 363.393V335H331.567V359.039L290 383.041V391.748V391.786ZM290 461.821L339.139 490.214V520.5H331.567V494.568L290 470.566V461.859V461.821ZM346.786 335V363.393L395.962 391.786H396V383.041H395.962L354.357 359.039V335H346.786ZM346.786 520.5V490.214L395.962 461.821H396V470.566H395.962L354.357 494.568V520.5H346.786Z" fill="white" fill-opacity="0.05"/>
</g>
<g clip-path="url(#clip23)">
<path d="M342.962 185.018L392.176 213.411V270.196L342.962 298.589L293.786 270.196V213.411L342.962 185.018ZM301.357 217.764V265.843L342.962 289.844L384.605 265.805V217.764L342.962 193.763L301.357 217.764ZM290 206.786L339.139 178.393V150H331.567V174.039L290 198.041V206.748V206.786ZM290 276.821L339.139 305.214V335.5H331.567V309.568L290 285.566V276.859V276.821ZM346.786 150V178.393L395.962 206.786H396V198.041H395.962L354.357 174.039V150H346.786ZM346.786 335.5V305.214L395.962 276.821H396V285.566H395.962L354.357 309.568V335.5H346.786Z" fill="white" fill-opacity="0.05"/>
</g>
<g clip-path="url(#clip24)">
<path d="M342.962 0.0178581L392.176 28.4107V85.1964L342.962 113.589L293.786 85.1964V28.4107L342.962 0.0178581ZM301.357 32.7643V80.8429L342.962 104.844L384.605 80.805V32.7643L342.962 8.76286L301.357 32.7643ZM290 21.7857L339.139 -6.60714V-35H331.567V-10.9607L290 13.0407V21.7479V21.7857ZM290 91.8214L339.139 120.214V150.5H331.567V124.568L290 100.566V91.8593V91.8214ZM346.786 -35V-6.60714L395.962 21.7857H396V13.0407H395.962L354.357 -10.9607V-35H346.786ZM346.786 150.5V120.214L395.962 91.8214H396V100.566H395.962L354.357 124.568V150.5H346.786Z" fill="white" fill-opacity="0.05"/>
</g>
<g clip-path="url(#clip25)">
<path d="M448.962 925.018L498.176 953.411V1010.2L448.962 1038.59L399.786 1010.2V953.411L448.962 925.018ZM407.357 957.764V1005.84L448.962 1029.84L490.605 1005.81V957.764L448.962 933.763L407.357 957.764ZM396 946.786L445.139 918.393V890H437.567V914.039L396 938.041V946.748V946.786ZM396 1016.82L445.139 1045.21V1075.5H437.567V1049.57L396 1025.57V1016.86V1016.82ZM452.786 890V918.393L501.962 946.786H502V938.041H501.962L460.357 914.039V890H452.786ZM452.786 1075.5V1045.21L501.962 1016.82H502V1025.57H501.962L460.357 1049.57V1075.5H452.786Z" fill="white" fill-opacity="0.05"/>
</g>
<g clip-path="url(#clip26)">
<path d="M448.962 740.018L498.176 768.411V825.196L448.962 853.589L399.786 825.196V768.411L448.962 740.018ZM407.357 772.764V820.843L448.962 844.844L490.605 820.805V772.764L448.962 748.763L407.357 772.764ZM396 761.786L445.139 733.393V705H437.567V729.039L396 753.041V761.748V761.786ZM396 831.821L445.139 860.214V890.5H437.567V864.568L396 840.566V831.859V831.821ZM452.786 705V733.393L501.962 761.786H502V753.041H501.962L460.357 729.039V705H452.786ZM452.786 890.5V860.214L501.962 831.821H502V840.566H501.962L460.357 864.568V890.5H452.786Z" fill="white" fill-opacity="0.05"/>
</g>
<g clip-path="url(#clip27)">
<path d="M448.962 555.018L498.176 583.411V640.196L448.962 668.589L399.786 640.196V583.411L448.962 555.018ZM407.357 587.764V635.843L448.962 659.844L490.605 635.805V587.764L448.962 563.763L407.357 587.764ZM396 576.786L445.139 548.393V520H437.567V544.039L396 568.041V576.748V576.786ZM396 646.821L445.139 675.214V705.5H437.567V679.568L396 655.566V646.859V646.821ZM452.786 520V548.393L501.962 576.786H502V568.041H501.962L460.357 544.039V520H452.786ZM452.786 705.5V675.214L501.962 646.821H502V655.566H501.962L460.357 679.568V705.5H452.786Z" fill="white" fill-opacity="0.05"/>
</g>
<g clip-path="url(#clip28)">
<path d="M448.962 370.018L498.176 398.411V455.196L448.962 483.589L399.786 455.196V398.411L448.962 370.018ZM407.357 402.764V450.843L448.962 474.844L490.605 450.805V402.764L448.962 378.763L407.357 402.764ZM396 391.786L445.139 363.393V335H437.567V359.039L396 383.041V391.748V391.786ZM396 461.821L445.139 490.214V520.5H437.567V494.568L396 470.566V461.859V461.821ZM452.786 335V363.393L501.962 391.786H502V383.041H501.962L460.357 359.039V335H452.786ZM452.786 520.5V490.214L501.962 461.821H502V470.566H501.962L460.357 494.568V520.5H452.786Z" fill="white" fill-opacity="0.05"/>
</g>
<g clip-path="url(#clip29)">
<path d="M448.962 185.018L498.176 213.411V270.196L448.962 298.589L399.786 270.196V213.411L448.962 185.018ZM407.357 217.764V265.843L448.962 289.844L490.605 265.805V217.764L448.962 193.763L407.357 217.764ZM396 206.786L445.139 178.393V150H437.567V174.039L396 198.041V206.748V206.786ZM396 276.821L445.139 305.214V335.5H437.567V309.568L396 285.566V276.859V276.821ZM452.786 150V178.393L501.962 206.786H502V198.041H501.962L460.357 174.039V150H452.786ZM452.786 335.5V305.214L501.962 276.821H502V285.566H501.962L460.357 309.568V335.5H452.786Z" fill="white" fill-opacity="0.05"/>
</g>
<g clip-path="url(#clip30)">
<path d="M448.962 0.0178581L498.176 28.4107V85.1964L448.962 113.589L399.786 85.1964V28.4107L448.962 0.0178581ZM407.357 32.7643V80.8429L448.962 104.844L490.605 80.805V32.7643L448.962 8.76286L407.357 32.7643ZM396 21.7857L445.139 -6.60714V-35H437.567V-10.9607L396 13.0407V21.7479V21.7857ZM396 91.8214L445.139 120.214V150.5H437.567V124.568L396 100.566V91.8593V91.8214ZM452.786 -35V-6.60714L501.962 21.7857H502V13.0407H501.962L460.357 -10.9607V-35H452.786ZM452.786 150.5V120.214L501.962 91.8214H502V100.566H501.962L460.357 124.568V150.5H452.786Z" fill="white" fill-opacity="0.05"/>
</g>
<g clip-path="url(#clip31)">
<path d="M554.962 925.018L604.176 953.411V1010.2L554.962 1038.59L505.786 1010.2V953.411L554.962 925.018ZM513.357 957.764V1005.84L554.962 1029.84L596.605 1005.81V957.764L554.962 933.763L513.357 957.764ZM502 946.786L551.139 918.393V890H543.567V914.039L502 938.041V946.748V946.786ZM502 1016.82L551.139 1045.21V1075.5H543.567V1049.57L502 1025.57V1016.86V1016.82ZM558.786 890V918.393L607.962 946.786H608V938.041H607.962L566.357 914.039V890H558.786ZM558.786 1075.5V1045.21L607.962 1016.82H608V1025.57H607.962L566.357 1049.57V1075.5H558.786Z" fill="white" fill-opacity="0.05"/>
</g>
<g clip-path="url(#clip32)">
<path d="M554.962 740.018L604.176 768.411V825.196L554.962 853.589L505.786 825.196V768.411L554.962 740.018ZM513.357 772.764V820.843L554.962 844.844L596.605 820.805V772.764L554.962 748.763L513.357 772.764ZM502 761.786L551.139 733.393V705H543.567V729.039L502 753.041V761.748V761.786ZM502 831.821L551.139 860.214V890.5H543.567V864.568L502 840.566V831.859V831.821ZM558.786 705V733.393L607.962 761.786H608V753.041H607.962L566.357 729.039V705H558.786ZM558.786 890.5V860.214L607.962 831.821H608V840.566H607.962L566.357 864.568V890.5H558.786Z" fill="white" fill-opacity="0.05"/>
</g>
<g clip-path="url(#clip33)">
<path d="M554.962 555.018L604.176 583.411V640.196L554.962 668.589L505.786 640.196V583.411L554.962 555.018ZM513.357 587.764V635.843L554.962 659.844L596.605 635.805V587.764L554.962 563.763L513.357 587.764ZM502 576.786L551.139 548.393V520H543.567V544.039L502 568.041V576.748V576.786ZM502 646.821L551.139 675.214V705.5H543.567V679.568L502 655.566V646.859V646.821ZM558.786 520V548.393L607.962 576.786H608V568.041H607.962L566.357 544.039V520H558.786ZM558.786 705.5V675.214L607.962 646.821H608V655.566H607.962L566.357 679.568V705.5H558.786Z" fill="white" fill-opacity="0.05"/>
</g>
<g clip-path="url(#clip34)">
<path d="M554.962 370.018L604.176 398.411V455.196L554.962 483.589L505.786 455.196V398.411L554.962 370.018ZM513.357 402.764V450.843L554.962 474.844L596.605 450.805V402.764L554.962 378.763L513.357 402.764ZM502 391.786L551.139 363.393V335H543.567V359.039L502 383.041V391.748V391.786ZM502 461.821L551.139 490.214V520.5H543.567V494.568L502 470.566V461.859V461.821ZM558.786 335V363.393L607.962 391.786H608V383.041H607.962L566.357 359.039V335H558.786ZM558.786 520.5V490.214L607.962 461.821H608V470.566H607.962L566.357 494.568V520.5H558.786Z" fill="white" fill-opacity="0.05"/>
</g>
<g clip-path="url(#clip35)">
<path d="M554.962 185.018L604.176 213.411V270.196L554.962 298.589L505.786 270.196V213.411L554.962 185.018ZM513.357 217.764V265.843L554.962 289.844L596.605 265.805V217.764L554.962 193.763L513.357 217.764ZM502 206.786L551.139 178.393V150H543.567V174.039L502 198.041V206.748V206.786ZM502 276.821L551.139 305.214V335.5H543.567V309.568L502 285.566V276.859V276.821ZM558.786 150V178.393L607.962 206.786H608V198.041H607.962L566.357 174.039V150H558.786ZM558.786 335.5V305.214L607.962 276.821H608V285.566H607.962L566.357 309.568V335.5H558.786Z" fill="white" fill-opacity="0.05"/>
</g>
<g clip-path="url(#clip36)">
<path d="M554.962 0.0178581L604.176 28.4107V85.1964L554.962 113.589L505.786 85.1964V28.4107L554.962 0.0178581ZM513.357 32.7643V80.8429L554.962 104.844L596.605 80.805V32.7643L554.962 8.76286L513.357 32.7643ZM502 21.7857L551.139 -6.60714V-35H543.567V-10.9607L502 13.0407V21.7479V21.7857ZM502 91.8214L551.139 120.214V150.5H543.567V124.568L502 100.566V91.8593V91.8214ZM558.786 -35V-6.60714L607.962 21.7857H608V13.0407H607.962L566.357 -10.9607V-35H558.786ZM558.786 150.5V120.214L607.962 91.8214H608V100.566H607.962L566.357 124.568V150.5H558.786Z" fill="white" fill-opacity="0.05"/>
</g>
<g clip-path="url(#clip37)">
<path d="M660.962 925.018L710.176 953.411V1010.2L660.962 1038.59L611.786 1010.2V953.411L660.962 925.018ZM619.357 957.764V1005.84L660.962 1029.84L702.605 1005.81V957.764L660.962 933.763L619.357 957.764ZM608 946.786L657.139 918.393V890H649.567V914.039L608 938.041V946.748V946.786ZM608 1016.82L657.139 1045.21V1075.5H649.567V1049.57L608 1025.57V1016.86V1016.82ZM664.786 890V918.393L713.962 946.786H714V938.041H713.962L672.357 914.039V890H664.786ZM664.786 1075.5V1045.21L713.962 1016.82H714V1025.57H713.962L672.357 1049.57V1075.5H664.786Z" fill="white" fill-opacity="0.05"/>
</g>
<g clip-path="url(#clip38)">
<path d="M660.962 740.018L710.176 768.411V825.196L660.962 853.589L611.786 825.196V768.411L660.962 740.018ZM619.357 772.764V820.843L660.962 844.844L702.605 820.805V772.764L660.962 748.763L619.357 772.764ZM608 761.786L657.139 733.393V705H649.567V729.039L608 753.041V761.748V761.786ZM608 831.821L657.139 860.214V890.5H649.567V864.568L608 840.566V831.859V831.821ZM664.786 705V733.393L713.962 761.786H714V753.041H713.962L672.357 729.039V705H664.786ZM664.786 890.5V860.214L713.962 831.821H714V840.566H713.962L672.357 864.568V890.5H664.786Z" fill="white" fill-opacity="0.05"/>
</g>
<g clip-path="url(#clip39)">
<path d="M660.962 555.018L710.176 583.411V640.196L660.962 668.589L611.786 640.196V583.411L660.962 555.018ZM619.357 587.764V635.843L660.962 659.844L702.605 635.805V587.764L660.962 563.763L619.357 587.764ZM608 576.786L657.139 548.393V520H649.567V544.039L608 568.041V576.748V576.786ZM608 646.821L657.139 675.214V705.5H649.567V679.568L608 655.566V646.859V646.821ZM664.786 520V548.393L713.962 576.786H714V568.041H713.962L672.357 544.039V520H664.786ZM664.786 705.5V675.214L713.962 646.821H714V655.566H713.962L672.357 679.568V705.5H664.786Z" fill="white" fill-opacity="0.05"/>
</g>
<g clip-path="url(#clip40)">
<path d="M660.962 370.018L710.176 398.411V455.196L660.962 483.589L611.786 455.196V398.411L660.962 370.018ZM619.357 402.764V450.843L660.962 474.844L702.605 450.805V402.764L660.962 378.763L619.357 402.764ZM608 391.786L657.139 363.393V335H649.567V359.039L608 383.041V391.748V391.786ZM608 461.821L657.139 490.214V520.5H649.567V494.568L608 470.566V461.859V461.821ZM664.786 335V363.393L713.962 391.786H714V383.041H713.962L672.357 359.039V335H664.786ZM664.786 520.5V490.214L713.962 461.821H714V470.566H713.962L672.357 494.568V520.5H664.786Z" fill="white" fill-opacity="0.05"/>
</g>
<g clip-path="url(#clip41)">
<path d="M660.962 185.018L710.176 213.411V270.196L660.962 298.589L611.786 270.196V213.411L660.962 185.018ZM619.357 217.764V265.843L660.962 289.844L702.605 265.805V217.764L660.962 193.763L619.357 217.764ZM608 206.786L657.139 178.393V150H649.567V174.039L608 198.041V206.748V206.786ZM608 276.821L657.139 305.214V335.5H649.567V309.568L608 285.566V276.859V276.821ZM664.786 150V178.393L713.962 206.786H714V198.041H713.962L672.357 174.039V150H664.786ZM664.786 335.5V305.214L713.962 276.821H714V285.566H713.962L672.357 309.568V335.5H664.786Z" fill="white" fill-opacity="0.05"/>
</g>
<g clip-path="url(#clip42)">
<path d="M660.962 0.0178581L710.176 28.4107V85.1964L660.962 113.589L611.786 85.1964V28.4107L660.962 0.0178581ZM619.357 32.7643V80.8429L660.962 104.844L702.605 80.805V32.7643L660.962 8.76286L619.357 32.7643ZM608 21.7857L657.139 -6.60714V-35H649.567V-10.9607L608 13.0407V21.7479V21.7857ZM608 91.8214L657.139 120.214V150.5H649.567V124.568L608 100.566V91.8593V91.8214ZM664.786 -35V-6.60714L713.962 21.7857H714V13.0407H713.962L672.357 -10.9607V-35H664.786ZM664.786 150.5V120.214L713.962 91.8214H714V100.566H713.962L672.357 124.568V150.5H664.786Z" fill="white" fill-opacity="0.05"/>
</g>
<path d="M198.676 576H151.632V448.727H198.614C211.582 448.727 222.747 451.275 232.11 456.371C241.515 461.426 248.765 468.717 253.861 478.246C258.957 487.734 261.505 499.085 261.505 512.301C261.505 525.559 258.957 536.952 253.861 546.481C248.806 556.01 241.577 563.322 232.172 568.418C222.768 573.473 211.602 576 198.676 576ZM182.394 549.775H197.495C204.621 549.775 210.649 548.573 215.58 546.17C220.551 543.726 224.301 539.77 226.828 534.301C229.396 528.791 230.681 521.458 230.681 512.301C230.681 503.145 229.396 495.854 226.828 490.426C224.259 484.958 220.468 481.022 215.455 478.619C210.484 476.175 204.352 474.952 197.06 474.952H182.394V549.775ZM324.085 577.802C314.1 577.802 305.482 575.834 298.232 571.898C291.023 567.921 285.472 562.266 281.577 554.933C277.724 547.558 275.798 538.796 275.798 528.646C275.798 518.785 277.745 510.168 281.64 502.793C285.534 495.377 291.023 489.619 298.108 485.517C305.192 481.374 313.541 479.303 323.152 479.303C329.947 479.303 336.161 480.359 341.796 482.472C347.43 484.585 352.298 487.713 356.4 491.856C360.501 495.999 363.692 501.115 365.97 507.206C368.249 513.254 369.388 520.194 369.388 528.024V535.606H286.425V517.957H341.112C341.071 514.725 340.304 511.846 338.813 509.319C337.321 506.791 335.271 504.823 332.661 503.415C330.092 501.965 327.13 501.24 323.774 501.24C320.377 501.24 317.331 502.006 314.638 503.539C311.946 505.031 309.812 507.081 308.238 509.691C306.663 512.26 305.835 515.181 305.752 518.454V536.414C305.752 540.308 306.518 543.726 308.051 546.668C309.584 549.568 311.759 551.826 314.576 553.441C317.394 555.057 320.749 555.865 324.644 555.865C327.337 555.865 329.781 555.492 331.977 554.746C334.173 554.001 336.058 552.903 337.632 551.453C339.206 550.003 340.387 548.221 341.174 546.108L369.077 546.916C367.917 553.172 365.369 558.62 361.434 563.26C357.539 567.859 352.423 571.443 346.084 574.011C339.745 576.539 332.412 577.802 324.085 577.802ZM384.909 576V480.545H413.806V498.07H414.863C416.851 492.27 420.207 487.692 424.93 484.336C429.653 480.98 435.288 479.303 441.834 479.303C448.462 479.303 454.138 481.001 458.861 484.398C463.584 487.796 466.588 492.353 467.872 498.07H468.867C470.648 492.394 474.128 487.858 479.307 484.461C484.486 481.022 490.597 479.303 497.64 479.303C506.671 479.303 514.004 482.203 519.639 488.003C525.273 493.762 528.091 501.675 528.091 511.742V576H497.702V518.702C497.702 513.938 496.48 510.313 494.035 507.827C491.591 505.3 488.421 504.036 484.527 504.036C480.343 504.036 477.049 505.403 474.646 508.138C472.285 510.831 471.104 514.456 471.104 519.013V576H441.896V518.392C441.896 513.959 440.694 510.458 438.291 507.889C435.888 505.321 432.719 504.036 428.783 504.036C426.132 504.036 423.791 504.678 421.761 505.963C419.731 507.206 418.136 508.987 416.976 511.307C415.857 513.627 415.298 516.362 415.298 519.51V576H384.909ZM562.084 611.671C558.438 611.671 554.999 611.381 551.768 610.801C548.536 610.263 545.761 609.538 543.44 608.626L550.152 586.565C554.627 588.015 558.397 588.512 561.462 588.056C564.57 587.642 566.952 585.736 568.609 582.339L569.79 579.48L535.859 480.545H567.677L585.264 548.656H586.258L604.094 480.545L636.098 480.608L600.117 585.135C598.377 590.273 595.911 594.83 592.721 598.807C589.573 602.826 585.492 605.975 580.479 608.253C575.507 610.532 569.376 611.671 562.084 611.671ZM731.087 509.691L703.184 510.437C702.894 508.449 702.107 506.688 700.822 505.155C699.538 503.58 697.86 502.358 695.789 501.488C693.759 500.577 691.397 500.121 688.704 500.121C685.183 500.121 682.179 500.825 679.693 502.234C677.249 503.643 676.047 505.548 676.089 507.951C676.047 509.816 676.793 511.431 678.326 512.799C679.9 514.166 682.697 515.264 686.715 516.092L705.11 519.572C714.639 521.395 721.724 524.42 726.364 528.646C731.045 532.871 733.407 538.464 733.448 545.425C733.407 551.971 731.46 557.667 727.607 562.515C723.795 567.362 718.575 571.132 711.946 573.825C705.318 576.476 697.736 577.802 689.201 577.802C675.571 577.802 664.82 575.006 656.948 569.413C649.118 563.778 644.643 556.238 643.525 546.792L673.541 546.046C674.204 549.526 675.923 552.178 678.699 554.001C681.475 555.824 685.017 556.735 689.326 556.735C693.22 556.735 696.389 556.01 698.834 554.56C701.278 553.11 702.521 551.183 702.562 548.781C702.521 546.626 701.568 544.907 699.704 543.623C697.839 542.297 694.919 541.261 690.941 540.515L674.286 537.346C664.716 535.606 657.59 532.395 652.909 527.713C648.227 522.99 645.907 516.983 645.948 509.691C645.907 503.311 647.606 497.863 651.044 493.347C654.483 488.79 659.372 485.31 665.71 482.907C672.049 480.504 679.527 479.303 688.145 479.303C701.071 479.303 711.263 482.016 718.72 487.444C726.177 492.829 730.3 500.245 731.087 509.691ZM802.289 480.545V502.918H742.071V480.545H802.289ZM754.686 457.676H785.075V545.984C785.075 547.848 785.365 549.361 785.945 550.521C786.567 551.639 787.458 552.447 788.618 552.944C789.778 553.4 791.165 553.628 792.781 553.628C793.941 553.628 795.163 553.524 796.448 553.317C797.774 553.069 798.768 552.861 799.431 552.696L804.029 574.633C802.579 575.047 800.529 575.565 797.877 576.186C795.267 576.808 792.139 577.201 788.493 577.367C781.367 577.699 775.256 576.87 770.161 574.881C765.106 572.851 761.232 569.703 758.539 565.435C755.888 561.168 754.604 555.803 754.686 549.34V457.676ZM817.795 576V480.545H848.183V576H817.795ZM833.082 469.422C828.773 469.422 825.086 468.013 822.02 465.196C818.955 462.337 817.422 458.898 817.422 454.88C817.422 450.902 818.955 447.505 822.02 444.688C825.086 441.829 828.753 440.4 833.02 440.4C837.329 440.4 840.995 441.829 844.02 444.688C847.086 447.505 848.618 450.902 848.618 454.88C848.618 458.898 847.086 462.337 844.02 465.196C840.995 468.013 837.349 469.422 833.082 469.422ZM921.779 480.545V502.918H860.379V480.545H921.779ZM873.181 576V475.698C873.181 468.324 874.569 462.213 877.345 457.365C880.121 452.477 883.974 448.831 888.904 446.428C893.834 443.984 899.531 442.761 905.994 442.761C910.22 442.761 914.197 443.093 917.926 443.756C921.696 444.377 924.492 444.936 926.315 445.434L921.468 467.681C920.349 467.309 918.982 466.998 917.366 466.749C915.792 466.501 914.3 466.376 912.892 466.376C909.329 466.376 906.884 467.164 905.559 468.738C904.233 470.312 903.57 472.467 903.57 475.201V576H873.181ZM954.979 611.671C951.334 611.671 947.895 611.381 944.663 610.801C941.432 610.263 938.656 609.538 936.336 608.626L943.048 586.565C947.522 588.015 951.292 588.512 954.358 588.056C957.465 587.642 959.847 585.736 961.505 582.339L962.685 579.48L928.754 480.545H960.572L978.159 548.656H979.154L996.989 480.545L1028.99 480.608L993.012 585.135C991.272 590.273 988.807 594.83 985.617 598.807C982.468 602.826 978.387 605.975 973.374 608.253C968.403 610.532 962.271 611.671 954.979 611.671ZM1040.65 576V480.545H1071.03V576H1040.65ZM1055.93 469.422C1051.63 469.422 1047.94 468.013 1044.87 465.196C1041.81 462.337 1040.27 458.898 1040.27 454.88C1040.27 450.902 1041.81 447.505 1044.87 444.688C1047.94 441.829 1051.6 440.4 1055.87 440.4C1060.18 440.4 1063.85 441.829 1066.87 444.688C1069.94 447.505 1071.47 450.902 1071.47 454.88C1071.47 458.898 1069.94 462.337 1066.87 465.196C1063.85 468.013 1060.2 469.422 1055.93 469.422ZM1120.77 521.561V576H1090.38V480.545H1119.27V498.07H1120.33C1122.44 492.229 1126.05 487.651 1131.14 484.336C1136.24 480.98 1142.31 479.303 1149.35 479.303C1156.06 479.303 1161.89 480.815 1166.82 483.839C1171.79 486.822 1175.64 491.007 1178.37 496.392C1181.15 501.737 1182.52 507.993 1182.48 515.16V576H1152.09V521.126C1152.13 515.823 1150.78 511.68 1148.05 508.697C1145.36 505.714 1141.61 504.223 1136.8 504.223C1133.61 504.223 1130.79 504.927 1128.35 506.336C1125.95 507.703 1124.08 509.671 1122.76 512.239C1121.47 514.808 1120.81 517.915 1120.77 521.561ZM1245.79 612.976C1236.71 612.976 1228.95 611.733 1222.48 609.248C1216.02 606.762 1210.94 603.364 1207.26 599.056C1203.57 594.788 1201.35 590.003 1200.61 584.7L1229.38 583.085C1229.92 584.783 1230.91 586.295 1232.36 587.621C1233.85 588.947 1235.78 589.983 1238.14 590.728C1240.55 591.516 1243.36 591.909 1246.59 591.909C1251.69 591.909 1255.9 590.708 1259.21 588.305C1262.57 585.902 1264.24 581.842 1264.24 576.124V559.345H1263.19C1261.99 562.287 1260.16 564.917 1257.72 567.238C1255.27 569.558 1252.23 571.381 1248.58 572.706C1244.98 574.032 1240.84 574.695 1236.15 574.695C1229.19 574.695 1222.81 573.079 1217.01 569.848C1211.25 566.575 1206.64 561.52 1203.16 554.684C1199.72 547.807 1198 538.962 1198 528.148C1198 517.004 1199.78 507.827 1203.34 500.618C1206.9 493.368 1211.57 488.003 1217.32 484.523C1223.12 481.043 1229.36 479.303 1236.03 479.303C1241.04 479.303 1245.33 480.173 1248.89 481.913C1252.5 483.611 1255.46 485.807 1257.78 488.5C1260.1 491.193 1261.86 493.989 1263.06 496.89H1263.93V480.545H1294.2V576.373C1294.2 584.203 1292.17 590.832 1288.11 596.259C1284.05 601.728 1278.37 605.871 1271.08 608.688C1263.79 611.547 1255.36 612.976 1245.79 612.976ZM1246.72 552.571C1250.41 552.571 1253.55 551.598 1256.16 549.651C1258.77 547.703 1260.78 544.907 1262.19 541.261C1263.6 537.615 1264.31 533.244 1264.31 528.148C1264.31 522.97 1263.6 518.516 1262.19 514.787C1260.83 511.017 1258.82 508.117 1256.16 506.087C1253.55 504.057 1250.41 503.042 1246.72 503.042C1242.95 503.042 1239.76 504.078 1237.15 506.149C1234.54 508.221 1232.55 511.141 1231.18 514.912C1229.86 518.64 1229.19 523.053 1229.19 528.148C1229.19 533.244 1229.88 537.615 1231.24 541.261C1232.61 544.907 1234.58 547.703 1237.15 549.651C1239.76 551.598 1242.95 552.571 1246.72 552.571ZM1351.17 576V448.727H1403.74C1413.27 448.727 1421.5 450.447 1428.41 453.885C1435.37 457.283 1440.74 462.171 1444.51 468.551C1448.28 474.89 1450.17 482.41 1450.17 491.11C1450.17 499.935 1448.24 507.433 1444.39 513.607C1440.53 519.738 1435.06 524.42 1427.98 527.651C1420.9 530.841 1412.51 532.436 1402.81 532.436H1369.56V508.2H1397.09C1401.73 508.2 1405.61 507.599 1408.71 506.398C1411.86 505.155 1414.25 503.29 1415.86 500.805C1417.48 498.277 1418.29 495.046 1418.29 491.11C1418.29 487.174 1417.48 483.922 1415.86 481.353C1414.25 478.743 1411.86 476.796 1408.71 475.512C1405.57 474.186 1401.69 473.523 1397.09 473.523H1381.93V576H1351.17ZM1422.82 517.832L1454.52 576H1420.96L1389.88 517.832H1422.82Z" fill="white"/>
<g clip-path="url(#clip43)">
<path d="M766.962 925.018L816.176 953.411V1010.2L766.962 1038.59L717.786 1010.2V953.411L766.962 925.018ZM725.357 957.764V1005.84L766.962 1029.84L808.605 1005.81V957.764L766.962 933.763L725.357 957.764ZM714 946.786L763.139 918.393V890H755.567V914.039L714 938.041V946.748V946.786ZM714 1016.82L763.139 1045.21V1075.5H755.567V1049.57L714 1025.57V1016.86V1016.82ZM770.786 890V918.393L819.962 946.786H820V938.041H819.962L778.357 914.039V890H770.786ZM770.786 1075.5V1045.21L819.962 1016.82H820V1025.57H819.962L778.357 1049.57V1075.5H770.786Z" fill="white" fill-opacity="0.05"/>
</g>
<g clip-path="url(#clip44)">
<path d="M766.962 740.018L816.176 768.411V825.196L766.962 853.589L717.786 825.196V768.411L766.962 740.018ZM725.357 772.764V820.843L766.962 844.844L808.605 820.805V772.764L766.962 748.763L725.357 772.764ZM714 761.786L763.139 733.393V705H755.567V729.039L714 753.041V761.748V761.786ZM714 831.821L763.139 860.214V890.5H755.567V864.568L714 840.566V831.859V831.821ZM770.786 705V733.393L819.962 761.786H820V753.041H819.962L778.357 729.039V705H770.786ZM770.786 890.5V860.214L819.962 831.821H820V840.566H819.962L778.357 864.568V890.5H770.786Z" fill="white" fill-opacity="0.05"/>
</g>
<g clip-path="url(#clip45)">
<path d="M766.962 555.018L816.176 583.411V640.196L766.962 668.589L717.786 640.196V583.411L766.962 555.018ZM725.357 587.764V635.843L766.962 659.844L808.605 635.805V587.764L766.962 563.763L725.357 587.764ZM714 576.786L763.139 548.393V520H755.567V544.039L714 568.041V576.748V576.786ZM714 646.821L763.139 675.214V705.5H755.567V679.568L714 655.566V646.859V646.821ZM770.786 520V548.393L819.962 576.786H820V568.041H819.962L778.357 544.039V520H770.786ZM770.786 705.5V675.214L819.962 646.821H820V655.566H819.962L778.357 679.568V705.5H770.786Z" fill="white" fill-opacity="0.05"/>
</g>
<g clip-path="url(#clip46)">
<path d="M766.962 370.018L816.176 398.411V455.196L766.962 483.589L717.786 455.196V398.411L766.962 370.018ZM725.357 402.764V450.843L766.962 474.844L808.605 450.805V402.764L766.962 378.763L725.357 402.764ZM714 391.786L763.139 363.393V335H755.567V359.039L714 383.041V391.748V391.786ZM714 461.821L763.139 490.214V520.5H755.567V494.568L714 470.566V461.859V461.821ZM770.786 335V363.393L819.962 391.786H820V383.041H819.962L778.357 359.039V335H770.786ZM770.786 520.5V490.214L819.962 461.821H820V470.566H819.962L778.357 494.568V520.5H770.786Z" fill="white" fill-opacity="0.05"/>
</g>
<g clip-path="url(#clip47)">
<path d="M766.962 185.018L816.176 213.411V270.196L766.962 298.589L717.786 270.196V213.411L766.962 185.018ZM725.357 217.764V265.843L766.962 289.844L808.605 265.805V217.764L766.962 193.763L725.357 217.764ZM714 206.786L763.139 178.393V150H755.567V174.039L714 198.041V206.748V206.786ZM714 276.821L763.139 305.214V335.5H755.567V309.568L714 285.566V276.859V276.821ZM770.786 150V178.393L819.962 206.786H820V198.041H819.962L778.357 174.039V150H770.786ZM770.786 335.5V305.214L819.962 276.821H820V285.566H819.962L778.357 309.568V335.5H770.786Z" fill="white" fill-opacity="0.05"/>
</g>
<g clip-path="url(#clip48)">
<path d="M766.962 0.0178581L816.176 28.4107V85.1964L766.962 113.589L717.786 85.1964V28.4107L766.962 0.0178581ZM725.357 32.7643V80.8429L766.962 104.844L808.605 80.805V32.7643L766.962 8.76286L725.357 32.7643ZM714 21.7857L763.139 -6.60714V-35H755.567V-10.9607L714 13.0407V21.7479V21.7857ZM714 91.8214L763.139 120.214V150.5H755.567V124.568L714 100.566V91.8593V91.8214ZM770.786 -35V-6.60714L819.962 21.7857H820V13.0407H819.962L778.357 -10.9607V-35H770.786ZM770.786 150.5V120.214L819.962 91.8214H820V100.566H819.962L778.357 124.568V150.5H770.786Z" fill="white" fill-opacity="0.05"/>
</g>
<g clip-path="url(#clip49)">
<path d="M873.962 925.018L923.176 953.411V1010.2L873.962 1038.59L824.786 1010.2V953.411L873.962 925.018ZM832.357 957.764V1005.84L873.962 1029.84L915.605 1005.81V957.764L873.962 933.763L832.357 957.764ZM821 946.786L870.139 918.393V890H862.567V914.039L821 938.041V946.748V946.786ZM821 1016.82L870.139 1045.21V1075.5H862.567V1049.57L821 1025.57V1016.86V1016.82ZM877.786 890V918.393L926.962 946.786H927V938.041H926.962L885.357 914.039V890H877.786ZM877.786 1075.5V1045.21L926.962 1016.82H927V1025.57H926.962L885.357 1049.57V1075.5H877.786Z" fill="white" fill-opacity="0.05"/>
</g>
<g clip-path="url(#clip50)">
<path d="M873.962 740.018L923.176 768.411V825.196L873.962 853.589L824.786 825.196V768.411L873.962 740.018ZM832.357 772.764V820.843L873.962 844.844L915.605 820.805V772.764L873.962 748.763L832.357 772.764ZM821 761.786L870.139 733.393V705H862.567V729.039L821 753.041V761.748V761.786ZM821 831.821L870.139 860.214V890.5H862.567V864.568L821 840.566V831.859V831.821ZM877.786 705V733.393L926.962 761.786H927V753.041H926.962L885.357 729.039V705H877.786ZM877.786 890.5V860.214L926.962 831.821H927V840.566H926.962L885.357 864.568V890.5H877.786Z" fill="white" fill-opacity="0.05"/>
</g>
<g clip-path="url(#clip51)">
<path d="M873.962 555.018L923.176 583.411V640.196L873.962 668.589L824.786 640.196V583.411L873.962 555.018ZM832.357 587.764V635.843L873.962 659.844L915.605 635.805V587.764L873.962 563.763L832.357 587.764ZM821 576.786L870.139 548.393V520H862.567V544.039L821 568.041V576.748V576.786ZM821 646.821L870.139 675.214V705.5H862.567V679.568L821 655.566V646.859V646.821ZM877.786 520V548.393L926.962 576.786H927V568.041H926.962L885.357 544.039V520H877.786ZM877.786 705.5V675.214L926.962 646.821H927V655.566H926.962L885.357 679.568V705.5H877.786Z" fill="white" fill-opacity="0.05"/>
</g>
<g clip-path="url(#clip52)">
<path d="M873.962 370.018L923.176 398.411V455.196L873.962 483.589L824.786 455.196V398.411L873.962 370.018ZM832.357 402.764V450.843L873.962 474.844L915.605 450.805V402.764L873.962 378.763L832.357 402.764ZM821 391.786L870.139 363.393V335H862.567V359.039L821 383.041V391.748V391.786ZM821 461.821L870.139 490.214V520.5H862.567V494.568L821 470.566V461.859V461.821ZM877.786 335V363.393L926.962 391.786H927V383.041H926.962L885.357 359.039V335H877.786ZM877.786 520.5V490.214L926.962 461.821H927V470.566H926.962L885.357 494.568V520.5H877.786Z" fill="white" fill-opacity="0.05"/>
</g>
<g clip-path="url(#clip53)">
<path d="M873.962 185.018L923.176 213.411V270.196L873.962 298.589L824.786 270.196V213.411L873.962 185.018ZM832.357 217.764V265.843L873.962 289.844L915.605 265.805V217.764L873.962 193.763L832.357 217.764ZM821 206.786L870.139 178.393V150H862.567V174.039L821 198.041V206.748V206.786ZM821 276.821L870.139 305.214V335.5H862.567V309.568L821 285.566V276.859V276.821ZM877.786 150V178.393L926.962 206.786H927V198.041H926.962L885.357 174.039V150H877.786ZM877.786 335.5V305.214L926.962 276.821H927V285.566H926.962L885.357 309.568V335.5H877.786Z" fill="white" fill-opacity="0.05"/>
</g>
<g clip-path="url(#clip54)">
<path d="M873.962 0.0178581L923.176 28.4107V85.1964L873.962 113.589L824.786 85.1964V28.4107L873.962 0.0178581ZM832.357 32.7643V80.8429L873.962 104.844L915.605 80.805V32.7643L873.962 8.76286L832.357 32.7643ZM821 21.7857L870.139 -6.60714V-35H862.567V-10.9607L821 13.0407V21.7479V21.7857ZM821 91.8214L870.139 120.214V150.5H862.567V124.568L821 100.566V91.8593V91.8214ZM877.786 -35V-6.60714L926.962 21.7857H927V13.0407H926.962L885.357 -10.9607V-35H877.786ZM877.786 150.5V120.214L926.962 91.8214H927V100.566H926.962L885.357 124.568V150.5H877.786Z" fill="white" fill-opacity="0.05"/>
</g>
<g clip-path="url(#clip55)">
<path d="M979.962 925.018L1029.18 953.411V1010.2L979.962 1038.59L930.786 1010.2V953.411L979.962 925.018ZM938.357 957.764V1005.84L979.962 1029.84L1021.61 1005.81V957.764L979.962 933.763L938.357 957.764ZM927 946.786L976.139 918.393V890H968.567V914.039L927 938.041V946.748V946.786ZM927 1016.82L976.139 1045.21V1075.5H968.567V1049.57L927 1025.57V1016.86V1016.82ZM983.786 890V918.393L1032.96 946.786H1033V938.041H1032.96L991.357 914.039V890H983.786ZM983.786 1075.5V1045.21L1032.96 1016.82H1033V1025.57H1032.96L991.357 1049.57V1075.5H983.786Z" fill="white" fill-opacity="0.05"/>
</g>
<g clip-path="url(#clip56)">
<path d="M979.962 740.018L1029.18 768.411V825.196L979.962 853.589L930.786 825.196V768.411L979.962 740.018ZM938.357 772.764V820.843L979.962 844.844L1021.61 820.805V772.764L979.962 748.763L938.357 772.764ZM927 761.786L976.139 733.393V705H968.567V729.039L927 753.041V761.748V761.786ZM927 831.821L976.139 860.214V890.5H968.567V864.568L927 840.566V831.859V831.821ZM983.786 705V733.393L1032.96 761.786H1033V753.041H1032.96L991.357 729.039V705H983.786ZM983.786 890.5V860.214L1032.96 831.821H1033V840.566H1032.96L991.357 864.568V890.5H983.786Z" fill="white" fill-opacity="0.05"/>
</g>
<g clip-path="url(#clip57)">
<path d="M979.962 555.018L1029.18 583.411V640.196L979.962 668.589L930.786 640.196V583.411L979.962 555.018ZM938.357 587.764V635.843L979.962 659.844L1021.61 635.805V587.764L979.962 563.763L938.357 587.764ZM927 576.786L976.139 548.393V520H968.567V544.039L927 568.041V576.748V576.786ZM927 646.821L976.139 675.214V705.5H968.567V679.568L927 655.566V646.859V646.821ZM983.786 520V548.393L1032.96 576.786H1033V568.041H1032.96L991.357 544.039V520H983.786ZM983.786 705.5V675.214L1032.96 646.821H1033V655.566H1032.96L991.357 679.568V705.5H983.786Z" fill="white" fill-opacity="0.05"/>
</g>
<g clip-path="url(#clip58)">
<path d="M979.962 370.018L1029.18 398.411V455.196L979.962 483.589L930.786 455.196V398.411L979.962 370.018ZM938.357 402.764V450.843L979.962 474.844L1021.61 450.805V402.764L979.962 378.763L938.357 402.764ZM927 391.786L976.139 363.393V335H968.567V359.039L927 383.041V391.748V391.786ZM927 461.821L976.139 490.214V520.5H968.567V494.568L927 470.566V461.859V461.821ZM983.786 335V363.393L1032.96 391.786H1033V383.041H1032.96L991.357 359.039V335H983.786ZM983.786 520.5V490.214L1032.96 461.821H1033V470.566H1032.96L991.357 494.568V520.5H983.786Z" fill="white" fill-opacity="0.05"/>
</g>
<g clip-path="url(#clip59)">
<path d="M979.962 185.018L1029.18 213.411V270.196L979.962 298.589L930.786 270.196V213.411L979.962 185.018ZM938.357 217.764V265.843L979.962 289.844L1021.61 265.805V217.764L979.962 193.763L938.357 217.764ZM927 206.786L976.139 178.393V150H968.567V174.039L927 198.041V206.748V206.786ZM927 276.821L976.139 305.214V335.5H968.567V309.568L927 285.566V276.859V276.821ZM983.786 150V178.393L1032.96 206.786H1033V198.041H1032.96L991.357 174.039V150H983.786ZM983.786 335.5V305.214L1032.96 276.821H1033V285.566H1032.96L991.357 309.568V335.5H983.786Z" fill="white" fill-opacity="0.05"/>
</g>
<g clip-path="url(#clip60)">
<path d="M979.962 0.0178581L1029.18 28.4107V85.1964L979.962 113.589L930.786 85.1964V28.4107L979.962 0.0178581ZM938.357 32.7643V80.8429L979.962 104.844L1021.61 80.805V32.7643L979.962 8.76286L938.357 32.7643ZM927 21.7857L976.139 -6.60714V-35H968.567V-10.9607L927 13.0407V21.7479V21.7857ZM927 91.8214L976.139 120.214V150.5H968.567V124.568L927 100.566V91.8593V91.8214ZM983.786 -35V-6.60714L1032.96 21.7857H1033V13.0407H1032.96L991.357 -10.9607V-35H983.786ZM983.786 150.5V120.214L1032.96 91.8214H1033V100.566H1032.96L991.357 124.568V150.5H983.786Z" fill="white" fill-opacity="0.05"/>
</g>
<g clip-path="url(#clip61)">
<path d="M1085.96 925.018L1135.18 953.411V1010.2L1085.96 1038.59L1036.79 1010.2V953.411L1085.96 925.018ZM1044.36 957.764V1005.84L1085.96 1029.84L1127.61 1005.81V957.764L1085.96 933.763L1044.36 957.764ZM1033 946.786L1082.14 918.393V890H1074.57V914.039L1033 938.041V946.748V946.786ZM1033 1016.82L1082.14 1045.21V1075.5H1074.57V1049.57L1033 1025.57V1016.86V1016.82ZM1089.79 890V918.393L1138.96 946.786H1139V938.041H1138.96L1097.36 914.039V890H1089.79ZM1089.79 1075.5V1045.21L1138.96 1016.82H1139V1025.57H1138.96L1097.36 1049.57V1075.5H1089.79Z" fill="white" fill-opacity="0.05"/>
</g>
<g clip-path="url(#clip62)">
<path d="M1085.96 740.018L1135.18 768.411V825.196L1085.96 853.589L1036.79 825.196V768.411L1085.96 740.018ZM1044.36 772.764V820.843L1085.96 844.844L1127.61 820.805V772.764L1085.96 748.763L1044.36 772.764ZM1033 761.786L1082.14 733.393V705H1074.57V729.039L1033 753.041V761.748V761.786ZM1033 831.821L1082.14 860.214V890.5H1074.57V864.568L1033 840.566V831.859V831.821ZM1089.79 705V733.393L1138.96 761.786H1139V753.041H1138.96L1097.36 729.039V705H1089.79ZM1089.79 890.5V860.214L1138.96 831.821H1139V840.566H1138.96L1097.36 864.568V890.5H1089.79Z" fill="white" fill-opacity="0.05"/>
</g>
<g clip-path="url(#clip63)">
<path d="M1085.96 555.018L1135.18 583.411V640.196L1085.96 668.589L1036.79 640.196V583.411L1085.96 555.018ZM1044.36 587.764V635.843L1085.96 659.844L1127.61 635.805V587.764L1085.96 563.763L1044.36 587.764ZM1033 576.786L1082.14 548.393V520H1074.57V544.039L1033 568.041V576.748V576.786ZM1033 646.821L1082.14 675.214V705.5H1074.57V679.568L1033 655.566V646.859V646.821ZM1089.79 520V548.393L1138.96 576.786H1139V568.041H1138.96L1097.36 544.039V520H1089.79ZM1089.79 705.5V675.214L1138.96 646.821H1139V655.566H1138.96L1097.36 679.568V705.5H1089.79Z" fill="white" fill-opacity="0.05"/>
</g>
<g clip-path="url(#clip64)">
<path d="M1085.96 370.018L1135.18 398.411V455.196L1085.96 483.589L1036.79 455.196V398.411L1085.96 370.018ZM1044.36 402.764V450.843L1085.96 474.844L1127.61 450.805V402.764L1085.96 378.763L1044.36 402.764ZM1033 391.786L1082.14 363.393V335H1074.57V359.039L1033 383.041V391.748V391.786ZM1033 461.821L1082.14 490.214V520.5H1074.57V494.568L1033 470.566V461.859V461.821ZM1089.79 335V363.393L1138.96 391.786H1139V383.041H1138.96L1097.36 359.039V335H1089.79ZM1089.79 520.5V490.214L1138.96 461.821H1139V470.566H1138.96L1097.36 494.568V520.5H1089.79Z" fill="white" fill-opacity="0.05"/>
</g>
<g clip-path="url(#clip65)">
<path d="M1085.96 185.018L1135.18 213.411V270.196L1085.96 298.589L1036.79 270.196V213.411L1085.96 185.018ZM1044.36 217.764V265.843L1085.96 289.844L1127.61 265.805V217.764L1085.96 193.763L1044.36 217.764ZM1033 206.786L1082.14 178.393V150H1074.57V174.039L1033 198.041V206.748V206.786ZM1033 276.821L1082.14 305.214V335.5H1074.57V309.568L1033 285.566V276.859V276.821ZM1089.79 150V178.393L1138.96 206.786H1139V198.041H1138.96L1097.36 174.039V150H1089.79ZM1089.79 335.5V305.214L1138.96 276.821H1139V285.566H1138.96L1097.36 309.568V335.5H1089.79Z" fill="white" fill-opacity="0.05"/>
</g>
<g clip-path="url(#clip66)">
<path d="M1085.96 0.0178581L1135.18 28.4107V85.1964L1085.96 113.589L1036.79 85.1964V28.4107L1085.96 0.0178581ZM1044.36 32.7643V80.8429L1085.96 104.844L1127.61 80.805V32.7643L1085.96 8.76286L1044.36 32.7643ZM1033 21.7857L1082.14 -6.60714V-35H1074.57V-10.9607L1033 13.0407V21.7479V21.7857ZM1033 91.8214L1082.14 120.214V150.5H1074.57V124.568L1033 100.566V91.8593V91.8214ZM1089.79 -35V-6.60714L1138.96 21.7857H1139V13.0407H1138.96L1097.36 -10.9607V-35H1089.79ZM1089.79 150.5V120.214L1138.96 91.8214H1139V100.566H1138.96L1097.36 124.568V150.5H1089.79Z" fill="white" fill-opacity="0.05"/>
</g>
<g clip-path="url(#clip67)">
<path d="M1191.96 925.018L1241.18 953.411V1010.2L1191.96 1038.59L1142.79 1010.2V953.411L1191.96 925.018ZM1150.36 957.764V1005.84L1191.96 1029.84L1233.61 1005.81V957.764L1191.96 933.763L1150.36 957.764ZM1139 946.786L1188.14 918.393V890H1180.57V914.039L1139 938.041V946.748V946.786ZM1139 1016.82L1188.14 1045.21V1075.5H1180.57V1049.57L1139 1025.57V1016.86V1016.82ZM1195.79 890V918.393L1244.96 946.786H1245V938.041H1244.96L1203.36 914.039V890H1195.79ZM1195.79 1075.5V1045.21L1244.96 1016.82H1245V1025.57H1244.96L1203.36 1049.57V1075.5H1195.79Z" fill="white" fill-opacity="0.05"/>
</g>
<g clip-path="url(#clip68)">
<path d="M1191.96 740.018L1241.18 768.411V825.196L1191.96 853.589L1142.79 825.196V768.411L1191.96 740.018ZM1150.36 772.764V820.843L1191.96 844.844L1233.61 820.805V772.764L1191.96 748.763L1150.36 772.764ZM1139 761.786L1188.14 733.393V705H1180.57V729.039L1139 753.041V761.748V761.786ZM1139 831.821L1188.14 860.214V890.5H1180.57V864.568L1139 840.566V831.859V831.821ZM1195.79 705V733.393L1244.96 761.786H1245V753.041H1244.96L1203.36 729.039V705H1195.79ZM1195.79 890.5V860.214L1244.96 831.821H1245V840.566H1244.96L1203.36 864.568V890.5H1195.79Z" fill="white" fill-opacity="0.05"/>
</g>
<g clip-path="url(#clip69)">
<path d="M1191.96 555.018L1241.18 583.411V640.196L1191.96 668.589L1142.79 640.196V583.411L1191.96 555.018ZM1150.36 587.764V635.843L1191.96 659.844L1233.61 635.805V587.764L1191.96 563.763L1150.36 587.764ZM1139 576.786L1188.14 548.393V520H1180.57V544.039L1139 568.041V576.748V576.786ZM1139 646.821L1188.14 675.214V705.5H1180.57V679.568L1139 655.566V646.859V646.821ZM1195.79 520V548.393L1244.96 576.786H1245V568.041H1244.96L1203.36 544.039V520H1195.79ZM1195.79 705.5V675.214L1244.96 646.821H1245V655.566H1244.96L1203.36 679.568V705.5H1195.79Z" fill="white" fill-opacity="0.05"/>
</g>
<g clip-path="url(#clip70)">
<path d="M1191.96 370.018L1241.18 398.411V455.196L1191.96 483.589L1142.79 455.196V398.411L1191.96 370.018ZM1150.36 402.764V450.843L1191.96 474.844L1233.61 450.805V402.764L1191.96 378.763L1150.36 402.764ZM1139 391.786L1188.14 363.393V335H1180.57V359.039L1139 383.041V391.748V391.786ZM1139 461.821L1188.14 490.214V520.5H1180.57V494.568L1139 470.566V461.859V461.821ZM1195.79 335V363.393L1244.96 391.786H1245V383.041H1244.96L1203.36 359.039V335H1195.79ZM1195.79 520.5V490.214L1244.96 461.821H1245V470.566H1244.96L1203.36 494.568V520.5H1195.79Z" fill="white" fill-opacity="0.05"/>
</g>
<g clip-path="url(#clip71)">
<path d="M1191.96 185.018L1241.18 213.411V270.196L1191.96 298.589L1142.79 270.196V213.411L1191.96 185.018ZM1150.36 217.764V265.843L1191.96 289.844L1233.61 265.805V217.764L1191.96 193.763L1150.36 217.764ZM1139 206.786L1188.14 178.393V150H1180.57V174.039L1139 198.041V206.748V206.786ZM1139 276.821L1188.14 305.214V335.5H1180.57V309.568L1139 285.566V276.859V276.821ZM1195.79 150V178.393L1244.96 206.786H1245V198.041H1244.96L1203.36 174.039V150H1195.79ZM1195.79 335.5V305.214L1244.96 276.821H1245V285.566H1244.96L1203.36 309.568V335.5H1195.79Z" fill="white" fill-opacity="0.05"/>
</g>
<g clip-path="url(#clip72)">
<path d="M1191.96 0.0178581L1241.18 28.4107V85.1964L1191.96 113.589L1142.79 85.1964V28.4107L1191.96 0.0178581ZM1150.36 32.7643V80.8429L1191.96 104.844L1233.61 80.805V32.7643L1191.96 8.76286L1150.36 32.7643ZM1139 21.7857L1188.14 -6.60714V-35H1180.57V-10.9607L1139 13.0407V21.7479V21.7857ZM1139 91.8214L1188.14 120.214V150.5H1180.57V124.568L1139 100.566V91.8593V91.8214ZM1195.79 -35V-6.60714L1244.96 21.7857H1245V13.0407H1244.96L1203.36 -10.9607V-35H1195.79ZM1195.79 150.5V120.214L1244.96 91.8214H1245V100.566H1244.96L1203.36 124.568V150.5H1195.79Z" fill="white" fill-opacity="0.05"/>
</g>
<g clip-path="url(#clip73)">
<path d="M1297.96 925.018L1347.18 953.411V1010.2L1297.96 1038.59L1248.79 1010.2V953.411L1297.96 925.018ZM1256.36 957.764V1005.84L1297.96 1029.84L1339.61 1005.81V957.764L1297.96 933.763L1256.36 957.764ZM1245 946.786L1294.14 918.393V890H1286.57V914.039L1245 938.041V946.748V946.786ZM1245 1016.82L1294.14 1045.21V1075.5H1286.57V1049.57L1245 1025.57V1016.86V1016.82ZM1301.79 890V918.393L1350.96 946.786H1351V938.041H1350.96L1309.36 914.039V890H1301.79ZM1301.79 1075.5V1045.21L1350.96 1016.82H1351V1025.57H1350.96L1309.36 1049.57V1075.5H1301.79Z" fill="white" fill-opacity="0.05"/>
</g>
<g clip-path="url(#clip74)">
<path d="M1297.96 740.018L1347.18 768.411V825.196L1297.96 853.589L1248.79 825.196V768.411L1297.96 740.018ZM1256.36 772.764V820.843L1297.96 844.844L1339.61 820.805V772.764L1297.96 748.763L1256.36 772.764ZM1245 761.786L1294.14 733.393V705H1286.57V729.039L1245 753.041V761.748V761.786ZM1245 831.821L1294.14 860.214V890.5H1286.57V864.568L1245 840.566V831.859V831.821ZM1301.79 705V733.393L1350.96 761.786H1351V753.041H1350.96L1309.36 729.039V705H1301.79ZM1301.79 890.5V860.214L1350.96 831.821H1351V840.566H1350.96L1309.36 864.568V890.5H1301.79Z" fill="white" fill-opacity="0.05"/>
</g>
<g clip-path="url(#clip75)">
<path d="M1297.96 555.018L1347.18 583.411V640.196L1297.96 668.589L1248.79 640.196V583.411L1297.96 555.018ZM1256.36 587.764V635.843L1297.96 659.844L1339.61 635.805V587.764L1297.96 563.763L1256.36 587.764ZM1245 576.786L1294.14 548.393V520H1286.57V544.039L1245 568.041V576.748V576.786ZM1245 646.821L1294.14 675.214V705.5H1286.57V679.568L1245 655.566V646.859V646.821ZM1301.79 520V548.393L1350.96 576.786H1351V568.041H1350.96L1309.36 544.039V520H1301.79ZM1301.79 705.5V675.214L1350.96 646.821H1351V655.566H1350.96L1309.36 679.568V705.5H1301.79Z" fill="white" fill-opacity="0.05"/>
</g>
<g clip-path="url(#clip76)">
<path d="M1297.96 370.018L1347.18 398.411V455.196L1297.96 483.589L1248.79 455.196V398.411L1297.96 370.018ZM1256.36 402.764V450.843L1297.96 474.844L1339.61 450.805V402.764L1297.96 378.763L1256.36 402.764ZM1245 391.786L1294.14 363.393V335H1286.57V359.039L1245 383.041V391.748V391.786ZM1245 461.821L1294.14 490.214V520.5H1286.57V494.568L1245 470.566V461.859V461.821ZM1301.79 335V363.393L1350.96 391.786H1351V383.041H1350.96L1309.36 359.039V335H1301.79ZM1301.79 520.5V490.214L1350.96 461.821H1351V470.566H1350.96L1309.36 494.568V520.5H1301.79Z" fill="white" fill-opacity="0.05"/>
</g>
<g clip-path="url(#clip77)">
<path d="M1297.96 185.018L1347.18 213.411V270.196L1297.96 298.589L1248.79 270.196V213.411L1297.96 185.018ZM1256.36 217.764V265.843L1297.96 289.844L1339.61 265.805V217.764L1297.96 193.763L1256.36 217.764ZM1245 206.786L1294.14 178.393V150H1286.57V174.039L1245 198.041V206.748V206.786ZM1245 276.821L1294.14 305.214V335.5H1286.57V309.568L1245 285.566V276.859V276.821ZM1301.79 150V178.393L1350.96 206.786H1351V198.041H1350.96L1309.36 174.039V150H1301.79ZM1301.79 335.5V305.214L1350.96 276.821H1351V285.566H1350.96L1309.36 309.568V335.5H1301.79Z" fill="white" fill-opacity="0.05"/>
</g>
<g clip-path="url(#clip78)">
<path d="M1297.96 0.0178581L1347.18 28.4107V85.1964L1297.96 113.589L1248.79 85.1964V28.4107L1297.96 0.0178581ZM1256.36 32.7643V80.8429L1297.96 104.844L1339.61 80.805V32.7643L1297.96 8.76286L1256.36 32.7643ZM1245 21.7857L1294.14 -6.60714V-35H1286.57V-10.9607L1245 13.0407V21.7479V21.7857ZM1245 91.8214L1294.14 120.214V150.5H1286.57V124.568L1245 100.566V91.8593V91.8214ZM1301.79 -35V-6.60714L1350.96 21.7857H1351V13.0407H1350.96L1309.36 -10.9607V-35H1301.79ZM1301.79 150.5V120.214L1350.96 91.8214H1351V100.566H1350.96L1309.36 124.568V150.5H1301.79Z" fill="white" fill-opacity="0.05"/>
</g>
<g clip-path="url(#clip79)">
<path d="M1403.96 925.018L1453.18 953.411V1010.2L1403.96 1038.59L1354.79 1010.2V953.411L1403.96 925.018ZM1362.36 957.764V1005.84L1403.96 1029.84L1445.61 1005.81V957.764L1403.96 933.763L1362.36 957.764ZM1351 946.786L1400.14 918.393V890H1392.57V914.039L1351 938.041V946.748V946.786ZM1351 1016.82L1400.14 1045.21V1075.5H1392.57V1049.57L1351 1025.57V1016.86V1016.82ZM1407.79 890V918.393L1456.96 946.786H1457V938.041H1456.96L1415.36 914.039V890H1407.79ZM1407.79 1075.5V1045.21L1456.96 1016.82H1457V1025.57H1456.96L1415.36 1049.57V1075.5H1407.79Z" fill="white" fill-opacity="0.05"/>
</g>
<g clip-path="url(#clip80)">
<path d="M1403.96 740.018L1453.18 768.411V825.196L1403.96 853.589L1354.79 825.196V768.411L1403.96 740.018ZM1362.36 772.764V820.843L1403.96 844.844L1445.61 820.805V772.764L1403.96 748.763L1362.36 772.764ZM1351 761.786L1400.14 733.393V705H1392.57V729.039L1351 753.041V761.748V761.786ZM1351 831.821L1400.14 860.214V890.5H1392.57V864.568L1351 840.566V831.859V831.821ZM1407.79 705V733.393L1456.96 761.786H1457V753.041H1456.96L1415.36 729.039V705H1407.79ZM1407.79 890.5V860.214L1456.96 831.821H1457V840.566H1456.96L1415.36 864.568V890.5H1407.79Z" fill="white" fill-opacity="0.05"/>
</g>
<g clip-path="url(#clip81)">
<path d="M1403.96 555.018L1453.18 583.411V640.196L1403.96 668.589L1354.79 640.196V583.411L1403.96 555.018ZM1362.36 587.764V635.843L1403.96 659.844L1445.61 635.805V587.764L1403.96 563.763L1362.36 587.764ZM1351 576.786L1400.14 548.393V520H1392.57V544.039L1351 568.041V576.748V576.786ZM1351 646.821L1400.14 675.214V705.5H1392.57V679.568L1351 655.566V646.859V646.821ZM1407.79 520V548.393L1456.96 576.786H1457V568.041H1456.96L1415.36 544.039V520H1407.79ZM1407.79 705.5V675.214L1456.96 646.821H1457V655.566H1456.96L1415.36 679.568V705.5H1407.79Z" fill="white" fill-opacity="0.05"/>
</g>
<g clip-path="url(#clip82)">
<path d="M1403.96 370.018L1453.18 398.411V455.196L1403.96 483.589L1354.79 455.196V398.411L1403.96 370.018ZM1362.36 402.764V450.843L1403.96 474.844L1445.61 450.805V402.764L1403.96 378.763L1362.36 402.764ZM1351 391.786L1400.14 363.393V335H1392.57V359.039L1351 383.041V391.748V391.786ZM1351 461.821L1400.14 490.214V520.5H1392.57V494.568L1351 470.566V461.859V461.821ZM1407.79 335V363.393L1456.96 391.786H1457V383.041H1456.96L1415.36 359.039V335H1407.79ZM1407.79 520.5V490.214L1456.96 461.821H1457V470.566H1456.96L1415.36 494.568V520.5H1407.79Z" fill="white" fill-opacity="0.05"/>
</g>
<g clip-path="url(#clip83)">
<path d="M1403.96 185.018L1453.18 213.411V270.196L1403.96 298.589L1354.79 270.196V213.411L1403.96 185.018ZM1362.36 217.764V265.843L1403.96 289.844L1445.61 265.805V217.764L1403.96 193.763L1362.36 217.764ZM1351 206.786L1400.14 178.393V150H1392.57V174.039L1351 198.041V206.748V206.786ZM1351 276.821L1400.14 305.214V335.5H1392.57V309.568L1351 285.566V276.859V276.821ZM1407.79 150V178.393L1456.96 206.786H1457V198.041H1456.96L1415.36 174.039V150H1407.79ZM1407.79 335.5V305.214L1456.96 276.821H1457V285.566H1456.96L1415.36 309.568V335.5H1407.79Z" fill="white" fill-opacity="0.05"/>
</g>
<g clip-path="url(#clip84)">
<path d="M1403.96 0.0178581L1453.18 28.4107V85.1964L1403.96 113.589L1354.79 85.1964V28.4107L1403.96 0.0178581ZM1362.36 32.7643V80.8429L1403.96 104.844L1445.61 80.805V32.7643L1403.96 8.76286L1362.36 32.7643ZM1351 21.7857L1400.14 -6.60714V-35H1392.57V-10.9607L1351 13.0407V21.7479V21.7857ZM1351 91.8214L1400.14 120.214V150.5H1392.57V124.568L1351 100.566V91.8593V91.8214ZM1407.79 -35V-6.60714L1456.96 21.7857H1457V13.0407H1456.96L1415.36 -10.9607V-35H1407.79ZM1407.79 150.5V120.214L1456.96 91.8214H1457V100.566H1456.96L1415.36 124.568V150.5H1407.79Z" fill="white" fill-opacity="0.05"/>
</g>
<g clip-path="url(#clip85)">
<path d="M1509.96 925.018L1559.18 953.411V1010.2L1509.96 1038.59L1460.79 1010.2V953.411L1509.96 925.018ZM1468.36 957.764V1005.84L1509.96 1029.84L1551.61 1005.81V957.764L1509.96 933.763L1468.36 957.764ZM1457 946.786L1506.14 918.393V890H1498.57V914.039L1457 938.041V946.748V946.786ZM1457 1016.82L1506.14 1045.21V1075.5H1498.57V1049.57L1457 1025.57V1016.86V1016.82ZM1513.79 890V918.393L1562.96 946.786H1563V938.041H1562.96L1521.36 914.039V890H1513.79ZM1513.79 1075.5V1045.21L1562.96 1016.82H1563V1025.57H1562.96L1521.36 1049.57V1075.5H1513.79Z" fill="white" fill-opacity="0.05"/>
</g>
<g clip-path="url(#clip86)">
<path d="M1509.96 740.018L1559.18 768.411V825.196L1509.96 853.589L1460.79 825.196V768.411L1509.96 740.018ZM1468.36 772.764V820.843L1509.96 844.844L1551.61 820.805V772.764L1509.96 748.763L1468.36 772.764ZM1457 761.786L1506.14 733.393V705H1498.57V729.039L1457 753.041V761.748V761.786ZM1457 831.821L1506.14 860.214V890.5H1498.57V864.568L1457 840.566V831.859V831.821ZM1513.79 705V733.393L1562.96 761.786H1563V753.041H1562.96L1521.36 729.039V705H1513.79ZM1513.79 890.5V860.214L1562.96 831.821H1563V840.566H1562.96L1521.36 864.568V890.5H1513.79Z" fill="white" fill-opacity="0.05"/>
</g>
<g clip-path="url(#clip87)">
<path d="M1509.96 555.018L1559.18 583.411V640.196L1509.96 668.589L1460.79 640.196V583.411L1509.96 555.018ZM1468.36 587.764V635.843L1509.96 659.844L1551.61 635.805V587.764L1509.96 563.763L1468.36 587.764ZM1457 576.786L1506.14 548.393V520H1498.57V544.039L1457 568.041V576.748V576.786ZM1457 646.821L1506.14 675.214V705.5H1498.57V679.568L1457 655.566V646.859V646.821ZM1513.79 520V548.393L1562.96 576.786H1563V568.041H1562.96L1521.36 544.039V520H1513.79ZM1513.79 705.5V675.214L1562.96 646.821H1563V655.566H1562.96L1521.36 679.568V705.5H1513.79Z" fill="white" fill-opacity="0.05"/>
</g>
<g clip-path="url(#clip88)">
<path d="M1509.96 370.018L1559.18 398.411V455.196L1509.96 483.589L1460.79 455.196V398.411L1509.96 370.018ZM1468.36 402.764V450.843L1509.96 474.844L1551.61 450.805V402.764L1509.96 378.763L1468.36 402.764ZM1457 391.786L1506.14 363.393V335H1498.57V359.039L1457 383.041V391.748V391.786ZM1457 461.821L1506.14 490.214V520.5H1498.57V494.568L1457 470.566V461.859V461.821ZM1513.79 335V363.393L1562.96 391.786H1563V383.041H1562.96L1521.36 359.039V335H1513.79ZM1513.79 520.5V490.214L1562.96 461.821H1563V470.566H1562.96L1521.36 494.568V520.5H1513.79Z" fill="white" fill-opacity="0.05"/>
</g>
<g clip-path="url(#clip89)">
<path d="M1509.96 185.018L1559.18 213.411V270.196L1509.96 298.589L1460.79 270.196V213.411L1509.96 185.018ZM1468.36 217.764V265.843L1509.96 289.844L1551.61 265.805V217.764L1509.96 193.763L1468.36 217.764ZM1457 206.786L1506.14 178.393V150H1498.57V174.039L1457 198.041V206.748V206.786ZM1457 276.821L1506.14 305.214V335.5H1498.57V309.568L1457 285.566V276.859V276.821ZM1513.79 150V178.393L1562.96 206.786H1563V198.041H1562.96L1521.36 174.039V150H1513.79ZM1513.79 335.5V305.214L1562.96 276.821H1563V285.566H1562.96L1521.36 309.568V335.5H1513.79Z" fill="white" fill-opacity="0.05"/>
</g>
<g clip-path="url(#clip90)">
<path d="M1509.96 0.0178581L1559.18 28.4107V85.1964L1509.96 113.589L1460.79 85.1964V28.4107L1509.96 0.0178581ZM1468.36 32.7643V80.8429L1509.96 104.844L1551.61 80.805V32.7643L1509.96 8.76286L1468.36 32.7643ZM1457 21.7857L1506.14 -6.60714V-35H1498.57V-10.9607L1457 13.0407V21.7479V21.7857ZM1457 91.8214L1506.14 120.214V150.5H1498.57V124.568L1457 100.566V91.8593V91.8214ZM1513.79 -35V-6.60714L1562.96 21.7857H1563V13.0407H1562.96L1521.36 -10.9607V-35H1513.79ZM1513.79 150.5V120.214L1562.96 91.8214H1563V100.566H1562.96L1521.36 124.568V150.5H1513.79Z" fill="white" fill-opacity="0.05"/>
</g>
<g clip-path="url(#clip91)">
<path d="M1615.96 925.018L1665.18 953.411V1010.2L1615.96 1038.59L1566.79 1010.2V953.411L1615.96 925.018ZM1574.36 957.764V1005.84L1615.96 1029.84L1657.61 1005.81V957.764L1615.96 933.763L1574.36 957.764ZM1563 946.786L1612.14 918.393V890H1604.57V914.039L1563 938.041V946.748V946.786ZM1563 1016.82L1612.14 1045.21V1075.5H1604.57V1049.57L1563 1025.57V1016.86V1016.82ZM1619.79 890V918.393L1668.96 946.786H1669V938.041H1668.96L1627.36 914.039V890H1619.79ZM1619.79 1075.5V1045.21L1668.96 1016.82H1669V1025.57H1668.96L1627.36 1049.57V1075.5H1619.79Z" fill="white" fill-opacity="0.05"/>
</g>
<g clip-path="url(#clip92)">
<path d="M1615.96 740.018L1665.18 768.411V825.196L1615.96 853.589L1566.79 825.196V768.411L1615.96 740.018ZM1574.36 772.764V820.843L1615.96 844.844L1657.61 820.805V772.764L1615.96 748.763L1574.36 772.764ZM1563 761.786L1612.14 733.393V705H1604.57V729.039L1563 753.041V761.748V761.786ZM1563 831.821L1612.14 860.214V890.5H1604.57V864.568L1563 840.566V831.859V831.821ZM1619.79 705V733.393L1668.96 761.786H1669V753.041H1668.96L1627.36 729.039V705H1619.79ZM1619.79 890.5V860.214L1668.96 831.821H1669V840.566H1668.96L1627.36 864.568V890.5H1619.79Z" fill="white" fill-opacity="0.05"/>
</g>
<g clip-path="url(#clip93)">
<path d="M1615.96 555.018L1665.18 583.411V640.196L1615.96 668.589L1566.79 640.196V583.411L1615.96 555.018ZM1574.36 587.764V635.843L1615.96 659.844L1657.61 635.805V587.764L1615.96 563.763L1574.36 587.764ZM1563 576.786L1612.14 548.393V520H1604.57V544.039L1563 568.041V576.748V576.786ZM1563 646.821L1612.14 675.214V705.5H1604.57V679.568L1563 655.566V646.859V646.821ZM1619.79 520V548.393L1668.96 576.786H1669V568.041H1668.96L1627.36 544.039V520H1619.79ZM1619.79 705.5V675.214L1668.96 646.821H1669V655.566H1668.96L1627.36 679.568V705.5H1619.79Z" fill="white" fill-opacity="0.05"/>
</g>
<g clip-path="url(#clip94)">
<path d="M1615.96 370.018L1665.18 398.411V455.196L1615.96 483.589L1566.79 455.196V398.411L1615.96 370.018ZM1574.36 402.764V450.843L1615.96 474.844L1657.61 450.805V402.764L1615.96 378.763L1574.36 402.764ZM1563 391.786L1612.14 363.393V335H1604.57V359.039L1563 383.041V391.748V391.786ZM1563 461.821L1612.14 490.214V520.5H1604.57V494.568L1563 470.566V461.859V461.821ZM1619.79 335V363.393L1668.96 391.786H1669V383.041H1668.96L1627.36 359.039V335H1619.79ZM1619.79 520.5V490.214L1668.96 461.821H1669V470.566H1668.96L1627.36 494.568V520.5H1619.79Z" fill="white" fill-opacity="0.05"/>
</g>
<g clip-path="url(#clip95)">
<path d="M1615.96 185.018L1665.18 213.411V270.196L1615.96 298.589L1566.79 270.196V213.411L1615.96 185.018ZM1574.36 217.764V265.843L1615.96 289.844L1657.61 265.805V217.764L1615.96 193.763L1574.36 217.764ZM1563 206.786L1612.14 178.393V150H1604.57V174.039L1563 198.041V206.748V206.786ZM1563 276.821L1612.14 305.214V335.5H1604.57V309.568L1563 285.566V276.859V276.821ZM1619.79 150V178.393L1668.96 206.786H1669V198.041H1668.96L1627.36 174.039V150H1619.79ZM1619.79 335.5V305.214L1668.96 276.821H1669V285.566H1668.96L1627.36 309.568V335.5H1619.79Z" fill="white" fill-opacity="0.05"/>
</g>
<g clip-path="url(#clip96)">
<path d="M1615.96 0.0178581L1665.18 28.4107V85.1964L1615.96 113.589L1566.79 85.1964V28.4107L1615.96 0.0178581ZM1574.36 32.7643V80.8429L1615.96 104.844L1657.61 80.805V32.7643L1615.96 8.76286L1574.36 32.7643ZM1563 21.7857L1612.14 -6.60714V-35H1604.57V-10.9607L1563 13.0407V21.7479V21.7857ZM1563 91.8214L1612.14 120.214V150.5H1604.57V124.568L1563 100.566V91.8593V91.8214ZM1619.79 -35V-6.60714L1668.96 21.7857H1669V13.0407H1668.96L1627.36 -10.9607V-35H1619.79ZM1619.79 150.5V120.214L1668.96 91.8214H1669V100.566H1668.96L1627.36 124.568V150.5H1619.79Z" fill="white" fill-opacity="0.05"/>
</g>
<g clip-path="url(#clip97)">
<path d="M1717.96 930.018L1767.18 958.411V1015.2L1717.96 1043.59L1668.79 1015.2V958.411L1717.96 930.018ZM1676.36 962.764V1010.84L1717.96 1034.84L1759.61 1010.81V962.764L1717.96 938.763L1676.36 962.764ZM1665 951.786L1714.14 923.393V895H1706.57V919.039L1665 943.041V951.748V951.786ZM1665 1021.82L1714.14 1050.21V1080.5H1706.57V1054.57L1665 1030.57V1021.86V1021.82ZM1721.79 895V923.393L1770.96 951.786H1771V943.041H1770.96L1729.36 919.039V895H1721.79ZM1721.79 1080.5V1050.21L1770.96 1021.82H1771V1030.57H1770.96L1729.36 1054.57V1080.5H1721.79Z" fill="white" fill-opacity="0.05"/>
</g>
<g clip-path="url(#clip98)">
<path d="M1717.96 745.018L1767.18 773.411V830.196L1717.96 858.589L1668.79 830.196V773.411L1717.96 745.018ZM1676.36 777.764V825.843L1717.96 849.844L1759.61 825.805V777.764L1717.96 753.763L1676.36 777.764ZM1665 766.786L1714.14 738.393V710H1706.57V734.039L1665 758.041V766.748V766.786ZM1665 836.821L1714.14 865.214V895.5H1706.57V869.568L1665 845.566V836.859V836.821ZM1721.79 710V738.393L1770.96 766.786H1771V758.041H1770.96L1729.36 734.039V710H1721.79ZM1721.79 895.5V865.214L1770.96 836.821H1771V845.566H1770.96L1729.36 869.568V895.5H1721.79Z" fill="white" fill-opacity="0.05"/>
</g>
<g clip-path="url(#clip99)">
<path d="M1717.96 560.018L1767.18 588.411V645.196L1717.96 673.589L1668.79 645.196V588.411L1717.96 560.018ZM1676.36 592.764V640.843L1717.96 664.844L1759.61 640.805V592.764L1717.96 568.763L1676.36 592.764ZM1665 581.786L1714.14 553.393V525H1706.57V549.039L1665 573.041V581.748V581.786ZM1665 651.821L1714.14 680.214V710.5H1706.57V684.568L1665 660.566V651.859V651.821ZM1721.79 525V553.393L1770.96 581.786H1771V573.041H1770.96L1729.36 549.039V525H1721.79ZM1721.79 710.5V680.214L1770.96 651.821H1771V660.566H1770.96L1729.36 684.568V710.5H1721.79Z" fill="white" fill-opacity="0.05"/>
</g>
<g clip-path="url(#clip100)">
<path d="M1717.96 375.018L1767.18 403.411V460.196L1717.96 488.589L1668.79 460.196V403.411L1717.96 375.018ZM1676.36 407.764V455.843L1717.96 479.844L1759.61 455.805V407.764L1717.96 383.763L1676.36 407.764ZM1665 396.786L1714.14 368.393V340H1706.57V364.039L1665 388.041V396.748V396.786ZM1665 466.821L1714.14 495.214V525.5H1706.57V499.568L1665 475.566V466.859V466.821ZM1721.79 340V368.393L1770.96 396.786H1771V388.041H1770.96L1729.36 364.039V340H1721.79ZM1721.79 525.5V495.214L1770.96 466.821H1771V475.566H1770.96L1729.36 499.568V525.5H1721.79Z" fill="white" fill-opacity="0.05"/>
</g>
<g clip-path="url(#clip101)">
<path d="M1717.96 190.018L1767.18 218.411V275.196L1717.96 303.589L1668.79 275.196V218.411L1717.96 190.018ZM1676.36 222.764V270.843L1717.96 294.844L1759.61 270.805V222.764L1717.96 198.763L1676.36 222.764ZM1665 211.786L1714.14 183.393V155H1706.57V179.039L1665 203.041V211.748V211.786ZM1665 281.821L1714.14 310.214V340.5H1706.57V314.568L1665 290.566V281.859V281.821ZM1721.79 155V183.393L1770.96 211.786H1771V203.041H1770.96L1729.36 179.039V155H1721.79ZM1721.79 340.5V310.214L1770.96 281.821H1771V290.566H1770.96L1729.36 314.568V340.5H1721.79Z" fill="white" fill-opacity="0.05"/>
</g>
<g clip-path="url(#clip102)">
<path d="M1717.96 5.01786L1767.18 33.4107V90.1964L1717.96 118.589L1668.79 90.1964V33.4107L1717.96 5.01786ZM1676.36 37.7643V85.8429L1717.96 109.844L1759.61 85.805V37.7643L1717.96 13.7629L1676.36 37.7643ZM1665 26.7857L1714.14 -1.60714V-30H1706.57V-5.96071L1665 18.0407V26.7479V26.7857ZM1665 96.8214L1714.14 125.214V155.5H1706.57V129.568L1665 105.566V96.8593V96.8214ZM1721.79 -30V-1.60714L1770.96 26.7857H1771V18.0407H1770.96L1729.36 -5.96071V-30H1721.79ZM1721.79 155.5V125.214L1770.96 96.8214H1771V105.566H1770.96L1729.36 129.568V155.5H1721.79Z" fill="white" fill-opacity="0.05"/>
</g>
<g clip-path="url(#clip103)">
<path d="M1823.96 930.018L1873.18 958.411V1015.2L1823.96 1043.59L1774.79 1015.2V958.411L1823.96 930.018ZM1782.36 962.764V1010.84L1823.96 1034.84L1865.61 1010.81V962.764L1823.96 938.763L1782.36 962.764ZM1771 951.786L1820.14 923.393V895H1812.57V919.039L1771 943.041V951.748V951.786ZM1771 1021.82L1820.14 1050.21V1080.5H1812.57V1054.57L1771 1030.57V1021.86V1021.82ZM1827.79 895V923.393L1876.96 951.786H1877V943.041H1876.96L1835.36 919.039V895H1827.79ZM1827.79 1080.5V1050.21L1876.96 1021.82H1877V1030.57H1876.96L1835.36 1054.57V1080.5H1827.79Z" fill="white" fill-opacity="0.05"/>
</g>
<g clip-path="url(#clip104)">
<path d="M1823.96 745.018L1873.18 773.411V830.196L1823.96 858.589L1774.79 830.196V773.411L1823.96 745.018ZM1782.36 777.764V825.843L1823.96 849.844L1865.61 825.805V777.764L1823.96 753.763L1782.36 777.764ZM1771 766.786L1820.14 738.393V710H1812.57V734.039L1771 758.041V766.748V766.786ZM1771 836.821L1820.14 865.214V895.5H1812.57V869.568L1771 845.566V836.859V836.821ZM1827.79 710V738.393L1876.96 766.786H1877V758.041H1876.96L1835.36 734.039V710H1827.79ZM1827.79 895.5V865.214L1876.96 836.821H1877V845.566H1876.96L1835.36 869.568V895.5H1827.79Z" fill="white" fill-opacity="0.05"/>
</g>
<g clip-path="url(#clip105)">
<path d="M1823.96 560.018L1873.18 588.411V645.196L1823.96 673.589L1774.79 645.196V588.411L1823.96 560.018ZM1782.36 592.764V640.843L1823.96 664.844L1865.61 640.805V592.764L1823.96 568.763L1782.36 592.764ZM1771 581.786L1820.14 553.393V525H1812.57V549.039L1771 573.041V581.748V581.786ZM1771 651.821L1820.14 680.214V710.5H1812.57V684.568L1771 660.566V651.859V651.821ZM1827.79 525V553.393L1876.96 581.786H1877V573.041H1876.96L1835.36 549.039V525H1827.79ZM1827.79 710.5V680.214L1876.96 651.821H1877V660.566H1876.96L1835.36 684.568V710.5H1827.79Z" fill="white" fill-opacity="0.05"/>
</g>
<g clip-path="url(#clip106)">
<path d="M1823.96 375.018L1873.18 403.411V460.196L1823.96 488.589L1774.79 460.196V403.411L1823.96 375.018ZM1782.36 407.764V455.843L1823.96 479.844L1865.61 455.805V407.764L1823.96 383.763L1782.36 407.764ZM1771 396.786L1820.14 368.393V340H1812.57V364.039L1771 388.041V396.748V396.786ZM1771 466.821L1820.14 495.214V525.5H1812.57V499.568L1771 475.566V466.859V466.821ZM1827.79 340V368.393L1876.96 396.786H1877V388.041H1876.96L1835.36 364.039V340H1827.79ZM1827.79 525.5V495.214L1876.96 466.821H1877V475.566H1876.96L1835.36 499.568V525.5H1827.79Z" fill="white" fill-opacity="0.05"/>
</g>
<g clip-path="url(#clip107)">
<path d="M1823.96 190.018L1873.18 218.411V275.196L1823.96 303.589L1774.79 275.196V218.411L1823.96 190.018ZM1782.36 222.764V270.843L1823.96 294.844L1865.61 270.805V222.764L1823.96 198.763L1782.36 222.764ZM1771 211.786L1820.14 183.393V155H1812.57V179.039L1771 203.041V211.748V211.786ZM1771 281.821L1820.14 310.214V340.5H1812.57V314.568L1771 290.566V281.859V281.821ZM1827.79 155V183.393L1876.96 211.786H1877V203.041H1876.96L1835.36 179.039V155H1827.79ZM1827.79 340.5V310.214L1876.96 281.821H1877V290.566H1876.96L1835.36 314.568V340.5H1827.79Z" fill="white" fill-opacity="0.05"/>
</g>
<g clip-path="url(#clip108)">
<path d="M1823.96 5.01786L1873.18 33.4107V90.1964L1823.96 118.589L1774.79 90.1964V33.4107L1823.96 5.01786ZM1782.36 37.7643V85.8429L1823.96 109.844L1865.61 85.805V37.7643L1823.96 13.7629L1782.36 37.7643ZM1771 26.7857L1820.14 -1.60714V-30H1812.57V-5.96071L1771 18.0407V26.7479V26.7857ZM1771 96.8214L1820.14 125.214V155.5H1812.57V129.568L1771 105.566V96.8593V96.8214ZM1827.79 -30V-1.60714L1876.96 26.7857H1877V18.0407H1876.96L1835.36 -5.96071V-30H1827.79ZM1827.79 155.5V125.214L1876.96 96.8214H1877V105.566H1876.96L1835.36 129.568V155.5H1827.79Z" fill="white" fill-opacity="0.05"/>
</g>
<rect x="1997.58" y="-159" width="615" height="1582" transform="rotate(25 1997.58 -159)" fill="white"/>
<rect x="1957.58" y="-159" width="40.115" height="1582" transform="rotate(25 1957.58 -159)" fill="#C4DDF1"/>
<g clip-path="url(#clip109)">
<path d="M1738.37 836.091L1668.55 876.311V956.754L1738.37 996.974L1808.18 956.754V876.311L1738.37 836.091Z" stroke="#6CABDD" stroke-width="6.98275"/>
<path d="M1738.37 856.341L1686.01 886.506V946.838L1738.37 977.004L1790.73 946.838V886.506L1738.37 856.341Z" stroke="#6CABDD" stroke-width="6.98275"/>
<path d="M1738.37 876.242L1703.46 896.352V936.573L1738.37 956.684L1773.27 936.573V896.352L1738.37 876.242Z" stroke="#6CABDD" stroke-width="6.98275"/>
</g>
</g>
<defs>
<clipPath id="clip0">
<rect width="1920" height="1080" fill="white"/>
</clipPath>
<clipPath id="clip1">
<rect width="106" height="185.5" fill="white" transform="translate(-28 890)"/>
</clipPath>
<clipPath id="clip2">
<rect width="106" height="185.5" fill="white" transform="translate(-28 705)"/>
</clipPath>
<clipPath id="clip3">
<rect width="106" height="185.5" fill="white" transform="translate(-28 520)"/>
</clipPath>
<clipPath id="clip4">
<rect width="106" height="185.5" fill="white" transform="translate(-28 335)"/>
</clipPath>
<clipPath id="clip5">
<rect width="106" height="185.5" fill="white" transform="translate(-28 150)"/>
</clipPath>
<clipPath id="clip6">
<rect width="106" height="185.5" fill="white" transform="translate(-28 -35)"/>
</clipPath>
<clipPath id="clip7">
<rect width="106" height="185.5" fill="white" transform="translate(78 890)"/>
</clipPath>
<clipPath id="clip8">
<rect width="106" height="185.5" fill="white" transform="translate(78 705)"/>
</clipPath>
<clipPath id="clip9">
<rect width="106" height="185.5" fill="white" transform="translate(78 520)"/>
</clipPath>
<clipPath id="clip10">
<rect width="106" height="185.5" fill="white" transform="translate(78 335)"/>
</clipPath>
<clipPath id="clip11">
<rect width="106" height="185.5" fill="white" transform="translate(78 150)"/>
</clipPath>
<clipPath id="clip12">
<rect width="106" height="185.5" fill="white" transform="translate(78 -35)"/>
</clipPath>
<clipPath id="clip13">
<rect width="106" height="185.5" fill="white" transform="translate(184 890)"/>
</clipPath>
<clipPath id="clip14">
<rect width="106" height="185.5" fill="white" transform="translate(184 705)"/>
</clipPath>
<clipPath id="clip15">
<rect width="106" height="185.5" fill="white" transform="translate(184 520)"/>
</clipPath>
<clipPath id="clip16">
<rect width="106" height="185.5" fill="white" transform="translate(184 335)"/>
</clipPath>
<clipPath id="clip17">
<rect width="106" height="185.5" fill="white" transform="translate(184 150)"/>
</clipPath>
<clipPath id="clip18">
<rect width="106" height="185.5" fill="white" transform="translate(184 -35)"/>
</clipPath>
<clipPath id="clip19">
<rect width="106" height="185.5" fill="white" transform="translate(290 890)"/>
</clipPath>
<clipPath id="clip20">
<rect width="106" height="185.5" fill="white" transform="translate(290 705)"/>
</clipPath>
<clipPath id="clip21">
<rect width="106" height="185.5" fill="white" transform="translate(290 520)"/>
</clipPath>
<clipPath id="clip22">
<rect width="106" height="185.5" fill="white" transform="translate(290 335)"/>
</clipPath>
<clipPath id="clip23">
<rect width="106" height="185.5" fill="white" transform="translate(290 150)"/>
</clipPath>
<clipPath id="clip24">
<rect width="106" height="185.5" fill="white" transform="translate(290 -35)"/>
</clipPath>
<clipPath id="clip25">
<rect width="106" height="185.5" fill="white" transform="translate(396 890)"/>
</clipPath>
<clipPath id="clip26">
<rect width="106" height="185.5" fill="white" transform="translate(396 705)"/>
</clipPath>
<clipPath id="clip27">
<rect width="106" height="185.5" fill="white" transform="translate(396 520)"/>
</clipPath>
<clipPath id="clip28">
<rect width="106" height="185.5" fill="white" transform="translate(396 335)"/>
</clipPath>
<clipPath id="clip29">
<rect width="106" height="185.5" fill="white" transform="translate(396 150)"/>
</clipPath>
<clipPath id="clip30">
<rect width="106" height="185.5" fill="white" transform="translate(396 -35)"/>
</clipPath>
<clipPath id="clip31">
<rect width="106" height="185.5" fill="white" transform="translate(502 890)"/>
</clipPath>
<clipPath id="clip32">
<rect width="106" height="185.5" fill="white" transform="translate(502 705)"/>
</clipPath>
<clipPath id="clip33">
<rect width="106" height="185.5" fill="white" transform="translate(502 520)"/>
</clipPath>
<clipPath id="clip34">
<rect width="106" height="185.5" fill="white" transform="translate(502 335)"/>
</clipPath>
<clipPath id="clip35">
<rect width="106" height="185.5" fill="white" transform="translate(502 150)"/>
</clipPath>
<clipPath id="clip36">
<rect width="106" height="185.5" fill="white" transform="translate(502 -35)"/>
</clipPath>
<clipPath id="clip37">
<rect width="106" height="185.5" fill="white" transform="translate(608 890)"/>
</clipPath>
<clipPath id="clip38">
<rect width="106" height="185.5" fill="white" transform="translate(608 705)"/>
</clipPath>
<clipPath id="clip39">
<rect width="106" height="185.5" fill="white" transform="translate(608 520)"/>
</clipPath>
<clipPath id="clip40">
<rect width="106" height="185.5" fill="white" transform="translate(608 335)"/>
</clipPath>
<clipPath id="clip41">
<rect width="106" height="185.5" fill="white" transform="translate(608 150)"/>
</clipPath>
<clipPath id="clip42">
<rect width="106" height="185.5" fill="white" transform="translate(608 -35)"/>
</clipPath>
<clipPath id="clip43">
<rect width="106" height="185.5" fill="white" transform="translate(714 890)"/>
</clipPath>
<clipPath id="clip44">
<rect width="106" height="185.5" fill="white" transform="translate(714 705)"/>
</clipPath>
<clipPath id="clip45">
<rect width="106" height="185.5" fill="white" transform="translate(714 520)"/>
</clipPath>
<clipPath id="clip46">
<rect width="106" height="185.5" fill="white" transform="translate(714 335)"/>
</clipPath>
<clipPath id="clip47">
<rect width="106" height="185.5" fill="white" transform="translate(714 150)"/>
</clipPath>
<clipPath id="clip48">
<rect width="106" height="185.5" fill="white" transform="translate(714 -35)"/>
</clipPath>
<clipPath id="clip49">
<rect width="106" height="185.5" fill="white" transform="translate(821 890)"/>
</clipPath>
<clipPath id="clip50">
<rect width="106" height="185.5" fill="white" transform="translate(821 705)"/>
</clipPath>
<clipPath id="clip51">
<rect width="106" height="185.5" fill="white" transform="translate(821 520)"/>
</clipPath>
<clipPath id="clip52">
<rect width="106" height="185.5" fill="white" transform="translate(821 335)"/>
</clipPath>
<clipPath id="clip53">
<rect width="106" height="185.5" fill="white" transform="translate(821 150)"/>
</clipPath>
<clipPath id="clip54">
<rect width="106" height="185.5" fill="white" transform="translate(821 -35)"/>
</clipPath>
<clipPath id="clip55">
<rect width="106" height="185.5" fill="white" transform="translate(927 890)"/>
</clipPath>
<clipPath id="clip56">
<rect width="106" height="185.5" fill="white" transform="translate(927 705)"/>
</clipPath>
<clipPath id="clip57">
<rect width="106" height="185.5" fill="white" transform="translate(927 520)"/>
</clipPath>
<clipPath id="clip58">
<rect width="106" height="185.5" fill="white" transform="translate(927 335)"/>
</clipPath>
<clipPath id="clip59">
<rect width="106" height="185.5" fill="white" transform="translate(927 150)"/>
</clipPath>
<clipPath id="clip60">
<rect width="106" height="185.5" fill="white" transform="translate(927 -35)"/>
</clipPath>
<clipPath id="clip61">
<rect width="106" height="185.5" fill="white" transform="translate(1033 890)"/>
</clipPath>
<clipPath id="clip62">
<rect width="106" height="185.5" fill="white" transform="translate(1033 705)"/>
</clipPath>
<clipPath id="clip63">
<rect width="106" height="185.5" fill="white" transform="translate(1033 520)"/>
</clipPath>
<clipPath id="clip64">
<rect width="106" height="185.5" fill="white" transform="translate(1033 335)"/>
</clipPath>
<clipPath id="clip65">
<rect width="106" height="185.5" fill="white" transform="translate(1033 150)"/>
</clipPath>
<clipPath id="clip66">
<rect width="106" height="185.5" fill="white" transform="translate(1033 -35)"/>
</clipPath>
<clipPath id="clip67">
<rect width="106" height="185.5" fill="white" transform="translate(1139 890)"/>
</clipPath>
<clipPath id="clip68">
<rect width="106" height="185.5" fill="white" transform="translate(1139 705)"/>
</clipPath>
<clipPath id="clip69">
<rect width="106" height="185.5" fill="white" transform="translate(1139 520)"/>
</clipPath>
<clipPath id="clip70">
<rect width="106" height="185.5" fill="white" transform="translate(1139 335)"/>
</clipPath>
<clipPath id="clip71">
<rect width="106" height="185.5" fill="white" transform="translate(1139 150)"/>
</clipPath>
<clipPath id="clip72">
<rect width="106" height="185.5" fill="white" transform="translate(1139 -35)"/>
</clipPath>
<clipPath id="clip73">
<rect width="106" height="185.5" fill="white" transform="translate(1245 890)"/>
</clipPath>
<clipPath id="clip74">
<rect width="106" height="185.5" fill="white" transform="translate(1245 705)"/>
</clipPath>
<clipPath id="clip75">
<rect width="106" height="185.5" fill="white" transform="translate(1245 520)"/>
</clipPath>
<clipPath id="clip76">
<rect width="106" height="185.5" fill="white" transform="translate(1245 335)"/>
</clipPath>
<clipPath id="clip77">
<rect width="106" height="185.5" fill="white" transform="translate(1245 150)"/>
</clipPath>
<clipPath id="clip78">
<rect width="106" height="185.5" fill="white" transform="translate(1245 -35)"/>
</clipPath>
<clipPath id="clip79">
<rect width="106" height="185.5" fill="white" transform="translate(1351 890)"/>
</clipPath>
<clipPath id="clip80">
<rect width="106" height="185.5" fill="white" transform="translate(1351 705)"/>
</clipPath>
<clipPath id="clip81">
<rect width="106" height="185.5" fill="white" transform="translate(1351 520)"/>
</clipPath>
<clipPath id="clip82">
<rect width="106" height="185.5" fill="white" transform="translate(1351 335)"/>
</clipPath>
<clipPath id="clip83">
<rect width="106" height="185.5" fill="white" transform="translate(1351 150)"/>
</clipPath>
<clipPath id="clip84">
<rect width="106" height="185.5" fill="white" transform="translate(1351 -35)"/>
</clipPath>
<clipPath id="clip85">
<rect width="106" height="185.5" fill="white" transform="translate(1457 890)"/>
</clipPath>
<clipPath id="clip86">
<rect width="106" height="185.5" fill="white" transform="translate(1457 705)"/>
</clipPath>
<clipPath id="clip87">
<rect width="106" height="185.5" fill="white" transform="translate(1457 520)"/>
</clipPath>
<clipPath id="clip88">
<rect width="106" height="185.5" fill="white" transform="translate(1457 335)"/>
</clipPath>
<clipPath id="clip89">
<rect width="106" height="185.5" fill="white" transform="translate(1457 150)"/>
</clipPath>
<clipPath id="clip90">
<rect width="106" height="185.5" fill="white" transform="translate(1457 -35)"/>
</clipPath>
<clipPath id="clip91">
<rect width="106" height="185.5" fill="white" transform="translate(1563 890)"/>
</clipPath>
<clipPath id="clip92">
<rect width="106" height="185.5" fill="white" transform="translate(1563 705)"/>
</clipPath>
<clipPath id="clip93">
<rect width="106" height="185.5" fill="white" transform="translate(1563 520)"/>
</clipPath>
<clipPath id="clip94">
<rect width="106" height="185.5" fill="white" transform="translate(1563 335)"/>
</clipPath>
<clipPath id="clip95">
<rect width="106" height="185.5" fill="white" transform="translate(1563 150)"/>
</clipPath>
<clipPath id="clip96">
<rect width="106" height="185.5" fill="white" transform="translate(1563 -35)"/>
</clipPath>
<clipPath id="clip97">
<rect width="106" height="185.5" fill="white" transform="translate(1665 895)"/>
</clipPath>
<clipPath id="clip98">
<rect width="106" height="185.5" fill="white" transform="translate(1665 710)"/>
</clipPath>
<clipPath id="clip99">
<rect width="106" height="185.5" fill="white" transform="translate(1665 525)"/>
</clipPath>
<clipPath id="clip100">
<rect width="106" height="185.5" fill="white" transform="translate(1665 340)"/>
</clipPath>
<clipPath id="clip101">
<rect width="106" height="185.5" fill="white" transform="translate(1665 155)"/>
</clipPath>
<clipPath id="clip102">
<rect width="106" height="185.5" fill="white" transform="translate(1665 -30)"/>
</clipPath>
<clipPath id="clip103">
<rect width="106" height="185.5" fill="white" transform="translate(1771 895)"/>
</clipPath>
<clipPath id="clip104">
<rect width="106" height="185.5" fill="white" transform="translate(1771 710)"/>
</clipPath>
<clipPath id="clip105">
<rect width="106" height="185.5" fill="white" transform="translate(1771 525)"/>
</clipPath>
<clipPath id="clip106">
<rect width="106" height="185.5" fill="white" transform="translate(1771 340)"/>
</clipPath>
<clipPath id="clip107">
<rect width="106" height="185.5" fill="white" transform="translate(1771 155)"/>
</clipPath>
<clipPath id="clip108">
<rect width="106" height="185.5" fill="white" transform="translate(1771 -30)"/>
</clipPath>
<clipPath id="clip109">
<rect width="146.735" height="169" fill="white" transform="translate(1665 832)"/>
</clipPath>
</defs>
</svg>
