<?xml version="1.0" encoding="utf-8"?>
<!-- Generator: Adobe Illustrator 19.0.0, SVG Export Plug-In . SVG Version: 6.00 Build 0)  -->
<svg version="1.1" id="layer" xmlns="http://www.w3.org/2000/svg" xmlns:xlink="http://www.w3.org/1999/xlink" x="0px" y="0px"
	 viewBox="-153 -46 652 652" style="enable-background:new -153 -46 652 652;" xml:space="preserve">
<style type="text/css">
	.st0{fill:#00998A;}
</style>
<path class="st0" d="M8.7,339.4c0,3-2.5,5.1-5.1,5.1h-129.8c-2.5,0-5.1-2.5-5.1-5.1V209.6c0-2.5,2.5-5.1,5.1-5.1H3.2
	c3,0,5.5,2.5,5.5,5.1V339.4z M-107.9,316.9l69.1-33.5c0,0,2.5-1.7,2.5-3s-0.8-2.1-0.8-2.1l-10.6-9.3c0,0-0.8-0.8-0.8-1.7
	c0-0.8,0.8-2.1,0.8-2.1l32.7-35.2l-66.6,35.6c0,0-2.5,1.7-2.5,3s0.8,2.1,0.8,2.1l10.6,9.3c0,0,0.8,0.8,0.8,1.7
	c0,0.8-0.8,2.1-0.8,2.1L-107.9,316.9z M40.9,312.7v-77.2H99v14.8H57.9V266h36v14.8h-36V297h41.6v14.8H40.9V312.7z M148.6,312.7v-8.5
	c-4.2,5.5-9.8,9.8-18.2,9.8c-13.6,0-26.7-10.6-26.7-30.5V283c0-19.5,12.7-30.5,26.7-30.5c8.9,0,14.4,4.2,18.2,8.9v-29.3h17v80.1h-17
	V312.7z M149,283c0-9.8-6.4-16.1-14.4-16.1c-7.6,0-14.4,6.4-14.4,16.1v0.4c0,9.8,6.8,16.1,14.4,16.1C142.7,299.5,149,292.7,149,283
	L149,283z M203.7,313.5c-11.4,0-23.3-4.2-32.7-12.3l10.2-11.9c6.8,5.5,14,9.3,22.9,9.3c6.8,0,11-2.5,11-7.2V291
	c0-4.2-2.5-6.4-15.7-9.8c-15.7-3.8-25.4-8.1-25.4-23.3v-0.4c0-14,11-23.3,26.7-23.3c11,0,20.8,3.4,28.4,9.8l-8.9,12.7
	c-6.8-4.7-13.6-7.6-19.9-7.6c-6.4,0-9.8,3-9.8,6.8v0.4c0,5.1,3.4,6.8,16.5,10.2c15.7,4.2,24.2,9.8,24.2,22.9v0.4
	C232.1,305,220.3,313.5,203.7,313.5z M276.2,312.7v-8.5c-3.8,5.1-8.9,9.3-17.4,9.3c-12.7,0-19.9-8.5-19.9-22v-38.2h16.5v32.7
	c0,8.1,3.8,11.9,10.2,11.9c6.4,0,10.6-4.2,10.6-11.9v-32.7h16.5v58.9h-16.5V312.7z M338.1,269.8c-11,0-17.8,6.8-17.8,20.8v21.6
	h-16.5v-58.5h16.5v11.9c3.4-8.1,8.9-13.6,18.7-13.1v17.4C339,269.8,338.1,269.8,338.1,269.8z M370.4,330c-9.8,0-18.7-2.1-25.9-6.4
	L350,311c5.9,3.4,11.9,5.5,19.9,5.5c11.4,0,17-5.5,17-16.1v-3c-5.1,5.9-10.2,9.8-19.1,9.8c-13.6,0-26.3-10.2-26.3-27.6v-0.4
	c0-17.4,12.7-27.6,26.3-27.6c8.9,0,14.4,3.8,19.1,8.9v-7.6h16.5v45.4C403,321.1,392.4,330,370.4,330z M386.9,280
	c0-8.1-6.4-13.6-14.4-13.6s-14.4,5.5-14.4,13.6v0.4c0,8.1,6.4,13.6,14.4,13.6S386.9,288.1,386.9,280L386.9,280z M468.3,288.9h-41.1
	c1.7,7.6,6.8,11.4,14.4,11.4c5.5,0,9.8-1.7,14.4-5.9l9.8,8.5c-5.5,6.8-13.6,11-24.2,11c-17.8,0-31-12.3-31-30.5V283
	c0-17,11.9-30.5,29.3-30.5c19.5,0,28.8,15.3,28.8,31.8v0.4C468.8,286.4,468.8,287.2,468.3,288.9z M439.9,266
	c-6.8,0-11.4,5.1-12.7,12.7h25C451.4,271.1,447.1,266,439.9,266z"/>
</svg>
