<svg width="1078" height="814" viewBox="0 0 1078 814" fill="none" xmlns="http://www.w3.org/2000/svg">
<g clip-path="url(#clip0)">
<path opacity="0.1" d="M663.83 111.35C617.58 150.61 557.59 148.07 505.02 127.64C452.45 107.21 404.16 70.8501 352.94 45.0001C310 23.3301 264.94 9.10011 219.33 2.77011C154.05 -6.28989 81.15 4.77011 35.67 68.2101C-14.98 138.89 -11.09 266.37 43.67 331.21C71.54 364.21 108.03 380.41 139.85 406.21C171.67 432.01 201.14 474.77 198.43 524.51C195.92 570.51 166.75 605.88 136.56 628.05C113.23 645.18 84.5 663.89 81.69 699.38C78.97 733.71 103.13 760.62 126.2 775.92C201.46 825.83 294.2 825.35 369.2 774.66C395.94 756.57 420.5 732.51 448.55 718.43C522.2 681.43 603.36 718.67 681.35 732.3C747.35 743.83 815.04 737.85 879.35 714.82C917.97 700.99 956.74 679.82 983.87 640.46C1003.44 612.06 1015.63 576.11 1027.07 540.61C1039.27 502.763 1051 464.643 1062.26 426.25C1069.01 403.2 1075.66 379.71 1077.41 355.06C1080.57 310.38 1067.25 266.21 1049.11 228.51C1006.04 138.98 933.5 76.0301 854.94 60.0401C776.38 44.0501 693.27 75.2801 632.34 143.62" fill="#6CABDD"/>
<path opacity="0.1" d="M489.56 542.89C614.918 542.89 716.54 538.252 716.54 532.53C716.54 526.808 614.918 522.17 489.56 522.17C364.202 522.17 262.58 526.808 262.58 532.53C262.58 538.252 364.202 542.89 489.56 542.89Z" fill="#6CABDD"/>
<path d="M481.94 489.75C368.47 489.75 276.16 397.44 276.16 283.97C276.16 170.5 368.44 78.1899 481.94 78.1899C595.44 78.1899 687.69 170.51 687.69 283.97C687.69 397.43 595.37 489.75 481.94 489.75ZM481.94 80.1899C369.57 80.1899 278.16 171.61 278.16 283.97C278.16 396.33 369.54 487.75 481.94 487.75C594.34 487.75 685.72 396.33 685.72 283.97C685.72 171.61 594.27 80.1899 481.94 80.1899Z" fill="white"/>
<path d="M481.94 443.57C393.94 443.57 322.33 371.97 322.33 283.97C322.33 195.97 393.94 124.37 481.94 124.37C569.94 124.37 641.54 195.97 641.54 283.97C641.54 371.97 569.94 443.57 481.94 443.57ZM481.94 126.37C395.03 126.37 324.33 197.07 324.33 283.97C324.33 370.87 395.03 441.57 481.94 441.57C568.85 441.57 639.54 370.87 639.54 283.97C639.54 197.07 568.81 126.37 481.94 126.37Z" fill="white"/>
<path d="M481.94 393.97C460.184 393.97 438.917 387.519 420.827 375.432C402.738 363.345 388.639 346.165 380.313 326.065C371.988 305.965 369.809 283.848 374.054 262.51C378.298 241.172 388.774 221.572 404.158 206.188C419.542 190.804 439.142 180.328 460.48 176.084C481.818 171.839 503.935 174.018 524.035 182.343C544.135 190.669 561.315 204.768 573.402 222.857C585.489 240.947 591.94 262.214 591.94 283.97C591.906 313.133 580.305 341.092 559.684 361.714C539.062 382.335 511.103 393.936 481.94 393.97V393.97ZM481.94 175.97C460.58 175.97 439.699 182.304 421.938 194.171C404.178 206.038 390.335 222.906 382.161 242.64C373.987 262.375 371.848 284.09 376.015 305.04C380.182 325.99 390.468 345.233 405.572 360.338C420.677 375.442 439.92 385.728 460.87 389.895C481.82 394.062 503.535 391.923 523.27 383.749C543.004 375.575 559.872 361.732 571.739 343.972C583.606 326.211 589.94 305.33 589.94 283.97C589.906 255.337 578.516 227.887 558.27 207.64C538.023 187.394 510.573 176.004 481.94 175.97V175.97Z" fill="white"/>
<path opacity="0.1" d="M979.99 407.88C987.871 407.88 994.26 405.767 994.26 403.16C994.26 400.553 987.871 398.44 979.99 398.44C972.109 398.44 965.72 400.553 965.72 403.16C965.72 405.767 972.109 407.88 979.99 407.88Z" fill="#6CABDD"/>
<path opacity="0.1" d="M178.55 665.61C224.964 665.61 262.59 659.436 262.59 651.82C262.59 644.204 224.964 638.03 178.55 638.03C132.136 638.03 94.51 644.204 94.51 651.82C94.51 659.436 132.136 665.61 178.55 665.61Z" fill="#6CABDD"/>
<g opacity="0.1">
<path opacity="0.1" d="M325.87 269.72H69.4801C65.9294 269.731 62.5272 271.146 60.0165 273.656C57.5058 276.167 56.0906 279.569 56.0801 283.12V445.12C56.0906 448.671 57.5058 452.073 60.0165 454.584C62.5272 457.094 65.9294 458.509 69.4801 458.52H270.61C270.61 458.52 275.82 486.18 258.7 489.16C258.7 489.16 297.04 491.91 290.34 458.52H325.87C329.421 458.509 332.823 457.094 335.334 454.584C337.844 452.073 339.26 448.671 339.27 445.12V283.12C339.26 279.569 337.844 276.167 335.334 273.656C332.823 271.146 329.421 269.731 325.87 269.72V269.72Z" fill="black"/>
<g opacity="0.2">
<path opacity="0.2" d="M295.85 312.72H99.4901C96.3586 312.72 93.8201 315.259 93.8201 318.39V319.71C93.8201 322.841 96.3586 325.38 99.4901 325.38H295.85C298.982 325.38 301.52 322.841 301.52 319.71V318.39C301.52 315.259 298.982 312.72 295.85 312.72Z" fill="black"/>
<path opacity="0.2" d="M295.85 369.3H99.4901C96.3586 369.3 93.8201 371.839 93.8201 374.97V376.29C93.8201 379.422 96.3586 381.96 99.4901 381.96H295.85C298.982 381.96 301.52 379.422 301.52 376.29V374.97C301.52 371.839 298.982 369.3 295.85 369.3Z" fill="black"/>
<path opacity="0.2" d="M262.33 397.58H99.4901C96.3586 397.58 93.8201 400.119 93.8201 403.25V404.57C93.8201 407.702 96.3586 410.24 99.4901 410.24H262.33C265.462 410.24 268 407.702 268 404.57V403.25C268 400.119 265.462 397.58 262.33 397.58Z" fill="black"/>
<path opacity="0.2" d="M178.21 341.01H99.4901C96.3586 341.01 93.8201 343.549 93.8201 346.68V348C93.8201 351.131 96.3586 353.67 99.4901 353.67H178.21C181.342 353.67 183.88 351.131 183.88 348V346.68C183.88 343.549 181.342 341.01 178.21 341.01Z" fill="black"/>
</g>
</g>
<path d="M328.11 268.6H71.7101C68.1594 268.611 64.7572 270.026 62.2465 272.537C59.7358 275.047 58.3206 278.449 58.3101 282V444C58.3206 447.551 59.7358 450.953 62.2465 453.464C64.7572 455.974 68.1594 457.39 71.7101 457.4H272.84C272.84 457.4 278.06 485.06 260.93 488.03C260.93 488.03 299.27 490.78 292.57 457.4H328.11C331.66 457.39 335.061 455.974 337.57 453.463C340.079 450.952 341.492 447.55 341.5 444V282C341.492 278.45 340.079 275.048 337.57 272.537C335.061 270.026 331.66 268.611 328.11 268.6Z" fill="white"/>
<g opacity="0.2">
<path opacity="0.2" d="M298.09 311.6H101.73C98.5986 311.6 96.0601 314.139 96.0601 317.27V318.59C96.0601 321.722 98.5986 324.26 101.73 324.26H298.09C301.222 324.26 303.76 321.722 303.76 318.59V317.27C303.76 314.139 301.222 311.6 298.09 311.6Z" fill="#6CABDD"/>
<path opacity="0.2" d="M298.09 368.18H101.73C98.5986 368.18 96.0601 370.719 96.0601 373.85V375.17C96.0601 378.302 98.5986 380.84 101.73 380.84H298.09C301.222 380.84 303.76 378.302 303.76 375.17V373.85C303.76 370.719 301.222 368.18 298.09 368.18Z" fill="#6CABDD"/>
<path opacity="0.2" d="M264.57 396.47H101.73C98.5986 396.47 96.0601 399.009 96.0601 402.14V403.46C96.0601 406.592 98.5986 409.13 101.73 409.13H264.57C267.702 409.13 270.24 406.592 270.24 403.46V402.14C270.24 399.009 267.702 396.47 264.57 396.47Z" fill="#6CABDD"/>
<path opacity="0.2" d="M180.45 339.89H101.73C98.5986 339.89 96.0601 342.429 96.0601 345.56V346.88C96.0601 350.012 98.5986 352.55 101.73 352.55H180.45C183.582 352.55 186.12 350.012 186.12 346.88V345.56C186.12 342.429 183.582 339.89 180.45 339.89Z" fill="#6CABDD"/>
</g>
<path d="M232.94 266.03L218.73 296.25C218.73 296.25 216.63 301.92 215.28 302.97C213.93 304.02 207.96 321.97 207.96 321.97L192.73 345.51L191.73 347.11L185.73 345.46L181.54 329.79L181.8 325.24V324.67C181.8 324.67 191.23 314.81 193.32 314.06C193.32 314.06 194.96 314.25 198.11 306.61C201.26 298.97 204.11 297.31 204.11 297.31L205.75 291.77L223.41 263.66C223.41 263.66 238.21 242.43 242.24 251.85C246.27 261.27 232.94 266.03 232.94 266.03Z" fill="#FFD2C6"/>
<path d="M173.94 480.68C173.892 481.193 173.728 481.689 173.46 482.13C171.82 484.52 162.55 533.42 162.55 533.42C163.29 536.72 161.21 543.3 159.85 546.29C158.49 549.28 155.51 564.83 155.51 564.83C155.51 564.83 154.77 598.33 152.83 603.56C150.89 608.79 153.45 620.01 153.45 620.01C153.26 625.17 156.36 630.62 158.2 633.4C158.34 633.58 158.45 633.76 158.56 633.91C159.16 634.77 159.56 635.26 159.56 635.26C160.062 636.264 160.775 637.147 161.65 637.85C161.78 637.96 161.92 638.06 162.07 638.17C164.61 639.878 167.455 641.08 170.45 641.71L170.74 641.77C171.94 642.04 172.74 642.14 172.74 642.14L173.48 646.14L165.56 647.78L150.46 648.78C150.46 648.78 132.66 650.13 136.7 642.2C136.984 641.659 137.228 641.097 137.43 640.52V640.52C137.58 640.14 137.72 639.74 137.84 639.34C140.27 631.72 138.63 622.46 138.63 622.46L135.15 595.51C129.48 570.39 139.63 542.42 139.63 542.42C139.63 542.42 138.74 540.18 140.69 534.5C142.64 528.82 140.69 516.41 140.69 516.41C140.69 516.41 139.69 500.41 138.3 492.48C137.769 489.151 137.588 485.776 137.76 482.41C137.824 480.434 138.004 478.464 138.3 476.51L172.4 471.99C172.4 471.99 174.32 477.51 173.94 480.68Z" fill="#FFD2C6"/>
<path opacity="0.1" d="M173.44 646.19L165.52 647.83L150.42 648.83C150.42 648.83 132.62 650.18 136.66 642.25C136.944 641.708 137.188 641.147 137.39 640.57V640.57C137.54 640.19 137.68 639.79 137.8 639.39C140.881 639.486 143.924 640.101 146.8 641.21C151.87 643.21 155.69 638.06 155.69 638.06L158.15 633.36L158.51 632.68C159.11 633.54 159.51 634.03 159.51 634.03C160.099 635.186 160.961 636.181 162.02 636.93L161.6 637.81L159.21 642.81C159.21 642.81 162.27 643.12 166.46 643.81C167.269 644.029 168.131 643.927 168.865 643.524C169.6 643.121 170.15 642.45 170.4 641.65L170.69 641.71C171.89 641.98 172.69 642.08 172.69 642.08L173.44 646.19Z" fill="black"/>
<path d="M180.77 649.92C180.17 652.61 163.5 653.44 163.5 653.44C163.5 653.44 154.22 652.54 151.62 654.71C149.02 656.88 141.36 656.36 141.06 656.36C140.76 656.36 136.73 656.2 135.15 648.96C133.62 641.9 137.21 640.67 137.39 640.61C140.617 640.654 143.811 641.274 146.82 642.44C151.89 644.44 155.71 639.3 155.71 639.3L158.53 633.91C159.13 634.77 159.53 635.26 159.53 635.26C160.114 636.422 160.977 637.421 162.04 638.17L159.23 644.08C159.23 644.08 162.29 644.39 166.48 645.08C169.83 645.62 170.56 642.89 170.71 641.79C170.72 641.64 170.72 641.49 170.71 641.34C170.71 641.34 173.32 642.09 176.53 642.99C177.977 643.403 179.216 644.345 180.001 645.628C180.787 646.912 181.061 648.444 180.77 649.92Z" fill="#626696"/>
<path d="M212.18 516.32C211.78 518.71 211.37 524.9 211.37 524.9C212.77 530.08 209.18 542.39 209.18 542.39L207.39 549.39C208.19 558.39 202.46 580.3 202.46 580.3C202.46 580.3 198.62 600.64 196.62 609.42C195.427 614.292 195.776 619.415 197.62 624.08C197.72 624.32 197.78 624.44 197.78 624.44C197.78 624.61 197.85 624.77 197.9 624.93C197.95 625.09 198.03 625.41 198.11 625.64C198.569 626.865 199.247 627.997 200.11 628.98C200.438 629.373 200.796 629.741 201.18 630.08L201.24 630.14C203.118 631.802 205.27 633.125 207.6 634.05V634.05L208.6 634.45C209.638 634.841 210.696 635.175 211.77 635.45C211.889 635.483 212.009 635.51 212.13 635.53L211.32 640.23L200.76 637.53L186.61 632.94L179.61 628.94C179.61 628.94 179.69 628.56 179.83 627.83C179.83 627.83 179.83 627.75 179.83 627.71C179.89 627.4 179.95 627.03 180.04 626.61C181.23 620.51 183.94 603.21 182.58 590.51C180.89 574.76 187.45 553.02 189.05 547.84C189.998 544.88 190.404 541.774 190.25 538.67C187.65 534.87 187.05 519.73 187.05 519.73C187.05 519.73 182.27 509.95 178.31 499.58C177.004 496.193 176.049 492.682 175.46 489.1C174.999 486.574 174.805 484.007 174.88 481.44C174.88 481.44 207 452.13 210.52 480.51C210.64 481.51 210.75 482.39 210.86 483.29C213.94 509.23 212.56 514.01 212.18 516.32Z" fill="#FFD2C6"/>
<path opacity="0.1" d="M212.18 635.56L211.37 640.26L200.81 637.56L186.66 632.97L179.66 628.97C179.66 628.97 179.74 628.59 179.88 627.86C179.88 627.86 179.88 627.78 179.88 627.74C179.94 627.43 180 627.06 180.09 626.64L181.09 626.54H181.17C183.182 626.353 185.21 626.627 187.1 627.34C189.4 628.21 192.42 629.2 193.04 628.78C194.109 628.322 195.269 628.117 196.43 628.18L197.9 624.96L198.11 624.47C198.566 625.696 199.244 626.829 200.11 627.81C200.458 628.223 200.836 628.611 201.24 628.97L201.18 630.11L201.1 631.72C202.678 632.731 204.387 633.522 206.18 634.07C206.646 634.186 207.134 634.186 207.6 634.07V634.07L208.6 634.47C209.637 634.861 210.696 635.195 211.77 635.47C211.905 635.509 212.041 635.539 212.18 635.56Z" fill="black"/>
<path d="M206.94 645.59C203.99 644.74 196.88 643.39 195.73 644.44C194.58 645.49 184.73 644.44 184.73 644.44C183.695 644.422 182.682 644.136 181.79 643.61C180.898 643.084 180.158 642.337 179.64 641.44C177.64 638.25 179.25 627.93 179.25 627.93L179.98 627.86L181.2 627.74H181.28C183.292 627.548 185.321 627.822 187.21 628.54C189.51 629.4 192.53 630.39 193.15 629.98C194.217 629.517 195.379 629.311 196.54 629.38L198.22 625.67C198.679 626.895 199.357 628.027 200.22 629.01C200.568 629.423 200.946 629.811 201.35 630.17L201.21 632.92C202.79 633.926 204.499 634.713 206.29 635.26C206.723 635.437 207.204 635.457 207.649 635.316C208.095 635.176 208.477 634.883 208.73 634.49C208.81 634.363 208.871 634.225 208.91 634.08C209 634.25 209.97 634.58 213.08 635.47C216.46 635.28 219.72 636.75 221.22 641.33C222.72 645.91 209.83 646.43 206.94 645.59Z" fill="#626696"/>
<path opacity="0.1" d="M173.94 480.68C173.28 480.87 172.68 481.05 172.12 481.23C170.681 481.671 169.205 481.982 167.71 482.16C158.28 483.49 142.71 482.69 137.78 482.38C137.844 480.404 138.024 478.434 138.32 476.48L172.42 471.96C172.42 471.96 174.32 477.51 173.94 480.68Z" fill="black"/>
<path d="M203.66 472.4C203.66 472.4 191.14 474.34 180.96 476.57C177.56 477.31 174.42 478.08 172.1 478.84C170.658 479.271 169.183 479.582 167.69 479.77C156.35 481.36 136.21 479.89 136.21 479.89C130.68 461.95 142.93 439.36 142.93 439.36C142.64 437.56 145.48 432.04 145.48 432.04L145.53 431.86L147.27 425.46H193.78L194.35 428.21L195.53 433.81L202.83 468.48L203.66 472.4Z" fill="#626696"/>
<path opacity="0.1" d="M210.86 483.28L210.58 483.4L205.14 485.81C199.25 488.53 181.62 489.04 175.46 489.09C174.999 486.564 174.805 483.997 174.88 481.43C174.88 481.43 207 452.12 210.52 480.5C210.64 481.51 210.75 482.38 210.86 483.28Z" fill="black"/>
<path d="M211.72 480.51L210.58 481.01L205.14 483.43C199.14 486.19 180.95 486.68 175.14 486.71H173.61C170.92 486.62 168.23 484.1 168.23 483.44C168.23 483.08 167.95 481.31 167.71 479.79C167.51 478.57 167.33 477.52 167.33 477.52C167.33 477.52 155.33 472.34 149.24 468.15C144.67 465.04 145.82 442.94 146.71 431.83C147.02 428 147.29 425.48 147.29 425.48L194.37 428.23L200.97 428.61L204.75 429.45L205.75 429.66C205.75 429.66 208.45 449.4 209.75 451.04C211.05 452.68 210.21 458.22 210.05 461.37C210.044 462.715 209.896 464.056 209.61 465.37C209.61 465.37 211.55 470.91 211.09 474.01C210.884 476.197 211.098 478.403 211.72 480.51V480.51Z" fill="#626696"/>
<path d="M161.33 316.58C171.984 316.58 180.62 307.944 180.62 297.29C180.62 286.636 171.984 278 161.33 278C150.676 278 142.04 286.636 142.04 297.29C142.04 307.944 150.676 316.58 161.33 316.58Z" fill="#FFD2C6"/>
<path d="M151.94 305.34C151.94 305.34 153.28 323.61 149.55 327.8C145.82 331.99 136.09 339.91 136.09 339.91L139.09 352.32L155.99 354.27L175.73 333.18L171.24 327.65C171.24 327.65 167.8 315.98 170.64 310.15C173.48 304.32 151.94 305.34 151.94 305.34Z" fill="#FFD2C6"/>
<path opacity="0.1" d="M192.73 345.51L191.73 347.11L185.73 345.46L181.54 329.79L181.8 325.24L183.03 323.47C183.03 323.47 189.61 323.63 189.32 329.61C189.03 334.86 192.02 343.51 192.73 345.51Z" fill="black"/>
<path opacity="0.1" d="M205.74 432.04C205.74 432.04 200.98 433.1 195.53 433.81C190.08 434.52 183.79 434.88 181.21 433.38C176.88 430.82 153.42 431.55 146.69 431.81C146.21 431.81 145.83 431.81 145.53 431.86L147.27 425.46H193.78L194.35 428.21L200.95 428.59L204.73 429.43C205.36 430.98 205.74 432.04 205.74 432.04Z" fill="black"/>
<path d="M181.82 324.66C181.82 324.66 188.4 324.81 188.1 330.79C187.8 336.77 191.69 347.09 191.69 347.09L190.19 350.53C190.19 350.53 188.1 358.9 189.74 361C191.38 363.1 197.37 363.09 193.93 380.29C193.93 380.29 193.19 393.15 194.98 397.34C196.77 401.53 196.77 411.54 199.46 415.73C202.15 419.92 205.75 429.64 205.75 429.64C205.75 429.64 186.3 433.97 181.22 430.98C176.14 427.99 144.88 429.51 144.88 429.51C144.88 429.51 145.03 424.27 144.88 423.68C144.743 423.025 144.739 422.35 144.868 421.694C144.997 421.038 145.256 420.414 145.63 419.86C146.63 418.44 148.32 416.05 147.42 413.96C146.52 411.87 149.67 408.78 148.02 405.54C146.37 402.3 144.37 401.65 144.77 399.88C145.17 398.11 144.13 395.71 142.94 394.22C141.75 392.73 133.66 376.92 133.66 376.92L132.32 369.51C132.32 369.51 121.91 361.88 122.1 358.29C122.29 354.7 126.04 349.73 126.04 349.73L136.04 339.9C136.04 339.9 141.57 345.9 146.95 343.79C152.33 341.68 163.94 331.68 163.94 331.68C163.94 331.68 168.08 329.44 168.38 327.8C168.68 326.16 171.22 327.65 171.22 327.65C171.22 327.65 174.96 325.6 175.71 326.32C176.46 327.04 179.71 327.65 179.71 327.65L181.82 324.66Z" fill="#FFCDE5"/>
<path d="M125.29 355.81L122.1 358.3C122.1 358.3 118.86 364.14 118.1 374.6C117.34 385.06 114.1 399.86 114.1 399.86L107.82 411.09C107.82 411.09 97.47 432.76 96.13 438.51C94.79 444.26 88.65 453.99 88.65 453.99C88.65 453.99 67.86 472.67 82.37 475.99C96.88 479.31 97.32 461.12 97.32 461.12C97.32 461.12 100.71 457.38 101.26 454.84C101.81 452.3 120.2 419.77 120.2 419.77C120.2 419.77 126.64 411.02 125.29 406.39C125.29 406.39 133.66 386.7 133.66 381.76C133.502 377.65 133.054 373.557 132.32 369.51L133.66 359.19L125.29 355.81Z" fill="#FFD2C6"/>
<path opacity="0.1" d="M168.36 397.04C168.36 397.04 153.7 404.71 150.86 405.11C148.02 405.51 163.27 403.51 163.27 403.51L168.36 397.04Z" fill="black"/>
<path opacity="0.1" d="M180.32 403.02C180.32 403.02 160.88 409.6 152.32 408.4C152.36 408.4 173.59 412.44 180.32 403.02Z" fill="black"/>
<path opacity="0.1" d="M181.52 405.17C181.52 405.17 164.02 416.17 153.7 414.38C153.7 414.38 177.78 419.17 181.52 416.63L170.75 413.63C170.75 413.63 182.72 407.31 181.52 405.17Z" fill="black"/>
<path opacity="0.1" d="M161.36 263.35C156.3 262.35 150.69 262.95 146.64 266.13C143.64 268.49 141.64 272.13 138.27 273.85C136.486 274.6 134.66 275.245 132.8 275.78C129.519 277.12 126.784 279.526 125.037 282.61C123.291 285.694 122.633 289.277 123.17 292.78C123.7 295.78 125.09 298.48 125.77 301.4C126.99 306.62 125.92 312.09 124.59 317.28C120.901 331.704 115.302 345.57 107.94 358.51C107.353 359.311 107.06 360.289 107.11 361.28C107.285 361.946 107.63 362.556 108.11 363.05C115.02 371.05 126.27 373.78 136.83 374.14C140.72 374.27 144.83 374.14 148.21 372.25C150.413 370.984 152.309 369.246 153.76 367.16C157.445 362.129 159.276 355.977 158.94 349.75C158.65 344.75 156.94 339.66 158.23 334.81C158.367 334.132 158.677 333.502 159.13 332.98C160.27 331.82 162.13 332.12 163.77 331.93C168.16 331.42 171 326.79 171.52 322.41C172.04 318.03 170.94 313.6 170.92 309.19C170.896 303.35 172.72 297.651 176.13 292.91C177.59 290.91 179.46 288.91 179.95 286.4C180.57 283.25 178.74 280.93 177.16 278.4C174.71 274.52 173.51 269.99 169.78 267.03C167.298 265.164 164.415 263.904 161.36 263.35V263.35Z" fill="black"/>
<path d="M160.16 262.15C155.11 261.15 149.49 261.75 145.44 264.94C142.44 267.29 140.44 270.94 137.07 272.66C135.29 273.408 133.467 274.05 131.61 274.58C128.328 275.92 125.593 278.326 123.844 281.409C122.095 284.493 121.435 288.076 121.97 291.58C122.5 294.58 123.89 297.28 124.58 300.21C125.8 305.43 124.72 310.89 123.4 316.08C119.72 330.502 114.131 344.368 106.78 357.31C106.192 358.106 105.902 359.082 105.96 360.07C106.129 360.739 106.474 361.35 106.96 361.84C113.88 369.84 125.12 372.57 135.68 372.93C139.57 373.07 143.68 372.93 147.06 371.05C149.264 369.78 151.159 368.039 152.61 365.95C156.276 360.926 158.095 354.79 157.76 348.58C157.47 343.58 155.76 338.49 157.06 333.63C157.194 332.953 157.501 332.323 157.95 331.8C159.09 330.64 160.95 330.94 162.6 330.8C166.99 330.29 169.82 325.66 170.34 321.27C170.86 316.88 169.77 312.47 169.74 308.05C169.703 302.194 171.524 296.476 174.94 291.72C176.4 289.72 178.26 287.72 178.75 285.2C179.37 282.05 177.55 279.74 175.97 277.2C173.52 273.32 172.32 268.79 168.58 265.84C166.101 263.967 163.217 262.703 160.16 262.15Z" fill="#985C7E"/>
<path opacity="0.1" d="M153.7 449.13C153.7 449.13 157.54 467.07 163.92 471.96L153.7 449.13Z" fill="black"/>
<g opacity="0.1">
<path opacity="0.1" d="M123.11 295.58C122.91 294.88 122.68 294.18 122.44 293.49C122.64 294.19 122.87 294.89 123.11 295.58Z" fill="black"/>
<path opacity="0.1" d="M177.67 279.92C177.717 280.484 177.69 281.052 177.59 281.61C177.09 284.14 175.23 286.11 173.77 288.13C170.357 292.866 168.533 298.562 168.56 304.4C168.56 308.82 169.67 313.23 169.15 317.62C168.63 322.01 165.8 326.62 161.41 327.15C159.79 327.34 157.9 327.03 156.77 328.15C156.317 328.672 156.007 329.302 155.87 329.98C154.6 334.84 156.29 339.92 156.57 344.93C156.908 351.139 155.093 357.275 151.43 362.3C149.976 364.386 148.082 366.127 145.88 367.4C142.45 369.25 138.39 369.4 134.49 369.28C124.11 368.93 113.07 366.28 106.13 358.57C105.945 359.026 105.886 359.523 105.96 360.01C106.129 360.679 106.474 361.29 106.96 361.78C113.88 369.78 125.12 372.51 135.68 372.87C139.57 373.01 143.68 372.87 147.06 370.99C149.262 369.717 151.156 367.976 152.61 365.89C156.276 360.866 158.095 354.73 157.76 348.52C157.47 343.52 155.76 338.43 157.06 333.57C157.194 332.893 157.501 332.263 157.95 331.74C159.09 330.58 160.95 330.88 162.6 330.74C166.99 330.23 169.82 325.6 170.34 321.21C170.86 316.82 169.77 312.41 169.74 307.99C169.716 302.154 171.536 296.46 174.94 291.72C176.4 289.72 178.26 287.72 178.75 285.2C179.066 283.367 178.68 281.482 177.67 279.92Z" fill="black"/>
</g>
<path d="M521.27 763.98C521.27 763.98 483.22 761.68 487.71 788.34C487.71 788.34 486.82 793.05 491.09 795.19C491.09 795.19 491.16 793.19 494.99 793.89C496.354 794.12 497.74 794.187 499.12 794.09C500.989 793.961 502.765 793.227 504.18 792V792C504.18 792 514.87 787.58 519.03 770.1C519.03 770.1 522.11 766.29 522.03 765.31L515.61 768.05C515.61 768.05 517.8 772.68 516.07 776.53C516.07 776.53 515.87 768.22 514.63 768.42C514.38 768.42 511.3 770.02 511.3 770.02C511.3 770.02 515.07 778.09 512.22 783.95C512.22 783.95 513.3 774.01 510.12 770.61L505.6 773.24C505.6 773.24 510.01 781.58 507.02 788.38C507.02 788.38 507.79 777.95 504.65 773.89L500.55 777.08C500.55 777.08 504.7 785.29 502.17 790.93C502.17 790.93 501.84 778.79 499.66 777.93C499.66 777.93 496.08 781.08 495.54 782.38C495.54 782.38 498.37 788.38 496.61 791.49C496.61 791.49 495.53 783.4 494.61 783.37C494.61 783.37 491.04 788.73 490.67 792.37C490.842 788.973 491.901 785.681 493.74 782.82C491.683 783.209 489.784 784.193 488.28 785.65C488.28 785.65 488.83 781.86 494.62 781.53C494.62 781.53 497.62 777.47 498.36 777.22C498.36 777.22 492.6 776.74 489.11 778.29C489.11 778.29 492.18 774.71 499.42 776.29L503.42 772.99C503.42 772.99 495.84 771.99 492.62 773.1C492.62 773.1 496.32 769.93 504.51 772.24L508.91 769.6C508.91 769.6 502.45 768.21 498.6 768.71C498.6 768.71 502.66 766.52 510.2 768.9L513.35 767.48C513.35 767.48 508.61 766.55 507.23 766.41C505.85 766.27 505.77 765.88 505.77 765.88C508.769 765.381 511.847 765.727 514.66 766.88C514.66 766.88 521.38 764.4 521.27 763.98Z" fill="#6CABDD"/>
<path opacity="0.1" d="M495.06 802.07C509.933 802.07 521.99 800.033 521.99 797.52C521.99 795.007 509.933 792.97 495.06 792.97C480.187 792.97 468.13 795.007 468.13 797.52C468.13 800.033 480.187 802.07 495.06 802.07Z" fill="#6CABDD"/>
<path d="M819.38 731.38C819.38 731.38 781.38 729.09 785.82 755.75C785.82 755.75 784.93 760.46 789.2 762.6C789.2 762.6 789.27 760.6 793.1 761.29C794.467 761.519 795.857 761.586 797.24 761.49C799.107 761.365 800.881 760.631 802.29 759.4V759.4C802.29 759.4 812.99 754.99 817.14 737.51C817.14 737.51 820.22 733.69 820.14 732.71L813.68 735.51C813.68 735.51 815.87 740.14 814.15 743.99C814.15 743.99 813.94 735.67 812.71 735.87C812.46 735.87 809.37 737.47 809.37 737.47C809.37 737.47 813.14 745.54 810.3 751.41C810.3 751.41 811.38 741.47 808.19 738.06L803.67 740.7C803.67 740.7 808.08 749.03 805.09 755.83C805.09 755.83 805.86 745.4 802.72 741.34L798.63 744.51C798.63 744.51 802.77 752.73 800.24 758.37C800.24 758.37 799.91 746.22 797.74 745.31C797.74 745.31 794.16 748.47 793.61 749.77C793.61 749.77 796.45 755.77 794.69 758.87C794.69 758.87 793.61 750.79 792.69 750.75C792.69 750.75 789.12 756.11 788.75 759.75C788.924 756.352 789.986 753.059 791.83 750.2C789.77 750.59 787.869 751.574 786.36 753.03C786.36 753.03 786.92 749.25 792.71 748.91C792.71 748.91 795.71 744.85 796.45 744.6C796.45 744.6 790.69 744.12 787.19 745.67C787.19 745.67 790.27 742.09 797.5 743.72L801.5 740.42C801.5 740.42 793.91 739.42 790.7 740.53C790.7 740.53 794.4 737.37 802.59 739.67L806.99 737.04C806.99 737.04 800.52 735.64 796.67 736.15C796.67 736.15 800.73 733.96 808.28 736.33L811.43 734.92C811.43 734.92 806.69 733.99 805.3 733.84C803.91 733.69 803.84 733.31 803.84 733.31C806.842 732.811 809.924 733.157 812.74 734.31C812.74 734.31 819.5 731.8 819.38 731.38Z" fill="#6CABDD"/>
<path opacity="0.1" d="M793.17 769.47C808.043 769.47 820.1 767.433 820.1 764.92C820.1 762.407 808.043 760.37 793.17 760.37C778.297 760.37 766.24 762.407 766.24 764.92C766.24 767.433 778.297 769.47 793.17 769.47Z" fill="#6CABDD"/>
<path opacity="0.1" d="M848.09 449.55C890.92 449.55 925.64 443.855 925.64 436.83C925.64 429.805 890.92 424.11 848.09 424.11C805.26 424.11 770.54 429.805 770.54 436.83C770.54 443.855 805.26 449.55 848.09 449.55Z" fill="#6CABDD"/>
<path d="M938.38 186C941.55 175.37 938.38 164.74 938.38 164.74V154.74C938.38 154.74 942 135.13 925.88 122.55L915.18 113.12C915.18 113.12 909.18 107.98 907.45 107.65C907.12 107.579 906.786 107.528 906.45 107.5L906.13 107.32C905.212 105.746 904.429 104.097 903.79 102.39C904.482 102.479 905.185 102.407 905.846 102.182C906.506 101.957 907.106 101.583 907.6 101.09C907.986 100.647 908.29 100.139 908.5 99.59V99.59C909.12 98.2 909.22 96.52 909.75 95.04C910.213 93.8377 910.89 92.7297 911.75 91.77C911.64 91.95 911.53 92.12 911.43 92.3C912.94 90.42 914.92 88.8 916.33 86.81C916.614 86.4194 916.875 86.012 917.11 85.59L916.9 85.84C918.9 82.68 919.47 78.84 920.04 75.16C920.315 73.9034 920.335 72.6046 920.1 71.34C919.828 70.4984 919.47 69.6873 919.03 68.92C916.71 64.12 916.76 58.1 913.03 54.27C910.24 51.4 906.03 50.52 902.03 50.03C898.03 49.54 893.86 49.26 890.44 47.17C889.481 46.446 888.424 45.8634 887.3 45.44C886.731 45.243 886.112 45.25 885.548 45.4598C884.984 45.6697 884.511 46.0693 884.21 46.59C884.14 46.8949 884 47.1792 883.8 47.42C883.621 47.5234 883.42 47.5836 883.213 47.5958C883.007 47.6079 882.8 47.5717 882.61 47.49L877.31 46.07L877.37 46.34H877.24L877.43 47.18C877.6 47.18 877.78 47.18 877.93 47.47L877.08 48.78C875.435 48.7498 873.81 48.4105 872.29 47.78C872.285 47.8666 872.285 47.9534 872.29 48.04H872.22C872.12 49.54 873.82 50.51 874.34 51.92C874.55 52.5359 874.55 53.2041 874.34 53.82C874.118 54.3919 873.777 54.9101 873.34 55.34C871.45 57.2 869.05 56.83 866.88 58.01C866.692 58.0879 866.524 58.2063 866.388 58.3567C866.251 58.5071 866.149 58.6858 866.09 58.88C866.007 59.0256 865.983 59.1969 866.02 59.36C866.104 59.5859 866.258 59.7788 866.46 59.91C867.092 60.4187 867.784 60.8485 868.52 61.19L867.9 61.79C865.154 64.5851 863.143 68.0162 862.046 71.7773C860.949 75.5385 860.8 79.5127 861.612 83.3456C862.423 87.1785 864.171 90.7508 866.699 93.744C869.227 96.7372 872.457 99.0582 876.1 100.5C876.18 100.91 876.24 101.33 876.3 101.78C876.3 101.78 876.3 101.86 876.3 101.9L876.36 102.47L869.21 105.47C868.133 105.463 867.079 105.149 866.173 104.567C865.267 103.985 864.544 103.157 864.09 102.18C862.43 98.74 856.56 102.18 856.56 102.18C856.56 102.18 838.63 100.83 832 104.13C832 104.13 821.3 99.64 819.8 99.34C818.3 99.04 816.03 97.84 814.97 98.14C813.91 98.44 812.56 96.14 811.81 96.34C811.06 96.54 810.81 94.85 808.35 94.25C805.89 93.65 805.03 94.4 802.35 91.7C799.67 89 777.64 78.38 777.64 78.38L767.7 70.29L757.15 61.91L756.96 62.26C756.9 62.01 756.83 61.75 756.76 61.48C755.723 57.3001 754.417 53.1915 752.85 49.18C752.17 47.56 751.85 45.51 750.96 46.59C750.4 47.24 749.44 45.82 747.96 44.86C747.655 44.6477 747.307 44.5062 746.94 44.4459C746.574 44.3856 746.199 44.408 745.842 44.5116C745.485 44.6151 745.156 44.7971 744.879 45.0443C744.602 45.2915 744.384 45.5975 744.24 45.94V45.94C736.03 58.81 733.09 59.74 737.85 64.45C742.08 68.65 744.9 72.36 748.36 73.45L748.77 73.58C748.694 73.5954 748.616 73.5954 748.54 73.58L768.54 97.53C768.54 97.53 783 110.11 792.95 114.15C802.9 118.19 802.14 119.39 802.14 119.39C802.14 119.39 832.27 134.66 836.94 134.39C841.61 134.12 840.71 165.68 838.75 170.77C836.79 175.86 833.63 212.69 833.63 212.69C833.63 212.69 830.63 220.47 833.78 225.86C833.78 225.86 834.48 236.18 833.85 238.65C831.1 242.88 827.19 250.06 826.55 257.45C826.55 257.84 826.47 258.21 826.43 258.59C826.23 258.824 825.989 259.02 825.72 259.17C825.72 259.17 825.98 259.11 826.39 258.97C826.091 262.04 825.419 265.062 824.39 267.97C822.789 272.118 821.955 276.523 821.93 280.97V304.76L819.94 319.51C819.94 319.51 817.53 330.68 819.94 333.28C820.962 334.579 821.436 336.226 821.26 337.87C821.158 339.776 821.701 341.66 822.8 343.22C823.219 343.679 823.527 344.227 823.7 344.824C823.873 345.42 823.907 346.048 823.8 346.66C823 349.25 824.98 376.79 824.98 376.79C824.98 376.79 824.4 384.38 823.6 384.79C822.8 385.2 824.94 393.51 824.94 393.51C824.94 393.51 816.8 400.3 818.87 403.9L820.95 407.09L820.4 407.63L820.06 407.97C819.435 407.608 818.704 407.47 817.99 407.58C815.435 410.2 812.698 412.636 809.8 414.87C806.13 417.52 796.14 421.36 796.14 421.36L788.26 422H788.11C788.11 422 784.34 421.65 786.45 427.49C788.56 433.33 807.45 431.49 807.45 431.49L818.45 429.75C818.45 429.75 838.13 429.84 843.76 428.6C846.12 428.07 846.68 426.82 846.53 425.54L846.47 425.48C846.203 424.265 845.651 423.13 844.86 422.17C844.817 422.11 844.771 422.053 844.72 422L845.08 418C853.43 413.19 842.72 403.72 842.72 403.72C842.72 403.72 846.38 395.72 848.27 393.15C850.16 390.58 850.15 352.43 850.15 352.43C850.15 352.43 851.15 338.65 848.54 335.43C848.496 334.392 848.733 333.361 849.228 332.447C849.723 331.533 850.456 330.77 851.35 330.24C853.21 328.97 858.83 311.48 863.24 296.96L866.02 314.07C866.02 314.07 865.42 322.25 867.23 324.65C867.566 325.1 867.805 325.615 867.933 326.163C868.06 326.71 868.073 327.278 867.97 327.83C867.529 330.138 867.67 332.52 868.38 334.76C868.582 335.716 869.091 336.58 869.83 337.22C871.44 338.02 871.54 340.87 872.14 341.47C872.74 342.07 876.46 340.62 876.66 342.81C876.774 344.738 876.774 346.672 876.66 348.6L877.87 384.13C877.87 384.13 875.87 387.13 875.46 394.91C875.29 398.27 874.66 400.18 874.01 401.27C873.649 401.856 873.483 402.542 873.537 403.229C873.591 403.915 873.862 404.567 874.31 405.09L874.66 405.49L873.17 406.64C872.58 407.099 872.166 407.748 871.999 408.476C871.831 409.205 871.92 409.969 872.25 410.64C871.77 411.058 871.426 411.609 871.261 412.224C871.095 412.838 871.116 413.488 871.32 414.09C871.392 414.283 871.479 414.47 871.58 414.65C870.453 414.828 869.407 415.344 868.58 416.13C867.098 418.171 865.31 419.972 863.28 421.47C860.328 423.724 857.503 426.141 854.82 428.71C853.558 430.458 851.853 431.839 849.88 432.71C849.399 432.905 848.9 433.052 848.39 433.15C844.39 433.96 845.68 438.1 848.89 438.75C852.1 439.4 862.75 442.69 871.04 440.75C871.04 440.75 873.5 441.75 877.11 439.91C880.72 438.07 888.94 435.91 888.94 435.91C888.94 435.91 893.46 435.91 894.06 434.11C894.221 433.54 894.309 432.952 894.32 432.36L894.45 432.24L894.33 432.13C894.341 430.79 894.237 429.452 894.02 428.13C893.91 427.45 893.78 426.83 893.66 426.34C893.27 424.84 892.56 422.91 892.25 422.09C892.302 422.024 892.349 421.954 892.39 421.88C894.11 418.97 891.25 411.88 891.25 411.88C892.197 410.396 893.344 409.05 894.66 407.88C896.27 406.69 900.49 375.55 900.49 375.55C900.49 375.55 900.29 367.55 902.49 363.97C904.69 360.39 899.49 338.62 899.49 338.62C899.49 338.62 897.28 333.62 898.09 331.83C898.9 330.04 897.28 323.45 897.28 323.45V315.59C897.278 314.651 897.122 313.719 896.82 312.83C896.2 310.98 895.28 307.43 896.28 304.83C897.69 301.24 900.9 279.08 900.9 279.08C900.9 279.08 898.39 269.31 902.06 261.53C902.356 260.907 902.69 260.302 903.06 259.72C905.78 255.44 904.97 247.84 903.63 241.72C903.42 240.77 903.2 239.86 902.98 238.99C902.88 238.62 902.78 238.27 902.69 237.92L903.12 237.74C903.12 237.74 903.12 237.15 903.25 236.16C904.738 235.871 906.15 235.278 907.397 234.417C908.645 233.557 909.701 232.448 910.5 231.16C910.5 231.16 919.69 220.83 927.83 216.49C935.97 212.15 936.57 205.86 936.57 205.86C935.36 203.76 938.72 195.23 938.72 195.23L938.38 186ZM911.91 199.77L903.21 209.86C903.207 209.84 903.207 209.82 903.21 209.8C900.95 206.66 905.32 199.62 905.32 199.62L912.51 183.51C912.45 185.59 912.2 187.41 911.57 188.27C909.57 190.97 915.18 195.46 915.18 195.46C912.17 195.43 911.87 199.77 911.87 199.77H911.91Z" fill="url(#paint0_linear)"/>
<path d="M758.68 67.5101L753.94 76.7201C752.434 76.5965 750.95 76.2875 749.52 75.8001C747.252 75.1178 745.155 73.963 743.366 72.4118C741.577 70.8606 740.137 68.9481 739.14 66.8001C734.9 57.4201 741.92 51.3601 745.19 49.5801C748.46 47.8001 751.49 45.7501 753.94 51.5801C755.483 55.568 756.772 59.6495 757.8 63.8001C758.34 66.0201 758.68 67.5101 758.68 67.5101Z" fill="#CC818C"/>
<path d="M909.6 115.51L902.02 126.82C902.02 126.82 866.16 143.92 873.02 123.82C876.02 114.97 876.39 108.49 875.85 104.01C875.85 104.01 875.85 103.93 875.85 103.89C875.15 98.2899 873.04 95.8899 873.04 95.8899C873.04 95.8899 907.99 78.0099 902.79 90.2399C901.731 92.7831 901.305 95.5457 901.55 98.2899C901.982 102.243 903.268 106.054 905.32 109.46C906.541 111.615 907.975 113.642 909.6 115.51V115.51Z" fill="#CC818C"/>
<path d="M898.74 339.3C898.74 339.3 903.9 360.92 901.74 364.49C899.58 368.06 899.74 375.99 899.74 375.99C899.74 375.99 895.57 406.94 893.98 408.13C892.678 409.302 891.544 410.648 890.61 412.13C890.61 412.13 893.44 419.13 891.74 422.03C891.484 422.479 891.086 422.83 890.61 423.03C887.95 424.15 878.13 419.18 872.54 416.13C871.836 415.754 871.305 415.12 871.06 414.36C870.852 413.764 870.827 413.12 870.989 412.51C871.152 411.9 871.493 411.353 871.97 410.94C871.641 410.27 871.551 409.507 871.717 408.779C871.883 408.051 872.293 407.402 872.88 406.94L874.35 405.8L874.01 405.4C873.566 404.879 873.298 404.231 873.244 403.549C873.191 402.866 873.354 402.184 873.71 401.6C874.35 400.52 874.97 398.6 875.14 395.29C875.54 387.55 877.52 384.58 877.52 384.58L876.33 349.27C876.439 347.355 876.439 345.435 876.33 343.52C876.13 341.34 872.46 342.78 871.87 342.18C871.28 341.58 871.17 338.76 869.59 337.96C868.857 337.326 868.351 336.469 868.15 335.52C867.45 333.292 867.309 330.926 867.74 328.63C867.842 328.081 867.83 327.518 867.704 326.974C867.579 326.43 867.342 325.918 867.01 325.47C865.22 323.09 865.82 314.96 865.82 314.96L863.08 297.96C858.72 312.39 853.17 329.77 851.34 331.03C850.454 331.559 849.728 332.319 849.239 333.227C848.75 334.135 848.515 335.159 848.56 336.19C851.14 339.36 850.15 353.05 850.15 353.05C850.15 353.05 850.15 390.93 848.29 393.51C846.43 396.09 842.81 404.02 842.81 404.02C842.81 404.02 853.44 413.48 845.08 418.25L844.99 418.3C836.46 423.06 818.81 409.78 818.81 409.78L820.65 407.94L821.19 407.4L819.19 404.22C817.14 400.65 825.19 393.91 825.19 393.91C825.19 393.91 823.05 385.58 823.84 385.18C824.63 384.78 825.19 377.24 825.19 377.24C825.19 377.24 823.24 349.87 824.03 347.3C824.147 346.696 824.123 346.073 823.96 345.48C823.797 344.887 823.499 344.339 823.09 343.88C822.009 342.327 821.475 340.46 821.57 338.57C821.745 336.939 821.279 335.304 820.27 334.01C817.89 331.43 820.27 320.32 820.27 320.32L822.27 305.64V282.26C822.269 277.777 823.082 273.332 824.67 269.14C825.868 265.735 826.595 262.182 826.83 258.58C827.48 251.06 831.52 243.75 834.24 239.58C835.68 237.38 836.75 236.06 836.75 236.06L900.22 233.57C900.22 233.57 901.22 236.4 902.22 240.33C902.44 241.19 902.66 242.09 902.86 243.04C904.19 249.14 904.99 256.69 902.3 260.95C901.924 261.522 901.589 262.12 901.3 262.74C897.67 270.47 900.15 280.18 900.15 280.18C900.15 280.18 896.98 302.18 895.59 305.77C894.59 308.3 895.51 311.83 896.13 313.67C896.424 314.554 896.576 315.479 896.58 316.41V324.22C896.58 324.22 898.17 330.76 897.38 332.55C896.59 334.34 898.74 339.3 898.74 339.3Z" fill="#444053"/>
<path opacity="0.1" d="M901.66 261.51C901.29 262.085 900.956 262.683 900.66 263.3L897.09 263.1C897.43 261.26 895 244.01 895 244.01L902.2 243.6C903.54 249.74 904.35 257.3 901.66 261.51Z" fill="black"/>
<path d="M902.25 260.96C901.874 261.532 901.539 262.13 901.25 262.75L897.67 262.55C898.02 260.71 895.59 243.45 895.59 243.45L902.78 243.05C904.14 249.15 904.94 256.7 902.25 260.96Z" fill="#444053"/>
<path opacity="0.05" d="M902.25 260.96C901.874 261.532 901.539 262.13 901.25 262.75L897.67 262.55C898.02 260.71 895.59 243.45 895.59 243.45L902.78 243.05C904.14 249.15 904.94 256.7 902.25 260.96Z" fill="black"/>
<path opacity="0.1" d="M891.74 422C891.484 422.448 891.086 422.8 890.61 423C887.95 424.12 878.13 419.15 872.54 416.1C871.836 415.724 871.305 415.089 871.06 414.33C874.24 413.75 876.33 417.33 876.33 417.33C876.861 416.996 877.454 416.771 878.074 416.67C878.693 416.569 879.326 416.594 879.936 416.742C880.546 416.89 881.12 417.159 881.624 417.533C882.128 417.908 882.552 418.379 882.87 418.92C885.6 422.92 891.45 421.24 891.45 421.24C891.45 421.24 891.57 421.51 891.74 422Z" fill="black"/>
<path d="M893.39 434.16C892.79 435.94 888.33 435.94 888.33 435.94C888.33 435.94 880.33 438.23 876.77 440.01C873.21 441.79 870.77 440.85 870.77 440.85C862.58 442.74 852.07 439.47 848.9 438.85C845.73 438.23 844.48 434.09 848.4 433.3C848.904 433.199 849.396 433.048 849.87 432.85C851.826 431.978 853.512 430.597 854.75 428.85C857.401 426.3 860.188 423.897 863.1 421.65C865.11 420.165 866.878 418.377 868.34 416.35C873 412.23 876.34 417.89 876.34 417.89C876.871 417.556 877.464 417.331 878.084 417.23C878.703 417.129 879.337 417.154 879.946 417.302C880.556 417.45 881.13 417.719 881.634 418.094C882.138 418.468 882.562 418.939 882.88 419.48C885.61 423.48 891.46 421.8 891.46 421.8C891.46 421.8 892.46 424.48 893 426.41C893.12 426.9 893.25 427.52 893.36 428.2C893.752 430.166 893.762 432.19 893.39 434.16V434.16Z" fill="#FF748F"/>
<path d="M879.75 421.62C880.054 421.62 880.3 421.374 880.3 421.07C880.3 420.766 880.054 420.52 879.75 420.52C879.446 420.52 879.2 420.766 879.2 421.07C879.2 421.374 879.446 421.62 879.75 421.62Z" fill="#575988"/>
<path d="M875.09 425.98C875.394 425.98 875.64 425.734 875.64 425.43C875.64 425.126 875.394 424.88 875.09 424.88C874.786 424.88 874.54 425.126 874.54 425.43C874.54 425.734 874.786 425.98 875.09 425.98Z" fill="#575988"/>
<path d="M870.35 429.9C870.654 429.9 870.9 429.654 870.9 429.35C870.9 429.046 870.654 428.8 870.35 428.8C870.046 428.8 869.8 429.046 869.8 429.35C869.8 429.654 870.046 429.9 870.35 429.9Z" fill="#575988"/>
<path d="M872.8 428.15C873.104 428.15 873.35 427.904 873.35 427.6C873.35 427.296 873.104 427.05 872.8 427.05C872.496 427.05 872.25 427.296 872.25 427.6C872.25 427.904 872.496 428.15 872.8 428.15Z" fill="#575988"/>
<path d="M877.52 423.66C877.824 423.66 878.07 423.414 878.07 423.11C878.07 422.806 877.824 422.56 877.52 422.56C877.216 422.56 876.97 422.806 876.97 423.11C876.97 423.414 877.216 423.66 877.52 423.66Z" fill="#575988"/>
<path d="M893.39 434.16C892.79 435.94 888.33 435.94 888.33 435.94C888.33 435.94 880.33 438.23 876.77 440.01C873.21 441.79 870.77 440.85 870.77 440.85C862.58 442.74 852.07 439.47 848.9 438.85C845.73 438.23 844.48 434.09 848.4 433.3C848.904 433.198 849.396 433.048 849.87 432.85C853.332 434.029 856.946 434.703 860.6 434.85C868.68 435.19 875.08 434.85 875.08 434.85L883.26 432.22C884.808 431.278 886.528 430.652 888.32 430.38C890.122 430.015 891.826 429.272 893.32 428.2C893.725 430.164 893.749 432.187 893.39 434.16Z" fill="#DCE6F2"/>
<path opacity="0.5" d="M873.03 439.29C872.573 439.29 872.117 439.243 871.67 439.15L871.79 438.57C873.455 438.829 875.159 438.592 876.69 437.89C877.42 437.6 878.15 437.26 878.86 436.89C879.57 436.52 880.56 436.09 881.44 435.76L882.25 435.48C882.7 435.33 883.15 435.18 883.58 434.99C883.83 434.89 884.07 434.77 884.31 434.66C884.893 434.353 885.511 434.118 886.15 433.96C886.48 433.897 886.814 433.854 887.15 433.83C887.452 433.809 887.752 433.773 888.05 433.72C888.646 433.575 889.224 433.36 889.77 433.08C890.358 432.781 890.979 432.553 891.62 432.4L892.06 432.32C892.527 432.309 892.977 432.144 893.34 431.85L893.77 432.26C893.318 432.652 892.748 432.881 892.15 432.91L891.74 432.98C891.143 433.125 890.566 433.34 890.02 433.62C889.432 433.919 888.811 434.147 888.17 434.3C887.84 434.366 887.506 434.406 887.17 434.42C886.858 434.443 886.548 434.483 886.24 434.54C885.649 434.691 885.078 434.912 884.54 435.2L883.79 435.54C883.33 435.73 882.87 435.89 882.41 436.04L881.62 436.32C880.76 436.64 879.91 437.04 879.08 437.42C878.25 437.8 877.63 438.11 876.88 438.42C875.663 438.949 874.357 439.244 873.03 439.29V439.29Z" fill="#575988"/>
<path opacity="0.1" d="M874.94 340.74C874.94 340.74 879.06 334.74 886.1 334.84C893.14 334.94 896.16 334.05 896.16 334.05C896.16 334.05 891.65 336.72 888.53 337.05C885.41 337.38 874.94 340.74 874.94 340.74Z" fill="black"/>
<path opacity="0.1" d="M877.32 342.13C877.32 342.13 881.04 339.55 883.17 339.45C885.3 339.35 887.17 339.15 887.17 339.15C886.173 339.853 885.069 340.39 883.9 340.74C882.08 341.24 877.32 342.13 877.32 342.13Z" fill="black"/>
<path opacity="0.1" d="M878.11 343.91C878.11 343.91 883.72 344.36 883.77 345.85Z" fill="black"/>
<path opacity="0.1" d="M825.94 260.29C826.23 260.34 831.23 255.08 831.58 253C831.858 251.688 832.641 250.539 833.76 249.8C833.76 249.8 836.99 251.09 834.11 255.04C831.23 258.99 825.94 260.29 825.94 260.29Z" fill="black"/>
<path opacity="0.1" d="M902.76 90.18C901.62 92.88 900.61 93.08 900.83 95.7C899.499 97.1046 897.969 98.3073 896.29 99.27C892.74 101.38 888.88 105.5 884.46 105.5C881.503 105.506 878.571 104.953 875.82 103.87C875.12 98.27 873.01 95.87 873.01 95.87C873.01 95.87 907.94 77.95 902.76 90.18Z" fill="black"/>
<path d="M908.11 80.66C908.11 85.3375 906.723 89.91 904.124 93.7992C901.526 97.6885 897.832 100.72 893.511 102.51C889.189 104.3 884.434 104.768 879.846 103.856C875.259 102.943 871.045 100.691 867.737 97.3831C864.43 94.0756 862.177 89.8615 861.264 85.2739C860.352 80.6862 860.82 75.931 862.61 71.6095C864.4 67.2881 867.432 63.5944 871.321 60.9958C875.21 58.3971 879.783 57.01 884.46 57.01C887.566 57.0087 890.642 57.6195 893.512 58.8076C896.382 59.9956 898.99 61.7376 901.186 63.934C903.382 66.1304 905.124 68.7381 906.313 71.608C907.501 74.4779 908.111 77.5539 908.11 80.66V80.66Z" fill="#CC818C"/>
<path opacity="0.1" d="M909.6 115.51L902.02 126.82C902.02 126.82 866.16 143.92 873.02 123.82C876.02 114.97 876.39 108.49 875.85 104.01H875.91C876.334 105.495 876.572 107.027 876.62 108.57C876.73 111.65 876.81 115.57 884.47 116.85C897.24 119 904.1 111.01 905.3 109.44C906.526 111.603 907.966 113.636 909.6 115.51V115.51Z" fill="black"/>
<path opacity="0.1" d="M758.68 67.5099L753.94 76.7199C752.434 76.5964 750.95 76.2874 749.52 75.7999L749.11 75.31C751.05 76.05 757.59 63.7 757.59 63.7L757.8 63.8699C758.34 66.0199 758.68 67.5099 758.68 67.5099Z" fill="black"/>
<path opacity="0.1" d="M902.17 240.34C886.86 246.99 833.88 241.34 833.88 241.34C834.045 240.778 834.136 240.196 834.15 239.61C835.59 237.41 836.66 236.09 836.66 236.09L900.13 233.6C900.13 233.6 901.16 236.41 902.17 240.34Z" fill="black"/>
<path d="M875.94 104.56L868.88 107.56C867.813 107.548 866.771 107.234 865.875 106.653C864.979 106.072 864.267 105.25 863.82 104.28C862.19 100.86 856.39 104.28 856.39 104.28C856.39 104.28 838.68 102.94 832.14 106.22C832.14 106.22 821.58 101.75 820.14 101.46C818.7 101.17 816.42 99.97 815.38 100.27C814.34 100.57 813 98.33 812.26 98.48C811.52 98.63 811.21 96.99 808.83 96.4C806.45 95.81 805.56 96.55 802.88 93.87C800.2 91.19 778.49 80.6301 778.49 80.6301L768.67 72.6301L758.26 64.3C758.26 64.3 751.71 76.64 749.78 75.9L769.56 99.7001C769.56 99.7001 783.84 112.2 793.66 116.21C803.48 120.22 802.73 121.42 802.73 121.42C802.73 121.42 832.49 136.59 837.1 136.3C841.71 136.01 840.82 167.39 838.88 172.45C836.94 177.51 833.83 214.1 833.83 214.1C833.83 214.1 830.83 221.83 833.97 227.19C833.97 227.19 834.72 238.19 833.97 240.13C833.97 240.13 887.28 245.83 902.4 239.13C902.4 239.13 904.63 214.44 902.4 211.31C900.17 208.18 904.49 201.2 904.49 201.2L913.94 179.88L937.12 156.51C937.12 156.51 940.69 137.02 924.78 124.51L914.21 115.14C914.21 115.14 908.3 110.03 906.58 109.71C904.86 109.39 905.49 109.71 905.49 109.71C905.49 109.71 898.59 119.71 884.49 117.37C876.83 116.08 876.75 112.18 876.64 109.09C876.593 107.557 876.358 106.036 875.94 104.56V104.56Z" fill="#67647E"/>
<path opacity="0.1" d="M904.99 184.64C904.99 184.64 872.26 185.98 865.72 196.25C865.72 196.25 874.2 192.25 881.78 193.42C889.36 194.59 904.99 184.64 904.99 184.64Z" fill="black"/>
<path opacity="0.1" d="M868.84 220.51C868.84 220.51 884.31 221.51 887.59 218.28C890.87 215.05 890.87 213.08 890.87 213.08L868.84 220.51Z" fill="black"/>
<path opacity="0.1" d="M908.11 153.11C908.11 153.11 895.02 168.58 910.94 175.27L908.11 153.11Z" fill="black"/>
<path opacity="0.1" d="M830.61 123.21C830.61 123.21 835.37 132.92 837.75 133.57L830.61 123.21Z" fill="black"/>
<path opacity="0.1" d="M814.55 119.04C814.55 119.04 826.45 129.75 828.68 130.79C828.68 130.79 816.33 119.04 814.55 119.04Z" fill="black"/>
<path opacity="0.1" d="M862 108.78C862 108.78 850.54 125.88 858 136.3C857.94 136.3 853.82 123.95 862 108.78Z" fill="black"/>
<path d="M890.87 238.35L887.37 241.64L886.88 242.1L882.83 245.93C882.53 246.15 882.25 246.37 881.96 246.57C865.46 258.4 862.15 240.43 862.15 240.43C862.15 240.43 854.86 245.19 853.82 241.32C852.78 237.45 870.82 231.95 873.45 232.25C873.689 232.275 873.931 232.275 874.17 232.25C875.47 232.032 876.723 231.589 877.87 230.94C878.14 230.8 878.41 230.66 878.67 230.51C879.589 229.998 880.481 229.437 881.34 228.83L890.87 238.35Z" fill="#CC818C"/>
<path opacity="0.1" d="M908.71 80.6599C908.711 84.76 907.645 88.7897 905.619 92.3539C903.592 95.918 900.674 98.894 897.15 100.99C896.824 100.437 896.536 99.8626 896.29 99.2699C895.44 97.2699 894.92 95.18 894.07 93.2C893.11 91.037 891.753 89.0731 890.07 87.4099C889.802 87.0875 889.459 86.8367 889.07 86.6799C888.686 86.6285 888.296 86.6552 887.924 86.7583C887.551 86.8614 887.202 87.0388 886.9 87.28C885.899 87.9628 884.78 88.4544 883.6 88.7299C883.009 88.8631 882.393 88.8411 881.813 88.6658C881.233 88.4906 880.708 88.1682 880.29 87.7299C879.37 86.6299 879.5 85.0099 879.77 83.5999C880.34 80.5199 881.31 77.4999 881.31 74.3699C881.31 71.2399 880.13 67.8599 877.41 66.3099C875.01 64.9499 872.03 65.31 869.36 64.56C868.947 64.45 868.542 64.3096 868.15 64.1399C871.435 60.7747 875.649 58.4648 880.253 57.5054C884.857 56.5459 889.643 56.9804 893.999 58.7533C898.355 60.5262 902.084 63.5572 904.71 67.4591C907.335 71.361 908.738 75.9569 908.74 80.6599H908.71Z" fill="black"/>
<path d="M866.52 60.3799C866.09 60.6099 865.62 61.0199 865.75 61.4999C865.83 61.7251 865.981 61.9181 866.18 62.0499C867.28 62.9417 868.554 63.5955 869.92 63.9699C872.59 64.6899 875.58 64.3499 877.98 65.7199C880.69 67.2699 881.89 70.6399 881.88 73.7699C881.87 76.8999 880.88 79.9299 880.33 82.9999C880.07 84.4199 879.93 85.9999 880.86 87.1399C881.28 87.5765 881.805 87.8978 882.384 88.0729C882.964 88.2481 883.579 88.2711 884.17 88.1399C885.346 87.8678 886.462 87.3795 887.46 86.6999C887.762 86.4578 888.11 86.2797 888.483 86.1766C888.856 86.0734 889.247 86.0473 889.63 86.0999C890.037 86.2492 890.401 86.4965 890.69 86.8199C892.377 88.4836 893.735 90.4515 894.69 92.6199C895.55 94.6199 896.07 96.6999 896.91 98.6899C897.657 100.736 899.064 102.474 900.91 103.63C901.842 104.193 902.933 104.436 904.016 104.322C905.099 104.208 906.115 103.744 906.91 103C908.29 101.48 908.25 99.1799 908.91 97.2299C910.09 93.8599 913.39 91.7399 915.45 88.8299C917.77 85.5599 918.45 81.4299 919.04 77.4699C919.315 76.2201 919.335 74.9278 919.1 73.6699C918.827 72.8383 918.476 72.0347 918.05 71.2699C915.75 66.5099 915.8 60.5199 912.13 56.7099C909.37 53.8599 905.19 52.9899 901.25 52.5099C897.31 52.0299 893.18 51.7299 889.8 49.6599C888.853 48.9434 887.809 48.3643 886.7 47.9399C886.139 47.7446 885.526 47.7516 884.969 47.9597C884.412 48.1679 883.946 48.5641 883.65 49.0799C883.58 49.3848 883.44 49.6691 883.24 49.9099C883.065 50.0108 882.87 50.0696 882.668 50.0817C882.467 50.0939 882.266 50.059 882.08 49.9799L876.84 48.5699L877.44 51.2099C875.536 51.2856 873.638 50.9443 871.88 50.2099C871.78 51.6999 873.46 52.6699 873.98 54.0599C874.169 54.698 874.176 55.3763 873.999 56.0179C873.822 56.6596 873.469 57.2388 872.98 57.6899C871.04 59.5799 868.66 59.2099 866.52 60.3799Z" fill="#585268"/>
<path opacity="0.1" d="M845.29 415.81L845.08 418.19L844.99 418.24C836.46 423 818.81 409.72 818.81 409.72L820.65 407.88C820.95 408.214 821.176 408.607 821.314 409.035C821.452 409.462 821.498 409.914 821.45 410.36L825.06 410.56L829.37 415.22C829.37 415.22 841.04 416.57 844.2 415.81H845.29Z" fill="black"/>
<path d="M843.8 428.76C838.25 429.99 818.8 429.9 818.8 429.9L807.94 431.63C807.94 431.63 789.25 433.42 787.17 427.63C785.09 421.84 788.8 422.18 788.8 422.18H788.94L796.72 421.55C796.72 421.55 806.59 417.73 810.21 415.1C813.068 412.878 815.768 410.458 818.29 407.86C818.29 407.86 821.54 407.23 821.48 410.99L825.09 411.19L829.4 415.84C829.4 415.84 841.07 417.2 844.23 416.44H845.32L844.82 422.19L844.96 422.37C845.65 423.26 848.76 427.65 843.8 428.76Z" fill="#FF748F"/>
<path d="M823.66 414.86C823.964 414.86 824.21 414.614 824.21 414.31C824.21 414.006 823.964 413.76 823.66 413.76C823.356 413.76 823.11 414.006 823.11 414.31C823.11 414.614 823.356 414.86 823.66 414.86Z" fill="#575988"/>
<path d="M809.68 420.93C809.984 420.93 810.23 420.684 810.23 420.38C810.23 420.076 809.984 419.83 809.68 419.83C809.376 419.83 809.13 420.076 809.13 420.38C809.13 420.684 809.376 420.93 809.68 420.93Z" fill="#575988"/>
<path d="M802.48 423.12C802.784 423.12 803.03 422.874 803.03 422.57C803.03 422.266 802.784 422.02 802.48 422.02C802.176 422.02 801.93 422.266 801.93 422.57C801.93 422.874 802.176 423.12 802.48 423.12Z" fill="#575988"/>
<path d="M813.35 419.77C813.654 419.77 813.9 419.524 813.9 419.22C813.9 418.916 813.654 418.67 813.35 418.67C813.046 418.67 812.8 418.916 812.8 419.22C812.8 419.524 813.046 419.77 813.35 419.77Z" fill="#575988"/>
<path d="M806.07 422.03C806.374 422.03 806.62 421.784 806.62 421.48C806.62 421.176 806.374 420.93 806.07 420.93C805.766 420.93 805.52 421.176 805.52 421.48C805.52 421.784 805.766 422.03 806.07 422.03Z" fill="#575988"/>
<path d="M817.06 418.05C817.364 418.05 817.61 417.804 817.61 417.5C817.61 417.196 817.364 416.95 817.06 416.95C816.756 416.95 816.51 417.196 816.51 417.5C816.51 417.804 816.756 418.05 817.06 418.05Z" fill="#575988"/>
<path d="M820.73 416.46C821.034 416.46 821.28 416.214 821.28 415.91C821.28 415.606 821.034 415.36 820.73 415.36C820.426 415.36 820.18 415.606 820.18 415.91C820.18 416.214 820.426 416.46 820.73 416.46Z" fill="#575988"/>
<path d="M843.8 428.76C838.25 429.99 818.8 429.9 818.8 429.9L807.94 431.63C807.94 431.63 789.25 433.42 787.17 427.63C785.09 421.84 788.8 422.18 788.8 422.18H788.94C790.13 423.72 792.52 425.48 797.22 425.56L810.66 426.11L824.59 425.11C824.59 425.11 837.59 424.71 839.76 424.27C841.546 423.787 843.286 423.148 844.96 422.36C845.65 423.26 848.76 427.65 843.8 428.76Z" fill="#DCE6F2"/>
<path opacity="0.5" d="M808.94 430.32C808.198 430.323 807.459 430.233 806.74 430.05L806.94 429.51C808.777 429.911 810.687 429.825 812.48 429.26C813.14 429.09 813.79 428.9 814.48 428.7C817.58 427.644 820.872 427.272 824.13 427.61H824.56C830.522 427.927 836.5 427.659 842.41 426.81C843.813 426.717 845.151 426.182 846.23 425.28L846.66 425.7C845.491 426.692 844.038 427.287 842.51 427.4C836.55 428.251 830.522 428.518 824.51 428.2H824.09C822.119 428.057 820.139 428.114 818.18 428.37C816.98 428.596 815.795 428.893 814.63 429.26C813.97 429.46 813.31 429.66 812.63 429.83C811.425 430.147 810.186 430.312 808.94 430.32V430.32Z" fill="#575988"/>
<path opacity="0.1" d="M890.87 238.35L887.37 241.64L878.67 230.51C879.589 229.998 880.48 229.437 881.34 228.83L890.87 238.35Z" fill="black"/>
<path d="M930.28 147.01L937.12 156.53V166.53C937.12 166.53 940.25 177.1 937.12 187.66L937.47 196.88C937.47 196.88 934.15 205.36 935.34 207.44C935.34 207.44 934.74 213.69 926.71 218.01C918.68 222.33 909.6 232.51 909.6 232.51C909.6 232.51 906.18 239.06 896.96 237.57L888.18 241.29L878.07 228.35L891.75 220.91C891.75 220.91 896.51 214.51 899.34 214.81L910.94 201.3C910.94 201.3 911.24 196.99 914.21 196.99C914.21 196.99 908.71 192.53 910.64 189.85C912.57 187.17 910.94 175.27 910.94 175.27L930.28 147.01Z" fill="#67647E"/>
<path opacity="0.1" d="M917.49 190.44C917.49 190.44 933.11 190.15 935.04 194.16C936.97 198.17 922.25 188.21 917.49 190.44Z" fill="black"/>
<path opacity="0.1" d="M886.94 241.32C886.945 241.581 886.925 241.842 886.88 242.1C886.7 243.297 886.112 244.396 885.216 245.211C884.319 246.025 883.169 246.505 881.96 246.57H881.68C880.288 246.57 878.952 246.017 877.968 245.032C876.983 244.048 876.43 242.712 876.43 241.32C876.434 240.738 876.532 240.16 876.72 239.61C874.24 237.61 874.11 234.03 874.17 232.24C875.47 232.022 876.723 231.579 877.87 230.93C878.518 232.791 879.388 234.567 880.46 236.22C880.859 236.12 881.269 236.07 881.68 236.07C882.37 236.069 883.054 236.203 883.692 236.467C884.33 236.73 884.91 237.116 885.399 237.604C885.887 238.092 886.275 238.671 886.539 239.309C886.804 239.946 886.94 240.63 886.94 241.32V241.32Z" fill="black"/>
<path d="M878.34 229.77C878.34 229.77 874.82 230.56 874.82 231.2C874.82 231.84 874.03 237.65 877.89 240.03C881.75 242.41 881.37 236.71 881.37 236.71C881.37 236.71 878.04 231.6 878.34 229.77Z" fill="#575988"/>
<path d="M882.28 246.58C885.185 246.58 887.54 244.225 887.54 241.32C887.54 238.415 885.185 236.06 882.28 236.06C879.375 236.06 877.02 238.415 877.02 241.32C877.02 244.225 879.375 246.58 882.28 246.58Z" fill="#E4AAB4"/>
<path d="M882.28 245.83C884.771 245.83 886.79 243.811 886.79 241.32C886.79 238.829 884.771 236.81 882.28 236.81C879.789 236.81 877.77 238.829 877.77 241.32C877.77 243.811 879.789 245.83 882.28 245.83Z" fill="#DCE6F2"/>
<path opacity="0.1" d="M861.8 243.35C861.8 243.35 872.91 252.57 887.19 246.73V251.19C887.19 251.19 877.67 257.73 869.04 253.77C860.41 249.81 861.8 243.35 861.8 243.35Z" fill="black"/>
<path opacity="0.1" d="M861.8 242.16C861.8 242.16 872.94 251.38 887.19 245.51V249.97C887.19 249.97 877.67 256.51 869.04 252.55C860.41 248.59 861.8 242.16 861.8 242.16Z" fill="black"/>
<path d="M861.8 242.16C861.8 242.16 872.94 251.38 887.19 245.51V249.97C887.19 249.97 877.67 256.51 869.04 252.55C860.41 248.59 861.8 242.16 861.8 242.16Z" fill="#444053"/>
<path opacity="0.05" d="M862.1 242.16C862.1 242.16 873.21 251.38 887.49 245.54V250C887.49 250 877.94 256.51 869.34 252.58C860.74 248.65 862.1 242.16 862.1 242.16Z" fill="black"/>
<path opacity="0.1" d="M826.94 407.83C826.94 407.83 841.82 410.56 844 411.15C846.18 411.74 843.4 412.79 843.4 412.79C843.4 412.79 829.77 410.36 826.94 407.83Z" fill="black"/>
<path opacity="0.1" d="M826.55 399.95C826.79 399.95 836.66 397.17 838.79 392.41Z" fill="black"/>
<path opacity="0.1" d="M840.94 343.02C840.94 343.02 844.94 348.28 847.52 348.13C850.1 347.98 843.29 342.82 840.94 343.02Z" fill="black"/>
<path opacity="0.1" d="M843.16 351.75C843.16 351.75 844.84 355.47 847.32 354.28Z" fill="black"/>
<path opacity="0.05" d="M852.53 270.08L863.08 297.9C863.08 297.9 864.57 280 861.42 274.64C860.527 273.112 859.215 271.871 857.64 271.063C856.065 270.255 854.292 269.914 852.53 270.08V270.08Z" fill="black"/>
<g opacity="0.1">
<path opacity="0.1" d="M878.5 49.64L878.41 49.24L876.71 48.79L876.9 49.62C877.432 49.6618 877.967 49.6684 878.5 49.64V49.64Z" fill="black"/>
<path opacity="0.1" d="M873.84 56.33L874.02 56.17C874.508 55.7204 874.861 55.1429 875.038 54.503C875.215 53.8632 875.208 53.1865 875.02 52.55C874.815 52.0573 874.531 51.6014 874.18 51.2C873.342 51.041 872.521 50.7998 871.73 50.48C871.63 51.97 873.31 52.93 873.83 54.33C874.062 54.9759 874.065 55.6818 873.84 56.33V56.33Z" fill="black"/>
<path opacity="0.1" d="M901.94 102.06C900.096 100.902 898.689 99.1643 897.94 97.1201C897.09 95.1201 896.58 93.0201 895.72 91.0501C894.766 88.8837 893.409 86.9188 891.72 85.2601C891.438 84.9309 891.077 84.6795 890.67 84.5301C890.286 84.4769 889.896 84.5027 889.523 84.6059C889.15 84.7091 888.802 84.8875 888.5 85.1301C887.497 85.8093 886.379 86.3006 885.2 86.5801C884.609 86.7075 883.995 86.6825 883.416 86.5076C882.837 86.3327 882.312 86.0135 881.89 85.5801C880.97 84.4801 881.1 82.8601 881.37 81.4501C881.95 78.3701 882.91 75.3401 882.92 72.2101C882.93 69.0801 881.73 65.7101 879.01 64.2101C876.61 62.8401 873.63 63.2101 871.01 62.4601C869.643 62.0878 868.369 61.4338 867.27 60.5401L867.06 60.3501C866.838 60.4411 866.621 60.5446 866.41 60.6601C865.98 60.8901 865.52 61.3001 865.64 61.7701C865.726 61.9973 865.88 62.1927 866.08 62.3301C867.182 63.2169 868.455 63.867 869.82 64.2401C872.49 64.9701 875.47 64.6301 877.87 66.0001C880.59 67.5401 881.78 70.9201 881.78 74.0001C881.78 77.0801 880.78 80.1601 880.23 83.2301C879.96 84.6401 879.83 86.2301 880.75 87.3601C881.169 87.7975 881.694 88.1194 882.274 88.2945C882.854 88.4697 883.469 88.4923 884.06 88.3601C885.238 88.0837 886.356 87.5958 887.36 86.9201C887.662 86.6782 888.01 86.4996 888.383 86.3948C888.756 86.29 889.146 86.2612 889.53 86.3101C889.917 86.4704 890.259 86.7207 890.53 87.0401C892.214 88.7024 893.571 90.6665 894.53 92.8301C895.39 94.8301 895.9 96.9201 896.75 98.9001C897.487 100.967 898.895 102.728 900.75 103.9C902.64 104.9 905.26 104.9 906.75 103.27C907.136 102.833 907.438 102.328 907.64 101.78C906.826 102.39 905.848 102.742 904.833 102.792C903.817 102.842 902.81 102.587 901.94 102.06V102.06Z" fill="black"/>
<path opacity="0.1" d="M910.48 94.5101C911.97 92.6301 913.92 91.0301 915.32 89.0501C915.598 88.657 915.855 88.2498 916.09 87.8301C914.29 90.1201 911.82 91.9701 910.48 94.5101Z" fill="black"/>
</g>
<g opacity="0.1">
<path opacity="0.1" d="M822.23 66.4099H585.63C582.353 66.4178 579.213 67.7223 576.895 70.0382C574.578 72.3542 573.271 75.4934 573.26 78.7699V228.26C573.271 231.536 574.578 234.676 576.895 236.992C579.213 239.308 582.353 240.612 585.63 240.62H771.23C771.23 240.62 776.04 266.15 760.23 268.89C760.23 268.89 795.61 271.43 789.43 240.62H822.22C825.496 240.612 828.635 239.307 830.951 236.991C833.267 234.675 834.572 231.536 834.58 228.26V78.7699C834.572 75.496 833.269 72.3583 830.955 70.0423C828.641 67.7264 825.504 66.4205 822.23 66.4099V66.4099Z" fill="black"/>
<g opacity="0.2">
<path opacity="0.2" d="M794.08 106.09H613.76C610.629 106.09 608.09 108.628 608.09 111.76V112.1C608.09 115.231 610.629 117.77 613.76 117.77H794.08C797.212 117.77 799.75 115.231 799.75 112.1V111.76C799.75 108.628 797.212 106.09 794.08 106.09Z" fill="black"/>
<path opacity="0.2" d="M760.57 158.29H613.76C610.629 158.29 608.09 160.828 608.09 163.96V164.3C608.09 167.431 610.629 169.97 613.76 169.97H760.57C763.702 169.97 766.24 167.431 766.24 164.3V163.96C766.24 160.828 763.702 158.29 760.57 158.29Z" fill="black"/>
<path opacity="0.2" d="M716.27 132.19H613.76C610.629 132.19 608.09 134.728 608.09 137.86V138.2C608.09 141.331 610.629 143.87 613.76 143.87H716.27C719.402 143.87 721.94 141.331 721.94 138.2V137.86C721.94 134.728 719.402 132.19 716.27 132.19Z" fill="black"/>
</g>
</g>
<path d="M825.32 64.3401H588.72C585.443 64.3506 582.302 65.6573 579.985 67.9748C577.667 70.2924 576.361 73.4326 576.35 76.7101V226.2C576.361 229.477 577.668 232.616 579.985 234.932C582.303 237.248 585.444 238.552 588.72 238.56H774.32C774.32 238.56 779.13 264.09 763.32 266.83C763.32 266.83 798.7 269.37 792.52 238.56H825.31C828.586 238.552 831.725 237.247 834.041 234.931C836.357 232.615 837.662 229.476 837.67 226.2V76.7101C837.662 73.4352 836.359 70.2965 834.045 67.979C831.732 65.6614 828.595 64.3533 825.32 64.3401V64.3401Z" fill="white"/>
<g opacity="0.2">
<path opacity="0.2" d="M797.17 104.02H616.85C613.718 104.02 611.18 106.559 611.18 109.69V110.03C611.18 113.161 613.718 115.7 616.85 115.7H797.17C800.301 115.7 802.84 113.161 802.84 110.03V109.69C802.84 106.559 800.301 104.02 797.17 104.02Z" fill="#6CABDD"/>
<path opacity="0.2" d="M763.66 156.23H616.85C613.718 156.23 611.18 158.769 611.18 161.9V162.24C611.18 165.371 613.718 167.91 616.85 167.91H763.66C766.791 167.91 769.33 165.371 769.33 162.24V161.9C769.33 158.769 766.791 156.23 763.66 156.23Z" fill="#6CABDD"/>
<path opacity="0.2" d="M719.36 130.13H616.85C613.718 130.13 611.18 132.669 611.18 135.8V136.14C611.18 139.272 613.718 141.81 616.85 141.81H719.36C722.491 141.81 725.03 139.272 725.03 136.14V135.8C725.03 132.669 722.491 130.13 719.36 130.13Z" fill="#6CABDD"/>
</g>
<path d="M81.13 552.99C81.13 552.99 84.69 557.65 79.48 564.69C74.27 571.73 69.97 577.69 71.71 582.06C71.71 582.06 79.57 568.99 85.97 568.81C92.37 568.63 88.17 560.85 81.13 552.99Z" fill="#6CABDD"/>
<path opacity="0.1" d="M81.13 552.99C81.4366 553.441 81.6789 553.932 81.85 554.45C88.1 561.79 91.42 568.63 85.42 568.81C79.83 568.97 73.13 578.96 71.52 581.49C71.52 581.68 71.64 581.87 71.71 582.06C71.71 582.06 79.57 568.99 85.97 568.81C92.37 568.63 88.17 560.85 81.13 552.99Z" fill="black"/>
<path d="M87.7499 558.93C87.7499 560.57 87.5699 561.93 87.3399 561.93C87.1099 561.93 86.9299 560.6 86.9299 558.93C86.9299 557.26 87.1599 558.06 87.3899 558.06C87.6199 558.06 87.7499 557.29 87.7499 558.93Z" fill="#FFD037"/>
<path d="M90.0299 560.89C88.5899 561.68 87.3299 562.15 87.2199 561.95C87.1099 561.75 88.2199 560.95 89.6299 560.17C91.0399 559.39 90.5099 559.96 90.6299 560.17C90.7499 560.38 91.4699 560.11 90.0299 560.89Z" fill="#FFD037"/>
<path d="M62.2899 552.99C62.2899 552.99 58.7299 557.65 63.9399 564.69C69.1499 571.73 73.4499 577.69 71.7099 582.06C71.7099 582.06 63.8499 568.99 57.4499 568.81C51.0499 568.63 55.2499 560.85 62.2899 552.99Z" fill="#6CABDD"/>
<path opacity="0.1" d="M62.2899 552.99C61.9834 553.441 61.741 553.932 61.5699 554.45C55.3199 561.79 51.9999 568.63 57.9999 568.81C63.5899 568.97 70.2899 578.96 71.8999 581.49C71.8499 581.68 71.7799 581.87 71.7099 582.06C71.7099 582.06 63.8499 568.99 57.4499 568.81C51.0499 568.63 55.2499 560.85 62.2899 552.99Z" fill="black"/>
<path d="M55.6699 558.93C55.6699 560.57 55.8499 561.93 56.0799 561.93C56.3099 561.93 56.4899 560.6 56.4899 558.93C56.4899 557.26 56.2599 558.06 56.0299 558.06C55.7999 558.06 55.6699 557.29 55.6699 558.93Z" fill="#FFD037"/>
<path d="M53.39 560.89C54.83 561.68 56.09 562.15 56.2 561.95C56.31 561.75 55.2 560.95 53.79 560.17C52.38 559.39 52.91 559.96 52.79 560.17C52.67 560.38 51.94 560.11 53.39 560.89Z" fill="#FFD037"/>
<path opacity="0.1" d="M71.7099 617.73C92.2991 617.73 108.99 615.169 108.99 612.01C108.99 608.851 92.2991 606.29 71.7099 606.29C51.1208 606.29 34.4299 608.851 34.4299 612.01C34.4299 615.169 51.1208 617.73 71.7099 617.73Z" fill="#6CABDD"/>
<path d="M90.9399 575.78L90.7599 577.23L90.5099 579.29L90.3999 580.15L90.1499 582.2L90.0499 583.06L89.7999 585.12L86.9399 608.51C86.6899 610.6 83.2799 612.23 79.1599 612.23H64.2999C60.1799 612.23 56.7799 610.6 56.5199 608.51L53.6599 585.13L53.4099 583.07L53.3099 582.21L53.0599 580.16L52.9499 579.3L52.6999 577.24L52.5199 575.79C52.3799 574.61 54.2299 573.61 56.5199 573.61H86.8299C89.1899 573.6 91.0399 574.6 90.9399 575.78Z" fill="#65617D"/>
<path d="M90.7099 577.23L90.4599 579.29H52.95L52.7 577.23H90.7099Z" fill="#9D9CB5"/>
<path d="M90.3601 580.15L90.1101 582.2H53.3101L53.05 580.15H90.3601Z" fill="#9D9CB5"/>
<path d="M89.9999 583.06L89.7499 585.12H53.6599L53.4099 583.06H89.9999Z" fill="#9D9CB5"/>
<path opacity="0.1" d="M645.79 803.14C692.204 803.14 729.83 796.966 729.83 789.35C729.83 781.734 692.204 775.56 645.79 775.56C599.376 775.56 561.75 781.734 561.75 789.35C561.75 796.966 599.376 803.14 645.79 803.14Z" fill="#6CABDD"/>
<g opacity="0.1">
<path opacity="0.1" d="M743.13 365.87H486.74C483.189 365.881 479.787 367.296 477.276 369.807C474.766 372.317 473.351 375.719 473.34 379.27V541.27C473.351 544.821 474.766 548.223 477.276 550.734C479.787 553.244 483.189 554.66 486.74 554.67H687.87C687.87 554.67 693.08 582.33 675.96 585.3C675.96 585.3 714.29 588.05 707.59 554.67H743.13C746.681 554.66 750.083 553.244 752.594 550.734C755.104 548.223 756.52 544.821 756.53 541.27V379.27C756.52 375.719 755.104 372.317 752.594 369.807C750.083 367.296 746.681 365.881 743.13 365.87Z" fill="black"/>
<g opacity="0.2">
<path opacity="0.2" d="M713.11 465.45H516.75C513.619 465.45 511.08 467.989 511.08 471.12V472.44C511.08 475.572 513.619 478.11 516.75 478.11H713.11C716.242 478.11 718.78 475.572 718.78 472.44V471.12C718.78 467.989 716.242 465.45 713.11 465.45Z" fill="black"/>
<path opacity="0.2" d="M595.47 437.16H516.75C513.619 437.16 511.08 439.699 511.08 442.83V444.15C511.08 447.282 513.619 449.82 516.75 449.82H595.47C598.602 449.82 601.14 447.282 601.14 444.15V442.83C601.14 439.699 598.602 437.16 595.47 437.16Z" fill="black"/>
</g>
</g>
<path d="M740.94 363.64H484.5C480.949 363.651 477.547 365.066 475.037 367.577C472.526 370.087 471.111 373.489 471.1 377.04V539.04C471.111 542.591 472.526 545.993 475.037 548.504C477.547 551.014 480.949 552.43 484.5 552.44H685.63C685.63 552.44 690.84 580.1 673.72 583.08C673.72 583.08 712.06 585.83 705.36 552.44H740.94C744.491 552.43 747.893 551.014 750.404 548.504C752.914 545.993 754.33 542.591 754.34 539.04V377.04C754.33 373.489 752.914 370.087 750.404 367.577C747.893 365.066 744.491 363.651 740.94 363.64V363.64Z" fill="white"/>
<g opacity="0.2">
<path opacity="0.2" d="M710.88 463.22H514.52C511.389 463.22 508.85 465.759 508.85 468.89V470.21C508.85 473.341 511.389 475.88 514.52 475.88H710.88C714.012 475.88 716.55 473.341 716.55 470.21V468.89C716.55 465.759 714.012 463.22 710.88 463.22Z" fill="#6CABDD"/>
<path opacity="0.2" d="M593.24 434.93H514.52C511.389 434.93 508.85 437.468 508.85 440.6V441.92C508.85 445.051 511.389 447.59 514.52 447.59H593.24C596.372 447.59 598.91 445.051 598.91 441.92V440.6C598.91 437.468 596.372 434.93 593.24 434.93Z" fill="#6CABDD"/>
</g>
<path d="M694.15 779.97C692.94 774.84 692.15 770.33 692.15 770.33C692.15 770.33 692.43 764.74 689.92 760.54V759.14V748.81C690.632 746.935 691.505 745.124 692.53 743.4C694.39 740.15 692.53 728.25 692.53 728.25C692.53 728.25 685.63 711.47 687.31 700.83C688.99 690.19 673.14 653.56 673.14 653.56C673.237 650.028 673.737 646.519 674.63 643.1C674.796 642.383 674.863 641.646 674.83 640.91C674.835 640.82 674.835 640.73 674.83 640.64C674.83 640.64 674.83 640.7 674.83 640.73C674.59 633.73 669.04 620.55 669.04 620.55L669.79 595.48C669.79 595.48 673.33 580.69 667.55 560.84C665.55 553.92 664.24 548.37 663.42 544.1C663.33 543.61 663.24 543.1 663.16 542.7C675.06 540.89 684.16 539.38 684.16 539.38C684.16 539.38 677.28 510.51 672.62 505.51C667.96 500.51 664.24 484.51 664.24 484.51C664.24 484.51 661.81 464.12 665.73 458.17C669.65 452.22 670.2 441.94 670.2 441.94C670.2 441.94 679.2 435.44 680.27 432.56C681.34 429.68 683.27 423.18 683.27 419.75C683.27 416.32 682.15 413.25 682.52 411.45C682.89 409.65 679.91 402.79 681.4 399.54C681.79 398.542 681.993 397.481 682 396.41C682 396.41 682 396.35 682 396.32C682.009 393.481 681.744 390.648 681.21 387.86C678.626 385.677 675.61 384.065 672.36 383.13L672.16 382.35L671.66 380.35C671.36 380.15 671.07 379.98 670.78 379.82V379.08L670.69 376.15L672.1 369.57C674.85 358.11 659.56 356.4 659.56 356.4C658.637 354.643 657.093 353.293 655.23 352.61C652.15 351.53 654.72 369.84 656.16 371.01C657.24 371.89 660.58 377.63 662.16 380.45L662.42 380.92C662.165 381.142 661.931 381.386 661.72 381.65L662.3 385.65L662.39 386.26C661.379 387.521 660.557 388.922 659.95 390.42C659.95 390.42 662.75 393.49 662.19 396.92C661.63 400.35 663.04 404.62 663.11 404.85C662.95 404.66 660.98 402.53 659.02 403.05C657.06 403.57 651.56 405.22 651.56 405.22C651.56 405.22 647.46 405.94 647.84 406.84C648.22 407.74 645.04 411.71 645.04 411.71L634.04 401.27C633.94 400.96 633.82 400.65 633.72 400.32C633.251 398.83 632.916 397.3 632.72 395.75C633.918 395.46 635.094 395.086 636.24 394.63C637.38 394.227 638.409 393.559 639.24 392.68C640.35 391.36 640.56 389.57 641.01 387.93C641.89 384.72 643.76 381.86 645.1 378.81C647.372 373.673 648.135 367.995 647.3 362.44C647.125 360.732 646.546 359.09 645.61 357.65C643.81 355.17 640.55 354.17 638.17 352.19C635.79 350.21 634.27 347.19 631.51 345.72C629.01 344.38 625.96 344.54 623.14 345C617.63 345.91 612.337 347.836 607.53 350.68C605.92 351.63 604.16 352.73 602.31 352.4C600.73 352.11 599.57 350.84 598.54 349.63C598.54 349.58 598.54 349.53 598.59 349.48L598.47 349.34C597.34 351.913 596.784 354.701 596.84 357.51C596.84 357.95 596.84 358.39 596.89 358.83V359.29C596.89 359.42 596.89 359.55 596.89 359.67C596.893 359.87 596.866 360.068 596.81 360.26C596.585 360.821 596.244 361.329 595.81 361.75C595.471 362.127 595.17 362.535 594.91 362.97C594.951 362.817 595.001 362.667 595.06 362.52C594.357 363.548 593.961 364.755 593.92 366C593.856 366.902 594.151 367.793 594.74 368.48C595.292 369.02 595.895 369.506 596.54 369.93C595.773 374.156 596.321 378.516 598.109 382.421C599.897 386.326 602.84 389.589 606.54 391.77C606.67 392.08 606.8 392.4 606.92 392.72C608.33 396.43 609.39 400.72 608.92 404.72C608.92 405.02 608.84 405.31 608.78 405.6C608.72 405.89 608.51 405.9 608.39 406.06C608.39 406.06 590.2 406.24 585.91 402.36C581.62 398.48 575.1 411.83 575.1 411.83C575.1 411.83 568.58 413.09 567.28 411.83C565.98 410.57 558.33 411.65 558.33 411.65C555.216 408.888 551.171 407.408 547.01 407.51C544.465 405.575 541.656 404.012 538.67 402.87V402.87L538.47 402.8C537.159 402.324 535.758 402.146 534.37 402.28C534.37 402.28 525.42 394.88 522.81 390.92C520.2 386.96 507.81 372.23 507.72 372.16V371.45L507.58 369.3C507.213 369.362 506.842 369.396 506.47 369.4C506.4 369.19 506.32 368.94 506.22 368.66C505.503 366.57 504.62 364.54 503.58 362.59C503.58 362.59 503.58 359.89 504.37 359.21C505.16 358.53 504.04 348.61 504.04 348.61C504.04 348.61 495.98 329.76 488.76 343.83C488.76 343.83 475.11 352.94 486.57 363.54C486.57 363.54 491.14 365.75 491.78 367.54C492.21 368.68 493.78 371.86 494.78 373.97L495.25 374.92L495.12 375.03L495.29 376.8L495.36 377.48C493.2 378.71 491.74 379.92 492.09 380.84C492.727 382.403 493.167 384.039 493.4 385.71C493.4 385.71 509.18 405.51 511.23 414.01C511.23 414.01 553.72 439.26 567.7 441.06L565.28 453.69C564.919 457.105 564.732 460.536 564.72 463.97C564.9 466.68 563.04 478.97 563.04 478.97C563.04 478.97 560.62 496.97 558.57 499.53C556.52 502.09 556.94 512.86 556.94 512.86C556.446 518.041 555.509 523.169 554.14 528.19C552.14 535.05 553.58 543.53 553.58 543.53C553.58 543.53 546.5 559.76 563.46 548.76C563.46 548.76 571.79 548.24 581.38 547.91C581.38 548.23 581.38 548.54 581.38 548.91C581.38 550.14 581.38 551.48 581.32 552.91C581.19 562.21 581.14 575.02 581.56 584.72C582.31 601.85 587.56 635.77 587.56 635.77V652.77C587.227 654.372 587.063 656.004 587.07 657.64C586.955 663.646 588.547 669.562 591.66 674.7L592.97 686.06C592.97 686.06 596.03 693.55 596.09 698.06C596.075 698.426 596.032 698.791 595.96 699.15C595.845 699.723 595.794 700.306 595.81 700.89C595.64 706.05 598.75 718.39 598.75 718.39C598.75 718.39 598.93 730.84 600.75 731.56C602.34 732.18 598.62 738.74 597.51 740.62C597.51 740.5 597.51 740.38 597.44 740.26L597.21 740.64C596.825 741.642 596.628 742.707 596.63 743.78C596.525 744.631 596.664 745.495 597.03 746.27C597.397 747.045 597.976 747.701 598.7 748.16C602.24 750.32 604.14 752.16 601.13 752.85C600.025 753.023 598.93 753.253 597.85 753.54L597.69 753.12C597.269 753.291 596.919 753.6 596.698 753.996C596.476 754.392 596.396 754.852 596.47 755.3C596.491 756.776 596.872 758.225 597.58 759.52C600.58 766.2 602.58 768.72 602.58 768.72L604.02 768.56C603.803 769.103 603.524 769.62 603.19 770.1C602.647 770.884 601.923 771.525 601.08 771.97C600.302 772.439 599.432 772.735 598.53 772.84C597.519 772.874 596.526 773.12 595.616 773.563C594.707 774.006 593.9 774.635 593.25 775.41C591.39 777.82 590.25 781.09 593.9 783.97L607.23 788.57C607.23 788.57 630.15 791.57 628.94 786.4C627.73 781.23 626.94 776.75 626.94 776.75C627.034 773.607 626.397 770.485 625.08 767.63C624.839 767.167 624.568 766.719 624.27 766.29L625.08 766.2C625.08 766.2 626.76 754.83 628.99 752.67C629.51 752.17 629.63 751.79 629.5 751.49C629.73 750.87 629.15 750.49 628.4 750.3L628.24 750.75C627.507 750.59 626.76 750.506 626.01 750.5C626.01 750.5 625.27 744.55 627.69 742.39C627.885 742.143 628.028 741.858 628.109 741.554C628.189 741.249 628.207 740.932 628.16 740.62C628.177 739.803 628.093 738.987 627.91 738.19L627.82 738.33C626.6 732.93 622.47 724.33 622.47 724.33C622.47 724.33 622.28 718.92 623.78 716.75C625.28 714.58 623.59 687.35 623.59 687.35C623.59 687.35 624.15 674.18 622.47 668.05C620.79 661.92 624.52 654.7 624.52 654.7C624.52 654.7 624.52 654.55 624.52 654.3L624.57 654.21C624.57 654.21 624.48 653.4 624.35 652.14C624.35 652.14 624.35 652.22 624.35 652.26C623.97 648.78 623.26 642.46 622.74 639.54C621.99 635.39 622.92 615.54 622.92 615.54L626.28 607.06L632.28 621.68L638.62 641.16C638.62 641.16 641.76 645.27 641.83 649.44C641.845 649.643 641.845 649.847 641.83 650.05C641.782 650.485 641.759 650.922 641.76 651.36C641.648 653.817 642.325 656.245 643.69 658.29C643.69 658.29 645.37 667.49 647.98 669.84C650.59 672.19 650.59 676.69 650.59 676.69C650.59 676.69 653.75 690.04 655.25 692.39C656.5 694.39 656.57 699.8 656.56 701.46C656.56 701.77 656.56 701.95 656.56 701.95C656.56 701.95 657 706.72 656.98 710.73C656.98 711.22 656.98 711.73 656.98 712.16C656.975 712.124 656.975 712.087 656.98 712.05C656.972 713.145 656.841 714.235 656.59 715.3C656.59 715.3 656.59 715.42 656.53 715.49L656.59 714.81C655.918 717.532 655.583 720.326 655.59 723.13C655.5 727.93 656.23 733.61 659.14 736.94C664.14 742.72 667.34 742 667.34 742C667.34 742 664.92 749.21 661.93 750.65C661.819 750.708 661.715 750.779 661.62 750.86C661.62 750.72 661.56 750.58 661.54 750.44C661.216 750.803 660.971 751.23 660.821 751.693C660.671 752.156 660.62 752.646 660.67 753.13C660.45 756.3 662.45 761.45 664.36 763.82C665.061 764.516 665.929 765.022 666.88 765.29L666.41 765.58C666.086 765.761 665.752 765.925 665.41 766.07C664.928 766.282 664.414 766.414 663.89 766.46C662.878 766.49 661.884 766.734 660.973 767.177C660.063 767.62 659.257 768.252 658.61 769.03C656.75 771.43 655.61 774.7 659.26 777.58L672.59 782.18C672.59 782.18 695.36 785.12 694.15 779.97Z" fill="url(#paint1_linear)"/>
<path d="M606.59 788.51L593.69 783.91C590.13 781.03 591.27 777.76 593.06 775.35C593.678 774.581 594.455 773.954 595.336 773.511C596.218 773.067 597.184 772.818 598.17 772.78C599.047 772.675 599.891 772.378 600.64 771.91C601.447 771.456 602.132 770.814 602.64 770.04C603.59 768.545 604.099 766.812 604.11 765.04C604.11 765.04 618.28 760.89 622.11 765.04C622.8 765.79 623.38 766.635 623.83 767.55C625.104 770.417 625.719 773.534 625.63 776.67C625.63 776.67 626.36 781.18 627.52 786.32C628.68 791.46 606.59 788.51 606.59 788.51Z" fill="#2D293D"/>
<path d="M669.73 782.14L656.83 777.54C653.27 774.66 654.4 771.39 656.2 768.99C656.815 768.218 657.591 767.588 658.473 767.144C659.355 766.701 660.323 766.454 661.31 766.42C661.819 766.374 662.316 766.242 662.78 766.03C663.125 765.892 663.459 765.728 663.78 765.54C667.38 763.54 667.29 758.69 667.29 758.69C667.29 758.69 681.45 754.54 685.29 758.69C685.811 759.248 686.264 759.866 686.64 760.53C689.08 764.73 688.81 770.33 688.81 770.33C688.81 770.33 689.53 774.84 690.7 779.98C691.87 785.12 669.73 782.14 669.73 782.14Z" fill="#2D293D"/>
<path opacity="0.1" d="M622.19 765.05C622.88 765.8 623.46 766.645 623.91 767.56V767.56L602.68 770.02C603.63 768.525 604.139 766.792 604.15 765.02C604.15 765.02 618.32 760.9 622.19 765.05Z" fill="black"/>
<path opacity="0.1" d="M686.68 760.51V764.51C683.39 769.95 667.42 768.76 662.78 766.03C663.125 765.892 663.459 765.728 663.78 765.54C667.38 763.54 667.29 758.69 667.29 758.69C667.29 758.69 681.45 754.54 685.29 758.69C685.824 759.24 686.29 759.851 686.68 760.51Z" fill="black"/>
<path d="M689.21 743.4C688.221 745.132 687.375 746.941 686.68 748.81V763.06C683.08 769.06 664.32 767.06 661.79 763.78C659.26 760.5 656.56 752.06 659.45 750.62C662.34 749.18 664.68 741.96 664.68 741.96C664.68 741.96 661.61 742.68 656.74 736.91C651.87 731.14 653.31 718.33 654.22 715.26C655.13 712.19 654.22 701.91 654.22 701.91C654.22 701.91 654.4 694.7 652.95 692.35C651.5 690 648.44 676.66 648.44 676.66C648.44 676.66 648.44 672.15 645.92 669.8C643.4 667.45 641.77 658.26 641.77 658.26C640.284 655.965 639.638 653.227 639.94 650.51C640.49 646 636.88 641.13 636.88 641.13L630.75 621.65L624.97 607.04L621.75 615.51C621.75 615.51 620.84 635.35 621.57 639.51C622.3 643.67 623.37 654.66 623.37 654.66C623.37 654.66 619.76 661.88 621.37 668.01C622.98 674.14 622.45 687.31 622.45 687.31C622.45 687.31 624.07 714.55 622.63 716.71C621.19 718.87 621.37 724.29 621.37 724.29C621.37 724.29 628.76 740.16 626.37 742.29C623.98 744.42 624.74 750.41 624.74 750.41C624.74 750.41 629.74 750.41 627.63 752.57C625.52 754.73 623.94 766.13 623.94 766.13L602.13 768.65C602.13 768.65 600.13 766.13 597.24 759.45C594.35 752.77 597.78 753.45 600.69 752.78C603.6 752.11 601.75 750.25 598.33 748.09C594.91 745.93 596.88 741.09 596.88 741.09C596.88 741.09 602.11 732.25 600.31 731.52C598.51 730.79 598.31 718.36 598.31 718.36C598.31 718.36 594.7 703.56 595.6 699.6C596.5 695.64 592.71 686.07 592.71 686.07L591.45 674.7C587.582 668.259 586.162 660.642 587.45 653.24V635.71C587.45 635.71 582.45 601.8 581.68 584.66C581.22 573.66 581.35 558.71 581.5 549.36C581.59 544.12 581.68 540.65 581.68 540.65L659.63 532.51C659.749 536.401 660.221 540.274 661.04 544.08C661.83 548.36 663.04 553.9 665.04 560.83C670.63 580.67 667.2 595.46 667.2 595.46L666.48 620.54C666.48 620.54 673.34 637.31 671.89 643.09C671.027 646.513 670.544 650.021 670.45 653.55C670.45 653.55 685.78 690.17 684.16 700.81C682.54 711.45 689.16 728.23 689.16 728.23C689.16 728.23 691.01 740.15 689.21 743.4Z" fill="#575988"/>
<path opacity="0.05" d="M644.65 649.42L668.38 646.26C668.38 646.26 654.94 659.97 644.65 649.42Z" fill="black"/>
<path opacity="0.1" d="M664.94 623.08C664.94 623.08 665.75 631.47 660.61 634.63C660.62 634.63 669.82 633.18 664.94 623.08Z" fill="black"/>
<path opacity="0.1" d="M663.49 596.39C663.49 596.39 643.66 612.71 636.49 611.39C629.32 610.07 663.49 596.39 663.49 596.39Z" fill="black"/>
<path opacity="0.1" d="M615.25 657.09C615.25 657.09 600.19 660.51 599.74 666.56C599.29 672.61 615.25 657.09 615.25 657.09Z" fill="black"/>
<path opacity="0.05" d="M618.56 732.31C618.56 732.31 597.28 736.31 603.32 738.98C609.36 741.65 619.32 743.85 619.32 743.85C619.32 743.85 626.14 744.21 618.56 732.31Z" fill="black"/>
<g opacity="0.05">
<path opacity="0.05" d="M599.02 743.28C598.487 742.942 598.036 742.489 597.7 741.954C597.365 741.42 597.153 740.817 597.08 740.19L596.86 740.57C596.86 740.57 594.86 745.44 598.3 747.57C598.7 747.82 599.07 748.07 599.41 748.31C600.05 748.19 600.73 748.1 601.41 747.94C604.29 747.24 602.45 745.44 599.02 743.28Z" fill="black"/>
<path opacity="0.05" d="M626.44 741.83C627.03 741.29 627.01 739.9 626.65 738.12C625.78 739.721 625.362 741.529 625.44 743.35C625.663 742.779 626.004 742.261 626.44 741.83V741.83Z" fill="black"/>
<path opacity="0.05" d="M623.17 652.09C622.382 654.221 621.897 656.453 621.73 658.72C622.137 657.152 622.69 655.625 623.38 654.16C623.38 654.16 623.3 653.35 623.17 652.09Z" fill="black"/>
<path opacity="0.05" d="M671.94 642.62C672.087 641.964 672.154 641.292 672.14 640.62C671.87 641.96 671.68 643.21 671.55 644.31C671.62 643.78 671.75 643.21 671.94 642.62Z" fill="black"/>
<path opacity="0.05" d="M622.65 716.22C623.064 714.929 623.247 713.575 623.19 712.22C622.537 713.827 622.197 715.545 622.19 717.28C622.301 716.91 622.455 716.554 622.65 716.22V716.22Z" fill="black"/>
<path opacity="0.05" d="M627.12 750.23C625.999 753.851 625.169 757.556 624.64 761.31L602.83 763.84C602.83 763.84 600.83 761.31 597.94 754.64C597.69 754.05 597.49 753.53 597.33 753.05C596.02 753.65 595.51 755.05 597.22 758.97C600.11 765.64 602.1 768.17 602.1 768.17L623.94 765.64C623.94 765.64 625.56 754.28 627.72 752.11C628.77 751.05 628.09 750.51 627.12 750.23Z" fill="black"/>
<path opacity="0.05" d="M598.3 717.84C598.3 717.84 598.48 730.29 600.3 731.01C601.21 728.95 601.82 727.01 601.01 726.67C599.2 725.95 599.01 713.5 599.01 713.5C599.01 713.5 595.41 698.71 596.31 694.74C597.21 690.77 593.42 681.21 593.42 681.21L592.16 669.85C588.286 663.408 586.866 655.785 588.16 648.38V630.88C588.16 630.88 583.16 596.97 582.39 579.88C581.93 568.88 582.06 553.88 582.21 544.58C582.21 542.89 582.26 541.39 582.29 540.13L581.67 540.19C581.67 540.19 581.57 543.66 581.49 548.91C581.33 558.25 581.2 573.23 581.67 584.2C582.39 601.34 587.44 635.25 587.44 635.25V652.75C586.146 660.155 587.566 667.778 591.44 674.22L592.71 685.51C592.71 685.51 596.5 695.07 595.6 699.04C594.7 703.01 598.3 717.84 598.3 717.84Z" fill="black"/>
<path opacity="0.05" d="M662.52 758.97C660.748 756.405 659.57 753.477 659.07 750.4C656.84 752.4 659.4 760.21 661.8 763.3C664.32 766.54 683.08 768.53 686.69 762.58V759.14C681.81 763.98 664.94 762.04 662.52 758.97Z" fill="black"/>
<path opacity="0.05" d="M689.94 738.59C688.944 740.318 688.098 742.128 687.41 744V746.51C687.82 745.58 688.41 744.35 689.22 742.89C689.796 741.476 690.065 739.956 690.01 738.43C689.979 738.48 689.955 738.534 689.94 738.59V738.59Z" fill="black"/>
<path opacity="0.05" d="M663.63 741.43C664.318 740.041 664.913 738.608 665.41 737.14C665.41 737.14 662.34 737.86 657.47 732.14C653.92 727.94 653.72 720.01 654.23 714.83C653.32 717.89 651.88 730.7 656.75 736.47C659.94 740.2 662.34 741.19 663.63 741.43Z" fill="black"/>
<path opacity="0.05" d="M654.22 701.43C654.538 704.984 654.658 708.553 654.58 712.12C654.672 711.554 654.796 710.993 654.95 710.44C655.86 707.38 654.95 697.1 654.95 697.1C654.95 697.1 655.13 689.88 653.69 687.54C652.25 685.2 649.18 671.84 649.18 671.84C649.18 671.84 649.18 667.33 646.66 664.99C644.14 662.65 642.51 653.44 642.51 653.44C641.028 651.144 640.388 648.405 640.7 645.69C641.24 641.18 637.64 636.31 637.64 636.31L631.5 616.82L625.73 602.21L622.48 610.69C622.48 610.69 622.48 611.76 622.37 613.43L625.01 606.54L630.78 621.15L636.94 640.64C636.94 640.64 640.55 645.51 640.01 650.02C639.698 652.735 640.338 655.474 641.82 657.77C641.82 657.77 643.44 666.97 645.96 669.32C648.48 671.67 648.49 676.17 648.49 676.17C648.49 676.17 651.56 689.52 653 691.87C654.44 694.22 654.22 701.43 654.22 701.43Z" fill="black"/>
</g>
<path d="M669.37 369.51L668.01 376.09L668.09 379.02L668.15 381.19L660.62 381.96L659.78 380.4C658.22 377.58 654.99 371.84 653.94 370.96C652.55 369.79 650.07 351.48 653.05 352.56C654.869 353.265 656.362 354.619 657.24 356.36C657.24 356.36 672.03 358.1 669.37 369.51Z" fill="#FFCDD3"/>
<path opacity="0.1" d="M668.15 381.23L660.62 382L659.78 380.44C660.794 379.287 662.176 378.521 663.69 378.272C665.205 378.022 666.76 378.304 668.09 379.07L668.15 381.23Z" fill="black"/>
<path d="M670.05 384.79L660.12 387.09L659.92 385.61L659.35 381.61C659.35 381.61 663.28 376.37 668.96 380.3L669.45 382.3L670.05 384.79Z" fill="#DCE6F2"/>
<path d="M509.27 370.27L498.68 375.95L497.68 373.95C496.68 371.84 495.17 368.66 494.76 367.52C494.13 365.77 489.71 363.52 489.71 363.52C478.62 352.92 491.83 343.81 491.83 343.81C498.83 329.74 506.62 348.59 506.62 348.59C506.62 348.59 507.7 358.52 506.94 359.19C506.18 359.86 506.17 362.57 506.17 362.57C507.184 364.522 508.04 366.551 508.73 368.64C509.1 369.65 509.27 370.27 509.27 370.27Z" fill="#FFCDD3"/>
<path opacity="0.1" d="M509.27 370.27L498.68 375.95L497.68 373.95C499.17 372.71 504.48 368.41 506.22 368.6C507.053 368.702 507.893 368.726 508.73 368.67C509.1 369.65 509.27 370.27 509.27 370.27Z" fill="black"/>
<path d="M510.35 373.51L498.45 379.38L498.21 376.82L498.04 375.05C498.04 375.05 504.94 369.14 506.98 369.36C508.011 369.511 509.059 369.511 510.09 369.36L510.22 371.5L510.35 373.51Z" fill="#DCE6F2"/>
<path d="M640.51 413.29C640.51 413.29 588.59 419.15 598.3 416C605.05 413.8 607.73 409.51 608.3 404.74C608.75 400.74 607.73 396.44 606.36 392.74C605.135 389.464 603.58 386.321 601.72 383.36C601.72 383.36 641.41 361.53 633.47 381.36C632.245 384.36 631.487 387.53 631.22 390.76C630.969 393.964 631.308 397.188 632.22 400.27C633.722 405.295 636.592 409.803 640.51 413.29Z" fill="#FFCDD3"/>
<path opacity="0.1" d="M633.47 381.37C632.245 384.37 631.487 387.54 631.22 390.77C627.48 393.91 623.38 393.7 618.12 393.7C614.12 393.7 609.6 394.7 606.36 392.7C605.135 389.424 603.58 386.281 601.72 383.32C601.72 383.32 641.41 361.51 633.47 381.37Z" fill="black"/>
<path d="M617.41 395.08C629.267 395.08 638.88 385.468 638.88 373.61C638.88 361.753 629.267 352.14 617.41 352.14C605.552 352.14 595.94 361.753 595.94 373.61C595.94 385.468 605.552 395.08 617.41 395.08Z" fill="#FFCDD3"/>
<path opacity="0.1" d="M640.51 413.29C640.51 413.29 588.59 419.15 598.3 416C605.05 413.8 607.73 409.51 608.3 404.74C610.88 401.94 616.07 399.92 619.41 398.85C622.455 397.827 625.743 397.774 628.82 398.7C630.03 399.059 631.182 399.591 632.24 400.28C633.738 405.299 636.601 409.803 640.51 413.29Z" fill="black"/>
<path opacity="0.1" d="M670.05 384.79L660.12 387.09L659.92 385.61C660.981 384.153 662.465 383.059 664.17 382.475C665.875 381.892 667.719 381.848 669.45 382.35L670.05 384.79Z" fill="black"/>
<path opacity="0.1" d="M510.35 373.51L498.45 379.38L498.21 376.82C502.071 374.749 506.082 372.97 510.21 371.5L510.35 373.51Z" fill="black"/>
<path opacity="0.1" d="M661.04 544.1C640.94 547.28 612.32 551.41 607.78 550.03C604.02 548.88 591.99 549.03 581.52 549.36C581.61 544.12 581.7 540.65 581.7 540.65L659.63 532.51C659.748 536.408 660.22 540.287 661.04 544.1Z" fill="black"/>
<path d="M681.09 539.38C681.09 539.38 614.89 550.75 607.78 548.58C600.67 546.41 564.2 548.76 564.2 548.76C547.79 559.76 554.64 543.53 554.64 543.53C554.64 543.53 553.2 535.05 555.18 528.2C556.525 523.176 557.449 518.048 557.94 512.87C557.94 512.87 557.58 502.04 559.56 499.52C561.54 497 563.89 478.95 563.89 478.95C563.89 478.95 565.7 466.69 565.52 463.95C565.528 460.517 565.708 457.086 566.06 453.67L568.4 441.04C554.87 439.24 513.74 413.98 513.74 413.98C511.74 405.51 496.43 385.66 496.43 385.66C496.207 383.991 495.781 382.355 495.16 380.79C494.08 377.91 510.32 372.14 510.32 372.14C510.32 372.14 522.4 386.93 524.93 390.9C527.46 394.87 536.11 402.26 536.11 402.26C537.466 402.121 538.835 402.299 540.11 402.78L540.32 402.84C543.223 403.989 545.945 405.552 548.4 407.48C552.467 407.382 556.411 408.871 559.4 411.63C559.4 411.63 566.8 410.55 568.06 411.81C569.32 413.07 575.64 411.81 575.64 411.81C575.64 411.81 581.95 398.46 586.1 402.34C590.25 406.22 607.85 406.04 607.85 406.04C610.2 402.92 615.91 400.68 619.48 399.53C622.526 398.511 625.813 398.459 628.89 399.38C630.22 399.761 631.474 400.366 632.6 401.17L643.28 411.63C643.28 411.63 646.35 407.63 645.99 406.76C645.63 405.89 649.6 405.14 649.6 405.14C649.6 405.14 654.83 403.51 656.81 402.97C658.79 402.43 660.61 404.58 660.81 404.77C660.75 404.54 659.39 400.17 659.92 396.84C660.45 393.51 657.75 390.34 657.75 390.34C664.07 374.83 678.32 387.82 678.32 387.82C678.32 387.82 679.94 396.3 678.5 399.54C677.06 402.78 679.94 409.65 679.58 411.45C679.22 413.25 680.3 416.32 680.3 419.75C680.3 423.18 678.5 429.67 677.41 432.55C676.32 435.43 667.67 441.93 667.67 441.93C667.67 441.93 667.13 452.22 663.34 458.17C659.55 464.12 661.79 484.51 661.79 484.51C661.79 484.51 665.4 500.42 669.94 505.51C674.48 510.6 681.09 539.38 681.09 539.38Z" fill="#656691"/>
<path opacity="0.1" d="M584.59 420.69C584.59 420.69 582.59 414.74 580.8 414.2C579.006 413.534 577.259 412.749 575.57 411.85L576.73 409.63C576.73 409.63 583.5 411.49 584.59 413.47C585.68 415.45 584.59 420.69 584.59 420.69Z" fill="black"/>
<path opacity="0.1" d="M548.33 407.51C547.97 409.31 531.91 410.94 531.91 410.94L540.03 402.8L540.23 402.87C543.14 404.017 545.869 405.58 548.33 407.51V407.51Z" fill="black"/>
<path d="M501.87 384.2C502.665 384.2 503.31 383.555 503.31 382.76C503.31 381.965 502.665 381.32 501.87 381.32C501.075 381.32 500.43 381.965 500.43 382.76C500.43 383.555 501.075 384.2 501.87 384.2Z" fill="#575988"/>
<path d="M503.72 387.09C504.515 387.09 505.16 386.445 505.16 385.65C505.16 384.855 504.515 384.21 503.72 384.21C502.925 384.21 502.28 384.855 502.28 385.65C502.28 386.445 502.925 387.09 503.72 387.09Z" fill="#575988"/>
<path d="M505.53 389.75C506.325 389.75 506.97 389.105 506.97 388.31C506.97 387.515 506.325 386.87 505.53 386.87C504.735 386.87 504.09 387.515 504.09 388.31C504.09 389.105 504.735 389.75 505.53 389.75Z" fill="#575988"/>
<path d="M507.42 392.64C508.215 392.64 508.86 391.995 508.86 391.2C508.86 390.405 508.215 389.76 507.42 389.76C506.625 389.76 505.98 390.405 505.98 391.2C505.98 391.995 506.625 392.64 507.42 392.64Z" fill="#575988"/>
<path d="M677.46 392.21C678.106 392.21 678.63 391.686 678.63 391.04C678.63 390.394 678.106 389.87 677.46 389.87C676.814 389.87 676.29 390.394 676.29 391.04C676.29 391.686 676.814 392.21 677.46 392.21Z" fill="#575988"/>
<path d="M677.64 394.87C678.286 394.87 678.81 394.346 678.81 393.7C678.81 393.054 678.286 392.53 677.64 392.53C676.994 392.53 676.47 393.054 676.47 393.7C676.47 394.346 676.994 394.87 677.64 394.87Z" fill="#575988"/>
<path d="M677.8 397.53C678.446 397.53 678.97 397.006 678.97 396.36C678.97 395.714 678.446 395.19 677.8 395.19C677.154 395.19 676.63 395.714 676.63 396.36C676.63 397.006 677.154 397.53 677.8 397.53Z" fill="#575988"/>
<path opacity="0.1" d="M584.68 469.57C584.51 469.36 625.17 520.71 656.74 491.04C656.74 491.04 606.86 497.8 584.68 469.57Z" fill="black"/>
<path opacity="0.1" d="M561.32 496.27C561.32 496.27 585.65 496.93 588.19 503.93V511.22C587.499 511.604 586.721 511.806 585.93 511.806C585.139 511.806 584.361 511.604 583.67 511.22C581.22 509.89 566.5 502.42 561.32 506.01V496.27Z" fill="black"/>
<path d="M561.77 496.27C561.77 496.27 585.04 496.9 587.47 503.58V510.51C586.808 510.878 586.063 511.071 585.305 511.071C584.547 511.071 583.802 510.878 583.14 510.51C580.8 509.25 566.73 502.12 561.77 505.51V496.27Z" fill="#656691"/>
<path opacity="0.1" d="M574.6 443.43C577.087 449.183 580.253 454.618 584.03 459.62C588.149 465.148 593.141 469.967 598.81 473.89C598.81 473.89 575 446.78 574.6 443.43Z" fill="black"/>
<path opacity="0.1" d="M566.64 415.16C566.64 415.16 570.7 432.68 581.16 438.64L566.64 415.16Z" fill="black"/>
<path opacity="0.1" d="M560.41 416.93C560.31 416.61 556.81 430.79 573.9 438.64C573.94 438.64 566.64 436.17 560.41 416.93Z" fill="black"/>
<path opacity="0.1" d="M666.66 405.18C666.39 405.18 675.1 410.72 677.46 413.29C677.46 413.29 671.8 404.82 666.66 405.18Z" fill="black"/>
<path d="M611.61 393.07C611.782 394.215 612.383 395.251 613.29 395.97C613.915 396.268 614.598 396.421 615.29 396.42C621.84 396.82 628.65 397.11 634.7 394.59C635.846 394.198 636.876 393.528 637.7 392.64C638.78 391.32 638.98 389.53 639.42 387.89C640.26 384.68 642.07 381.82 643.42 378.77C645.613 373.611 646.347 367.948 645.54 362.4C645.382 360.697 644.823 359.056 643.91 357.61C642.17 355.13 639.01 354.13 636.71 352.16C634.41 350.19 632.94 347.16 630.26 345.68C627.84 344.34 624.89 344.5 622.16 344.96C616.77 345.863 611.604 347.791 606.94 350.64C605.39 351.59 603.68 352.69 601.94 352.36C600.37 352.06 599.23 350.74 598.22 349.51C596.945 352.453 596.396 355.66 596.62 358.86C596.7 359.327 596.7 359.804 596.62 360.27C596.394 360.831 596.053 361.338 595.62 361.76C594 363.63 592.99 366.6 594.62 368.49C595.31 369.32 596.38 369.77 597.06 370.61C598.27 372.12 597.86 374.28 597.83 376.22C597.761 376.89 597.931 377.563 598.31 378.12C598.66 378.444 599.088 378.673 599.552 378.783C600.016 378.894 600.501 378.882 600.96 378.75C601.874 378.478 602.831 378.386 603.78 378.48C604.789 378.811 605.654 379.478 606.23 380.37C609.17 384.21 610.34 388.44 611.61 393.07Z" fill="#2D293D"/>
<g opacity="0.1">
<path opacity="0.1" d="M638.39 390.98C637.574 391.888 636.542 392.576 635.39 392.98C629.39 395.5 622.53 395.21 615.98 394.8C615.287 394.811 614.602 394.657 613.98 394.35C613.071 393.633 612.47 392.596 612.3 391.45C611.03 386.83 609.86 382.6 606.83 378.76C606.254 377.868 605.389 377.201 604.38 376.87C603.432 376.771 602.473 376.863 601.56 377.14C601.106 377.265 600.627 377.273 600.169 377.162C599.711 377.052 599.288 376.828 598.94 376.51C598.561 375.95 598.391 375.273 598.46 374.6C598.46 372.67 598.9 370.5 597.69 369C597.01 368.15 595.95 367.71 595.25 366.88C594.799 366.266 594.522 365.541 594.448 364.783C594.375 364.024 594.506 363.26 594.83 362.57C593.69 364.39 593.19 366.73 594.53 368.32C595.22 369.15 596.29 369.6 596.97 370.44C598.18 371.95 597.77 374.11 597.74 376.05C597.671 376.72 597.841 377.393 598.22 377.95C598.57 378.274 598.998 378.503 599.462 378.613C599.927 378.724 600.412 378.712 600.87 378.58C601.784 378.308 602.742 378.216 603.69 378.31C604.699 378.641 605.564 379.308 606.14 380.2C609.14 384.04 610.34 388.27 611.61 392.9C611.614 393.369 611.715 393.832 611.906 394.261C612.098 394.689 612.377 395.072 612.725 395.387C613.073 395.702 613.482 395.941 613.927 396.09C614.372 396.238 614.843 396.293 615.31 396.25C621.86 396.65 628.67 396.94 634.72 394.42C635.866 394.027 636.896 393.358 637.72 392.47C638.128 391.948 638.443 391.359 638.65 390.73C638.568 390.818 638.482 390.902 638.39 390.98Z" fill="black"/>
<path opacity="0.1" d="M596.62 359.7C596.915 359.391 597.14 359.023 597.28 358.62C597.36 358.153 597.36 357.677 597.28 357.21C597.095 354.579 597.435 351.938 598.28 349.44L598.16 349.3C596.879 352.242 596.331 355.45 596.56 358.65C596.61 358.998 596.63 359.349 596.62 359.7V359.7Z" fill="black"/>
</g>
<path opacity="0.1" d="M607.78 406.08C607.78 406.08 634.6 409.63 637.01 405.6Z" fill="black"/>
<path opacity="0.1" d="M659.94 394.98C659.94 394.98 674.83 394.98 678.11 400.59Z" fill="black"/>
<path d="M980.68 381.51C980.68 381.51 982.54 383.94 979.82 387.62C977.1 391.3 974.82 394.41 975.76 396.7C975.76 396.7 979.87 389.87 983.21 389.77C986.55 389.67 984.36 385.57 980.68 381.51Z" fill="#6CABDD"/>
<path opacity="0.1" d="M980.68 381.51C980.839 381.746 980.967 382.001 981.06 382.27C984.32 386.11 986.06 389.68 982.92 389.77C980 389.86 976.5 395.08 975.66 396.4C975.66 396.5 975.72 396.6 975.76 396.7C975.8 396.8 979.87 389.87 983.21 389.77C986.55 389.67 984.36 385.57 980.68 381.51Z" fill="black"/>
<path d="M984.14 384.56C984.14 385.42 984.05 386.12 983.93 386.12C983.81 386.12 983.71 385.42 983.71 384.56C983.71 383.7 983.83 384.11 983.95 384.11C984.07 384.11 984.14 383.71 984.14 384.56Z" fill="#FFD037"/>
<path d="M985.33 385.59C984.58 386 983.92 386.25 983.87 386.14C983.82 386.03 984.37 385.62 985.13 385.21C985.89 384.8 985.58 385.1 985.64 385.21C985.7 385.32 986.09 385.18 985.33 385.59Z" fill="#FFD037"/>
<path d="M970.84 381.51C970.84 381.51 968.97 383.94 971.7 387.62C974.43 391.3 976.7 394.41 975.76 396.7C975.76 396.7 971.65 389.87 968.3 389.77C964.95 389.67 967.16 385.57 970.84 381.51Z" fill="#6CABDD"/>
<path opacity="0.1" d="M970.84 381.51C970.675 381.744 970.544 382 970.45 382.27C967.19 386.11 965.45 389.68 968.59 389.77C971.51 389.86 975.02 395.08 975.86 396.4C975.86 396.5 975.8 396.6 975.76 396.7C975.72 396.8 971.65 389.87 968.3 389.77C964.95 389.67 967.16 385.57 970.84 381.51Z" fill="black"/>
<path d="M967.37 384.56C967.37 385.42 967.47 386.12 967.59 386.12C967.791 385.626 967.863 385.089 967.8 384.56C967.8 383.71 967.68 384.11 967.56 384.11C967.44 384.11 967.37 383.71 967.37 384.56Z" fill="#FFD037"/>
<path d="M966.18 385.59C966.94 386 967.59 386.25 967.65 386.14C967.71 386.03 967.14 385.62 966.39 385.21C965.64 384.8 965.93 385.1 965.87 385.21C965.81 385.32 965.43 385.18 966.18 385.59Z" fill="#FFD037"/>
<path d="M967.94 396.33C967.94 396.33 973.15 396.17 974.72 395.05C976.29 393.93 982.72 392.6 983.13 394.39C983.54 396.18 990.96 403.31 985.13 403.39C979.3 403.47 971.46 402.48 969.89 401.52C968.32 400.56 967.94 396.33 967.94 396.33Z" fill="#A8A8A8"/>
<path opacity="0.2" d="M985.2 402.74C979.32 402.74 971.53 401.82 969.97 400.87C968.77 400.14 968.3 397.53 968.14 396.33H967.94C967.94 396.33 968.27 400.54 969.84 401.49C971.41 402.44 979.19 403.41 985.08 403.36C986.78 403.36 987.36 402.74 987.33 401.85C987.11 402.39 986.47 402.73 985.2 402.74Z" fill="black"/>
</g>
<defs>
<linearGradient id="paint0_linear" x1="837.68" y1="441.43" x2="837.68" y2="44.4" gradientUnits="userSpaceOnUse">
<stop stop-color="#808080" stop-opacity="0.25"/>
<stop offset="0.54" stop-color="#808080" stop-opacity="0.12"/>
<stop offset="1" stop-color="#808080" stop-opacity="0.1"/>
</linearGradient>
<linearGradient id="paint1_linear" x1="138228" y1="375806" x2="138228" y2="172602" gradientUnits="userSpaceOnUse">
<stop stop-color="#808080" stop-opacity="0.25"/>
<stop offset="0.54" stop-color="#808080" stop-opacity="0.12"/>
<stop offset="1" stop-color="#808080" stop-opacity="0.1"/>
</linearGradient>
<clipPath id="clip0">
<rect width="1077.87" height="813.02" fill="white"/>
</clipPath>
</defs>
</svg>
