<?xml version="1.0" encoding="UTF-8"?> <svg xmlns="http://www.w3.org/2000/svg" xmlns:xlink="http://www.w3.org/1999/xlink" width="1500px" height="1000px" viewBox="0 0 1500 1000"><!-- Generator: Sketch 52.6 (67491) - http://www.bohemiancoding.com/sketch --><title>getting-started-r-course</title><desc>Created with Sketch.</desc><g id="Course-featured-images" stroke="none" stroke-width="1" fill="none" fill-rule="evenodd"><g id="getting-started" transform="translate(150.000000, 138.000000)"><path d="M1021.4618,485.024556 C1032.39075,485.542597 1042.45482,479.101033 1046.56111,468.95959 C1050.6674,458.818147 1047.92011,447.189239 1039.70949,439.957624 C1031.49888,432.726009 1019.61612,431.469306 1010.07445,436.823464 L1014.62556,449.294741 L1005.26201,440.304608 C1000.24083,444.894677 997.247422,451.29049 996.939599,458.086534 C996.821065,460.47042 997.040963,462.859074 997.592735,465.181251 C1000.22268,476.385274 1009.96589,484.485196 1021.4618,485.024556 Z" id="Path" fill="#57B894"></path><path d="M1096.74823,622.677271 C1091.2866,612.565478 1097.48349,600.170419 1104.6067,591.15171 C1111.72991,582.133001 1120.41158,572.748751 1120.22717,561.257768 C1119.96216,544.743134 1102.43284,534.991233 1088.42731,526.236262 C1078.03576,519.738436 1068.45098,512.03185 1059.87356,503.277772 C1056.43499,499.76742 1053.11081,496.013768 1051.0996,491.53032 C1048.20323,485.073641 1048.2838,477.727877 1048.46644,470.653656 C1049.07488,447.08742 1050.23921,423.544294 1051.95944,400.024278" id="Path" stroke="#3F3D56"></path><path d="M1021.4618,481.449581 C1032.39075,481.967622 1042.45482,475.526058 1046.56111,465.384615 C1050.6674,455.243172 1047.92011,443.614263 1039.70949,436.382648 C1031.49888,429.151034 1019.61612,427.894331 1010.07445,433.248489 L1014.62556,445.719766 L1005.26201,436.729633 C1000.24083,441.319702 997.247422,447.715515 996.939599,454.511559 C996.821065,456.895444 997.040963,459.284099 997.592735,461.606276 C1000.22268,472.810299 1009.96589,480.910221 1021.4618,481.449581 Z" id="Path" stroke="#3F3D56"></path><path d="M1025.33551,403.503182 C1025.74245,394.735981 1030.58976,386.780776 1038.19456,382.399412 L1043.96138,393.807909 L1043.78762,379.99766 C1054.53596,376.831282 1066.09834,380.976258 1072.38698,390.250193 C1078.67562,399.524128 1078.24789,411.79957 1071.329,420.613301 C1064.41012,429.427032 1052.58728,432.757172 1042.0854,428.850349 C1031.58351,424.943525 1024.81173,414.695968 1025.33551,403.503182 Z" id="Path" fill="#57B894"></path><path d="M1025.33551,398.736548 C1025.74245,389.969348 1030.58976,382.014142 1038.19456,377.632779 L1043.96138,389.041275 L1043.78762,375.231027 C1054.53596,372.064648 1066.09834,376.209625 1072.38698,385.483559 C1078.67562,394.757494 1078.24789,407.032936 1071.329,415.846667 C1064.41012,424.660398 1052.58728,427.990538 1042.0854,424.083715 C1031.58351,420.176892 1024.81173,409.929335 1025.33551,398.736548 Z" id="Path" stroke="#3F3D56"></path><path d="M1084.18454,527.822324 C1097.26643,528.433181 1108.72456,519.131345 1110.81531,506.203173 C1112.90606,493.275002 1104.96391,480.835745 1092.35632,477.292087 L1092.49012,487.904711 L1086.65858,476.360735 C1086.6354,476.35749 1086.61199,476.356056 1086.58858,476.356445 C1072.37667,475.692588 1060.31748,486.675454 1059.65362,500.887364 C1058.98977,515.099274 1069.97263,527.158466 1084.18454,527.822324 Z" id="Path" fill="#57B894"></path><path d="M1083.98673,523.05569 C1097.06858,523.666493 1108.52665,514.364663 1110.6174,501.436525 C1112.70814,488.508386 1104.76605,476.069153 1092.1585,472.525454 L1092.2923,483.138077 L1086.46077,471.594101 C1086.43758,471.590857 1086.41418,471.589422 1086.39077,471.589811 C1077.19727,471.160371 1068.47303,475.668222 1063.50438,483.415301 C1058.53572,491.16238 1058.07752,500.971722 1062.30236,509.148241 C1066.5272,517.324761 1074.79323,522.62625 1083.98673,523.05569 Z" id="Path" stroke="#3F3D56"></path><path d="M1071.26978,576.637764 C1076.84096,587.463331 1089.233,592.907275 1100.9745,589.687341 C1112.71601,586.467406 1120.59753,575.463737 1119.86716,563.310651 C1119.13678,551.157565 1109.99415,541.177015 1097.95152,539.38646 C1085.90889,537.595905 1074.25803,544.484781 1070.02346,555.899654 L1086.11166,568.99088 L1068.41346,564.888953 C1068.41069,568.977485 1069.39029,573.006837 1071.26978,576.637764 Z" id="Path" fill="#57B894"></path><path d="M1071.26978,573.062788 C1076.84096,583.888356 1089.233,589.3323 1100.9745,586.112365 C1112.71601,582.892431 1120.59753,571.888762 1119.86716,559.735676 C1119.13678,547.58259 1109.99415,537.60204 1097.95152,535.811485 C1085.90889,534.02093 1074.25803,540.909806 1070.02346,552.324679 L1086.11166,565.415905 L1068.41346,561.313978 C1068.41069,565.40251 1069.39029,569.431862 1071.26978,573.062788 Z" id="Path" stroke="#3F3D56"></path><path d="M874.765287,181.983098 C877.870117,194.209716 875.505557,207.358606 870.250093,218.826387 C864.99463,230.294169 857.010924,240.289585 848.561732,249.656628 C844.310574,254.369637 839.710451,259.379368 838.808556,265.661994 C837.606089,274.038423 843.254407,281.619194 847.047682,289.18371 C850.364916,295.808684 852.377242,303.009744 852.975051,310.394657 C853.484651,316.736246 852.691698,323.725204 848.249803,328.279865 C843.967114,332.671281 837.390435,333.734014 831.282769,334.301732 C814.461707,335.863005 797.515826,335.453475 780.789819,333.081474 C785.476719,326.847849 783.715925,322.980441 783.275357,315.193835 C782.411082,299.918276 771.29428,286.088568 769.135507,270.941601 C767.419257,258.899547 775.391059,247.844592 782.925652,238.29544 L817.474332,194.509299 C823.199059,187.253863 828.90087,179.780604 833.011746,171.46234 C835.949458,165.517954 836.500528,154.357633 843.890931,152.375631 C857.816437,148.641009 872.057124,171.318673 874.765287,181.983098 Z" id="Path" fill="#47465A"></path><path d="M705.221696,218.073664 C705.221696,218.073664 681.388528,288.381509 669.471944,293.148143 C657.55536,297.914777 740.971448,383.714181 740.971448,383.714181 L801.746026,353.922721 L804.129343,296.723118 L780.296175,295.53146 C780.296175,295.53146 776.7212,271.698292 788.637784,259.781708 C800.554367,247.865124 705.221696,218.073664 705.221696,218.073664 Z" id="Path" fill="#FBBEBE"></path><path d="M705.221696,218.073664 C705.221696,218.073664 681.388528,288.381509 669.471944,293.148143 C657.55536,297.914777 740.971448,383.714181 740.971448,383.714181 L801.746026,353.922721 L804.129343,296.723118 L780.296175,295.53146 C780.296175,295.53146 776.7212,271.698292 788.637784,259.781708 C800.554367,247.865124 705.221696,218.073664 705.221696,218.073664 Z" id="Path" fill="#000000" opacity="0.1"></path><path d="M732.629839,337.239503 C732.629839,337.239503 681.388528,302.68141 679.005212,274.081609 C679.005212,274.081609 640.872143,299.106435 628.955559,297.914777 C617.038975,296.723118 584.864199,303.873069 584.864199,308.639702 C584.864199,313.406336 614.655658,448.063734 614.655658,448.063734 C614.655658,448.063734 593.205807,505.263337 603.930733,523.138213 C614.655658,541.013088 620.61395,624.429176 620.61395,624.429176 L868.478896,624.429176 C868.478896,624.429176 835.112461,566.037915 852.987337,524.329871 C870.862213,482.621827 878.012163,307.448044 878.012163,307.448044 C878.012163,307.448044 864.903921,297.914777 851.795678,300.298093 C838.687436,302.68141 823.195877,293.148143 813.66261,291.956485 C804.129343,290.764826 782.524504,295.64288 782.524504,295.64288 L732.629839,337.239503 Z" id="Path" fill="#6CABDD"></path><path d="M1199.75993,623.151658 L1199.75993,675.584997 C1199.75993,694.786916 1184.31943,710.419212 1165.11898,710.656254 L61.8610963,724.276719 C56.4757681,724.343207 51.2880667,722.250452 47.4563392,718.46574 C43.6246117,714.681028 41.4679728,709.519558 41.4679722,704.133819 L41.4679722,646.173307 C41.4679692,635.38538 50.0367227,626.548085 60.8195154,626.215293 L1167.68629,592.052735 C1176.10062,591.793033 1184.26108,594.954024 1190.30487,600.814145 C1196.34866,606.674266 1199.75991,614.733319 1199.75993,623.151658 Z" id="Path" fill="#47465A"></path><path d="M1199.75993,661.370586 L1199.75993,675.584997 C1199.75993,694.786916 1184.31943,710.419212 1165.11898,710.656254 L61.8610963,724.276719 C56.4757681,724.343207 51.2880667,722.250452 47.4563392,718.46574 C43.6246117,714.681028 41.4679728,709.519558 41.4679722,704.133819 L41.4679722,702.268314 L1199.75993,661.370586 Z" id="Path" fill="#000000" opacity="0.1"></path><polygon id="Path" fill="#F2F2F2" points="982.878649 624.428997 843.287786 606.316981 595.068918 615.372393 684.964052 643.495531"></polygon><polygon id="Path" fill="#9493B6" points="612.27289 616.087388 612.27289 630.387289 476.423833 661.370407 463.148759 658.307845 460.932274 657.795432 363.216286 605.362463"></polygon><polygon id="Path" fill="#000000" opacity="0.1" points="612.27289 616.087388 612.27289 630.387289 476.423833 661.370407 463.148759 658.307845 460.932274 643.495531"></polygon><path d="M456.165092,638.729076 C458.548409,637.537418 508.598062,628.004151 508.598062,628.004151 L418.032024,619.662542 L456.165092,638.729076 Z" id="Path" fill="#47465A"></path><circle id="Oval" fill="#FBBEBE" cx="769.571261" cy="201.390447" r="77.4577954"></circle><path d="M544.347813,551.738014 C544.347813,551.738014 475.231627,581.529474 458.548409,573.187865 C441.865192,564.846256 391.815539,543.396405 376.32398,587.487766 C363.830967,623.044802 436.760735,625.277291 465.461362,624.809315 C472.484595,624.694775 479.104542,621.506948 483.573235,616.087567 L583.076711,582.125303 C583.076711,582.125303 561.031031,544.588064 544.347813,551.738014 Z" id="Path" fill="#FBBEBE"></path><path d="M739.779789,496.921728 L748.121398,504.071678 L670.663603,613.70425 C670.663603,613.70425 658.747019,614.895909 662.321994,608.937617 L739.779789,496.921728 Z" id="Path" fill="#47465A"></path><polygon id="Path" fill="#47465A" points="744.546971 504.0715 752.88858 493.346574 749.313605 490.963257 740.971996 500.496524"></polygon><path d="M603.334904,300.893923 C603.334904,300.893923 562.818518,308.043873 564.010177,339.026991 C565.201835,370.010109 555.072739,405.164032 545.539472,421.847249 C536.006205,438.530467 543.156155,451.638709 545.539472,474.280218 C547.922788,496.921728 533.622888,520.754896 540.772838,532.67148 C547.922788,544.588064 463.315043,552.929672 463.315043,564.846256 C463.315043,576.76284 516.93967,599.40435 507.406403,614.895909 C500.547813,626.041132 548.892107,607.27194 576.559102,595.8628 C591.181096,589.966597 602.003899,577.303505 605.550649,561.941589 C606.388528,558.143178 606.611964,554.71716 605.71822,552.333843 C602.143245,542.800576 644.447118,530.288163 645.638777,506.454995 C646.830435,482.621827 639.680485,458.788659 633.722193,434.955492 C627.763901,411.122324 603.334904,300.893923 603.334904,300.893923 Z" id="Path" fill="#6CABDD"></path><path d="M12.8420616,425.6137 L362.283027,428.920707 C367.214797,428.96738 371.674033,431.863781 373.721839,436.350542 L467.895646,642.686431 C469.723232,646.690691 469.348234,651.355586 466.904469,655.016484 C464.460703,658.677382 460.296317,660.81274 455.897339,660.660572 L105.229799,648.530562 C100.469226,648.365872 96.2006544,645.552327 94.1724012,641.242296 L1.22513208,443.72941 C-0.636126453,439.774238 -0.333626518,435.140021 2.02599749,431.460368 C4.38562149,427.780716 8.4710254,425.572334 12.8420616,425.6137 Z" id="Path" fill="#7A799C"></path><path d="M837.495778,551.738014 C837.495778,551.738014 768.379591,581.529474 751.696373,573.187865 C735.013156,564.846256 684.963503,543.396405 669.471944,587.487766 C656.978931,623.044802 729.908699,625.277291 758.609327,624.809315 C765.632559,624.694775 772.252507,621.506948 776.7212,616.087567 L878.012163,605.362642 C878.012163,605.362642 854.178995,544.588064 837.495778,551.738014 Z" id="Path" fill="#FBBEBE"></path><path d="M878.607992,325.918749 C878.607992,325.918749 895.887039,302.68141 904.228647,324.131261 C912.570256,345.581112 911.378598,428.9972 911.378598,428.9972 C911.378598,428.9972 925.678499,470.705243 920.911865,498.113386 C916.145231,525.521529 925.678499,529.096504 925.678499,529.096504 C925.678499,529.096504 928.061815,541.013088 920.911865,546.97138 C913.761915,552.929672 908.995281,579.146157 911.378598,582.721132 C913.761915,586.296107 907.803623,608.937617 903.036989,608.937617 C898.270356,608.937617 888.141259,607.150129 888.141259,607.150129 C888.141259,607.150129 863.712262,562.462939 812.470951,558.887964 C812.470951,558.887964 820.81256,546.97138 816.045927,523.138213 C811.279293,499.305045 878.607992,325.918749 878.607992,325.918749 Z" id="Path" fill="#000000" opacity="0.1"></path><path d="M875.628846,308.639702 C875.628846,308.639702 895.29121,300.893923 903.632818,322.343774 C911.974427,343.793625 919.720207,428.9972 919.720207,428.9972 C919.720207,428.9972 934.020107,470.705243 929.253474,498.113386 C924.48684,525.521529 934.020107,529.096504 934.020107,529.096504 C934.020107,529.096504 936.403424,541.013088 929.253474,546.97138 C922.103523,552.929672 917.33689,579.146157 919.720207,582.721132 C922.103523,586.296107 916.145231,608.937617 911.378598,608.937617 C906.611964,608.937617 862.520604,616.087567 862.520604,616.087567 C862.520604,616.087567 872.053871,562.462939 820.81256,558.887964 C820.81256,558.887964 829.154169,546.97138 824.387535,523.138213 C819.620902,499.305045 875.628846,308.639702 875.628846,308.639702 Z" id="Path" fill="#6CABDD"></path><path d="M795.5188,92.0821132 C771.427987,77.0134249 741.65775,74.1370241 715.127631,84.314717 C701.098546,89.8328222 688.706908,98.8171162 677.117303,108.458002 C667.820211,116.191865 658.753847,124.628973 653.041954,135.288393 C644.381625,151.450201 644.406864,170.688786 644.641454,189.02319 C644.845704,204.985633 645.053458,220.996957 647.228842,236.811801 C650.212552,258.503023 656.89691,279.978435 655.361911,301.819996 C653.826912,323.661557 640.990725,346.964628 619.533033,351.321092 C639.494279,352.831505 659.558679,352.253567 679.399889,349.596679 C691.904914,347.920957 705.032282,345.057164 714.175078,336.362741 C720.852477,330.01281 724.626411,321.25828 727.909966,312.648548 C731.210062,303.995404 734.231535,295.003245 734.11567,285.742904 C733.874574,266.474288 720.494788,250.311325 711.762459,233.133343 C709.311456,228.311786 707.160095,223.128 707.245108,217.719897 C707.330121,212.311793 710.15372,206.634363 715.18029,204.637311 C721.382598,202.173128 728.564258,205.848941 735.012083,204.126673 C745.371968,201.359488 748.060862,186.97231 757.572393,182.021041 C764.61003,178.357561 773.592441,181.104548 779.509895,186.389732 C782.156294,188.753362 784.422947,191.610173 787.492314,193.390391 C791.653668,195.803964 796.708755,195.921223 801.519098,195.974407 C810.499782,196.073708 841.152465,181.996433 847.62485,175.769839 C853.938614,208.245879 900.889597,179.982077 873.944937,132.068151 C864.563214,115.385267 852.119464,99.8905263 835.566173,90.281994 C819.012882,80.6734618 797.892524,77.6933148 780.514939,85.7154757" id="Path" fill="#47465A"></path><ellipse id="Oval" fill="#FBBEBE" cx="715.350804" cy="219.861152" rx="10.7249255" ry="19.0665343"></ellipse><path d="M820.81256,293.765994 C820.81256,293.765994 886.949601,303.277239 890.524576,308.043873 C894.099551,312.810506 886.949601,341.410308 886.949601,341.410308 L839.283265,349.751917 L802.604592,341.841938 L820.81256,293.765994 Z" id="Path" fill="#6CABDD"></path><path d="M618.088612,340.428858 C608.128147,338.712012 598.413641,347.726848 593.256131,359.612306 C588.098622,371.497764 586.698018,385.739988 586.190955,399.576334 C585.686991,413.328071 585.985049,427.371646 589.116334,440.445188 C595.546522,467.292274 612.809815,486.273128 622.800846,510.958785 C630.474259,530.545528 633.577358,551.62492 631.873883,572.592036" id="Path" fill="#000000" opacity="0.1"></path><path d="M625.238562,340.428858 C615.278097,338.712012 605.563591,347.726848 600.406081,359.612306 C595.248572,371.497764 593.847968,385.739988 593.340906,399.576334 C592.836941,413.328071 593.134999,427.371646 596.266284,440.445188 C602.696473,467.292274 619.959766,486.273128 629.950796,510.958785 C637.624209,530.545528 640.727309,551.62492 639.023833,572.592036" id="Path" fill="#6CABDD"></path><polygon id="Path" fill="#6CABDD" points="1008.26097 606.695929 1123.53962 652.80715 1195.58967 639.838332 1189.30606 588.26574 1188.38371 580.758292 1067.3422 543.292552 1058.69553 551.938034"></polygon><polygon id="Path" fill="#000000" opacity="0.1" points="1074.54697 552.471897 1074.54697 602.372592 1195.58967 639.838332 1189.30606 588.26574"></polygon><path d="M963.120608,617.471881 L971.279607,620.493116 L1068.57256,656.525601 L1076.13407,659.324926 C1076.61682,659.506344 1077.15753,659.442732 1077.585,659.154232 L1086.49493,653.180103 L1179.1792,590.99801 L1187.93551,585.126292 C1188.45149,584.780172 1188.72218,584.167981 1188.631,583.553391 C1188.53981,582.938801 1188.10303,582.431575 1187.50879,582.250177 L1173.54641,577.974399 L1075.40007,547.9075 L1066.83142,545.278868 C1066.36611,545.134704 1065.86048,545.21008 1065.45744,545.48369 L1058.7067,550.032572 L971.262602,608.920385 L962.787932,614.629942 C962.28718,614.965831 962.016391,615.553611 962.086495,616.152493 C962.1566,616.751375 962.555818,617.260724 963.120608,617.471881 Z" id="Path" fill="#7A799C"></path><path d="M1163.86545,590.488862 L1077.01905,649.553482 C1076.16841,650.132507 1075.09102,650.266579 1074.12441,649.913696 L981.925644,616.253994 C980.781809,615.833014 979.973009,614.803167 979.835136,613.592145 C979.697264,612.381123 980.253874,611.195826 981.273807,610.528504 L1065.33303,555.673442 C1066.13013,555.15287 1067.11781,555.014728 1068.02715,555.296628 L1163.01304,584.746785 C1164.19284,585.116275 1165.05754,586.127742 1165.23908,587.35064 C1165.42062,588.573538 1164.88703,589.79258 1163.86545,590.488862 Z" id="Path" fill="#F2F2F2"></path><path d="M1173.54643,577.974399 L1173.54643,590.998034 L1179.17917,590.998034 L1187.93547,585.126316 C1188.45145,584.780196 1188.72214,584.168005 1188.63096,583.553415 C1188.53977,582.938825 1188.103,582.431599 1187.50875,582.250201 L1173.54643,577.974399 Z" id="Path" fill="#6CABDD"></path><path d="M1068.57252,652.446197 L1068.57252,656.525648 L1076.13403,659.324973 C1076.61678,659.506392 1077.1575,659.44278 1077.58496,659.15428 L1086.4949,653.180151 L1086.4949,652.446197 L1068.57252,652.446197 Z" id="Path" fill="#6CABDD"></path><path d="M963.120608,617.471881 L971.279607,620.493116 L971.279607,608.920385 L971.26253,608.920385 L962.787861,614.629942 C962.287112,614.965843 962.016334,615.553632 962.086454,616.152515 C962.156574,616.751399 962.555809,617.26074 963.120608,617.471881 Z" id="Path" fill="#6CABDD"></path><path d="M1058.70658,550.032572 L1075.40004,550.032572 L1075.40004,547.9075 L1066.8314,545.278868 C1066.36608,545.134704 1065.86046,545.21008 1065.45742,545.48369 L1058.70658,550.032572 Z" id="Path" fill="#6CABDD"></path><circle id="Oval" fill="#F2F2F2" cx="1022.20284" cy="577.954499" r="1.19165839"></circle><rect id="Rectangle" fill="#F2F2F2" x="41.3136286" y="30.9831182" width="474.28004" height="240.714995"></rect><polyline id="Path" fill="#6CABDD" points="124.560477 249.652433 231.978947 70.3078451 343.399007 249.652433"></polyline><polygon id="Path" fill="#6CABDD" points="287.391063 157.894737 308.840914 101.886792 430.39007 249.652433 286.795233 249.652433"></polygon><path d="M264.807909,135.641553 C273.89362,130.083453 279.321049,120.097797 279.043352,109.450473 C278.765655,98.8031481 272.825079,89.1139863 263.461991,84.0370562 C254.098903,78.960126 242.737758,79.267807 233.663178,84.8440636" id="Path" fill="#6CABDD"></path><rect id="Rectangle" stroke="#3F3D56" x="69.3176008" y="0.595829196" width="474.28004" height="240.714995"></rect><polyline id="Path" stroke="#3F3D56" points="130.518769 241.310824 237.937239 61.9662363 349.357299 241.310824"></polyline><polyline id="Path" stroke="#3F3D56" points="290.966038 147.169811 312.415889 91.1618669 433.965045 241.310824"></polyline><path d="M273.149517,118.958336 C282.235229,113.400235 287.662658,103.41458 287.384961,92.7672552 C287.107264,82.1199306 281.166688,72.4307688 271.8036,67.3538387 C262.440512,62.2769086 251.079366,62.5845895 242.004786,68.1608461" id="Path" stroke="#3F3D56"></path></g></g></svg> 