<?xml version="1.0" encoding="UTF-8"?> <svg xmlns="http://www.w3.org/2000/svg" xmlns:xlink="http://www.w3.org/1999/xlink" width="1500px" height="1000px" viewBox="0 0 1500 1000"><!-- Generator: Sketch 52.6 (67491) - http://www.bohemiancoding.com/sketch --><title>going-further-r-course</title><desc>Created with Sketch.</desc><g id="Course-featured-images" stroke="none" stroke-width="1" fill="none" fill-rule="evenodd"><g id="going-further" transform="translate(150.000000, 69.000000)"><rect id="Rectangle" fill="#6CABDD" opacity="0.3" x="731.382748" y="54.3948859" width="85.7310663" height="31.9274271"></rect><rect id="Rectangle" fill="#6CABDD" opacity="0.3" x="873.873687" y="0" width="85.7310663" height="31.9274271"></rect><rect id="Rectangle" fill="#6CABDD" opacity="0.3" x="879.786175" y="98.7385358" width="85.7310663" height="31.9274271"></rect><rect id="Rectangle" fill="#6CABDD" opacity="0.3" x="605.44678" y="135.395958" width="85.7310663" height="31.9274271"></rect><rect id="Rectangle" fill="#6CABDD" opacity="0.3" x="578.249337" y="266.653167" width="85.7310663" height="31.9274271"></rect><rect id="Rectangle" fill="#6CABDD" opacity="0.3" x="707.732806" y="263.696923" width="85.7310663" height="31.9274271"></rect><polyline id="Path" stroke="#3F3D56" points="873.87374 15.7623342 817.114058 69.6190981 879.785676 114.702387"></polyline><path d="M731.382748,69.6195332 L648.312308,135.395958" id="Path" stroke="#3F3D56"></path><polyline id="Path" stroke="#3F3D56" points="621.115119 266.628117 648.311936 167.323077 750.598408 263.696552"></polyline><rect id="Rectangle" fill="#6CABDD" opacity="0.3" x="153.133411" y="87.2861326" width="85.7310663" height="31.9274271"></rect><rect id="Rectangle" fill="#6CABDD" opacity="0.3" x="295.62435" y="32.8912467" width="85.7310663" height="31.9274271"></rect><rect id="Rectangle" fill="#6CABDD" opacity="0.3" x="301.536838" y="131.629782" width="85.7310663" height="31.9274271"></rect><rect id="Rectangle" fill="#6CABDD" opacity="0.3" x="27.197443" y="168.287204" width="85.7310663" height="31.9274271"></rect><rect id="Rectangle" fill="#6CABDD" opacity="0.3" x="0" y="299.544414" width="85.7310663" height="31.9274271"></rect><rect id="Rectangle" fill="#6CABDD" opacity="0.3" x="129.483469" y="296.58817" width="85.7310663" height="31.9274271"></rect><polyline id="Path" stroke="#3F3D56" points="295.624403 48.6535809 238.864721 102.510345 301.53634 147.593634"></polyline><path d="M153.133411,102.51078 L70.0629708,168.287204" id="Path" stroke="#3F3D56"></path><polyline id="Path" stroke="#3F3D56" points="42.8657825 299.519363 70.0625995 200.214324 172.349072 296.587798"></polyline><path d="M387.267905,147.593496 L484.491873,147.593496" id="Path" stroke="#3F3D56"></path><rect id="Rectangle" fill="#6CABDD" x="440.848806" y="131.253167" width="100.795756" height="31.8302387"></rect><path d="M541.7753,147.168286 L605.44678,147.168286" id="Path" stroke="#3F3D56"></path><path d="M440.365899,147.168286 L381.355416,48.6540053" id="Path" stroke="#3F3D56"></path><ellipse id="Oval" fill="#F2F2F2" cx="733.156499" cy="757.778366" rx="466.843501" ry="103.97878"></ellipse><polygon id="Path" fill="#47465A" points="949.585146 415.502387 904.061538 643.588329 894.206897 643.588329 893.122546 641.903448 889.983024 637.018568 929.404775 423.949072 935.388859 421.442971"></polygon><polygon id="Path" fill="#000000" opacity="0.1" points="935.388859 421.442971 893.122546 641.903448 889.983024 637.018568 929.404775 423.949072"></polygon><polygon id="Path" fill="#47465A" points="1018.10504 726.187798 1006.40106 729.960743 1003.5565 730.880637 999.801592 722.432891 935.388859 428.604775 942.085942 427.103448 956.155968 423.949072"></polygon><polygon id="Path" fill="#000000" opacity="0.1" points="1006.40106 729.960743 1003.5565 730.880637 999.801592 722.432891 935.388859 428.604775 942.085942 427.103448"></polygon><polygon id="Path" fill="#47465A" points="460.091247 415.502387 449.766578 711.169231 437.934218 713.797347 437.09496 713.985146 433.809019 707.88435 440.379841 418.317241 446.701326 417.416446"></polygon><polygon id="Path" fill="#000000" opacity="0.1" points="446.701326 417.416446 437.934218 713.797347 437.09496 713.985146 433.809019 707.88435 440.379841 418.317241"></polygon><polygon id="Path" fill="#47465A" points="521.571353 815.827056 509.331565 817.938462 507.960743 818.172944 504.206897 810.195225 444.603714 423.949072 446.321485 423.428117 455.398408 420.664191"></polygon><polygon id="Path" fill="#000000" opacity="0.1" points="509.331565 817.938462 507.960743 818.172944 504.206897 810.195225 444.603714 423.949072 446.321485 423.428117"></polygon><path d="M780.632477,391.566865 L826.204021,449.797178 C829.380325,453.855788 834.441664,455.966406 839.560435,455.366907 L1026.63513,433.457263 C1034.08072,432.585259 1039.69379,426.276434 1039.69379,418.779958 L1039.69379,375.610196 L780.632477,391.566865 Z" id="Path" fill="#7A799C"></path><path d="M934.098143,400.953156 L946.769623,400.953156 L946.769623,419.24121 C946.769623,421.841548 944.661633,423.949538 942.061294,423.949538 L938.806472,423.949538 C936.206134,423.949538 934.098143,421.841548 934.098143,419.24121 L934.098143,400.953156 Z" id="Path" fill="#47465A"></path><path d="M444.603714,428.642674 L490.175257,486.872976 C493.35156,490.931588 498.412898,493.04221 503.531671,492.442716 L690.606366,470.533072 C698.051936,469.661038 703.664984,463.352218 703.664987,455.855756 L703.664987,412.685995 L444.603714,428.642674 Z" id="Path" fill="#7A799C"></path><path d="M598.069337,438.028955 L610.740817,438.028955 L610.740817,456.317008 C610.740817,458.917346 608.632826,461.025337 606.032488,461.025337 L602.777719,461.025337 C600.177381,461.025337 598.06939,458.917346 598.06939,456.317008 L598.069337,438.028955 Z" id="Path" fill="#47465A"></path><path d="M496.959947,458.133867 L1053.41548,393.316605 C1057.00538,392.898444 1059.8958,390.174765 1060.52629,386.616016 C1061.15677,383.057266 1059.37798,379.506366 1056.15024,377.880361 L956.609889,327.820021 C937.004494,317.960172 914.990911,313.904731 893.158992,316.130812 L398.790981,366.538833 C395.184131,366.916132 392.110192,369.321664 390.876903,372.732048 C389.643614,376.142432 390.467945,379.957687 392.999204,382.554695 L450.568552,441.619353 C462.643007,454.007429 479.773643,460.105632 496.959947,458.133867 Z" id="Path" fill="#47465A"></path><path d="M1114.6352,384.532095 L1108.68295,381.24191 C1108.68295,381.24191 1102.25719,385.972 1097.02247,405.899363 C1091.78776,425.826727 1106.80575,406.115544 1106.80575,406.115544 L1113.37615,392.505443 L1114.6352,384.532095 Z" id="Path" fill="#47465A"></path><path d="M1050.95733,567.090292 C1050.95733,567.090292 1044.85624,595.718408 1042.04036,603.696785 C1040.6606,607.601485 1033.99625,611.172955 1026.60937,613.904361 C1020.05969,616.344253 1013.27934,618.113242 1006.3725,619.184149 C998.394164,620.12278 896.083714,604.166101 846.336424,593.371883 C812.822748,586.102207 808.490875,577.762493 809.232435,573.097507 C809.471068,571.708705 810.137182,570.429001 811.137878,569.43687 C811.137878,569.43687 860.415841,536.115576 877.780456,520.158897 C895.145072,504.202218 929.404997,516.873698 966.950111,523.444095 C1004.49523,530.014493 1050.95733,567.090292 1050.95733,567.090292 Z" id="Path" fill="#47465A"></path><path d="M1108.68294,381.241963 C1108.68294,381.241963 1131.67933,396.260011 1054.24253,427.234727 C1054.24253,427.234727 1012.1534,450.965825 1017.63235,548.723512 C1017.89206,553.119384 1019.23051,557.383618 1021.52943,561.139427 C1029.51903,574.280223 1046.63961,607.545188 1018.10532,611.675151 L1018.10532,619.184138 C1018.10532,619.184138 1069.72986,593.371873 1075.36162,571.314111 C1080.99339,549.25635 1099.76594,426.765411 1109.15222,415.50191 C1118.5385,404.238408 1124.63962,386.404414 1108.68294,381.241963 Z" id="Path" fill="#47465A"></path><path d="M1026.60937,613.904361 C1020.05969,616.344253 1013.27934,618.113242 1006.3725,619.184149 C998.394164,620.12278 896.083714,604.166101 846.336424,593.371883 C812.822748,586.102207 808.490875,577.762493 809.232435,573.097507 C831.262005,580.629995 902.794918,604.536849 928.466387,606.512668 C958.971798,608.859236 1017.25117,615.382695 1021.66745,610.947682 C1023.36633,609.239385 1025.10747,611.041528 1026.60937,613.904361 Z" id="Path" fill="#000000" opacity="0.1"></path><path d="M758.574716,809.256286 L803.159544,605.574016 C803.159544,605.574016 811.137889,583.985581 829.441125,584.924202 L846.336435,593.371936 C846.336435,593.371936 818.177592,586.801538 812.076488,608.389973 C805.975385,629.978408 767.022366,809.256286 767.022366,809.256286 L758.574716,809.256286 Z" id="Path" fill="#47465A"></path><polygon id="Path" fill="#47465A" points="865.57878 716.332095 883.412202 591.963926 891.390981 591.963926 873.087533 716.332095"></polygon><path d="M1036.40859,837.884456 L1019.51328,643.588435 C1019.51328,643.588435 1019.51328,627.16244 1027.96094,619.184106 C1036.4086,611.205772 1063.67971,588.446589 1063.67971,588.446589 C1063.67971,588.446589 1070.66851,586.801443 1076.30028,602.758111 C1081.93204,618.71478 1120.8851,778.281538 1120.8851,778.281538 L1113.37608,781.566737 L1065.03674,597.595703 L1031.71545,629.039735 C1031.71545,629.039735 1025.14506,640.772584 1028.43025,651.566801 C1031.71544,662.361019 1043.91761,837.884446 1043.91761,837.884446 L1036.40859,837.884456 Z" id="Path" fill="#47465A"></path><polygon id="Path" fill="#47465A" points="984.315119 614.491247 1026.55279 626.692838 1035.93952 617.776127 1011.53528 614.491247"></polygon><path d="M608.819894,271.940817 L615.668615,374.671565 L765.379767,360.122833 L759.42243,259.699077 C759.261243,256.981905 758.010185,254.444807 755.952745,252.662688 C753.895306,250.880568 751.205666,250.004301 748.493294,250.232446 L618.051247,261.204202 C612.560698,261.666027 608.45338,266.443083 608.819894,271.940817 Z" id="Path" fill="#7A799C"></path><polygon id="Path" fill="#7A799C" points="815.596817 389.689125 666.354377 405.970292 660.722546 406.584615 617.076923 378.426525 617.076923 372.324668 765.37931 358.9687"></polygon><polygon id="Path" fill="#000000" opacity="0.1" points="666.354377 405.970292 660.722546 406.584615 617.076923 378.426525 617.076923 372.963395"></polygon><polygon id="Path" fill="#9493B6" points="618.953846 270.952785 624.116711 362.468966 755.524668 350.267374 750.830769 261.097082"></polygon><polygon id="Path" fill="#000000" opacity="0.1" points="697.329443 387.812202 713.285942 398.606897 761.625464 393.912997 745.198939 383.588329"></polygon><polygon id="Path" fill="#9493B6" points="632.09443 374.671618 652.274801 389.689125 781.33687 377.487533 758.340584 362.468966"></polygon><rect id="Rectangle" fill="#FF6584" x="861.11982" y="235.989284" width="95.2707374" height="95.2707374"></rect><rect id="Rectangle" fill="#000000" opacity="0.1" x="861.11982" y="235.989284" width="95.2707374" height="95.2707374"></rect><path d="M893.929973,280.078239 C893.929973,280.078239 907.36956,316.477125 893.929973,323.196923 C880.490387,329.916721 942.088499,323.196923 942.088499,323.196923 L959.447968,309.197347 C959.447968,309.197347 920.249167,297.997687 925.849029,272.238483 C931.448891,246.479279 893.929973,280.078239 893.929973,280.078239 Z" id="Path" fill="#FBBEBE"></path><path d="M893.929973,280.078239 C893.929973,280.078239 907.36956,316.477125 893.929973,323.196923 C880.490387,329.916721 942.088499,323.196923 942.088499,323.196923 L959.447968,309.197347 C959.447968,309.197347 920.249167,297.997687 925.849029,272.238483 C931.448891,246.479279 893.929973,280.078239 893.929973,280.078239 Z" id="Path" fill="#000000" opacity="0.1"></path><path d="M783.613401,645.187045 C783.613401,645.187045 834.011851,716.30487 825.612106,735.904286 C817.212361,755.503703 821.692233,767.82331 804.892743,774.543098 C788.093252,781.262886 783.613401,793.582515 798.172955,793.022536 C812.732509,792.462557 831.771894,788.542674 834.57183,783.502833 C837.371767,778.462992 844.091544,754.383724 853.611247,751.02382 C863.13095,747.663915 881.050398,734.784297 868.170822,719.104785 C855.291247,703.425273 822.838833,645.671915 825.345443,639.829655 C827.852053,633.987395 783.613401,645.187045 783.613401,645.187045 Z" id="Path" fill="#FBBEBE"></path><path d="M888.890186,504.631353 C888.890186,504.631353 784.733379,511.351151 757.854196,536.550377 C730.975013,561.749602 781.373475,655.826769 786.973305,656.946684 C792.573135,658.066599 836.25182,653.58679 834.571841,641.267172 C832.891862,628.947554 803.212806,578.549093 803.212806,578.549093 C803.212806,578.549093 841.851618,564.549517 863.130971,561.189623 C884.410324,557.829729 907.929602,542.150207 907.929602,542.150207 L888.890186,504.631353 Z" id="Path" fill="#9493B6"></path><path d="M841.291629,488.951841 C841.291629,488.951841 842.971576,551.109931 858.651098,553.349867 C874.330621,555.589804 858.651098,505.751321 858.651098,505.751321 L858.091119,486.711905 L841.291629,488.951841 Z" id="Path" fill="#FBBEBE"></path><path d="M888.890186,325.99687 C888.890186,325.99687 859.771077,317.597125 854.171247,339.996435 C848.571416,362.395745 846.891469,439.673379 846.891469,439.673379 L836.811777,501.271491 C836.811777,501.271491 855.291215,495.67166 859.211088,498.471576 L882.730366,468.792488 L888.890186,325.99687 Z" id="Path" fill="#6CABDD"></path><path d="M888.890186,325.99687 C888.890186,325.99687 859.771077,317.597125 854.171247,339.996435 C848.571416,362.395745 846.891469,439.673379 846.891469,439.673379 L836.811777,501.271491 C836.811777,501.271491 855.291215,495.67166 859.211088,498.471576 L882.730366,468.792488 L888.890186,325.99687 Z" id="Path" fill="#000000" opacity="0.1"></path><path d="M928.678324,657.112509 C928.678324,657.112509 948.24835,695.585507 960.007989,695.025507 C971.767629,694.465507 982.967289,687.185719 988.567141,710.14504 C994.166992,733.104361 987.447183,726.944531 994.166971,740.384117 C1000.88676,753.823703 1002.00676,777.342981 989.127183,782.942812 C976.247607,788.542642 964.487936,789.102621 963.927958,782.942812 C963.367979,776.783003 975.127607,776.783003 961.688021,754.943671 C948.248435,733.10434 919.689316,693.34556 907.929676,689.425676 C896.170037,685.505793 928.678324,657.112509 928.678324,657.112509 Z" id="Path" fill="#FBBEBE"></path><path d="M979.607427,481.672064 C979.607427,481.672064 1019.9262,548.870005 993.607003,568.469401 C967.287809,588.068796 888.890218,625.587703 888.890218,625.587703 C888.890218,625.587703 930.888923,654.146854 933.128859,663.666536 C935.368796,673.186218 912.969475,698.945454 905.129719,699.505432 C897.289963,700.065411 874.330663,673.746228 849.691416,667.02643 C825.05217,660.306631 809.932637,612.148117 836.811841,594.228658 C863.691045,576.309199 888.890249,546.630122 888.890249,546.630122 L881.055024,503.517454 L979.607427,481.672064 Z" id="Path" fill="#9493B6"></path><path d="M944.657708,257.577772 C944.657708,281.391554 920.263724,301.077645 896.449942,301.077645 C872.636153,301.077645 853.331263,281.772754 853.331263,257.958966 C853.331263,234.145177 872.636153,214.840286 896.449942,214.840286 C920.263724,214.840244 944.657708,233.763936 944.657708,257.577772 Z" id="Path" fill="#FBBEBE"></path><path d="M907.369602,319.837019 C907.369602,319.837019 946.008414,303.037538 946.008414,300.797602 C946.008414,298.557666 968.407735,305.837454 973.447576,310.317316 C978.487416,314.797178 981.287363,314.237199 984.647236,323.196891 C988.007109,332.156584 967.847745,415.594058 967.847745,415.594058 C967.847745,415.594058 979.047406,479.992085 985.207215,486.151894 C991.367024,492.311703 935.3687,501.271459 935.3687,501.271459 C935.3687,501.271459 898.409836,507.991257 892.250027,510.791172 C886.090218,513.591088 874.890557,517.51096 877.130493,510.791172 C879.37043,504.071385 888.890133,499.031533 872.650621,490.631788 C872.650621,490.631788 878.250451,463.192626 872.650621,450.873008 C867.05079,438.55339 841.291586,393.754706 862.01095,361.275756 C882.730313,328.796806 892.250027,317.037103 892.250027,317.037103 C892.250027,317.037103 899.529846,323.196923 907.369602,319.837019 Z" id="Path" fill="#6CABDD"></path><path d="M919.689231,472.71234 C919.689231,472.71234 876.01061,492.085072 862.850928,493.878355 C849.691247,495.671639 809.932552,505.751321 831.771883,514.711045 C853.611215,523.670769 886.650196,510.231183 886.650196,510.231183 L933.128775,490.631788 L919.689231,472.71234 Z" id="Path" fill="#FBBEBE"></path><path d="M966.715469,318.119236 C966.715469,318.119236 982.844679,310.317316 987.324488,337.756477 C991.804297,365.195639 1007.48387,451.992966 987.324488,464.872573 C967.165103,477.75218 920.686525,498.471512 920.686525,498.471512 C920.686525,498.471512 893.247374,479.992085 906.126981,473.272286 C919.006589,466.552488 949.805634,447.513072 954.285496,440.793284 C958.765358,434.073496 963.291639,359.067024 955.451883,346.747353 C947.612127,334.427682 966.715469,318.119236 966.715469,318.119236 Z" id="Path" fill="#000000" opacity="0.1"></path><path d="M965.60782,311.437284 C965.60782,311.437284 988.00713,310.317316 992.486992,337.756477 C996.966854,365.195639 1012.64638,451.992966 992.486992,464.872573 C972.327607,477.75218 925.84904,498.471512 925.84904,498.471512 C925.84904,498.471512 898.409878,479.992085 911.289485,473.272286 C924.169093,466.552488 954.968149,447.513072 959.448011,440.793284 C963.927873,434.073496 956.088064,364.075671 948.24835,351.756021 C940.408637,339.436371 965.60782,311.437284 965.60782,311.437284 Z" id="Path" fill="#6CABDD"></path><path d="M885.828785,185.373889 C878.954122,186.309475 871.580435,188.824286 868.121241,194.838472 C866.428594,197.781337 865.881379,201.233623 864.577475,204.368159 C860.97913,213.018154 852.240074,218.18366 845.930801,225.109231 C837.708308,234.134918 833.624923,247.735958 838.474292,258.941135 C840.352117,263.280149 843.401676,266.997305 845.714334,271.121008 C852.166324,282.625592 852.510568,296.442398 852.694069,309.631406 L853.054875,335.56382 C853.109973,339.523586 853.153931,343.563321 851.961719,347.339756 C850.769507,351.116191 848.107151,354.652997 844.330822,355.845517 C852.903381,358.817343 862.398518,355.574939 867.362907,347.980509 C868.409658,354.612368 866.094872,361.331133 861.185422,365.910928 C871.451735,363.493199 880.060934,356.026196 885.484743,346.980477 C890.908552,337.934759 893.423629,327.412955 894.550748,316.926186 C895.146886,311.379639 895.356966,305.644403 893.604647,300.348276 C892.370472,296.618133 890.217804,293.273942 888.174196,289.918228 C882.905729,281.267109 878.161581,272.06556 876.46365,262.079788 C874.765719,252.094016 876.470451,241.137613 882.954536,233.355926 C887.996853,227.264494 895.541787,223.804976 903.447905,223.959268 C911.383081,224.26592 918.587941,228.676629 922.469867,235.604233 C923.967798,238.424011 926.100053,242.245655 929.135395,241.254897 C929.697768,241.016599 930.246449,240.747203 930.778897,240.447958 C934.163979,238.907438 938.00905,241.946695 939.501708,245.353156 C944.209751,256.097613 935.535905,267.826695 934.639363,279.523056 C933.805411,290.403416 939.871469,300.664838 947.122462,308.819607 C959.647441,322.847167 976.007274,332.898413 994.181061,337.731735 C991.52047,337.061526 989.134617,335.579428 987.354854,333.491279 C994.743853,333.786813 1002.14103,333.166715 1009.3777,331.645125 C1001.49839,325.70731 993.563565,319.718928 986.985432,312.365729 C980.4073,305.012531 975.197316,296.115332 973.778663,286.351724 C971.87478,273.248424 976.755141,259.058918 971.175363,247.051119 C966.074133,236.073178 953.422631,229.938642 948.802313,218.749793 C944.109241,207.384753 941.066695,197.511183 928.640912,192.563597 C915.079172,187.163714 900.48139,183.379777 885.828785,185.373889 Z" id="Path" fill="#FF6584"></path></g></g></svg> 