<svg version="1.1" xmlns="http://www.w3.org/2000/svg" xmlns:xlink="http://www.w3.org/1999/xlink" x="0px" y="0px" width="234px" height="59px" viewBox="0 0 223 56.1" style="enable-background:new 0 0 223 56.1;" xml:space="preserve">
    <style type="text/css">
        .st0{fill:#223266;}
    </style>
    <path class="st0" d="M12.6,25.3h4.4V18C15.3,18.5,13.6,21.1,12.6,25.3"></path>
    <path class="st0" d="M7.2,25.3h4.3c0.7-3,1.8-5.4,3.1-6.8C11.5,19.4,8.9,21.9,7.2,25.3"></path>
    <path class="st0" d="M28.8,27.6c-0.1-0.4-0.3-0.8-0.4-1.2h-4.6c0.4,1.9,0.6,4,0.7,6.3C26,31.3,27.4,29.6,28.8,27.6"></path>
    <path class="st0" d="M13.7,35.5c1.2,0.9,2.3,1.6,3.2,2.1v-2.1H13.7z"></path>
    <path class="st0" d="M16.9,26.4h-4.6c-0.4,2.1-0.7,4.6-0.8,7.3c0.3,0.2,0.5,0.5,0.8,0.7h4.6V26.4z"></path>
    <path class="st0" d="M6.2,27.6c1.4,2,2.8,3.7,4.2,5.1c0.1-2.2,0.4-4.4,0.7-6.3H6.6C6.5,26.8,6.3,27.2,6.2,27.6"></path>
    <path class="st0" d="M4.3,24.3c0.2,0.3,0.3,0.6,0.5,1h1.1C7,23,8.5,21,10.3,19.6C7.9,20.7,5.9,22.3,4.3,24.3"></path>
    <path class="st0" d="M18.1,37.5c0.9-0.5,2-1.2,3.2-2.1h-3.2V37.5z"></path>
    <path class="st0" d="M18.1,34.3h4.6c0.3-0.2,0.5-0.4,0.8-0.7c-0.1-2.7-0.3-5.2-0.8-7.3h-4.6V34.3z"></path>
    <path class="st0" d="M3.7,23.2c3.3-3.9,8.3-6.4,13.8-6.4h0h0c5.5,0,10.5,2.5,13.8,6.4C33.5,18.6,35,12.9,35,5.7v-3
        c0-0.4-0.3-0.8-0.7-0.9l0,0C28.9,0.6,23.3,0,17.5,0C11.7,0,6.1,0.6,0.7,1.8l0,0C0.3,1.9,0,2.2,0,2.6l0,3C0,12.9,1.5,18.6,3.7,23.2
            M14.3,6.2c0.5-0.7,1.3-1.6,1.4-2.2C16.1,4.6,16,5.8,15,7.2c1.6-0.5,3-3.3,2.1-5.1c2.5,1.4,3.3,5.2,2,7.7C21,8.3,21.5,6.4,21.3,5
        c1.9,3.9,0.1,7.7-4.3,9.8c0.3-0.7,0.8-2.7-2.1-3.6C12.5,10.4,12.5,8.5,14.3,6.2"></path>
    <path class="st0" d="M20.5,18.4c1.3,1.5,2.3,3.8,3.1,6.8h4.3C26.1,21.9,23.5,19.4,20.5,18.4"></path>
    <path class="st0" d="M24.7,19.6c1.7,1.4,3.2,3.4,4.3,5.7h1.1c0.2-0.3,0.3-0.6,0.5-1C29.1,22.3,27.1,20.7,24.7,19.6"></path>
    <path class="st0" d="M18.1,18v7.3h4.4C21.4,21.1,19.7,18.5,18.1,18"></path>
    <path class="st0" d="M48.1,5.9c0-3.2-0.3-3.5-2-3.6l-0.7-0.1c-0.2-0.1-0.1-0.6,0.1-0.7c1.7,0.1,2.6,0.1,3.8,0.1c1.1,0,2.1,0,3.2-0.1
        c0.2,0.1,0.2,0.6,0.1,0.7l-0.4,0.1c-1.7,0.2-1.7,0.6-1.7,3.6v10.6c0,2.2-0.1,4.2-0.7,5.5c-0.9,2.3-3,4.1-5.6,4.1
        c-0.3,0-1.2,0-1.2-0.6c0-0.5,0.4-1.3,1-1.3c0.3,0,0.7,0.1,1.1,0.2c0.4,0.1,0.8,0.2,1.2,0.2c0.6,0,0.9-0.3,1.1-0.7
        c0.7-1.3,0.7-5.6,0.7-7.1V5.9z"></path>
    <path class="st0" d="M52.6,12.6c0-4.8,3.6-8.5,8.5-8.5c5.5,0,8.3,4,8.3,8.2c0,4.8-3.7,8.4-8.3,8.4C55.8,20.8,52.6,16.9,52.6,12.6
            M67.1,13.1c0-4-1.8-8.2-6.3-8.2c-2.5,0-5.7,1.7-5.7,7c0,3.5,1.7,8.2,6.5,8.2C64.3,20,67.1,17.9,67.1,13.1"></path>
    <path class="st0" d="M74.9,12.6c-1.2,0-1.2,0-1.2,0.8v3.4c0,2.5,0.1,2.9,1.5,3l0.7,0.1c0.1,0.1,0.1,0.5,0,0.6c-1.3,0-2.1-0.1-3-0.1
        c-1,0-1.8,0-2.8,0.1c-0.1-0.1-0.2-0.5,0-0.6l0.4-0.1c1.3-0.2,1.4-0.5,1.4-3V8.1c0-2.5-0.2-2.9-1.4-3l-0.6,0c-0.1-0.1-0.1-0.5,0-0.6
        c1.2,0,2,0.1,3,0.1c0.9,0,1.8,0,2.8-0.1c0.1,0.1,0.2,0.5,0,0.6l-0.5,0c-1.4,0.1-1.4,0.5-1.4,3v2.8c0,0.7,0,0.8,1.2,0.8h6.9
        c1.2,0,1.2,0,1.2-0.8V8.1c0-2.5,0-2.9-1.5-3l-0.5,0c-0.1-0.1-0.1-0.5,0-0.6c1.1,0,1.9,0.1,2.9,0.1c0.9,0,1.8,0,2.8-0.1
        C87,4.5,87,5,86.9,5.1l-0.5,0c-1.4,0.1-1.4,0.5-1.4,3v8.6c0,2.5,0,2.8,1.4,3l0.6,0.1c0.1,0.1,0.1,0.5,0,0.6c-1.2,0-2-0.1-2.9-0.1
        c-1,0-1.8,0-2.9,0.1c-0.1-0.1-0.2-0.5,0-0.6l0.5-0.1c1.5-0.2,1.5-0.5,1.5-3v-3.4c0-0.7,0-0.8-1.2-0.8H74.9z"></path>
    <path class="st0" d="M103.3,16.3c0,0.7,0,3.6,0.1,4.2c0,0.1-0.2,0.3-0.5,0.3c-0.3-0.4-1-1.2-3.1-3.6l-5.6-6.3
        c-0.6-0.7-2.3-2.7-2.8-3.2h0c-0.1,0.3-0.1,0.8-0.1,1.6v5.2c0,1.1,0,4.2,0.4,5c0.1,0.3,0.6,0.4,1.2,0.5l0.7,0.1
        c0.1,0.2,0.1,0.5,0,0.6c-1.1,0-1.9-0.1-2.8-0.1c-1,0-1.7,0-2.5,0.1c-0.2-0.1-0.2-0.5,0-0.6l0.6-0.1c0.6-0.1,0.9-0.2,1.1-0.5
        c0.3-0.9,0.3-3.8,0.3-4.9V7.4c0-0.7,0-1.2-0.5-1.7c-0.3-0.3-0.9-0.5-1.5-0.6l-0.4,0c-0.1-0.1-0.1-0.5,0-0.6c1,0.1,2.3,0.1,2.7,0.1
        c0.4,0,0.8,0,1.1-0.1c0.5,1.2,3.3,4.4,4.1,5.3l2.3,2.6c1.7,1.8,2.8,3.2,4,4.3h0c0.1-0.1,0.1-0.5,0.1-1v-5.1c0-1.1,0-4.2-0.5-5
        c-0.1-0.2-0.5-0.4-1.5-0.5l-0.4,0c-0.2-0.1-0.1-0.5,0-0.6c1.1,0,1.9,0.1,2.8,0.1c1,0,1.7,0,2.5-0.1c0.2,0.1,0.2,0.5,0,0.6l-0.3,0
        c-0.8,0.1-1.2,0.3-1.3,0.5c-0.4,0.9-0.4,3.8-0.4,4.9V16.3z"></path>
    <path class="st0" d="M109.7,20.8c-2,0-3.3-0.6-3.7-0.9c-0.3-0.5-0.6-2.2-0.6-3.4c0.1-0.2,0.5-0.2,0.6-0.1c0.4,1.2,1.3,3.6,4.1,3.6
        c2,0,3-1.3,3-2.8c0-1.1-0.2-2.2-2-3.4l-2.3-1.5c-1.2-0.8-2.6-2.2-2.6-4.1c0-2.3,1.8-4.1,4.9-4.1c0.7,0,1.6,0.1,2.2,0.3
        c0.3,0.1,0.6,0.1,0.8,0.1c0.2,0.6,0.4,1.9,0.4,2.9c-0.1,0.1-0.5,0.2-0.6,0.1c-0.3-1.2-1-2.7-3.3-2.7c-2.4,0-2.9,1.6-2.9,2.7
        c0,1.4,1.2,2.4,2,3l1.9,1.2c1.5,0.9,3,2.3,3,4.6C114.8,19,112.8,20.8,109.7,20.8"></path>
    <path class="st0" d="M129,11.2c-1.4,0-1.4,0.1-1.4,0.9v4c0,3,0.1,3.4,1.7,3.6l0.8,0.1c0.2,0.1,0.1,0.6-0.1,0.7
        c-1.5-0.1-2.5-0.1-3.6-0.1c-1.2,0-2.2,0.1-3.3,0.1c-0.2-0.1-0.2-0.5-0.1-0.7l0.5-0.1c1.6-0.3,1.7-0.6,1.7-3.6V5.9
        c0-3-0.2-3.5-1.7-3.6l-0.7-0.1c-0.2-0.1-0.1-0.6,0.1-0.7c1.4,0,2.4,0.1,3.6,0.1c1.1,0,2.1,0,3.3-0.1c0.2,0.1,0.2,0.6,0.1,0.7
        l-0.5,0.1c-1.6,0.2-1.7,0.6-1.7,3.6v3.3c0,0.9,0.1,0.9,1.4,0.9h8.1c1.4,0,1.4,0,1.4-0.9V5.9c0-3-0.1-3.4-1.7-3.6l-0.5-0.1
        c-0.2-0.1-0.1-0.6,0.1-0.7c1.3,0.1,2.3,0.1,3.4,0.1c1.1,0,2.1,0,3.4-0.1c0.2,0.1,0.2,0.6,0.1,0.7l-0.6,0.1c-1.6,0.2-1.7,0.6-1.7,3.6
        v10.2c0,3,0.1,3.4,1.7,3.6l0.7,0.1c0.2,0.1,0.1,0.6-0.1,0.7c-1.4-0.1-2.3-0.1-3.4-0.1c-1.2,0-2.2,0-3.4,0.1
        c-0.2-0.1-0.2-0.5-0.1-0.7l0.5-0.1c1.7-0.3,1.7-0.6,1.7-3.6v-4c0-0.9-0.1-0.9-1.4-0.9H129z"></path>
    <path class="st0" d="M143.1,12.6c0-4.8,3.6-8.5,8.5-8.5c5.5,0,8.3,4,8.3,8.2c0,4.8-3.7,8.4-8.3,8.4
        C146.4,20.8,143.1,16.9,143.1,12.6 M157.6,13.1c0-4-1.8-8.2-6.3-8.2c-2.5,0-5.7,1.7-5.7,7c0,3.5,1.7,8.2,6.5,8.2
        C154.9,20,157.6,17.9,157.6,13.1"></path>
    <path class="st0" d="M164.4,16.8c0,2.5,0,2.8,1.6,3l0.6,0.1c0.1,0.1,0.1,0.5,0,0.6c-1.4,0-2.2-0.1-3.1-0.1c-1,0-1.9,0-2.9,0.1
        c-0.1-0.1-0.2-0.5,0-0.6l0.5-0.1c1.4-0.2,1.4-0.5,1.4-3V7.9c0-2,0-2.5-1.1-2.6l-0.9-0.1c-0.2-0.1-0.1-0.5,0-0.6
        c1.3-0.2,2.8-0.2,4.8-0.2c2,0,3.5,0.3,4.6,1c1.1,0.7,1.9,1.9,1.9,3.6c0,2.2-1.4,3.3-2.4,3.8c-1.1,0.5-2.3,0.7-3.3,0.7
        c-0.2-0.1-0.2-0.4,0-0.5c2.6-0.5,3.5-1.9,3.5-4c0-2.3-1.4-3.8-3.9-3.8c-1.3,0-1.3,0.1-1.3,0.9V16.8z"></path>
    <path class="st0" d="M174.4,8.1c0-2.5,0-2.9-1.4-3l-0.6,0c-0.1-0.1-0.1-0.5,0-0.6c1.2,0,1.9,0.1,3,0.1c0.9,0,1.8,0,2.8-0.1
        c0.1,0.1,0.2,0.5,0,0.6l-0.5,0c-1.4,0.1-1.4,0.5-1.4,3v2.8c0,0.5,0,0.9,0.3,0.9c0.2,0,0.5-0.1,0.7-0.3c0.3-0.3,1-0.9,1.2-1.2
        l2.6-2.6c0.5-0.4,1.6-1.7,1.9-2c0.1-0.2,0.2-0.3,0.2-0.4c0-0.1-0.1-0.2-0.4-0.2l-0.6-0.1c-0.2-0.2-0.1-0.5,0-0.6
        c0.8,0,1.8,0.1,2.6,0.1c0.8,0,1.7,0,2.4-0.1c0.2,0.1,0.2,0.5,0,0.6c-0.6,0-1.6,0.3-2.2,0.7c-0.7,0.4-2,1.5-3.4,2.8l-2.2,2
        c-0.3,0.3-0.6,0.6-0.6,0.7c0,0.2,0.1,0.4,0.5,0.7c2.3,2.6,4.1,4.8,6,6.7c0.6,0.6,1.1,0.9,1.9,1l0.6,0.1c0.2,0.1,0.1,0.5,0,0.6
        c-0.6,0-1.6-0.1-2.7-0.1c-1,0-1.8,0-2.9,0.1c-0.2,0-0.2-0.5-0.1-0.6l0.6-0.1c0.3,0,0.6-0.1,0.6-0.2c0-0.1-0.2-0.3-0.3-0.6
        c-0.5-0.6-1.1-1.2-2-2.3l-1.9-2.2c-1.4-1.5-1.8-2-2.3-2c-0.4,0-0.4,0.3-0.4,1.2v3.1c0,2.5,0,2.9,1.4,3l0.6,0.1
        c0.1,0.1,0.1,0.5,0,0.6c-1.2,0-2-0.1-2.9-0.1c-1,0-1.8,0-2.8,0.1c-0.1-0.1-0.2-0.4,0-0.6l0.5-0.1c1.3-0.2,1.3-0.5,1.3-3V8.1z"></path>
    <path class="st0" d="M190.8,8.2c0-2.5,0-3-1.5-3.1l-0.6,0c-0.1-0.1-0.1-0.5,0-0.6c1.2,0,2,0.1,3,0.1c1,0,1.8,0,3-0.1
        c0.1,0.1,0.2,0.5,0,0.6l-0.6,0c-1.4,0.1-1.5,0.5-1.5,3.1v8.5c0,2.5,0,2.9,1.5,3l0.6,0.1c0.1,0.1,0.1,0.5,0,0.6c-1.2,0-2-0.1-3-0.1
        c-1,0-1.8,0-3,0.1c-0.1-0.1-0.2-0.5,0-0.6l0.6-0.1c1.4-0.2,1.5-0.5,1.5-3V8.2z"></path>
    <path class="st0" d="M211.6,16.3c0,0.7,0,3.6,0.1,4.2c0,0.1-0.2,0.3-0.5,0.3c-0.3-0.4-1-1.2-3.1-3.6l-5.6-6.3
        c-0.6-0.7-2.3-2.7-2.8-3.2h0c-0.1,0.3-0.1,0.8-0.1,1.6v5.2c0,1.1,0,4.2,0.4,5c0.1,0.3,0.6,0.4,1.2,0.5l0.7,0.1
        c0.1,0.2,0.1,0.5,0,0.6c-1.1,0-1.9-0.1-2.8-0.1c-1,0-1.7,0-2.5,0.1c-0.2-0.1-0.2-0.5,0-0.6l0.6-0.1c0.6-0.1,0.9-0.2,1.1-0.5
        c0.3-0.9,0.3-3.8,0.3-4.9V7.4c0-0.7,0-1.2-0.5-1.7c-0.3-0.3-0.9-0.5-1.5-0.6l-0.4,0c-0.1-0.1-0.1-0.5,0-0.6c1,0.1,2.3,0.1,2.7,0.1
        c0.4,0,0.8,0,1.1-0.1c0.5,1.2,3.3,4.4,4.1,5.3l2.3,2.6c1.7,1.8,2.8,3.2,4,4.3h0c0.1-0.1,0.1-0.5,0.1-1v-5.1c0-1.1,0-4.2-0.5-5
        c-0.1-0.2-0.5-0.4-1.5-0.5l-0.4,0c-0.2-0.1-0.1-0.5,0-0.6c1.1,0,1.9,0.1,2.8,0.1c1,0,1.7,0,2.5-0.1c0.2,0.1,0.2,0.5,0,0.6l-0.3,0
        c-0.8,0.1-1.2,0.3-1.3,0.5c-0.4,0.9-0.4,3.8-0.4,4.9V16.3z"></path>
    <path class="st0" d="M217.9,20.8c-2,0-3.3-0.6-3.7-0.9c-0.3-0.5-0.6-2.2-0.6-3.4c0.1-0.2,0.5-0.2,0.6-0.1c0.4,1.2,1.3,3.6,4.1,3.6
        c2,0,3-1.3,3-2.8c0-1.1-0.2-2.2-2-3.4l-2.3-1.5c-1.2-0.8-2.6-2.2-2.6-4.1c0-2.3,1.8-4.1,4.9-4.1c0.7,0,1.6,0.1,2.2,0.3
        c0.3,0.1,0.6,0.1,0.8,0.1c0.2,0.6,0.4,1.9,0.4,2.9c-0.1,0.1-0.5,0.2-0.6,0.1c-0.3-1.2-1-2.7-3.3-2.7c-2.4,0-2.9,1.6-2.9,2.7
        c0,1.4,1.2,2.4,2,3l1.9,1.2c1.5,0.9,3,2.3,3,4.6C223,19,221,20.8,217.9,20.8"></path>
    <path class="st0" d="M64.3,32.7c0-0.9,0-1.2-0.6-1.2l-0.4,0c-0.1-0.1-0.1-0.3,0-0.3c0.7-0.1,1.5-0.1,2.7-0.1c0.8,0,1.5,0.1,2.1,0.3
        c0.5,0.3,0.9,0.8,0.9,1.5c0,0.9-0.5,1.4-1.3,1.7c0,0.1,0.1,0.2,0.2,0.2c0.7,0.1,1.7,0.7,1.7,2.1c0,1.4-1.1,2.4-3.3,2.4
        c-0.4,0-1,0-1.5,0c-0.5,0-1,0-1.4,0c-0.1,0-0.1-0.2,0-0.3l0.2,0c0.7-0.1,0.7-0.2,0.7-1.5V32.7z M65.3,34.4c0,0.3,0,0.4,0.6,0.3
        c1.3,0,1.9-0.4,1.9-1.6c0-1.2-0.9-1.7-1.8-1.7c-0.3,0-0.5,0-0.6,0.1c-0.1,0-0.2,0.1-0.2,0.3V34.4z M65.3,37.2c0,0.4,0,1.1,0.3,1.4
        c0.2,0.3,0.6,0.3,1,0.3c1.1,0,1.9-0.5,1.9-1.7c0-1-0.5-2.1-2.5-2.1c-0.7,0-0.7,0.1-0.7,0.3V37.2z"></path>
    <path class="st0" d="M72.4,33c0-1.3,0-1.5-0.8-1.6l-0.3,0c-0.1,0,0-0.3,0-0.3c0.7,0,1.1,0,1.6,0c0.5,0,0.9,0,1.5,0
        c0.1,0,0.1,0.3,0,0.3l-0.3,0c-0.7,0.1-0.8,0.3-0.8,1.6v4.3c0,0.8,0,1.1,0.3,1.3c0.1,0.1,0.4,0.3,1.4,0.3c1.1,0,1.3,0,1.5-0.2
        c0.2-0.1,0.6-0.6,0.8-1.2c0.1-0.1,0.3,0,0.3,0.1c0,0.1-0.3,1.4-0.5,1.7c-0.6,0-1.8,0-3.1,0H73c-0.5,0-0.9,0-1.6,0
        c-0.1,0-0.1-0.2,0-0.3l0.4,0c0.7-0.1,0.7-0.2,0.7-1.5V33z"></path>
    <path class="st0" d="M78.7,35.3c0-2.5,1.9-4.4,4.4-4.4c2.9,0,4.3,2.1,4.3,4.3c0,2.5-1.9,4.3-4.3,4.3C80.4,39.5,78.7,37.5,78.7,35.3
            M86.2,35.5c0-2-0.9-4.3-3.3-4.3c-1.3,0-3,0.9-3,3.6c0,1.8,0.9,4.2,3.3,4.2C84.8,39.1,86.2,38,86.2,35.5"></path>
    <path class="st0" d="M89.2,35.3c0-2.5,1.9-4.4,4.4-4.4c2.9,0,4.3,2.1,4.3,4.3c0,2.5-1.9,4.3-4.3,4.3C90.9,39.5,89.2,37.5,89.2,35.3
            M96.7,35.5c0-2-0.9-4.3-3.3-4.3c-1.3,0-3,0.9-3,3.6c0,1.8,0.9,4.2,3.3,4.2C95.3,39.1,96.7,38,96.7,35.5"></path>
    <path class="st0" d="M103.9,36c0.3,0.6,0.6,1.2,0.9,1.7h0c0.3-0.6,0.6-1.2,1-1.9l1.2-2.4c0.6-1.1,0.9-1.8,0.9-2.4c0.4,0,0.7,0,0.9,0
        c0.3,0,0.7,0,1.1,0c0.1,0,0.1,0.3,0,0.3l-0.3,0c-0.8,0.1-0.9,0.3-0.9,1.2c0,1.3,0,3.6,0.1,5.4c0,0.6,0,1,0.6,1l0.4,0
        c0.1,0.1,0.1,0.3,0,0.3c-0.5,0-1,0-1.5,0c-0.4,0-1,0-1.5,0c-0.1-0.1-0.1-0.2,0-0.3l0.4,0c0.6-0.1,0.6-0.3,0.6-1.1l0-5.2h0
        c-0.1,0.1-0.6,1.1-0.8,1.6l-1.1,2.2c-0.6,1.1-1.1,2.3-1.3,2.8c0,0-0.1,0-0.1,0c0,0-0.1,0-0.1,0c-0.2-0.7-0.8-1.9-1.1-2.5l-1.1-2.4
        c-0.3-0.6-0.5-1.2-0.8-1.8h0c0,0.8-0.1,1.5-0.1,2.2c0,0.8-0.1,1.9-0.1,2.9c0,0.9,0.1,1.1,0.6,1.2l0.5,0c0.1,0.1,0.1,0.3,0,0.3
        c-0.4,0-0.9,0-1.4,0c-0.4,0-0.8,0-1.3,0c-0.1-0.1-0.1-0.2,0-0.3l0.3,0c0.5-0.1,0.7-0.1,0.8-1c0.1-0.8,0.1-1.5,0.2-2.7
        c0.1-1,0.1-2.1,0.1-2.8c0-0.8-0.1-1-0.8-1.1l-0.2,0c-0.1-0.1,0-0.3,0.1-0.3c0.4,0,0.7,0,1,0c0.3,0,0.6,0,1,0c0,0.5,0.3,1.3,0.6,2
        L103.9,36z"></path>
    <path class="st0" d="M112.6,32.7c0-0.9-0.1-1.2-0.6-1.2l-0.4,0c-0.1-0.1-0.1-0.3,0-0.3c0.7-0.1,1.5-0.1,2.7-0.1
        c0.8,0,1.5,0.1,2.1,0.3c0.5,0.3,0.9,0.8,0.9,1.5c0,0.9-0.5,1.4-1.3,1.7c0,0.1,0.1,0.2,0.2,0.2c0.7,0.1,1.7,0.7,1.7,2.1
        c0,1.4-1.1,2.4-3.3,2.4c-0.4,0-1,0-1.5,0c-0.5,0-1,0-1.4,0c-0.1,0-0.1-0.2,0-0.3l0.2,0c0.7-0.1,0.7-0.2,0.7-1.5V32.7z M113.6,34.4
        c0,0.3,0,0.4,0.6,0.3c1.3,0,1.9-0.4,1.9-1.6c0-1.2-0.9-1.7-1.8-1.7c-0.3,0-0.5,0-0.6,0.1c-0.1,0-0.2,0.1-0.2,0.3V34.4z M113.6,37.2
        c0,0.4,0,1.1,0.3,1.4c0.2,0.3,0.6,0.3,1,0.3c1.1,0,1.9-0.5,1.9-1.7c0-1-0.5-2.1-2.5-2.1c-0.7,0-0.7,0.1-0.7,0.3V37.2z"></path>
    <path class="st0" d="M120.7,33c0-1.3,0-1.5-0.8-1.6l-0.2,0c-0.1,0-0.1-0.3,0-0.3c0.5,0,1,0,1.5,0h2.3c0.8,0,1.5,0,1.7,0
        c0.1,0.2,0.1,1.1,0.2,1.6c0,0.1-0.2,0.1-0.3,0c-0.2-0.6-0.3-1-0.9-1.2c-0.3-0.1-0.7-0.1-1.2-0.1h-0.9c-0.4,0-0.4,0-0.4,0.5v2.5
        c0,0.3,0,0.3,0.4,0.3h0.7c0.5,0,0.9,0,1.1-0.1c0.1,0,0.2-0.1,0.3-0.4l0.1-0.5c0.1-0.1,0.3-0.1,0.3,0c0,0.3,0,0.8,0,1.3
        c0,0.4,0,0.9,0,1.2c0,0.1-0.3,0.1-0.3,0l-0.1-0.5c0-0.2-0.1-0.4-0.4-0.5c-0.2,0-0.5-0.1-1-0.1h-0.7c-0.4,0-0.4,0-0.4,0.3v1.7
        c0,0.7,0,1.1,0.2,1.3c0.1,0.1,0.4,0.3,1.5,0.3c1,0,1.3,0,1.6-0.2c0.2-0.1,0.6-0.6,0.9-1.2c0.1-0.1,0.3,0,0.3,0.1
        c-0.1,0.4-0.4,1.4-0.6,1.7c-1.1,0-2.2,0-3.3,0h-1.1c-0.5,0-1,0-1.7,0c-0.1,0-0.1-0.2,0-0.3l0.4,0c0.7-0.1,0.8-0.2,0.8-1.5V33z"></path>
    <path class="st0" d="M128.5,33c0-1.2,0-1.4-0.5-1.5l-0.4,0c-0.1-0.1-0.1-0.3,0-0.3c0.7-0.1,1.5-0.1,2.8-0.1c0.8,0,1.5,0.1,2.1,0.4
        c0.6,0.3,1,0.9,1,1.7c0,1.2-0.9,1.8-1.6,2.1c-0.1,0.1,0,0.2,0.1,0.3c1,1.6,1.6,2.6,2.5,3.3c0.2,0.2,0.5,0.3,0.9,0.3
        c0.1,0,0.1,0.1,0,0.2c-0.1,0-0.3,0.1-0.5,0.1c-1.1,0-1.7-0.3-2.6-1.6c-0.3-0.5-0.8-1.3-1.2-1.9c-0.2-0.3-0.4-0.4-0.9-0.4
        c-0.6,0-0.6,0-0.6,0.3v1.6c0,1.3,0,1.5,0.7,1.5l0.3,0c0.1,0.1,0,0.3,0,0.3c-0.6,0-1,0-1.5,0c-0.5,0-1,0-1.6,0c-0.1,0-0.1-0.2,0-0.3
        l0.3,0c0.7-0.1,0.7-0.2,0.7-1.5V33z M129.5,34.7c0,0.2,0,0.4,0,0.4c0,0,0.2,0.1,0.9,0.1c0.4,0,0.9,0,1.3-0.3
        c0.3-0.3,0.6-0.7,0.6-1.5c0-1-0.6-1.9-2-1.9c-0.8,0-0.8,0-0.8,0.4V34.7z"></path>
    <path class="st0" d="M143.2,38c0,0.5,0.1,0.8,0.3,0.9c0,0,0,0.1,0,0.1c-0.1,0-0.4,0-0.6,0.1c-0.7,0.2-1.6,0.3-2.2,0.3
        c-1.5,0-2.8-0.4-3.8-1.4c-0.7-0.7-1.1-1.7-1.1-2.8c0-1.1,0.3-2.1,1.1-2.9c0.8-0.9,2.1-1.5,3.9-1.5c0.7,0,1.4,0.1,1.6,0.2
        c0.2,0,0.6,0.1,0.8,0.1c0,0.4,0.1,1.1,0.2,1.8c0,0.1-0.3,0.1-0.3,0c-0.3-1.3-1.3-1.8-2.5-1.8c-2.4,0-3.5,1.7-3.5,3.6
        c0,2.4,1.2,4.3,3.7,4.3c0.8,0,1.2-0.2,1.4-0.4c0.1-0.1,0.1-0.3,0.1-0.7v-0.5c0-1,0-1.1-0.8-1.2l-0.5-0.1c-0.1,0-0.1-0.3,0-0.3
        c0.4,0,1,0,1.8,0c0.5,0,0.9,0,1.3,0c0.1,0,0.1,0.2,0,0.3l-0.2,0c-0.5,0.1-0.5,0.4-0.5,1V38z"></path>
    <path class="st0" d="M151.9,39.5c-1,0-1.7-0.3-1.9-0.5c-0.1-0.3-0.3-1.2-0.3-1.7c0.1-0.1,0.2-0.1,0.3,0c0.2,0.6,0.7,1.8,2.1,1.8
        c1,0,1.6-0.7,1.6-1.4c0-0.5-0.1-1.2-1-1.7l-1.2-0.8c-0.6-0.4-1.3-1.1-1.3-2.1c0-1.2,0.9-2.1,2.5-2.1c0.4,0,0.8,0.1,1.2,0.2
        c0.2,0,0.3,0.1,0.4,0.1c0.1,0.3,0.2,1,0.2,1.5c0,0.1-0.2,0.1-0.3,0c-0.2-0.6-0.5-1.4-1.7-1.4c-1.2,0-1.5,0.8-1.5,1.4
        c0,0.7,0.6,1.2,1.1,1.5l1,0.6c0.8,0.5,1.6,1.2,1.6,2.4C154.6,38.6,153.5,39.5,151.9,39.5"></path>
    <path class="st0" d="M157.6,32c0.9-0.7,2.1-1.1,3.3-1.1c0.7,0,1.6,0.1,2.2,0.3c0.1,0,0.2,0.1,0.3,0c0,0.3,0.1,1.1,0.2,1.8
        c-0.1,0.1-0.2,0.1-0.3,0c-0.2-0.8-0.7-1.8-2.5-1.8c-1.9,0-3.5,1.2-3.5,3.8c0,2.6,1.7,4,3.7,4c1.6,0,2.3-1,2.6-1.8
        c0.1-0.1,0.3,0,0.3,0c-0.1,0.6-0.4,1.5-0.6,1.7c-0.1,0-0.3,0.1-0.4,0.1c-0.3,0.1-1.2,0.3-2,0.3c-1.1,0-2.2-0.2-3.1-0.8
        c-1-0.7-1.8-1.8-1.8-3.4C156.1,33.9,156.7,32.7,157.6,32"></path>
    <path class="st0" d="M168,35.3c-0.6,0-0.6,0-0.6,0.4v1.8c0,1.3,0.1,1.5,0.8,1.5l0.4,0c0.1,0,0,0.3,0,0.3c-0.7,0-1.1,0-1.6,0
        c-0.5,0-1,0-1.4,0c-0.1,0-0.1-0.2,0-0.3l0.2,0c0.7-0.1,0.7-0.2,0.7-1.5V33c0-1.3-0.1-1.5-0.7-1.6l-0.3,0c-0.1,0,0-0.3,0-0.3
        c0.6,0,1,0,1.6,0c0.5,0,0.9,0,1.4,0c0.1,0,0.1,0.3,0,0.3l-0.2,0c-0.7,0.1-0.7,0.3-0.7,1.6v1.4c0,0.4,0,0.4,0.6,0.4h3.5
        c0.6,0,0.6,0,0.6-0.4V33c0-1.3,0-1.5-0.8-1.6l-0.2,0c-0.1,0,0-0.3,0-0.3c0.6,0,1,0,1.5,0c0.5,0,0.9,0,1.5,0c0.1,0,0.1,0.3,0,0.3
        l-0.3,0c-0.7,0.1-0.7,0.3-0.7,1.6v4.5c0,1.3,0,1.5,0.7,1.5l0.3,0c0.1,0,0,0.3,0,0.3c-0.6,0-1,0-1.5,0c-0.5,0-1,0-1.5,0
        c-0.1,0-0.1-0.2,0-0.3l0.2,0c0.8-0.1,0.8-0.2,0.8-1.5v-1.8c0-0.4,0-0.4-0.6-0.4H168z"></path>
    <path class="st0" d="M175.6,35.3c0-2.5,1.9-4.4,4.4-4.4c2.9,0,4.3,2.1,4.3,4.3c0,2.5-1.9,4.3-4.3,4.3
        C177.3,39.5,175.6,37.5,175.6,35.3 M183.1,35.5c0-2-0.9-4.3-3.3-4.3c-1.3,0-3,0.9-3,3.6c0,1.8,0.9,4.2,3.3,4.2
        C181.7,39.1,183.1,38,183.1,35.5"></path>
    <path class="st0" d="M186.1,35.3c0-2.5,1.9-4.4,4.4-4.4c2.9,0,4.3,2.1,4.3,4.3c0,2.5-1.9,4.3-4.3,4.3
        C187.8,39.5,186.1,37.5,186.1,35.3 M193.6,35.5c0-2-0.9-4.3-3.3-4.3c-1.3,0-3,0.9-3,3.6c0,1.8,0.9,4.2,3.3,4.2
        C192.2,39.1,193.6,38,193.6,35.5"></path>
    <path class="st0" d="M197.5,33c0-1.3,0-1.5-0.8-1.6l-0.3,0c-0.1,0,0-0.3,0-0.3c0.7,0,1.1,0,1.6,0c0.5,0,0.9,0,1.5,0
        c0.1,0,0.1,0.3,0,0.3l-0.3,0c-0.7,0.1-0.8,0.3-0.8,1.6v4.3c0,0.8,0,1.1,0.3,1.3c0.1,0.1,0.4,0.3,1.4,0.3c1.1,0,1.3,0,1.5-0.2
        c0.2-0.1,0.6-0.6,0.8-1.2c0.1-0.1,0.3,0,0.3,0.1c0,0.1-0.3,1.4-0.5,1.7c-0.6,0-1.8,0-3.1,0H198c-0.5,0-0.9,0-1.6,0
        c-0.1,0-0.1-0.2,0-0.3l0.4,0c0.7-0.1,0.7-0.2,0.7-1.5V33z"></path>
    <path class="st0" d="M79.4,49.3c0,0.7-0.4,1.9-1.3,2.8c-0.8,0.8-1.4,0.9-1.8,0.9c-0.8,0-1.3-0.6-1.2-1.7c0-0.8,0.5-2,1.4-2.8
        c0.6-0.6,1.2-0.8,1.7-0.8C79.1,47.7,79.5,48.4,79.4,49.3 M77.2,48.7c-0.7,1-1.2,2.4-1.2,3.1c0,0.4,0.1,0.8,0.5,0.8
        c0.3,0,0.6-0.1,1-0.6c0.5-0.7,1.1-2.4,1.2-3c0-0.4-0.1-0.8-0.5-0.8C77.8,48.1,77.5,48.2,77.2,48.7"></path>
    <path class="st0" d="M83,48.3c-0.1,0.2-0.2,0.6-0.3,1.2c-0.4,1.4-0.7,2.6-1.1,3.9c-0.3,1.1-0.7,1.7-1,2c-0.2,0.2-0.8,0.7-1.5,0.7
        c-0.7,0-0.9-0.4-0.9-0.6c0-0.2,0.1-0.5,0.3-0.6c0.1-0.1,0.2,0,0.3,0c0.3,0.3,0.7,0.5,0.9,0.5c0.2,0,0.5-0.1,0.8-1
        c0.6-2,1-4.1,1.6-6.1h-1C81,48.2,81,48,81.2,47.9h1.1c0.3-1.1,0.7-2.1,1.4-3c0.6-0.7,1.3-1,2-1c0.5,0,1,0.3,1,0.8
        c0,0.3-0.3,0.7-0.5,0.7c-0.1,0-0.2-0.1-0.2-0.2c0-0.7-0.4-0.9-0.7-0.9c-0.3,0-0.6,0.2-0.9,0.7c-0.6,0.8-0.8,1.7-1.2,2.9h1.6
        c0.1,0.1,0.1,0.3-0.1,0.5H83z"></path>
    <path class="st0" d="M91.6,50.9c0,1.3,0,1.5,0.8,1.5l0.3,0c0.1,0.1,0.1,0.3,0,0.3c-0.7,0-1.1,0-1.6,0c-0.5,0-1,0-1.5,0
        c-0.1,0-0.1-0.2,0-0.3l0.3,0c0.7-0.1,0.7-0.2,0.7-1.5v-4.6c0-1.1,0-1.3-0.6-1.3l-0.4,0c-0.1-0.1-0.1-0.3,0-0.3
        c0.7-0.1,1.4-0.1,2.5-0.1c1,0,1.8,0.1,2.4,0.5c0.6,0.4,1,1,1,1.9c0,1.1-0.7,1.7-1.2,2c-0.5,0.3-1.2,0.4-1.7,0.4
        c-0.1,0-0.1-0.2,0-0.2c1.3-0.2,1.8-1,1.8-2.1c0-1.2-0.7-2-2-2c-0.7,0-0.7,0-0.7,0.4V50.9z"></path>
    <path class="st0" d="M103.9,47.7c0-0.8,0-2.2-0.2-2.6c-0.1-0.1-0.3-0.2-0.6-0.3l-0.3,0c-0.1-0.1,0-0.2,0-0.3c0.5,0,0.9,0,1.4,0
        c0.5,0,0.9,0,1.3,0c0.1,0.1,0.1,0.2,0,0.3l-0.3,0c-0.3,0-0.5,0.1-0.6,0.3c-0.2,0.4-0.2,1.8-0.2,2.5v1.4c0,1.1-0.2,2.2-0.9,3
        c-0.5,0.6-1.5,0.9-2.4,0.9c-0.9,0-1.7-0.2-2.3-0.7c-0.7-0.5-1-1.5-1-2.9v-2.9c0-1.3,0-1.5-0.7-1.6l-0.3,0c-0.1,0-0.1-0.3,0-0.3
        c0.6,0,1,0,1.5,0c0.5,0,0.9,0,1.5,0c0.1,0,0.1,0.2,0,0.3l-0.3,0c-0.7,0.1-0.7,0.3-0.7,1.6v2.7c0,2,0.6,3.3,2.5,3.3
        c1.8,0,2.5-1.4,2.5-3.3V47.7z"></path>
    <path class="st0" d="M107.9,46.2c0-0.9,0-1.2-0.6-1.2l-0.4,0c-0.1-0.1-0.1-0.3,0-0.3c0.7-0.1,1.5-0.1,2.7-0.1c0.8,0,1.5,0.1,2.1,0.3
        c0.5,0.3,0.9,0.8,0.9,1.5c0,0.9-0.5,1.4-1.3,1.7c0,0.1,0.1,0.2,0.2,0.2c0.7,0.1,1.7,0.7,1.7,2.1c0,1.4-1.1,2.4-3.3,2.4
        c-0.4,0-1,0-1.5,0c-0.5,0-1,0-1.4,0c-0.1,0-0.1-0.2,0-0.3l0.2,0c0.7-0.1,0.7-0.2,0.7-1.5V46.2z M108.9,47.9c0,0.3,0,0.4,0.6,0.3
        c1.3,0,1.9-0.4,1.9-1.6c0-1.2-0.9-1.7-1.8-1.7c-0.3,0-0.5,0-0.6,0.1c-0.1,0-0.2,0.1-0.2,0.3V47.9z M108.9,50.7c0,0.4,0,1.1,0.3,1.4
        c0.2,0.3,0.6,0.3,1,0.3c1.1,0,1.9-0.5,1.9-1.7c0-1-0.5-2.1-2.5-2.1c-0.7,0-0.7,0.1-0.7,0.3V50.7z"></path>
    <path class="st0" d="M116,46.4c0-1.3,0-1.5-0.8-1.6l-0.3,0c-0.1,0,0-0.3,0-0.3c0.7,0,1.1,0,1.6,0c0.5,0,0.9,0,1.5,0
        c0.1,0,0.1,0.3,0,0.3l-0.3,0c-0.7,0.1-0.8,0.3-0.8,1.6v4.3c0,0.8,0,1.1,0.3,1.3c0.1,0.1,0.4,0.3,1.4,0.3c1.1,0,1.3,0,1.5-0.2
        c0.2-0.1,0.6-0.6,0.8-1.2c0.1-0.1,0.3,0,0.3,0.1c0,0.1-0.3,1.4-0.5,1.7c-0.6,0-1.8,0-3.1,0h-1.1c-0.5,0-0.9,0-1.6,0
        c-0.1,0-0.1-0.2,0-0.3l0.4,0c0.7-0.1,0.7-0.2,0.7-1.5V46.4z"></path>
    <path class="st0" d="M123.5,46.5c0-1.3,0-1.5-0.8-1.6l-0.3,0c-0.1,0,0-0.3,0-0.3c0.6,0,1,0,1.6,0c0.5,0,0.9,0,1.5,0
        c0.1,0,0.1,0.3,0,0.3l-0.3,0c-0.7,0.1-0.8,0.3-0.8,1.6v4.4c0,1.3,0,1.5,0.8,1.6l0.3,0c0.1,0,0.1,0.3,0,0.3c-0.6,0-1,0-1.5,0
        c-0.5,0-0.9,0-1.6,0c-0.1,0-0.1-0.2,0-0.3l0.3,0c0.7-0.1,0.8-0.3,0.8-1.6V46.5z"></path>
    <path class="st0" d="M128.8,45.4c0.9-0.7,2.1-1.1,3.3-1.1c0.7,0,1.6,0.1,2.2,0.3c0.1,0,0.2,0.1,0.3,0c0,0.3,0.1,1.1,0.2,1.8
        c-0.1,0.1-0.2,0.1-0.3,0c-0.2-0.8-0.7-1.8-2.5-1.8c-1.9,0-3.5,1.2-3.5,3.8c0,2.6,1.7,4,3.7,4c1.6,0,2.3-1,2.6-1.8
        c0.1-0.1,0.3,0,0.3,0c-0.1,0.6-0.4,1.5-0.6,1.7c-0.1,0-0.3,0.1-0.4,0.1c-0.3,0.1-1.2,0.3-2,0.3c-1.1,0-2.2-0.2-3.1-0.8
        c-1-0.7-1.8-1.8-1.8-3.4C127.2,47.4,127.9,46.2,128.8,45.4"></path>
    <path class="st0" d="M142.9,48.8c-0.6,0-0.6,0-0.6,0.4v1.8c0,1.3,0.1,1.5,0.8,1.5l0.4,0c0.1,0,0,0.3,0,0.3c-0.7,0-1.1,0-1.6,0
        c-0.5,0-1,0-1.4,0c-0.1,0-0.1-0.2,0-0.3l0.2,0c0.7-0.1,0.7-0.2,0.7-1.5v-4.5c0-1.3-0.1-1.5-0.7-1.6l-0.3,0c-0.1,0,0-0.3,0-0.3
        c0.6,0,1,0,1.6,0c0.5,0,0.9,0,1.4,0c0.1,0,0.1,0.3,0,0.3l-0.2,0c-0.7,0.1-0.7,0.3-0.7,1.6v1.4c0,0.4,0,0.4,0.6,0.4h3.5
        c0.6,0,0.6,0,0.6-0.4v-1.4c0-1.3,0-1.5-0.8-1.6l-0.2,0c-0.1,0,0-0.3,0-0.3c0.6,0,1,0,1.5,0c0.5,0,0.9,0,1.5,0c0.1,0,0.1,0.3,0,0.3
        l-0.3,0c-0.7,0.1-0.7,0.3-0.7,1.6v4.5c0,1.3,0,1.5,0.7,1.5l0.3,0c0.1,0,0,0.3,0,0.3c-0.6,0-1,0-1.5,0c-0.5,0-1,0-1.5,0
        c-0.1,0-0.1-0.2,0-0.3l0.2,0c0.8-0.1,0.8-0.2,0.8-1.5v-1.8c0-0.4,0-0.4-0.6-0.4H142.9z"></path>
    <path class="st0" d="M151.8,46.4c0-1.3,0-1.5-0.8-1.6l-0.2,0c-0.1,0,0-0.3,0-0.3c0.5,0,1,0,1.5,0h2.3c0.8,0,1.5,0,1.7,0
        c0.1,0.2,0.1,1.1,0.2,1.6c-0.1,0.1-0.2,0.1-0.3,0c-0.2-0.6-0.3-1-0.9-1.2c-0.3-0.1-0.7-0.1-1.2-0.1h-0.9c-0.4,0-0.4,0-0.4,0.5v2.5
        c0,0.3,0,0.3,0.4,0.3h0.7c0.5,0,0.9,0,1.1-0.1c0.1,0,0.2-0.1,0.3-0.4l0.1-0.5c0.1-0.1,0.3-0.1,0.3,0c0,0.3,0,0.8,0,1.3
        c0,0.4,0,0.9,0,1.2c0,0.1-0.3,0.1-0.3,0l-0.1-0.5c0-0.2-0.1-0.4-0.4-0.5c-0.2,0-0.5-0.1-1-0.1h-0.7c-0.4,0-0.4,0-0.4,0.3v1.7
        c0,0.7,0,1.1,0.2,1.3c0.1,0.1,0.4,0.3,1.5,0.3c1,0,1.3,0,1.6-0.2c0.2-0.1,0.6-0.6,0.9-1.2c0.1-0.1,0.3,0,0.3,0.1
        c-0.1,0.4-0.4,1.4-0.6,1.7c-1.1,0-2.2,0-3.3,0h-1.1c-0.5,0-1,0-1.7,0c-0.1,0-0.1-0.2,0-0.3l0.4,0c0.7-0.1,0.8-0.2,0.8-1.5V46.4z"></path>
    <path class="st0" d="M163.1,49.9c-0.1-0.3-0.1-0.3-0.5-0.3h-1.9c-0.3,0-0.4,0-0.5,0.3l-0.4,1.3c-0.2,0.6-0.3,0.9-0.3,1
        c0,0.1,0.1,0.2,0.4,0.2l0.4,0c0.1,0.1,0.1,0.3,0,0.3c-0.3,0-0.7,0-1.3,0c-0.4,0-0.9,0-1.2,0c-0.1-0.1-0.1-0.2,0-0.3l0.4,0
        c0.3,0,0.6-0.2,0.7-0.6c0.2-0.6,0.6-1.4,1.1-2.8l1.3-3.3c0.2-0.4,0.2-0.7,0.2-0.9c0.3-0.1,0.5-0.3,0.6-0.5c0.1,0,0.2,0,0.2,0.1
        c0.2,0.5,0.4,1.1,0.5,1.7l1.7,5c0.4,1.1,0.5,1.3,1.1,1.3l0.3,0c0.1,0.1,0.1,0.3,0,0.3c-0.5,0-0.9,0-1.5,0c-0.6,0-1.1,0-1.4,0
        c-0.1-0.1-0.1-0.2,0-0.3l0.4,0c0.3,0,0.4-0.1,0.4-0.2c0-0.1-0.1-0.4-0.2-0.7L163.1,49.9z M160.7,48.8c-0.1,0.3-0.1,0.3,0.3,0.3h1.5
        c0.4,0,0.4,0,0.3-0.4l-0.7-2c-0.1-0.3-0.2-0.6-0.3-0.8h0c0,0.1-0.2,0.4-0.3,0.7L160.7,48.8z"></path>
    <path class="st0" d="M168,46.4c0-1.3,0-1.5-0.8-1.6l-0.3,0c-0.1,0,0-0.3,0-0.3c0.7,0,1.1,0,1.6,0c0.5,0,0.9,0,1.5,0
        c0.1,0,0.1,0.3,0,0.3l-0.3,0c-0.7,0.1-0.8,0.3-0.8,1.6v4.3c0,0.8,0,1.1,0.3,1.3c0.1,0.1,0.4,0.3,1.4,0.3c1.1,0,1.3,0,1.5-0.2
        c0.2-0.1,0.6-0.6,0.8-1.2c0.1-0.1,0.3,0,0.3,0.1c0,0.1-0.3,1.4-0.5,1.7c-0.6,0-1.8,0-3.1,0h-1.1c-0.5,0-0.9,0-1.6,0
        c-0.1,0-0.1-0.2,0-0.3l0.4,0c0.7-0.1,0.7-0.2,0.7-1.5V46.4z"></path>
    <path class="st0" d="M177.2,50.9c0,1.3,0,1.5,0.7,1.5l0.4,0c0.1,0,0,0.3,0,0.3c-0.7,0-1.1,0-1.6,0c-0.5,0-0.9,0-1.7,0
        c-0.1,0-0.1-0.2,0-0.3l0.4,0c0.7-0.1,0.8-0.2,0.8-1.5v-5.5c0-0.4,0-0.4-0.4-0.4h-0.7c-0.5,0-1.2,0-1.5,0.3c-0.3,0.3-0.4,0.5-0.6,0.9
        c-0.1,0.1-0.3,0-0.3-0.1c0.2-0.6,0.4-1.4,0.5-1.8c0,0,0.2,0,0.2,0c0.1,0.4,0.5,0.4,1.1,0.4h5c0.7,0,0.8,0,1-0.3c0.1,0,0.2,0,0.2,0
        c-0.1,0.5-0.2,1.5-0.2,1.9c-0.1,0.1-0.3,0.1-0.3,0c0-0.3-0.1-0.8-0.3-0.9c-0.3-0.2-0.8-0.3-1.4-0.3h-0.9c-0.4,0-0.4,0-0.4,0.4V50.9z
        "></path>
    <path class="st0" d="M184.7,48.8c-0.6,0-0.6,0-0.6,0.4v1.8c0,1.3,0.1,1.5,0.8,1.5l0.4,0c0.1,0,0,0.3,0,0.3c-0.7,0-1.1,0-1.6,0
        c-0.5,0-1,0-1.4,0c-0.1,0-0.1-0.2,0-0.3l0.2,0c0.7-0.1,0.7-0.2,0.7-1.5v-4.5c0-1.3-0.1-1.5-0.7-1.6l-0.3,0c-0.1,0,0-0.3,0-0.3
        c0.6,0,1,0,1.6,0c0.5,0,0.9,0,1.4,0c0.1,0,0.1,0.3,0,0.3l-0.2,0c-0.7,0.1-0.7,0.3-0.7,1.6v1.4c0,0.4,0,0.4,0.6,0.4h3.5
        c0.6,0,0.6,0,0.6-0.4v-1.4c0-1.3,0-1.5-0.8-1.6l-0.2,0c-0.1,0-0.1-0.3,0-0.3c0.6,0,1,0,1.5,0c0.5,0,0.9,0,1.5,0c0.1,0,0.1,0.3,0,0.3
        l-0.3,0c-0.7,0.1-0.7,0.3-0.7,1.6v4.5c0,1.3,0,1.5,0.7,1.5l0.3,0c0.1,0,0,0.3,0,0.3c-0.6,0-1,0-1.5,0c-0.5,0-1,0-1.5,0
        c-0.1,0-0.1-0.2,0-0.3l0.2,0c0.8-0.1,0.8-0.2,0.8-1.5v-1.8c0-0.4,0-0.4-0.6-0.4H184.7z"></path>
</svg>