<svg id="Layer_1" data-name="Layer 1" xmlns="http://www.w3.org/2000/svg" xmlns:xlink="http://www.w3.org/1999/xlink" viewBox="0 0 361.05 106.82"><defs><style>.cls-1{fill:#5cb65e;}.cls-2{fill:#0071b9;}.cls-3,.cls-4{fill:#ffcf42;stroke:#ffcf42;stroke-width:0.22px;}.cls-3{fill-rule:evenodd;}.cls-5{fill:url(#radial-gradient);}.cls-6{fill:#fff;}.cls-7{fill:url(#radial-gradient-2);}</style><radialGradient id="radial-gradient" cx="376.92" cy="263.89" r="16.49" gradientUnits="userSpaceOnUse"><stop offset="0" stop-color="#fff"/><stop offset="0.13" stop-color="#fff8e3"/><stop offset="0.41" stop-color="#ffe59d"/><stop offset="0.61" stop-color="#ffd769"/><stop offset="1" stop-color="#ffcf42"/></radialGradient><radialGradient id="radial-gradient-2" cx="377.21" cy="265.17" r="10.5" gradientUnits="userSpaceOnUse"><stop offset="0.3" stop-color="#fff"/><stop offset="0.42" stop-color="#fff8e3"/><stop offset="0.69" stop-color="#ffe69c"/><stop offset="1" stop-color="#ffcf42"/></radialGradient></defs><path class="cls-1" d="M275.21,340.51h1.25v-7.77h-1.25v-1.26h7.47v2.69h-1.36v-1.44h-3.43v3.38h3.19v1.24h-3.19v3.16h1.39v1.27h-4.07Z" transform="translate(-207.44 -238.1)"/><path class="cls-1" d="M282.63,338.41a3.53,3.53,0,1,1,3.53,3.5A3.42,3.42,0,0,1,282.63,338.41Zm5.66,0a2.15,2.15,0,1,0-2.13,2.35A2.17,2.17,0,0,0,288.29,338.41Z" transform="translate(-207.44 -238.1)"/><path class="cls-1" d="M296,335.89a.9.9,0,0,1-.86.91,1,1,0,0,1-.89-.58,2.83,2.83,0,0,0-1.41,1.36v3.07h1.24v1.13h-3.62v-1.13h1v-4.46h-1V335h2.33v1.54a2.86,2.86,0,0,1,2.1-1.66A1,1,0,0,1,296,335.89Z" transform="translate(-207.44 -238.1)"/><path class="cls-1" d="M299.75,336.69a5.25,5.25,0,0,1,5.37-5.4c2.35,0,3.92,1.27,3.92,2.42a1,1,0,0,1-1,1.1,1,1,0,0,1-1-.95.8.8,0,0,1,.21-.57,3.24,3.24,0,0,0-2.19-.7,3.85,3.85,0,0,0-3.87,4.08,3.8,3.8,0,0,0,3.71,4,4.83,4.83,0,0,0,2.82-.85v-2H305v-1.2h4.13v5.15h-1.36V341a4.89,4.89,0,0,1-3,1A5,5,0,0,1,299.75,336.69Z" transform="translate(-207.44 -238.1)"/><path class="cls-1" d="M316.13,335.89a.9.9,0,0,1-.86.91,1,1,0,0,1-.89-.58,2.83,2.83,0,0,0-1.41,1.36v3.07h1.24v1.13h-3.62v-1.13h1.05v-4.46h-1.05V335h2.33v1.54a2.84,2.84,0,0,1,2.1-1.66A1,1,0,0,1,316.13,335.89Z" transform="translate(-207.44 -238.1)"/><path class="cls-1" d="M316.52,340.65h1.1v-4.46h-1.1V335H319v5.62h1.08v1.13h-3.53Zm.65-8a1,1,0,1,1,1,1A1,1,0,0,1,317.17,332.62Z" transform="translate(-207.44 -238.1)"/><path class="cls-1" d="M322.18,338.84a2.19,2.19,0,0,0,2.44,1.91A4.75,4.75,0,0,0,327,340l-.11,1.23a4.7,4.7,0,0,1-2.49.65,3.39,3.39,0,0,1-3.65-3.48,3.34,3.34,0,0,1,3.35-3.52,3,3,0,0,1,3.18,3.21,5.24,5.24,0,0,1-.06.72Zm0-1H326a1.76,1.76,0,0,0-1.86-1.81A1.91,1.91,0,0,0,322.18,337.83Z" transform="translate(-207.44 -238.1)"/><path class="cls-1" d="M328.28,336.19h-.84V335h3.27v1.11h-1l1.83,4.06,1.83-4.06h-1.08V335h3.28v1.16h-.85L331.92,342h-.86Z" transform="translate(-207.44 -238.1)"/><path class="cls-1" d="M335.83,340.65h1.1v-4.46h-1.1V335h2.45v5.62h1.08v1.13h-3.53Zm.64-8a1,1,0,0,1,1-1,1,1,0,0,1,1,1,1,1,0,0,1-1,1A1,1,0,0,1,336.47,332.62Z" transform="translate(-207.44 -238.1)"/><path class="cls-1" d="M342.39,336.21a3.54,3.54,0,0,1,2.46-1.3,1.94,1.94,0,0,1,1.77.86,2.72,2.72,0,0,1,.35,1.41v3.47h1v1.13h-3.4v-1.13h1v-3.18a1.73,1.73,0,0,0-.16-.8,1,1,0,0,0-1-.53,3,3,0,0,0-2,1v3.49h1v1.13h-3.38v-1.13h1.05v-4.46h-1.05V335h2.33Z" transform="translate(-207.44 -238.1)"/><path class="cls-1" d="M355.06,341.92a3,3,0,0,1-.62,2,3.2,3.2,0,0,1-2.56,1,3.56,3.56,0,0,1-2.44-.78,1.11,1.11,0,0,1-.36-.81.86.86,0,0,1,.85-.88.75.75,0,0,1,.78.77.81.81,0,0,1-.09.37,3,3,0,0,0,1.19.22,1.91,1.91,0,0,0,1.56-.64,2,2,0,0,0,.35-1.24v-1.17a2.77,2.77,0,0,1-2.12.95,3.17,3.17,0,0,1-3.15-3.35,3.32,3.32,0,0,1,3.26-3.44,3,3,0,0,1,2.07.79V335h2.33v1.16h-1.05Zm-5.23-3.58a2,2,0,0,0,2.05,2.2,2.55,2.55,0,0,0,1.84-.84v-3a2.74,2.74,0,0,0-1.8-.66A2.08,2.08,0,0,0,349.83,338.34Z" transform="translate(-207.44 -238.1)"/><path class="cls-1" d="M360.08,336.66a5.25,5.25,0,0,1,5.3-5.37c2.26,0,3.92,1.28,3.92,2.52a1,1,0,0,1-1,1.11.92.92,0,0,1-1-.94.75.75,0,0,1,.26-.59,2.91,2.91,0,0,0-2.21-.8,4,4,0,0,0,.08,8.08,4.28,4.28,0,0,0,3.09-1.35l.89,1a5.53,5.53,0,0,1-4,1.66A5.16,5.16,0,0,1,360.08,336.66Z" transform="translate(-207.44 -238.1)"/><path class="cls-1" d="M370.32,331.48v-1.16h2.39v5.84a3.37,3.37,0,0,1,2.4-1.25,2,2,0,0,1,1.69.72,2.5,2.5,0,0,1,.46,1.55v3.47h1.05v1.13h-3.4v-1.13h1v-3.18a1.49,1.49,0,0,0-.27-1,1.11,1.11,0,0,0-.92-.38,3,3,0,0,0-2,1v3.49h1v1.13h-3.4v-1.13h1.05v-9.17Z" transform="translate(-207.44 -238.1)"/><path class="cls-1" d="M378.84,340.65h1.09v-4.46h-1.09V335h2.44v5.62h1.08v1.13h-3.52Zm.64-8a1,1,0,1,1,1,1A1,1,0,0,1,379.48,332.62Z" transform="translate(-207.44 -238.1)"/><path class="cls-1" d="M383,340.65h1.09v-9.17H383v-1.16h2.44v10.33h1.08v1.13H383Z" transform="translate(-207.44 -238.1)"/><path class="cls-1" d="M387.18,338.45a3.37,3.37,0,0,1,3.29-3.54,3,3,0,0,1,2,.73v-4.16h-1.16v-1.16h2.5v10.33h1.05v1.13h-2.38v-.86a2.85,2.85,0,0,1-2.14,1A3.22,3.22,0,0,1,387.18,338.45Zm5.3,1.42v-3.13a2.9,2.9,0,0,0-1.85-.66,2.15,2.15,0,0,0-2.07,2.35,2.08,2.08,0,0,0,2,2.3A2.62,2.62,0,0,0,392.48,339.87Z" transform="translate(-207.44 -238.1)"/><path class="cls-1" d="M401,335.89a.9.9,0,0,1-.86.91,1,1,0,0,1-.89-.58,2.83,2.83,0,0,0-1.41,1.36v3.07h1.23v1.13h-3.61v-1.13h1.05v-4.46h-1.05V335h2.33v1.54a2.84,2.84,0,0,1,2.1-1.66A1,1,0,0,1,401,335.89Z" transform="translate(-207.44 -238.1)"/><path class="cls-1" d="M402.58,338.84a2.2,2.2,0,0,0,2.44,1.91,4.75,4.75,0,0,0,2.4-.72l-.11,1.23a4.7,4.7,0,0,1-2.49.65,3.39,3.39,0,0,1-3.65-3.48,3.34,3.34,0,0,1,3.35-3.52,3,3,0,0,1,3.18,3.21,5.24,5.24,0,0,1-.06.72Zm0-1h3.77a1.76,1.76,0,0,0-1.86-1.81A1.91,1.91,0,0,0,402.58,337.83Z" transform="translate(-207.44 -238.1)"/><path class="cls-1" d="M410.78,336.21a3.54,3.54,0,0,1,2.46-1.3,1.94,1.94,0,0,1,1.77.86,2.72,2.72,0,0,1,.35,1.41v3.47h1.05v1.13H413v-1.13h1v-3.18a1.73,1.73,0,0,0-.16-.8,1,1,0,0,0-1-.53,3,3,0,0,0-2,1v3.49h1v1.13h-3.38v-1.13h1.05v-4.46h-1.05V335h2.33Z" transform="translate(-207.44 -238.1)"/><path class="cls-1" d="M420.1,340c0-1.24,1.1-2,2.65-2a7.29,7.29,0,0,1,1.85.27v-.77a1.47,1.47,0,0,0-.3-.94,1.73,1.73,0,0,0-1.41-.51,1.76,1.76,0,0,0-.88.2,1,1,0,0,1,.08.38.75.75,0,0,1-.78.76.77.77,0,0,1-.8-.8c0-.79.88-1.62,2.6-1.62a2.87,2.87,0,0,1,2.27.84,2.32,2.32,0,0,1,.52,1.55v3.35H427v1.13h-2.32V341a3.54,3.54,0,0,1-2.32.94A2,2,0,0,1,420.1,340Zm4.5.11V339a6.63,6.63,0,0,0-1.65-.23c-.95,0-1.48.45-1.48,1.11s.45,1,1.23,1A3,3,0,0,0,424.6,340.09Z" transform="translate(-207.44 -238.1)"/><path class="cls-1" d="M429.8,336.21a3.5,3.5,0,0,1,2.46-1.3,2,2,0,0,1,1.77.86,2.72,2.72,0,0,1,.34,1.41v3.47h1.05v1.13H432v-1.13h1v-3.18a1.73,1.73,0,0,0-.15-.8,1,1,0,0,0-1-.53,3,3,0,0,0-2,1v3.49h1v1.13h-3.39v-1.13h1.05v-4.46h-1.05V335h2.34Z" transform="translate(-207.44 -238.1)"/><path class="cls-1" d="M435.86,338.45a3.37,3.37,0,0,1,3.29-3.54,2.94,2.94,0,0,1,2,.73v-4.16H440v-1.16h2.51v10.33h1.05v1.13h-2.38v-.86a2.89,2.89,0,0,1-2.15,1A3.21,3.21,0,0,1,435.86,338.45Zm5.29,1.42v-3.13a2.86,2.86,0,0,0-1.85-.66,2.13,2.13,0,0,0-2.06,2.35,2.08,2.08,0,0,0,2,2.3A2.62,2.62,0,0,0,441.15,339.87Z" transform="translate(-207.44 -238.1)"/><path class="cls-1" d="M447.32,340.51h1.25v-7.77h-1.25v-1.26h7.47v2.69h-1.36v-1.44H450v3.38h3.19v1.24H450v3.16h1.39v1.27h-4.07Z" transform="translate(-207.44 -238.1)"/><path class="cls-1" d="M454.7,340c0-1.24,1.09-2,2.64-2a7.21,7.21,0,0,1,1.85.27v-.77a1.47,1.47,0,0,0-.3-.94,1.72,1.72,0,0,0-1.4-.51,1.7,1.7,0,0,0-.88.2,1.17,1.17,0,0,1,.08.38.75.75,0,0,1-.79.76.77.77,0,0,1-.8-.8c0-.79.88-1.62,2.6-1.62a2.9,2.9,0,0,1,2.28.84,2.37,2.37,0,0,1,.51,1.55v3.35h1.05v1.13h-2.32V341a3.52,3.52,0,0,1-2.31.94A2,2,0,0,1,454.7,340Zm4.49.11V339a6.48,6.48,0,0,0-1.64-.23c-1,0-1.49.45-1.49,1.11s.45,1,1.24,1A2.92,2.92,0,0,0,459.19,340.09Z" transform="translate(-207.44 -238.1)"/><path class="cls-1" d="M462.06,340.65h1.05v-4.46h-1.05V335h2.33v1.18a3.27,3.27,0,0,1,2.38-1.3,1.89,1.89,0,0,1,1.65.76,1.8,1.8,0,0,1,.2.47,3.58,3.58,0,0,1,2.38-1.23,1.91,1.91,0,0,1,1.88,1,3,3,0,0,1,.27,1.28v3.49h1.05v1.13h-3.4v-1.13h1v-3.19a2.09,2.09,0,0,0-.13-.77.9.9,0,0,0-.95-.55,2.91,2.91,0,0,0-1.93,1v3.52h1v1.13h-3.34v-1.13h1v-3.19a2.37,2.37,0,0,0-.11-.77.93.93,0,0,0-1-.55,2.9,2.9,0,0,0-1.94,1v3.5h1v1.13h-3.36Z" transform="translate(-207.44 -238.1)"/><path class="cls-1" d="M474.73,340.65h1.09v-4.46h-1.09V335h2.44v5.62h1.08v1.13h-3.52Zm.64-8a1,1,0,1,1,1,1A1,1,0,0,1,475.37,332.62Z" transform="translate(-207.44 -238.1)"/><path class="cls-1" d="M478.85,340.65h1.09v-9.17h-1.09v-1.16h2.44v10.33h1.08v1.13h-3.52Z" transform="translate(-207.44 -238.1)"/><path class="cls-1" d="M483,340.65h1.1v-4.46H483V335h2.45v5.62h1.08v1.13H483Zm.64-8a1,1,0,0,1,1-1,1,1,0,0,1,1,1,1,1,0,0,1-1,1A1,1,0,0,1,483.68,332.62Z" transform="translate(-207.44 -238.1)"/><path class="cls-1" d="M488.7,338.84a2.19,2.19,0,0,0,2.44,1.91,4.75,4.75,0,0,0,2.4-.72l-.11,1.23a4.7,4.7,0,0,1-2.49.65,3.39,3.39,0,0,1-3.65-3.48,3.34,3.34,0,0,1,3.35-3.52,3,3,0,0,1,3.18,3.21,5.24,5.24,0,0,1-.06.72Zm0-1h3.77a1.76,1.76,0,0,0-1.86-1.81A1.91,1.91,0,0,0,488.7,337.83Z" transform="translate(-207.44 -238.1)"/><path class="cls-1" d="M499.35,337.24a.76.76,0,0,1-.82-.75,1.07,1.07,0,0,1,.06-.35,2.7,2.7,0,0,0-1.08-.2c-.86,0-1.33.42-1.33.86s.52.71,1.6,1c1.46.37,2.52.76,2.52,2s-1.28,2.1-2.76,2.1a3.84,3.84,0,0,1-2.5-.8,1.18,1.18,0,0,1-.38-.87.79.79,0,0,1,.77-.82.76.76,0,0,1,.8.79,1,1,0,0,1-.06.34,2.73,2.73,0,0,0,1.37.31c.82,0,1.48-.31,1.48-.91s-.49-.72-1.49-1c-1.72-.44-2.65-.86-2.65-2.06,0-1,.93-2,2.65-2a3.27,3.27,0,0,1,2.19.72,1.09,1.09,0,0,1,.35.81A.72.72,0,0,1,499.35,337.24Z" transform="translate(-207.44 -238.1)"/><path class="cls-2" d="M242.09,315.7c-.75.46-2.86,1.13-4-.47,0,0-1.86-2.54-.3-8.43-.23.28-5.41,6.35-6.77,7.66a3.57,3.57,0,0,1-2.21,1.16c-1.54-.05-1.49-1.83-1.49-3a19.66,19.66,0,0,1,1.15-4.82,44.42,44.42,0,0,1,2.12-5.38c.38-.7.57-1.31,1-1.22s.18,1,0,1.36a50.94,50.94,0,0,0-1.8,5.34,23.25,23.25,0,0,0-.81,5c0,.7.13,1.13.51,1.18s.79-.28,1.45-.94a65.11,65.11,0,0,0,6.59-8,14.21,14.21,0,0,0,1.6-2.71c.24-.56.76-.89,1-.84s.65.14.56.61c-.38,1.68-.67,3.09-.91,4.31-.71,3.65-.77,5.43-.58,6.65a1.81,1.81,0,0,0,2.57,1.55l.34-.17c.36-.36.49-.52.58-.51s.19.18.17.37A2.68,2.68,0,0,1,242.09,315.7Z" transform="translate(-207.44 -238.1)"/><path class="cls-2" d="M269.12,298.45c0-.14.37-.37.37-.37,1.69-.93,2.5-2,2.5-2.52,0-.38-.28-.43-.66-.62a1,1,0,0,1-.41-1.26c.09-.38.42-.66,1.08-.65a1.4,1.4,0,0,1,1.44,1.5c0,1.36-1.18,2.81-4,4.2C269.16,298.83,269.12,298.59,269.12,298.45Z" transform="translate(-207.44 -238.1)"/><path class="cls-2" d="M225.39,311.34c.28,0,.79-.09.79.24s-.61.42-1.22.6a3.33,3.33,0,0,0-1.22.8A39,39,0,0,1,221,324.16c-2,5.06-4.72,9.87-7.35,12.49a6.84,6.84,0,0,1-4.28,2.14c-1.45,0-1.91-1.28-1.91-2.4a22,22,0,0,1,2.14-8.66A41.2,41.2,0,0,1,214,320.3a38,38,0,0,1,7.76-8.08,18.13,18.13,0,0,0-.4-7.45c-.37-1.13.15-1.31.15-1.31a1.4,1.4,0,0,1,1.78.75,17.27,17.27,0,0,1,.53,7.55A5.7,5.7,0,0,1,225.39,311.34Zm-13.31,25c2.87-2.94,5.14-7.71,6.79-12.53a84.94,84.94,0,0,0,2.71-9.87,30.28,30.28,0,0,0-7,7.33,41.42,41.42,0,0,0-4.15,7.06c-1.27,2.85-2.08,5.61-1.9,7.91,0,.89.37,1.69,1.12,1.69A4.41,4.41,0,0,0,212.08,336.31Zm9.51-38.52a3.18,3.18,0,0,0-.79-1.83.89.89,0,0,0-1-.38c-.33.14-.38.7-.38,1a3.35,3.35,0,0,0,.7,1.92.89.89,0,0,0,.93.33C221.45,298.77,221.59,298.3,221.59,297.79Z" transform="translate(-207.44 -238.1)"/><path class="cls-2" d="M264.12,278.26c.56.15,1.35.43,1.35,2.54,0,3.09-1.49,7.77-3.42,12.31-2,4.72-4.63,9.21-6.65,11.36a21.09,21.09,0,0,0,.7,11.95,11.26,11.26,0,0,1,.65,1.79c0,.18,0,.23-.28.27s-.42-.14-.7-.61a21.32,21.32,0,0,1-2.36-9.28,27.57,27.57,0,0,1-3.86,5.23c-1.08,1.07-2.16,1.82-3.14,1.77-1.31,0-1.92-1.6-1.91-2.68a11.27,11.27,0,0,1,1-4.68,11.46,11.46,0,0,1,4.8-5.32,5.07,5.07,0,0,1,3.61-.69,102,102,0,0,1,1.58-10.54c1.48-6.74,3.41-10.44,5.25-12.21A3.52,3.52,0,0,1,264.12,278.26Zm-10.6,28.36.29-3.42a5,5,0,0,0-3.14.74A10.58,10.58,0,0,0,247,309a10,10,0,0,0-.76,3.79c.05.65.18,1.08.51,1.22s1.22-.14,2.3-1.26A28.72,28.72,0,0,0,253.52,306.62Zm10.87-24.84c.14-1.12.1-2.44-.79-2.58-1.17-.19-2.07,1.12-2.59,2-1.46,2.29-2.79,6.5-3.83,10.71a70.47,70.47,0,0,0-1.82,10.31c0,.18-.1,1.17-.1,1.17s.52-.66.66-.8c.66-.6,3.06-4.81,5.14-9.82A46.93,46.93,0,0,0,264.39,281.78Z" transform="translate(-207.44 -238.1)"/><path class="cls-2" d="M261.63,304.4c.19-.37.89-1.21,1.36-1,.24.1.66.15.7.43s-.14.42-.23.65a25.37,25.37,0,0,0-1.86,6.84c-.24,3.09.22,4.22.88,4.31.28,0,.56,0,.56.43s-.57.7-1.13.51c-1.68-.48-2-2.59-2-5.07A22.17,22.17,0,0,1,261.63,304.4Zm2.55-6.46a3.29,3.29,0,0,1,.81-1.82.88.88,0,0,1,1-.37c.33.14.37.7.37,1a3.36,3.36,0,0,1-.71,1.92.87.87,0,0,1-.93.32C264.32,298.93,264.18,298.46,264.18,297.94Z" transform="translate(-207.44 -238.1)"/><path class="cls-2" d="M273.63,302.81c0,1.17,1,2.29,2.1,3.47,1.77,1.79,3.92,3.67,3.86,5.64-.1,2.39-3.15,4.15-5.35,4-1.08-.05-3.14-.39-4.17-1.47a2.13,2.13,0,0,1-.69-1.46.5.5,0,0,1,.33-.56c.32-.14.6-.09.6.29a1.53,1.53,0,0,0,.7,1.17,5.9,5.9,0,0,0,2.86,1.14c2.29.14,4.45-.74,3.38-3.51-.55-1.5-2-2.58-3.26-3.76s-2.29-2.35-2.19-4.18a4.77,4.77,0,0,1,2.73-3.55,4.54,4.54,0,0,1,5,.21c.56.42.89.8.89,1.13a.72.72,0,0,1-.61.74c-.33.1-.75-.28-1-.56a3.67,3.67,0,0,0-3.79-.86A2.27,2.27,0,0,0,273.63,302.81Z" transform="translate(-207.44 -238.1)"/><path class="cls-2" d="M291.18,305.27c.66-3.42,5.13-21.39,10.73-26.95,1.27-1.26,2.68-1.86,4-1.48a3,3,0,0,1,2.19,3.05c0,3.47-1.53,6.79-2.42,8.71,0,0-5.11,11.51-13.28,17.71a64.17,64.17,0,0,0-1.81,8.33c.37-.51,3.71-4.95,4.8-6.31.66-.84,1.79-2.24,3-2.19.8.05,1.08,1.41,1.73,3,1.44,3.43,3.83,4,4.29,3.86s.94-.09.94.19-.66.7-1.59.7c-5.25,0-6.22-4.85-6.36-5.46-.09-.42-.6-.42-1.26.28-1.09,1.16-4.95,6.87-5.37,7.47-.29.42-.62,1.22-.9,1.22s-.46-.43-.56-.85c-.37-1.69.73-7,1.44-9.27a7.17,7.17,0,0,1-1.22.93c-.61.47-.84-.09-.84-.56a1.62,1.62,0,0,1,.8-1.17A13.64,13.64,0,0,0,291.18,305.27Zm13.13-17.1c.38-1,2.13-5.47,2-8.24,0-1.07-.13-1.92-1-2.11s-1.54.23-2.39,1.12c-5,5-9.69,22.78-10.26,25.26A43.93,43.93,0,0,0,304.31,288.17Z" transform="translate(-207.44 -238.1)"/><path class="cls-2" d="M311.62,300.43a4.89,4.89,0,0,1,2.11-.56c.47,0,.85.1.84.38s-.28.75-1.12.65a1.87,1.87,0,0,0-1.36.47,8.89,8.89,0,0,0-2.83,4.3,19.64,19.64,0,0,0-1.1,5.81c0,2.95.55,4.35,1.72,4.36,1,0,2.25-1,3.71-3a11.17,11.17,0,0,0,1.94-4.77,10.92,10.92,0,0,0,.15-3.89,1.11,1.11,0,0,0-.65-.8,5,5,0,0,1-.7-.37.92.92,0,0,1,.34-1.5,1.53,1.53,0,0,1,1.63.66,4.52,4.52,0,0,0,4,2c.47-.09.75,0,.75.19s-.33.33-.61.42a7,7,0,0,1-3.61,0,15.49,15.49,0,0,1-.25,3.61,12.41,12.41,0,0,1-1.8,4.58c-1.27,1.87-2.82,3.93-5.31,3.92s-3.54-3.3-3.54-5.45a16.47,16.47,0,0,1,1.62-6.55A10,10,0,0,1,311.62,300.43Z" transform="translate(-207.44 -238.1)"/><path class="cls-2" d="M333.63,316.1c-.75.46-2.86,1.13-4-.47,0,0-1.86-2.54-.29-8.44-.24.28-5.42,6.36-6.78,7.66a3.51,3.51,0,0,1-2.21,1.17c-1.54,0-1.49-1.83-1.48-3a19.11,19.11,0,0,1,1.14-4.82,42.34,42.34,0,0,1,2.13-5.38c.37-.7.56-1.31,1-1.22s.18,1,0,1.36a52.54,52.54,0,0,0-1.8,5.34,23.25,23.25,0,0,0-.81,5c0,.7.13,1.12.51,1.17s.8-.27,1.45-.93a65.11,65.11,0,0,0,6.59-8,14.4,14.4,0,0,0,1.61-2.71c.23-.57.75-.89,1-.84s.66.14.56.61c-.38,1.68-.67,3.09-.9,4.3-.72,3.66-.77,5.44-.59,6.66a1.81,1.81,0,0,0,2.57,1.55l.35-.17c.35-.36.48-.53.57-.51s.19.18.17.37A2.68,2.68,0,0,1,333.63,316.1Z" transform="translate(-207.44 -238.1)"/><path class="cls-2" d="M338.89,303.11c0,1.17,1,2.3,2.09,3.47,1.78,1.79,3.92,3.67,3.87,5.64-.1,2.39-3.15,4.16-5.35,4-1.08-.05-3.14-.39-4.17-1.47a2.16,2.16,0,0,1-.7-1.45.51.51,0,0,1,.33-.57c.33-.13.61-.09.61.29a1.51,1.51,0,0,0,.7,1.17,5.78,5.78,0,0,0,2.85,1.14c2.3.15,4.46-.74,3.39-3.51-.56-1.5-2-2.58-3.27-3.75s-2.28-2.36-2.18-4.18a4.76,4.76,0,0,1,2.73-3.55,4.52,4.52,0,0,1,5,.2c.56.42.89.8.89,1.13a.75.75,0,0,1-.62.75c-.32.09-.75-.29-1-.57a3.7,3.7,0,0,0-3.8-.86A2.28,2.28,0,0,0,338.89,303.11Z" transform="translate(-207.44 -238.1)"/><path class="cls-2" d="M348.4,315.14a4.43,4.43,0,0,1-1.11-3.29,14.1,14.1,0,0,1,1.85-6.88,16.81,16.81,0,0,1,4.19-4.86,4.13,4.13,0,0,1,2.67-1,1.73,1.73,0,0,1,1.64,1.88,7.64,7.64,0,0,1-2.55,5.52,9,9,0,0,1-5.5,2.56,11.67,11.67,0,0,0-.38,2.81,3.59,3.59,0,0,0,.83,2.44,3.78,3.78,0,0,0,3,.85c1.92-.08,4.22-1.86,4.41-1.95s.71-.42.94-.28a.29.29,0,0,1,.14.29,1.13,1.13,0,0,1-.43.51,11.47,11.47,0,0,1-4.27,2.23C353,316.14,350,316.69,348.4,315.14Zm7.51-14.41a1.88,1.88,0,0,0-.8.23,16.72,16.72,0,0,0-4.24,4.77,6.9,6.9,0,0,0-1,2.29,6.43,6.43,0,0,0,4.55-2.23,7.71,7.71,0,0,0,2-3.65C356.65,301.16,356.37,300.73,355.91,300.73Z" transform="translate(-207.44 -238.1)"/><path class="cls-2" d="M389.31,314.41v-17.6a7.2,7.2,0,0,0-.38-2.84,2,2,0,0,0-1.51-1l-1-.23c-.34-.06-.52-.22-.52-.46s.2-.38.58-.37.64.05,1.24.12a28.62,28.62,0,0,0,2.95.11q1.75,0,2.19-.06.84-.12,1-.12a.29.29,0,0,1,.32.32q0,.33-.48.45a2.07,2.07,0,0,0-1.32.77,3.47,3.47,0,0,0-.34,1.81v1.44l0,.73v15.24l0,.83-.23,2.29a9.76,9.76,0,0,1-2.44,4.77,5.38,5.38,0,0,1-3.92,1.94,1.89,1.89,0,0,1-1-.27.76.76,0,0,1-.42-.63,1.51,1.51,0,0,1,.07-.41c0-.09.08-.31.16-.64q.22-1.08.66-1.08c.15,0,.35.15.61.46a2,2,0,0,0,1.52.8c.68,0,1.25-.44,1.7-1.32a7,7,0,0,0,.69-3.26Z" transform="translate(-207.44 -238.1)"/><path class="cls-2" d="M409.81,306.77h-6.28a3.63,3.63,0,0,0-1.59.2,3.75,3.75,0,0,0-.83,1.39L400,310.92a7.51,7.51,0,0,0-.77,2.6,1.51,1.51,0,0,0,.41,1.19,3.71,3.71,0,0,0,1.6.62c.35.07.53.2.54.41s-.15.28-.49.28c-.12,0-.32,0-.58,0l-1.67-.09c-.55,0-1.19,0-1.91,0l-.78,0-1,.1c-.31,0-.47-.11-.47-.32a.36.36,0,0,1,.3-.37l.64-.2a2.29,2.29,0,0,0,.93-.84,7.41,7.41,0,0,0,1-1.53l.51-1.15,8.91-19.8c.15-.34.32-.52.5-.52s.34.17.47.51l7.46,19.1.38.94a8.27,8.27,0,0,0,1.35,2.61,4.56,4.56,0,0,0,2.19.81c.35.06.53.2.52.42s-.18.29-.49.29l-.66,0c-.6-.06-1.67-.08-3.21-.08a25.11,25.11,0,0,0-3,.1,3,3,0,0,1-.54.07q-.45,0-.45-.36c0-.18.14-.3.43-.35l.54-.12a1.05,1.05,0,0,0,.87-1.19,13.56,13.56,0,0,0-1.06-3.66l-.87-2.3a3,3,0,0,0-.57-1.1A2.7,2.7,0,0,0,409.81,306.77ZM410,304l-2.72-6.86-.14-.37q-.21-.56-.45-.57c-.08,0-.18.1-.28.33L403.05,304a2,2,0,0,0-.23.64c0,.3.27.45.8.45l.47,0h5.23c.58,0,.87-.15.87-.44a1.56,1.56,0,0,0-.09-.4Z" transform="translate(-207.44 -238.1)"/><path class="cls-2" d="M438.77,310v-3.9a1.82,1.82,0,0,0-.46-1.44,3.5,3.5,0,0,0-1.85-.49c-.45,0-.68-.19-.69-.44s.18-.32.59-.32l.69,0h1.31c1.78,0,2.82,0,3.11,0l1.39-.09c.26,0,.4.11.4.33s-.18.33-.52.42a1.7,1.7,0,0,0-1.32,1.91l0,.56v5.56l0,.55-.1.26a1.07,1.07,0,0,1-.5.14,4.83,4.83,0,0,0-1.44.63l-1.15.67a14.18,14.18,0,0,1-7.26,2,11.4,11.4,0,0,1-11.86-11.88,12.56,12.56,0,0,1,3.52-9.1,11.8,11.8,0,0,1,8.84-3.64,17.63,17.63,0,0,1,4.34.59,12.48,12.48,0,0,1,3.67,1.47.63.63,0,0,0,.29.14.59.59,0,0,0,.33-.14l.42-.31a.36.36,0,0,1,.24-.1c.21,0,.32.27.32.81a9.66,9.66,0,0,0,.1,1.18l.17,1.63q.09.66.24,1.32a1.89,1.89,0,0,1,.09.5c0,.28-.11.42-.34.43s-.28-.08-.39-.29a10.88,10.88,0,0,0-4.16-4.5,11.21,11.21,0,0,0-5.95-1.72,8,8,0,0,0-6.41,3,11.64,11.64,0,0,0-2.48,7.69,12.73,12.73,0,0,0,2.85,8.46,8.89,8.89,0,0,0,7.07,3.4,7.61,7.61,0,0,0,6.29-2.84A3.9,3.9,0,0,0,438.77,310Z" transform="translate(-207.44 -238.1)"/><path class="cls-2" d="M458.75,297.2v13a10.87,10.87,0,0,0,.3,3.22,2.61,2.61,0,0,0,.86,1.25,3.69,3.69,0,0,0,1.6.52c.58.08.87.22.87.43s-.18.4-.54.4a6.25,6.25,0,0,1-.66,0,13.2,13.2,0,0,0-1.84-.08l-2.51,0-2.05.12a6.85,6.85,0,0,1-.83,0c-.31,0-.47-.11-.47-.35s.18-.34.54-.39a2.28,2.28,0,0,0,1.7-.91,7.1,7.1,0,0,0,.38-2.9V296.61a5.79,5.79,0,0,0-.5-2.9,3,3,0,0,0-2.1-1c-.36-.06-.55-.2-.56-.41s.16-.37.51-.37l.31,0a29.38,29.38,0,0,0,3.36.16c.86,0,1.59,0,2.2-.06l1.16-.1.44,0c.31,0,.47.11.47.32s-.15.36-.45.46l-.91.35C459.18,293.37,458.75,294.76,458.75,297.2Z" transform="translate(-207.44 -238.1)"/><path class="cls-2" d="M469.28,304c1.55-1.84,3.15-2.76,4.82-2.76a5.09,5.09,0,0,1,4.38,2.27,8.26,8.26,0,0,1,1.11,4.76V313l.05.83a1.54,1.54,0,0,0,1.45,1.34l.73.1c.32.05.48.16.49.34s-.18.38-.57.38a5.06,5.06,0,0,1-.68-.07,19.69,19.69,0,0,0-2.11-.07l-1.71.05h-.66l-.5,0-.24,0a.29.29,0,0,1-.12-.27c0-.18.1-.29.31-.34l.52-.14c.47-.11.7-.53.7-1.24v-6a5.57,5.57,0,0,0-1.12-3.71,3.92,3.92,0,0,0-3.16-1.31,4.15,4.15,0,0,0-2.56.85,2.43,2.43,0,0,0-1.12,2v7.13l0,.87c.06,1,.86,1.51,2.41,1.6.38,0,.57.16.57.37s-.13.33-.39.33a6.78,6.78,0,0,1-.89-.1c-.22,0-.76,0-1.63,0-1.84,0-2.94,0-3.29.07a6.15,6.15,0,0,1-.7.07c-.22,0-.32-.1-.31-.29s.12-.26.33-.34a2.33,2.33,0,0,0,1.19-.76,2.72,2.72,0,0,0,.3-1.46v-7.82a3.34,3.34,0,0,0-.29-1.67,1.23,1.23,0,0,0-1.11-.44h-.75a.53.53,0,0,1-.28-.07.26.26,0,0,1-.15-.25c0-.16.15-.28.45-.34a8.59,8.59,0,0,0,2.24-.71l.91-.45.68-.33a.9.9,0,0,1,.42-.14q.32,0,.27.51c0,.18,0,.4,0,.66Z" transform="translate(-207.44 -238.1)"/><path class="cls-2" d="M488.89,301.27a6.93,6.93,0,0,1,2.36.36l.76.25c.31.12.47.29.47.53v.28a4.15,4.15,0,0,0,0,.49l.07.67a5.42,5.42,0,0,1,.05.66q0,.67-.39.69-.21,0-.39-.45a3.55,3.55,0,0,0-3.57-2.63,2.52,2.52,0,0,0-1.71.59,1.92,1.92,0,0,0-.67,1.5,1.9,1.9,0,0,0,.72,1.54,11.83,11.83,0,0,0,2.91,1.45,7.93,7.93,0,0,1,3,1.79,3.66,3.66,0,0,1,.84,2.53,4.46,4.46,0,0,1-1.45,3.35,4.81,4.81,0,0,1-3.46,1.4,7.26,7.26,0,0,1-3.12-.82,1.7,1.7,0,0,0-.5-.19l-.45-.05a.44.44,0,0,1-.44-.43V314l-.06-2.21,0-.51c.05-.32.18-.48.39-.49s.35.16.42.52a5.71,5.71,0,0,0,1.42,3,3.39,3.39,0,0,0,2.52,1.08,2.93,2.93,0,0,0,2.07-.75,2.48,2.48,0,0,0,.81-1.91,2.82,2.82,0,0,0-2-2.64l-1.53-.68a8.46,8.46,0,0,1-2.94-1.86,3.37,3.37,0,0,1-.87-2.35,3.55,3.55,0,0,1,1.33-2.8A4.91,4.91,0,0,1,488.89,301.27Z" transform="translate(-207.44 -238.1)"/><path class="cls-2" d="M499.86,303.37v8.72a3.39,3.39,0,0,0,.49,2.2,2.66,2.66,0,0,0,2,.75,3.72,3.72,0,0,0,1.78-.39l.9-.43.11,0c.14,0,.21.06.21.19,0,.37-.46.78-1.37,1.22a5.84,5.84,0,0,1-2.55.67q-4,0-4-4.16v-8.74h-1.54q-.45,0-.45-.27c0-.16.15-.37.45-.62A15.32,15.32,0,0,0,499,299c.31-.51.53-.76.66-.76s.24.15.24.45l-.07,3h3.7a2.1,2.1,0,0,0,1.18-.28,1.37,1.37,0,0,1,.38-.21c.12,0,.18,0,.17.2a1.55,1.55,0,0,1-.16.43l-.39,1a.75.75,0,0,1-.77.51Z" transform="translate(-207.44 -238.1)"/><path class="cls-2" d="M511.29,313a3.34,3.34,0,0,0,.27,1.65,1.53,1.53,0,0,0,1.13.54l.8.09c.42.05.62.2.61.44s-.17.29-.47.29-.57,0-1.13-.08c-.31,0-.72,0-1.22,0l-1.11,0-1.27.07a5,5,0,0,0-.54.05l-.62.05c-.32,0-.47-.11-.47-.32a.38.38,0,0,1,.31-.37l.33-.11a1.21,1.21,0,0,0,.77-.65,4,4,0,0,0,.22-1.51v-7.55a4,4,0,0,0-.28-1.87c-.19-.29-.58-.43-1.2-.43-.44,0-.65-.09-.64-.27s.31-.33.89-.51a18.52,18.52,0,0,0,2.47-1.11l.93-.44c.14,0,.22.15.22.42Zm-1.08-18.89c.28,0,.56.23.85.69l.42.67a.72.72,0,0,1,.17.43,1.85,1.85,0,0,1-.59,1.12c-.41.47-.73.71-1,.71s-.54-.23-.92-.7a1.31,1.31,0,0,1,.06-2.21C509.65,294.34,510,294.11,510.21,294.11Z" transform="translate(-207.44 -238.1)"/><path class="cls-2" d="M519.94,303.37v8.72a3.33,3.33,0,0,0,.49,2.2,2.66,2.66,0,0,0,2,.75,3.72,3.72,0,0,0,1.78-.39l.9-.43.11,0c.14,0,.21.06.21.19,0,.37-.46.78-1.37,1.22a5.84,5.84,0,0,1-2.55.67q-4,0-4-4.16v-8.74H516c-.31,0-.46-.09-.46-.27s.15-.37.46-.62a15.32,15.32,0,0,0,3.1-3.45c.31-.51.53-.76.66-.76s.24.15.24.45l-.07,3h3.7a2,2,0,0,0,1.17-.28,1.38,1.38,0,0,1,.39-.21c.12,0,.18,0,.17.2a1.55,1.55,0,0,1-.16.43l-.4,1a.73.73,0,0,1-.76.51Z" transform="translate(-207.44 -238.1)"/><path class="cls-2" d="M538.32,313.67a6,6,0,0,1-4.89,2.6,4.86,4.86,0,0,1-3.79-1.5,6.05,6.05,0,0,1-1.36-4.19l0-1.14V303.7a1.72,1.72,0,0,0-.36-1.24,2.18,2.18,0,0,0-1.36-.39c-.29,0-.42-.15-.41-.36s.37-.32,1.07-.36l1.31-.05a8.66,8.66,0,0,0,1.3-.24,1.28,1.28,0,0,1,.38-.07c.31,0,.46.27.46.82v.26l-.07,7.75v.55l.28,2.1a3.68,3.68,0,0,0,1.36,1.84,3.58,3.58,0,0,0,2.15.73,4.38,4.38,0,0,0,2.72-.9,2.57,2.57,0,0,0,1.19-2.05V303.8a2,2,0,0,0-.34-1.35,1.64,1.64,0,0,0-1.25-.37c-.37,0-.56-.1-.56-.32s.21-.39.63-.41l.57,0,1.21-.05a5.51,5.51,0,0,0,1.35-.28,3.23,3.23,0,0,1,.42-.09q.36,0,.36.63v11.25a3.55,3.55,0,0,0,.29,1.76,1.31,1.31,0,0,0,1.17.43h.28l.24,0c.26,0,.39.09.4.27s-.32.39-1,.42l-1.09.07a9.12,9.12,0,0,0-1.45.14,3,3,0,0,1-.65.11c-.37,0-.55-.55-.55-1.63Z" transform="translate(-207.44 -238.1)"/><path class="cls-2" d="M549.35,303.37v8.72a3.33,3.33,0,0,0,.49,2.2,2.65,2.65,0,0,0,2,.75,3.76,3.76,0,0,0,1.79-.39l.9-.43.1,0c.14,0,.21.06.21.19,0,.37-.45.78-1.37,1.22a5.78,5.78,0,0,1-2.55.67q-4,0-4-4.16v-8.74h-1.55q-.45,0-.45-.27c0-.16.15-.37.45-.62a15.15,15.15,0,0,0,3.11-3.45c.31-.51.53-.76.66-.76s.24.15.24.45l-.07,3H553a2.08,2.08,0,0,0,1.18-.28,1.37,1.37,0,0,1,.38-.21c.13,0,.19,0,.18.2a2,2,0,0,1-.16.43l-.4,1a.74.74,0,0,1-.76.51Z" transform="translate(-207.44 -238.1)"/><path class="cls-2" d="M558.21,307.2l0,.38a7.68,7.68,0,0,0,1.64,5,5,5,0,0,0,4,2,7,7,0,0,0,4.12-1.69.7.7,0,0,1,.26-.13c.16,0,.24.08.24.28s-.4.83-1.21,1.47a7.64,7.64,0,0,1-4.77,1.76,6.1,6.1,0,0,1-4.74-2.15,8.16,8.16,0,0,1,.06-10.59,6,6,0,0,1,4.63-2.26,5.43,5.43,0,0,1,4.63,2.41,9.39,9.39,0,0,1,.85,1.59,4.29,4.29,0,0,1,.43,1.41c0,.38-.37.57-1.13.57l-1.28,0-1.19,0Zm.1-.95h5.88c.91,0,1.37-.19,1.37-.56a3.49,3.49,0,0,0-1.17-2.51,3.55,3.55,0,0,0-2.54-1.17,3,3,0,0,0-2.37,1.14A5.78,5.78,0,0,0,558.31,306.25Z" transform="translate(-207.44 -238.1)"/><path class="cls-1" d="M377.78,276.86c-.28-.21-.64-.37-.94-.59l0,.39c-.82,18.8-4,34-15.73,49.58l3.44-.72S376.78,311,378.73,278A2,2,0,0,1,377.78,276.86Z" transform="translate(-207.44 -238.1)"/><path class="cls-3" d="M429.2,244.19h0a12.18,12.18,0,0,0-6.91-.94v.09a11.91,11.91,0,0,1,6.76,1.14,9.1,9.1,0,0,1,1.08.8c.31.26.72.72.95.45s.2-.46-.66-.94Z" transform="translate(-207.44 -238.1)"/><path class="cls-3" d="M421.67,242.55a.77.77,0,1,1-.6.91A.77.77,0,0,1,421.67,242.55Z" transform="translate(-207.44 -238.1)"/><path class="cls-3" d="M419.22,240.72h0a6.75,6.75,0,0,1,2.32,2.19l0,0a6.81,6.81,0,0,0-2.29-2.3,2.63,2.63,0,0,0-.56-.33c-.18-.09-.49-.22-.51,0s0,.24.43.31A1.64,1.64,0,0,1,419.22,240.72Z" transform="translate(-207.44 -238.1)"/><path class="cls-3" d="M420.45,239.37h0a8,8,0,0,1,1.39,3.45h0a7.81,7.81,0,0,0-1.3-3.53s-.27-.49-.35-.66-.28-.52-.42-.4-.14.19.2.58A4.93,4.93,0,0,1,420.45,239.37Z" transform="translate(-207.44 -238.1)"/><path class="cls-3" d="M424.43,240.78h0a6.32,6.32,0,0,1-2.63,2.49l0,0a6.3,6.3,0,0,0,2.75-2.46,4.11,4.11,0,0,0,.33-.67c.1-.21.17-.58,0-.58s-.21.05-.26.53A2.16,2.16,0,0,1,424.43,240.78Z" transform="translate(-207.44 -238.1)"/><path class="cls-3" d="M418.31,242.9h0a4.06,4.06,0,0,1,3,.38l0,0a4.16,4.16,0,0,0-3.07-.49,4.08,4.08,0,0,0-.62.11c-.19,0-.5.1-.41.27s.15.18.52,0A1.47,1.47,0,0,1,418.31,242.9Z" transform="translate(-207.44 -238.1)"/><path class="cls-3" d="M419.11,245.49h0a4.67,4.67,0,0,1,2.4-1.92v0a4.79,4.79,0,0,0-2.52,1.87s-.3.36-.41.48-.32.38-.16.47.22,0,.41-.33A2.57,2.57,0,0,1,419.11,245.49Z" transform="translate(-207.44 -238.1)"/><path class="cls-3" d="M421.87,246.15h0a4.18,4.18,0,0,1-.07-2.35l0,0a4.35,4.35,0,0,0-.05,2.4s.05.36.06.48,0,.38.21.32.19-.12,0-.41A1.3,1.3,0,0,1,421.87,246.15Z" transform="translate(-207.44 -238.1)"/><path class="cls-3" d="M423.65,245h0a2.34,2.34,0,0,1-1.33-1.71h0a2.43,2.43,0,0,0,1.28,1.86l.37.29c.11.09.29.24.36.07s0-.22-.24-.33A1.49,1.49,0,0,1,423.65,245Z" transform="translate(-207.44 -238.1)"/><path class="cls-3" d="M420.71,241.32h0a6.64,6.64,0,0,1,.94,1.5l0,0a6.89,6.89,0,0,0-.85-1.58,3.3,3.3,0,0,0-.18-.32c-.05-.09-.15-.25-.27-.11s-.12.19.08.31A.77.77,0,0,1,420.71,241.32Z" transform="translate(-207.44 -238.1)"/><path class="cls-3" d="M423.42,239.55h0a6.18,6.18,0,0,1-1.25,3.18l0,0a6.35,6.35,0,0,0,1.37-3.19,3.27,3.27,0,0,0,.11-.69c0-.21.06-.55-.12-.52s-.22.08-.16.54A1.63,1.63,0,0,1,423.42,239.55Z" transform="translate(-207.44 -238.1)"/><path class="cls-3" d="M419.58,243.94h0a4.32,4.32,0,0,1,1.67-.58v-.05a4.45,4.45,0,0,0-1.74.49s-.26.08-.35.11-.28.09-.17.24.15.16.32,0A1.17,1.17,0,0,1,419.58,243.94Z" transform="translate(-207.44 -238.1)"/><path class="cls-3" d="M420.25,245.25h0a3,3,0,0,1,1.47-1.57v0a3.16,3.16,0,0,0-1.61,1.55,1.73,1.73,0,0,0-.21.4c-.06.13-.16.35,0,.37s.23,0,.24-.31A.73.73,0,0,1,420.25,245.25Z" transform="translate(-207.44 -238.1)"/><path class="cls-3" d="M422.76,245.27h0a2.76,2.76,0,0,1-.6-1.56h-.05a2.88,2.88,0,0,0,.52,1.65,1.85,1.85,0,0,0,.16.32c0,.1.13.26.26.12s.13-.18-.06-.31A.66.66,0,0,1,422.76,245.27Z" transform="translate(-207.44 -238.1)"/><path class="cls-3" d="M424.56,244h0a2.59,2.59,0,0,1-2-.68l0,0a2.73,2.73,0,0,0,2.06.81l.45,0c.13,0,.36,0,.32-.15s-.08-.21-.37-.12A1.23,1.23,0,0,1,424.56,244Z" transform="translate(-207.44 -238.1)"/><path class="cls-4" d="M422.39,243a10.35,10.35,0,0,0,2.19-.64" transform="translate(-207.44 -238.1)"/><path class="cls-3" d="M400.45,251.79h0a8.38,8.38,0,0,0,4.81-.23l0-.06a8.23,8.23,0,0,1-4.74.08,6.67,6.67,0,0,1-.83-.41c-.25-.14-.58-.4-.7-.18s-.08.34.57.55S400.44,251.78,400.45,251.79Z" transform="translate(-207.44 -238.1)"/><path class="cls-3" d="M405.77,252a.53.53,0,0,1-.69-.3.53.53,0,0,1,.29-.69.53.53,0,0,1,.4,1Z" transform="translate(-207.44 -238.1)"/><path class="cls-3" d="M407.67,252.89h0a4.71,4.71,0,0,1-1.86-1.19l0,0a4.75,4.75,0,0,0,1.84,1.28,2.22,2.22,0,0,0,.43.15c.13,0,.36.09.35,0s0-.16-.34-.15A.81.81,0,0,1,407.67,252.89Z" transform="translate(-207.44 -238.1)"/><path class="cls-3" d="M407,254h0a5.4,5.4,0,0,1-1.38-2.16h0a5.57,5.57,0,0,0,1.33,2.24s.24.29.32.4.26.32.34.22.07-.15-.21-.37A2,2,0,0,1,407,254Z" transform="translate(-207.44 -238.1)"/><path class="cls-3" d="M404.12,253.51h0a4.33,4.33,0,0,1,1.47-2l0,0a4.45,4.45,0,0,0-1.56,2,5.06,5.06,0,0,0-.14.49c0,.16,0,.42.08.4s.14-.06.11-.39A1.62,1.62,0,0,1,404.12,253.51Z" transform="translate(-207.44 -238.1)"/><path class="cls-3" d="M408,251.29h0a2.8,2.8,0,0,1-2.09.13l0,0a2.86,2.86,0,0,0,2.15,0,2.7,2.7,0,0,0,.41-.16c.12-.05.33-.13.25-.23s-.12-.11-.36.07S408,251.3,408,251.29Z" transform="translate(-207.44 -238.1)"/><path class="cls-3" d="M407.14,249.64h0a3.27,3.27,0,0,1-1.39,1.61v0a3.36,3.36,0,0,0,1.48-1.59s.16-.29.21-.38.18-.3.06-.34-.16,0-.24.28A1.85,1.85,0,0,1,407.14,249.64Z" transform="translate(-207.44 -238.1)"/><path class="cls-3" d="M405.18,249.54h0a2.84,2.84,0,0,1,.34,1.58h0a2.88,2.88,0,0,0-.27-1.63,2.1,2.1,0,0,0-.1-.32c0-.1-.07-.26-.18-.19s-.12.1,0,.28A1.19,1.19,0,0,1,405.18,249.54Z" transform="translate(-207.44 -238.1)"/><path class="cls-3" d="M404.12,250.55h0a1.6,1.6,0,0,1,1.11,1h0a1.69,1.69,0,0,0-1.11-1.1l-.28-.15c-.09-.05-.23-.12-.26,0s0,.15.2.19A1.61,1.61,0,0,1,404.12,250.55Z" transform="translate(-207.44 -238.1)"/><path class="cls-3" d="M405,254.22h0a4.25,4.25,0,0,1,.45-2.32h0a4.28,4.28,0,0,0-.53,2.33,2,2,0,0,0,0,.48c0,.15,0,.39.15.35s.14-.09,0-.39A1.07,1.07,0,0,1,405,254.22Z" transform="translate(-207.44 -238.1)"/><path class="cls-3" d="M407,250.75h0a3.12,3.12,0,0,1-1.06.61v0a3,3,0,0,0,1.12-.55l.22-.12c.07,0,.18-.1.09-.19s-.12-.09-.22.05A.81.81,0,0,1,407,250.75Z" transform="translate(-207.44 -238.1)"/><path class="cls-3" d="M406.39,249.94h0a2.09,2.09,0,0,1-.8,1.26l0,0a2.18,2.18,0,0,0,.89-1.25,1.24,1.24,0,0,0,.1-.31c0-.09.06-.25-.07-.24s-.15,0-.13.24A.41.41,0,0,1,406.39,249.94Z" transform="translate(-207.44 -238.1)"/><path class="cls-3" d="M404.69,250.25h0a2,2,0,0,1,.6,1h0a1.93,1.93,0,0,0-.56-1.05,1.07,1.07,0,0,0-.14-.2c-.05-.06-.13-.16-.2-.05s-.06.14.08.21A.42.42,0,0,1,404.69,250.25Z" transform="translate(-207.44 -238.1)"/><path class="cls-3" d="M403.62,251.33h0a1.76,1.76,0,0,1,1.45.2l0,0a1.82,1.82,0,0,0-1.49-.29,2.39,2.39,0,0,0-.31,0c-.1,0-.26,0-.21.14s.08.14.27,0S403.62,251.32,403.62,251.33Z" transform="translate(-207.44 -238.1)"/><path class="cls-3" d="M450.4,249.33h0a10.89,10.89,0,0,0-3.12-5.4l-.06.06a10.64,10.64,0,0,1,2.9,5.4,9.77,9.77,0,0,1,0,1.2c0,.36-.12.9.2.92s.44-.11.29-1S450.39,249.33,450.4,249.33Z" transform="translate(-207.44 -238.1)"/><path class="cls-3" d="M447.43,243.11a.68.68,0,0,1,.08,1,.69.69,0,0,1-1,.08.68.68,0,0,1-.07-1A.67.67,0,0,1,447.43,243.11Z" transform="translate(-207.44 -238.1)"/><path class="cls-3" d="M447.38,240.37h0a6,6,0,0,1-.27,2.84l0,0a6,6,0,0,0,.37-2.88,2.57,2.57,0,0,0-.07-.58c0-.17-.11-.46-.25-.38s-.16.14,0,.47A1.19,1.19,0,0,1,447.38,240.37Z" transform="translate(-207.44 -238.1)"/><path class="cls-3" d="M449,240.51h0a6.94,6.94,0,0,1-1.67,2.86l0,0a7.12,7.12,0,0,0,1.79-2.86s.19-.45.26-.61.22-.48.06-.51-.21,0-.3.46A3.07,3.07,0,0,1,449,240.51Z" transform="translate(-207.44 -238.1)"/><path class="cls-3" d="M450.2,244.09h0a5.56,5.56,0,0,1-3.2-.5v0a5.63,5.63,0,0,0,3.23.6,5.21,5.21,0,0,0,.66-.13c.2,0,.5-.21.4-.33s-.15-.12-.51.1A1.94,1.94,0,0,1,450.2,244.09Z" transform="translate(-207.44 -238.1)"/><path class="cls-3" d="M445.35,240.93h0a3.6,3.6,0,0,1,1.38,2.33h0a3.73,3.73,0,0,0-1.33-2.44,3.62,3.62,0,0,0-.42-.38c-.13-.11-.35-.3-.42-.15s0,.21.3.37A1.24,1.24,0,0,1,445.35,240.93Z" transform="translate(-207.44 -238.1)"/><path class="cls-3" d="M444,242.91h0a4.16,4.16,0,0,1,2.67.64l0,0a4.24,4.24,0,0,0-2.7-.75s-.42,0-.57,0-.45,0-.42.14.09.19.46.11A1.59,1.59,0,0,1,444,242.91Z" transform="translate(-207.44 -238.1)"/><path class="cls-3" d="M445,245.22h0a3.8,3.8,0,0,1,1.62-1.33v0a3.89,3.89,0,0,0-1.72,1.28s-.22.23-.3.3-.26.24-.11.32.18.08.31-.18A1.42,1.42,0,0,1,445,245.22Z" transform="translate(-207.44 -238.1)"/><path class="cls-3" d="M446.8,245.84h0a2.08,2.08,0,0,1,.49-1.88l0,0a2.14,2.14,0,0,0-.61,1.92s0,.31,0,.42,0,.33.15.29.19-.08.1-.34A2,2,0,0,1,446.8,245.84Z" transform="translate(-207.44 -238.1)"/><path class="cls-3" d="M447.78,241.76h0a6.12,6.12,0,0,1-.54,1.48l0,0a6,6,0,0,0,.65-1.47s.1-.22.13-.3.09-.25-.07-.25-.2,0-.18.23A.83.83,0,0,1,447.78,241.76Z" transform="translate(-207.44 -238.1)"/><path class="cls-3" d="M450.51,242.7h0a5.47,5.47,0,0,1-2.92.86v0a5.68,5.68,0,0,0,3-.77,4.22,4.22,0,0,0,.54-.3c.16-.1.43-.26.31-.38s-.18-.1-.47.19A1.26,1.26,0,0,1,450.51,242.7Z" transform="translate(-207.44 -238.1)"/><path class="cls-3" d="M445.31,242.4h0a3.61,3.61,0,0,1,1.32.85l0,0a3.73,3.73,0,0,0-1.3-1s-.2-.14-.27-.19-.22-.15-.26,0,0,.19.18.23A.82.82,0,0,1,445.31,242.4Z" transform="translate(-207.44 -238.1)"/><path class="cls-3" d="M444.75,243.58h0a2.78,2.78,0,0,1,1.92.18l0,0a2.83,2.83,0,0,0-2-.28,1.27,1.27,0,0,0-.4.07c-.12,0-.33.08-.24.22s.13.15.35,0A.77.77,0,0,1,444.75,243.58Z" transform="translate(-207.44 -238.1)"/><path class="cls-3" d="M446.11,245.37h0a2.43,2.43,0,0,1,.77-1.28l0,0a2.61,2.61,0,0,0-.89,1.27s-.1.21-.14.28-.1.24.06.25.2,0,.19-.21A.58.58,0,0,1,446.11,245.37Z" transform="translate(-207.44 -238.1)"/><path class="cls-3" d="M448,246h0a2.37,2.37,0,0,1-.63-1.8h0a2.44,2.44,0,0,0,.55,1.9s.17.24.22.33.18.28.29.15.1-.17-.12-.33A1.11,1.11,0,0,1,448,246Z" transform="translate(-207.44 -238.1)"/><path class="cls-5" d="M382.05,254s1.77-3.77,2.87-3.13-1.69,5.54-1.69,5.54,3.45-4.25,4-3.62a1.87,1.87,0,0,1-.43,2.59,1.28,1.28,0,0,1,.49,2.18s4.75-3.68,5.12-2.6-2.25,3.41-2.25,3.41,2.84-1.14,2.93.07-2.58,2.15-2.58,2.15,3.91-.64,4-.11-2.38,1.06-2.38,1.06,2.41-.16,2.4.7c0,1.62-3.19,1.55-3.19,1.55a1,1,0,0,1-.45,1.4c2.26,0,4.92-.14,4.51.76s-.79,1.75-1.34,1.69-2.42-.08-2.42-.08,2.51.78,2.36,1.13-.85,1.48-1.48,1.46-4.26-.77-4.26-.77a10.14,10.14,0,0,0,2.48,1.41c.73.11,1.26,1.05-.07,1.36.51.5,2.56,1,1.1,1.7-1.85.94-4.92-2.49-6.63-3.2,1.63,2.39,4.11,4.86,2.94,5.27s-2-1.18-2-1.18-.56.5-1.06.25c.3.83.13,1.79-.66.66a15.28,15.28,0,0,0-2-2.22c0,1.68,2.77,4.66,1.44,4.47s-3.11-3.24-3.11-3.24-.2.58-.61.48.57,2.16-.2,2.39c-1.41.42-1.73-1.66-1.75-2.36-.49.45-1,.57-1.14-1.27-.54,3.07-2.95,4.24-2.49,1.54-.39.93-1.35,3-2.31,2.51s.09-2.43.71-4c-1.46,1.16-2.07,1.07-1.36-.88-2.19,2.42-4.42,3.07-4.11,1.52-1.21,1.46-4.69,1.55-.28-2.26-.69-.29.2-1.39.2-1.39s-2.82,2.1-3.73,1.95-2.12-.31.55-2.22c-1.54.75-3.28-.45-1.72-.89a2.9,2.9,0,0,1-2.38-.21c-.44-.36-.27-.92,2.91-2.12-1.27.16-1.64-1-.55-1.31-2.86-.62-4.05-1.15-4.06-2.16s1.25-.52,5.44.29c-2-.84-3.12-1.51-4.57-2-1.18-.39-.95-1.35-.35-1.56,1-.33,5.6,1,5.6,1s-3.06-2.16-3.67-2.5-.61-1.9.31-1.55,3.79,2,3.79,2-1.05-1.62-1.64-2.58-1.8-1.62-1-2,2.05.61,2.05.61-1.31-2.62,1.77-.07c-1.37-2.14-2.71-3.34-1.51-3.37s2.69,2.64,3.89,4.43c-.72-2.23-1.62-5-.59-4.9s2,2.79,2.38,3.7c-.11-1.4.5-1.32.5-1.32s-1.22-3-.09-2.78,1.56,2.63,1.73,3.23c0-1.44.94-1,.94-1s-.73-3.24.15-3,1.29,2,1.61,3c-.19-2.11-.43-4,.53-3.81s1,3.43,1.37,4.77c.27-1.94,1.47-1.47,1.47-1.47s.17-3.34,1.08-2.93.81,2.38.81,2.38.6-2.8,1.67-2.29S382.05,254,382.05,254Z" transform="translate(-207.44 -238.1)"/><path class="cls-6" d="M380,257.37s1.17-2.48,1.89-2.06-1.11,3.65-1.11,3.65,2.27-2.8,2.62-2.38a1.22,1.22,0,0,1-.28,1.7c1.17.48.32,1.44.32,1.44s3.14-2.43,3.38-1.71-1.48,2.24-1.48,2.24,1.86-.75,1.92.05-1.7,1.41-1.7,1.41,2.58-.42,2.66-.07-1.57.7-1.57.7,1.59-.11,1.58.45c0,1.07-2.1,1-2.1,1a.66.66,0,0,1-.3.92c1.49,0,3.24-.1,3,.5s-.53,1.15-.89,1.11-1.6-.05-1.6-.05,1.65.51,1.56.74-.56,1-1,1-2.81-.5-2.81-.5a6.6,6.6,0,0,0,1.64.92c.47.08.82.7-.05.9.33.33,1.68.63.72,1.12-1.22.62-3.24-1.64-4.36-2.11,1.07,1.57,2.7,3.2,1.94,3.47s-1.35-.77-1.35-.77-.36.32-.69.16c.2.54.09,1.18-.44.43a10,10,0,0,0-1.3-1.46c0,1.11,1.83,3.07.95,2.94s-2.05-2.13-2.05-2.13-.13.38-.4.32.38,1.42-.13,1.57c-.93.27-1.14-1.09-1.15-1.55-.32.29-.67.38-.75-.84-.36,2-1.95,2.79-1.64,1-.26.62-.89,1.95-1.52,1.66s.06-1.6.46-2.61c-1,.76-1.36.71-.89-.58-1.44,1.6-2.91,2-2.71,1-.79,1-3.08,1-.18-1.48-.45-.19.13-.92.13-.92s-1.86,1.39-2.45,1.28-1.4-.2.36-1.46c-1,.49-2.16-.3-1.13-.58a1.88,1.88,0,0,1-1.57-.15c-.29-.23-.18-.59,1.92-1.38-.84.1-1.09-.69-.37-.87-1.88-.41-2.67-.76-2.67-1.42s.82-.34,3.58.19c-1.3-.55-2-1-3-1.31-.78-.25-.62-.89-.23-1,.63-.22,3.69.63,3.69.63s-2-1.42-2.41-1.64-.41-1.25.2-1,2.49,1.29,2.49,1.29-.69-1.07-1.08-1.7-1.19-1.07-.67-1.32,1.34.41,1.34.41-.86-1.73,1.17-.05c-.9-1.41-1.78-2.2-1-2.22s1.77,1.74,2.56,2.92c-.47-1.47-1.06-3.31-.38-3.23s1.29,1.84,1.56,2.44c-.07-.92.33-.87.33-.87s-.8-2-.06-1.83,1,1.73,1.15,2.13c0-1,.61-.68.61-.68s-.48-2.14.1-2,.84,1.32,1.06,2c-.13-1.38-.29-2.62.35-2.51s.65,2.26.9,3.14c.18-1.27,1-1,1-1s.11-2.2.71-1.93.53,1.57.53,1.57.4-1.85,1.1-1.52S380,257.37,380,257.37Z" transform="translate(-207.44 -238.1)"/><path class="cls-7" d="M380.48,258.89s1.13-2.4,1.83-2-1.08,3.52-1.08,3.52,2.2-2.7,2.54-2.3a1.18,1.18,0,0,1-.27,1.65.82.82,0,0,1,.31,1.39s3-2.35,3.26-1.66-1.43,2.17-1.43,2.17,1.8-.72,1.86.05-1.64,1.36-1.64,1.36,2.49-.4,2.57-.07-1.52.68-1.52.68,1.53-.1,1.53.44c0,1-2,1-2,1a.63.63,0,0,1-.29.88c1.44,0,3.13-.09,2.87.49s-.5,1.11-.85,1.07-1.54-.05-1.54-.05,1.59.5,1.5.72-.54.94-.94.93-2.71-.49-2.71-.49a6.24,6.24,0,0,0,1.58.9c.46.07.79.67,0,.86.32.32,1.63.62.7,1.08-1.18.6-3.13-1.58-4.22-2,1,1.52,2.61,3.09,1.87,3.35s-1.29-.75-1.29-.75-.36.32-.68.16c.2.53.09,1.14-.42.42a9.38,9.38,0,0,0-1.25-1.41c0,1.07,1.76,3,.91,2.84s-2-2.06-2-2.06-.13.37-.39.31.37,1.37-.12,1.52c-.9.26-1.11-1.06-1.12-1.5-.31.28-.65.36-.72-.81-.35,1.95-1.88,2.7-1.59,1-.25.59-.86,1.88-1.47,1.6s.06-1.55.45-2.53c-.93.74-1.32.69-.86-.56-1.4,1.55-2.82,2-2.62,1-.77.93-3,1-.18-1.44-.44-.18.13-.88.13-.88s-1.8,1.34-2.37,1.24-1.36-.19.35-1.41c-1,.47-2.09-.29-1.1-.57a1.81,1.81,0,0,1-1.52-.14c-.28-.22-.17-.58,1.86-1.34-.81.1-1.05-.66-.36-.84-1.82-.39-2.57-.73-2.58-1.37s.8-.33,3.46.18c-1.25-.53-2-1-2.91-1.26-.75-.25-.6-.86-.22-1,.61-.21,3.56.61,3.56.61s-1.94-1.38-2.33-1.59-.39-1.21.2-1,2.41,1.25,2.41,1.25-.67-1-1-1.64-1.15-1-.66-1.27,1.31.39,1.31.39-.84-1.68,1.12-.05c-.87-1.37-1.72-2.13-1-2.14s1.71,1.68,2.48,2.82c-.46-1.43-1-3.2-.38-3.12s1.25,1.77,1.52,2.35c-.07-.89.32-.84.32-.84s-.78-1.94-.06-1.77,1,1.68,1.1,2.06c0-.92.6-.65.6-.65s-.47-2.07.1-1.93.81,1.27,1,1.91c-.12-1.34-.28-2.53.34-2.43s.63,2.19.87,3c.17-1.24.94-.93.94-.93s.1-2.13.68-1.87.52,1.52.52,1.52.38-1.79,1.06-1.47S380.48,258.89,380.48,258.89Z" transform="translate(-207.44 -238.1)"/></svg>