<?xml version="1.0" encoding="UTF-8"?>
<svg width="612px" height="792px" viewBox="0 0 612 792" version="1.1" xmlns="http://www.w3.org/2000/svg" xmlns:xlink="http://www.w3.org/1999/xlink">
    <!-- Generator: Sketch 52.6 (67491) - http://www.bohemiancoding.com/sketch -->
    <title>mff-logo</title>
    <desc>Created with Sketch.</desc>
    <g id="mff-logo" stroke="none" stroke-width="1" fill="none" fill-rule="evenodd">
        <polygon id="Fill-1" fill="#283278" points="0 585.3949 611.5816 585.3949 611.5816 490.45151 0 490.45151"></polygon>
        <polyline id="Fill-3" fill="#FFFFFE" points="42.7877 508.7098 63.73422 508.7098 63.73422 518.2332 52.81291 518.2332 52.81291 532.6965 62.34202 532.6965 62.34202 542.2256 52.81291 542.2256 52.81291 566.2123 42.7877 566.2123 42.7877 508.7098"></polyline>
        <path d="M111.4716,538.9395 L111.4716,535.9784 C111.4716,521.1985 109.418,517.0912 106.3721,517.0912 C103.3333,517.0912 101.2796,521.1985 101.2796,535.9784 L101.2796,538.9395 C101.2796,553.7278 103.3333,557.8351 106.3721,557.8351 C109.418,557.8351 111.4716,553.7278 111.4716,538.9395 Z M91.09613,538.9395 L91.09613,535.9784 C91.09613,517.005 97.25853,507.8914 106.3721,507.8914 C115.4984,507.8914 121.6594,517.005 121.6594,535.9784 L121.6594,538.9395 C121.6594,557.9171 115.4984,567.0349 106.3721,567.0349 C97.25853,567.0349 91.09613,557.9171 91.09613,538.9395 Z" id="Fill-4" fill="#FFFFFE"></path>
        <path d="M151.0651,549.4523 L151.0651,508.7098 L161.0041,508.7098 L161.0041,550.4402 C161.0041,555.6147 162.809,557.6684 165.3601,557.6684 C167.9099,557.6684 169.7162,555.6147 169.7162,550.4402 L169.7162,508.7098 L179.6595,508.7098 L179.6595,549.4523 C179.6595,561.5312 173.572,566.9487 165.3601,566.9487 C157.1455,566.9487 151.0651,561.5312 151.0651,549.4523" id="Fill-5" fill="#FFFFFE"></path>
        <polyline id="Fill-6" fill="#FFFFFE" points="210.0474 508.7098 219.4183 508.7098 229.517 537.7875 229.517 508.7098 239.2948 508.7098 239.2948 566.2123 230.4272 566.2123 219.8253 535.7339 219.8253 566.2123 210.0474 566.2123 210.0474 508.7098"></polyline>
        <path d="M280.2903,557.0125 C285.0563,557.0125 289.1636,552.8246 289.1636,538.4476 L289.1636,536.4745 C289.1636,522.0974 285.0563,517.9096 280.2903,517.9096 L279.879,517.9096 L279.879,557.0125 L280.2903,557.0125 Z M269.8581,508.7098 L279.2289,508.7098 C292.0427,508.7098 299.3472,517.9901 299.3472,536.4745 L299.3472,538.4476 C299.3472,556.932 292.0427,566.2123 279.2289,566.2123 L269.8581,566.2123 L269.8581,508.7098 Z" id="Fill-7" fill="#FFFFFE"></path>
        <path d="M344.3723,545.7591 L341.3349,526.7786 L338.2113,545.7591 L344.3723,545.7591 Z M336.1576,508.543 L346.8344,508.543 L357.7613,566.2123 L347.7404,566.2123 L345.8493,554.7977 L336.7272,554.7977 L334.9265,566.2123 L325.2292,566.2123 L336.1576,508.543 Z" id="Fill-8" fill="#FFFFFE"></path>
        <polyline id="Fill-9" fill="#FFFFFE" points="388.3204 518.2332 381.2562 518.2332 381.2562 508.7098 405.4111 508.7098 405.4111 518.2332 398.3385 518.2332 398.3385 566.2123 388.3204 566.2123 388.3204 518.2332"></polyline>
        <polygon id="Fill-10" fill="#FFFFFE" points="434.4098 566.2123 444.42512 566.2123 444.42512 508.70974 434.4098 508.70974"></polygon>
        <path d="M494.5426,538.9395 L494.5426,535.9784 C494.5426,521.1985 492.489,517.0912 489.4474,517.0912 C486.41,517.0912 484.3549,521.1985 484.3549,535.9784 L484.3549,538.9395 C484.3549,553.7278 486.41,557.8351 489.4474,557.8351 C492.489,557.8351 494.5426,553.7278 494.5426,538.9395 Z M474.1714,538.9395 L474.1714,535.9784 C474.1714,517.005 480.3338,507.8914 489.4474,507.8914 C498.5652,507.8914 504.7276,517.005 504.7276,535.9784 L504.7276,538.9395 C504.7276,557.9171 498.5652,567.0349 489.4474,567.0349 C480.3338,567.0349 474.1714,557.9171 474.1714,538.9395 Z" id="Fill-11" fill="#FFFFFE"></path>
        <polyline id="Fill-12" fill="#FFFFFE" points="534.3057 508.7098 543.668 508.7098 553.7752 537.7875 553.7752 508.7098 563.5488 508.7098 563.5488 566.2123 554.6769 566.2123 544.0793 535.7339 544.0793 566.2123 534.3057 566.2123 534.3057 508.7098"></polyline>
        <polyline id="Fill-13" fill="#283278" points="0.4282587 208.516 18.30488 208.516 31.01271 246.3399 43.72196 208.516 61.59434 208.516 61.59434 311.9426 44.30852 311.9426 44.30852 249.4423 31.16253 288.6032 30.86289 288.6032 17.71408 249.4423 17.71408 311.9426 0.4282587 311.9426 0.4282587 208.516"></polyline>
        <polygon id="Fill-14" fill="#283278" points="99.84787 311.944 117.87431 311.944 117.87431 208.516 99.84787 208.516"></polygon>
        <path d="M154.3597,262.0003 L154.3597,258.4541 C154.3597,222.11 167.8081,207.7796 184.6502,207.7796 C189.6719,207.7796 192.6288,208.369 196.4675,210.1414 L196.4675,228.7586 C192.7743,226.541 189.8218,225.3622 186.424,225.3622 C178.4453,225.3622 172.6858,232.4504 172.6858,258.3085 L172.6858,262.1501 C172.6858,289.4837 178.4453,295.0963 186.7194,295.0963 C189.5278,295.0963 193.074,294.066 196.7629,291.8483 L196.7629,309.5808 C192.6288,311.9426 188.6373,312.6832 183.4686,312.6832 C166.9177,312.6832 154.3597,298.0588 154.3597,262.0003" id="Fill-15" fill="#283278"></path>
        <polyline id="Fill-16" fill="#283278" points="233.1027 208.516 251.1249 208.516 251.1249 251.3631 266.7854 251.3631 266.7854 208.516 284.8118 208.516 284.8118 311.9426 266.7854 311.9426 266.7854 268.5047 251.1249 268.5047 251.1249 311.9426 233.1027 311.9426 233.1027 208.516"></polyline>
        <polygon id="Fill-17" fill="#283278" points="323.0639 311.944 341.08751 311.944 341.08751 208.516 323.0639 208.516"></polygon>
        <path d="M377.5771,262.0003 L377.5771,258.4541 C377.5771,225.0654 391.762,207.7796 412.1502,207.7796 C417.6144,207.7796 422.2008,208.9598 425.8884,210.7322 L425.8884,229.4978 C421.4602,226.8364 417.4688,225.0654 412.7438,225.0654 C402.3978,225.0654 395.899,235.4072 395.899,257.7177 L395.899,262.7409 C395.899,289.7834 403.8748,295.9868 411.2612,295.9868 C411.8548,295.9868 412.0046,295.9868 412.8866,295.8384 L412.8866,269.3909 L404.0246,269.3909 L404.0246,253.2839 L429.2904,253.2839 L429.2904,308.2508 C422.7874,311.0564 417.4688,312.6832 410.5234,312.6832 C392.4969,312.6832 377.5771,298.0588 377.5771,262.0003" id="Fill-18" fill="#283278"></path>
        <path d="M495.7624,275.1533 L490.2954,241.0212 L484.68,275.1533 L495.7624,275.1533 Z M480.9924,208.2206 L500.1948,208.2206 L519.8481,311.9426 L501.8216,311.9426 L498.421,291.4045 L482.0228,291.4045 L478.7706,311.9426 L461.3392,311.9426 L480.9924,208.2206 Z" id="Fill-19" fill="#283278"></path>
        <polyline id="Fill-20" fill="#283278" points="552.6332 208.516 569.478 208.516 587.65 260.8187 587.65 208.516 605.2327 208.516 605.2327 311.9426 589.2726 311.9426 570.2144 257.1269 570.2144 311.9426 552.6332 311.9426 552.6332 208.516"></polyline>
        <polyline id="Fill-21" fill="#283278" points="75.43147 355.0271 13.41029 355.0271 13.41029 391.5987 68.84647 391.5987 68.84647 402.1327 13.41029 402.1327 13.41029 446.7465 1.857201 446.7465 1.857201 344.3503 75.43147 344.3503 75.43147 355.0271"></polyline>
        <polygon id="Fill-22" fill="#283278" points="98.82033 446.7465 110.37766 446.7465 110.37766 344.3503 98.82033 344.3503"></polygon>
        <polyline id="Fill-23" fill="#283278" points="179.1125 446.7465 167.4096 446.7465 167.4096 355.0271 133.0415 355.0271 133.0415 344.3503 213.4891 344.3503 213.4891 355.0271 179.1125 355.0271 179.1125 446.7465"></polyline>
        <polyline id="Fill-24" fill="#283278" points="310.455 344.3503 321.7212 344.3503 321.7212 446.7465 312.5059 446.7465 246.3872 362.7796 246.3872 446.7465 235.1225 446.7465 235.1225 344.3503 245.9477 344.3503 310.455 426.4106 310.455 344.3503"></polyline>
        <polyline id="Fill-25" fill="#283278" points="424.6743 354.8815 362.215 354.8815 362.215 389.8433 418.0978 389.8433 418.0978 400.3745 362.215 400.3745 362.215 436.2083 425.4093 436.2083 425.4093 446.7465 350.6633 446.7465 350.6633 344.3503 424.6743 344.3503 424.6743 354.8815"></polyline>
        <path d="M485.3641,389.9888 C508.1805,394.9612 518.7145,403.3002 518.7145,419.0977 C518.7145,436.7948 504.0845,448.2108 483.757,448.2108 C467.5129,448.2108 454.21,442.7933 441.9177,431.8239 L449.085,423.3421 C459.7604,432.9956 470.0033,437.8224 484.1924,437.8224 C497.9404,437.8224 507.0116,430.6579 507.0116,420.2708 C507.0116,410.6088 501.8866,405.1998 480.3931,400.6642 C456.8432,395.5477 446.0166,387.9394 446.0166,370.9744 C446.0166,354.5904 460.2014,342.8874 479.6525,342.8874 C494.5737,342.8874 505.2576,347.1276 515.6376,355.4667 L508.9084,364.3894 C499.4047,356.6355 489.8954,353.2717 479.3656,353.2717 C466.05,353.2717 457.5696,360.5888 457.5696,369.9469 C457.5696,379.746 462.8331,385.1621 485.3641,389.9888" id="Fill-26" fill="#283278"></path>
        <path d="M577.5061,389.9888 C600.3197,394.9612 610.8537,403.3002 610.8537,419.0977 C610.8537,436.7948 596.2251,448.2108 575.8962,448.2108 C559.6549,448.2108 546.3436,442.7933 534.0569,431.8239 L541.2257,423.3421 C551.901,432.9956 562.1453,437.8224 576.333,437.8224 C590.0853,437.8224 599.148,430.6579 599.148,420.2708 C599.148,410.6088 594.0259,405.1998 572.5239,400.6642 C548.9824,395.5477 538.1572,387.9394 538.1572,370.9744 C538.1572,354.5904 552.3378,342.8874 571.7932,342.8874 C586.713,342.8874 597.394,347.1276 607.7782,355.4667 L601.0476,364.3894 C591.5439,356.6355 582.0332,353.2717 571.5034,353.2717 C558.1906,353.2717 549.7103,360.5888 549.7103,369.9469 C549.7103,379.746 554.9766,385.1621 577.5061,389.9888" id="Fill-27" fill="#283278"></path>
    </g>
</svg>