<svg width="177" height="240" viewBox="0 0 177 240" fill="none" xmlns="http://www.w3.org/2000/svg">
<path d="M69.676 78.1952L69.7853 78.1965L76.9787 78.2072C77.1773 78.2059 77.3773 78.2019 77.5787 78.2005C78.2907 75.8445 79.016 73.4912 79.7147 71.1312L79.8493 70.6805L77.412 69.2672L71.2107 65.7192L65.844 62.6619L68.6627 74.2285L69.5533 77.7139L69.676 78.1952Z" fill="#3DB5E6"/>
<path d="M69.2223 78.19C69.2156 78.19 69.2103 78.1887 69.2036 78.1887L69.1676 78.19H69.2223Z" fill="#3DB5E6"/>
<path d="M109.754 62.664L99.3514 68.704L96.4688 70.4214L96.6794 71.0947L98.8714 77.8774C101.163 77.8307 103.454 77.7974 105.746 77.7374L106.609 77.7174L106.747 77.0694L107.125 75.3107L108.595 68.268L109.754 62.664Z" fill="#B150C5"/>
<path d="M96.318 69.938C96.3166 69.9353 96.318 69.934 96.3166 69.93C96.2966 69.8687 96.3046 69.8953 96.318 69.938Z" fill="#B150C5"/>
<path d="M12.9833 195.963C14.8287 195.963 16.378 194.48 16.378 192.535C16.378 190.72 14.8287 189.336 12.9833 189.336H9.15801V195.963H12.9833ZM4.87268 185.908C4.87268 185.577 5.13668 185.28 5.49935 185.28H13.246C17.302 185.28 20.6313 188.579 20.6313 192.567C20.6313 196.656 17.302 199.985 13.2793 199.985H9.15801V207.731C9.15801 208.061 8.86201 208.359 8.53268 208.359H5.49935C5.13668 208.359 4.87268 208.061 4.87268 207.731V185.908Z" fill="#373A36"/>
<path d="M38.234 195.798C39.982 195.798 41.498 194.282 41.498 192.436C41.498 190.687 39.982 189.238 38.234 189.238H32.8607V195.798H38.234ZM28.542 185.908C28.542 185.578 28.806 185.282 29.1673 185.282H38.5953C42.5527 185.282 45.7833 188.446 45.7833 192.37C45.7833 195.403 43.7727 197.875 40.9047 199.028L45.4207 207.403C45.6513 207.831 45.4207 208.358 44.8607 208.358H41.3993C41.102 208.358 40.938 208.194 40.8727 208.062L36.486 199.326H32.8273V207.732C32.8273 208.062 32.5313 208.358 32.2007 208.358H29.1673C28.806 208.358 28.542 208.062 28.542 207.732V185.908Z" fill="#373A36"/>
<path d="M64.8361 204.402C68.9895 204.402 72.4188 201.007 72.4188 196.852C72.4188 192.699 68.9895 189.238 64.8361 189.238C60.6828 189.238 57.2868 192.699 57.2868 196.852C57.2868 201.007 60.6828 204.402 64.8361 204.402ZM64.8361 184.952C71.4295 184.952 76.7041 190.26 76.7041 196.852C76.7041 203.446 71.4295 208.687 64.8361 208.687C58.2428 208.687 53.0015 203.446 53.0015 196.852C53.0015 190.26 58.2428 184.952 64.8361 184.952Z" fill="#373A36"/>
<path d="M83.8239 205.127L85.0105 203.084C85.2745 202.621 85.8345 202.621 86.1319 202.853C86.2959 202.951 88.9652 204.896 91.1092 204.896C92.8239 204.896 94.1092 203.775 94.1092 202.359C94.1092 200.676 92.6919 199.524 89.9225 198.403C86.8239 197.149 83.7239 195.171 83.7239 191.281C83.7239 188.347 85.9012 184.951 91.1425 184.951C94.5052 184.951 97.0759 186.664 97.7359 187.16C98.0652 187.359 98.1639 187.92 97.9345 188.249L96.6812 190.127C96.4159 190.523 95.9225 190.785 95.5265 190.523C95.2625 190.359 92.7572 188.709 90.9439 188.709C89.0665 188.709 88.0439 189.963 88.0439 191.019C88.0439 192.567 89.2639 193.621 91.9345 194.711C95.1305 195.995 98.8239 197.908 98.8239 202.159C98.8239 205.555 95.8892 208.688 91.2412 208.688C87.0879 208.688 84.6479 206.743 83.9892 206.116C83.6905 205.821 83.5265 205.655 83.8239 205.127Z" fill="#373A36"/>
<path d="M115.306 195.963C117.152 195.963 118.701 194.48 118.701 192.535C118.701 190.72 117.152 189.336 115.306 189.336H111.481V195.963H115.306ZM107.196 185.908C107.196 185.577 107.458 185.28 107.822 185.28H115.569C119.624 185.28 122.953 188.579 122.953 192.567C122.953 196.656 119.624 199.985 115.602 199.985H111.481V207.731C111.481 208.061 111.184 208.359 110.854 208.359H107.822C107.458 208.359 107.196 208.061 107.196 207.731V185.908Z" fill="#373A36"/>
<path d="M130.863 185.908C130.863 185.577 131.127 185.281 131.49 185.281H144.907C145.271 185.281 145.535 185.577 145.535 185.908V188.611C145.535 188.941 145.271 189.237 144.907 189.237H135.15V194.644H143.293C143.621 194.644 143.918 194.94 143.918 195.271V198.007C143.918 198.369 143.621 198.633 143.293 198.633H135.15V204.401H144.907C145.271 204.401 145.535 204.699 145.535 205.028V207.732C145.535 208.061 145.271 208.357 144.907 208.357H131.49C131.127 208.357 130.863 208.061 130.863 207.732V185.908Z" fill="#373A36"/>
<path d="M164.093 195.798C165.842 195.798 167.357 194.282 167.357 192.436C167.357 190.687 165.842 189.238 164.093 189.238H158.721V195.798H164.093ZM154.401 185.908C154.401 185.578 154.666 185.282 155.026 185.282H164.454C168.411 185.282 171.642 188.446 171.642 192.37C171.642 195.403 169.631 197.875 166.765 199.028L171.281 207.403C171.51 207.831 171.281 208.358 170.721 208.358H167.258C166.961 208.358 166.797 208.194 166.731 208.062L162.345 199.326H158.686V207.732C158.686 208.062 158.391 208.358 158.061 208.358H155.026C154.666 208.358 154.401 208.062 154.401 207.732V185.908Z" fill="#373A36"/>
<path d="M12.3231 229.687C15.5538 229.687 18.2911 227.016 18.2911 223.687C18.2911 220.456 15.5538 217.884 12.2911 217.884H6.42311V229.687H12.3231ZM4.87378 216.765C4.87378 216.533 5.07245 216.335 5.30178 216.335H12.3898C16.4778 216.335 19.8404 219.664 19.8404 223.719C19.8404 227.84 16.4778 231.204 12.4218 231.204H6.42311V238.985C6.42311 239.215 6.22578 239.413 5.89511 239.413H5.30178C5.07245 239.413 4.87378 239.215 4.87378 238.985V216.765Z" fill="#373A36"/>
<path d="M34.6742 238.292C40.4422 238.292 45.1248 233.676 45.1248 227.907C45.1248 222.139 40.4422 217.458 34.6742 217.458C28.9048 217.458 24.2568 222.139 24.2568 227.907C24.2568 233.676 28.9048 238.292 34.6742 238.292ZM34.6742 216.006C41.2995 216.006 46.5742 221.315 46.5742 227.907C46.5742 234.534 41.2995 239.743 34.6742 239.743C28.0808 239.743 22.8062 234.534 22.8062 227.907C22.8062 221.315 28.0808 216.006 34.6742 216.006Z" fill="#373A36"/>
<path d="M60.4526 229.127C63.6179 229.127 66.2873 226.655 66.2873 223.391C66.2873 220.259 63.6179 217.852 60.4193 217.852H53.4966V229.127H60.4526ZM51.9139 216.765C51.9139 216.533 52.0793 216.336 52.3433 216.336H60.5179C64.5406 216.336 67.8699 219.368 67.8699 223.391C67.8699 226.72 65.5633 229.391 62.4299 230.28L67.2446 238.819C67.4086 239.083 67.3433 239.412 67.0139 239.412H65.9913C65.7593 239.412 65.6286 239.313 65.5299 239.116L60.7499 230.479C60.3206 230.512 59.9579 230.512 59.5299 230.512H53.4646V238.984C53.4646 239.215 53.2659 239.412 52.9366 239.412H52.3433C52.1113 239.412 51.9139 239.215 51.9139 238.984V216.765Z" fill="#373A36"/>
<path d="M76.7378 217.753H70.4405C70.1111 217.753 70.0125 217.556 70.0125 217.258V216.765C70.0125 216.501 70.2098 216.336 70.4405 216.336H84.6165C84.8791 216.336 85.0458 216.533 85.0458 216.765V217.325C85.0458 217.556 84.8791 217.753 84.6165 217.753H78.2871V238.984C78.2871 239.214 78.0898 239.413 77.7605 239.413H77.1658C76.9351 239.413 76.7378 239.214 76.7378 238.984V217.753Z" fill="#373A36"/>
<path d="M88.801 216.765C88.801 216.533 88.9997 216.336 89.2304 216.336H89.9544C90.1544 216.336 90.3517 216.533 90.3517 216.765V238.029H100.868C101.262 238.029 101.296 238.226 101.296 238.457V239.05C101.296 239.281 101.098 239.413 100.868 239.413H89.2304C88.9997 239.413 88.801 239.214 88.801 238.985V216.765Z" fill="#373A36"/>
<path d="M118.965 231.764L113.326 218.478H113.261L107.525 231.764H118.965ZM102.68 239.017L112.833 216.072C112.9 215.941 113.064 215.842 113.229 215.842H113.326C113.492 215.842 113.658 215.874 113.757 216.072L123.81 239.017C123.877 239.216 123.877 239.412 123.514 239.412H122.657C122.426 239.412 122.262 239.248 122.196 239.117L119.525 233.05H106.932L104.296 239.117C104.229 239.248 104.065 239.412 103.833 239.412H102.909C102.68 239.412 102.58 239.282 102.68 239.017Z" fill="#373A36"/>
<path d="M127.503 216.434C127.503 216.171 127.733 216.006 127.997 216.006H128.557L144.381 236.61H144.415V216.765C144.415 216.533 144.613 216.335 144.844 216.335H145.503C145.733 216.335 145.932 216.533 145.932 216.765V239.314C145.932 239.61 145.668 239.742 145.404 239.742H144.975C144.943 239.742 144.679 239.643 129.02 218.941H128.987V238.985C128.987 239.214 128.789 239.413 128.557 239.413H127.932C127.7 239.413 127.503 239.214 127.503 238.985V216.434Z" fill="#373A36"/>
<path d="M160.039 237.995C165.809 237.995 170.259 233.611 170.259 227.841C170.259 222.138 165.809 217.753 160.039 217.753H154.469V237.995H160.039ZM152.918 216.765C152.918 216.533 153.117 216.335 153.314 216.335H160.303C166.698 216.335 171.907 221.511 171.907 227.841C171.907 234.27 166.698 239.413 160.303 239.413H153.314C153.117 239.413 152.918 239.215 152.918 238.985V216.765Z" fill="#373A36"/>
<path d="M118.213 104.295L123.619 103.695L114.61 95.6235L112.055 93.3848L111.51 93.7715L105.731 97.9568C106.537 100.277 107.333 102.601 108.151 104.915L108.307 105.359L111.11 105.07L118.213 104.295Z" fill="#E8503E"/>
<path d="M93.6148 118.437L94.9548 115.317L94.4188 114.917L88.6841 110.738C86.7481 112.206 84.8055 113.663 82.8748 115.143L82.4841 115.442L83.6175 117.999L86.5508 124.518L88.7615 129.409L93.6148 118.437Z" fill="#6BC04B"/>
<path d="M69.1174 105.236L71.3134 98.5116C69.2908 97.1023 67.2761 95.685 65.2441 94.2903L64.8401 94.0103L62.7574 95.877L57.4641 100.681L53.4294 104.356L65.5494 105.6L68.8921 105.905L69.1174 105.236Z" fill="#ECAA00"/>
<path d="M165.292 74.3131C162.528 82.9078 159.842 91.5277 157.162 100.149L153.734 100.489L146.625 101.194C141.885 101.646 137.153 102.216 132.417 102.72L130.692 102.912C130 102.352 129.3 101.801 128.609 101.24L117.534 92.2024L114.792 89.9118L114.621 89.7691L114.301 89.5158C113.973 89.2838 113.629 89.1211 113.289 89.0131C112.605 88.8011 111.929 88.7784 111.234 88.9411C110.888 89.0251 110.536 89.1598 110.193 89.3691L109.946 89.5331L109.857 89.5998L109.678 89.7331L108.961 90.2664L104.25 93.7011C103.012 90.0984 101.785 86.4931 100.566 82.8838C102.293 82.9224 104.02 82.9451 105.746 82.9904L107.542 83.0331L107.77 83.0304C107.888 83.0264 108.005 83.0184 108.114 83.0037C108.34 82.9771 108.552 82.9304 108.756 82.8717C109.164 82.7544 109.525 82.5837 109.854 82.3757C110.508 81.9531 111.058 81.3918 111.444 80.5904C111.538 80.3878 111.621 80.1758 111.682 79.9451L111.761 79.6557L111.874 79.2211L112.105 78.3518L112.566 76.6131L114.444 69.6678L117.569 58.1931C123.896 54.5917 130.245 51.0291 136.573 47.4291L139.604 45.7158L144.484 49.4371C148.273 52.3211 152.048 55.2278 155.876 58.0584L167.337 66.5851L167.717 66.8638L167.501 67.5211L165.292 74.3131ZM148.885 126.777L146.841 132.637C145.274 137.137 143.684 141.628 142.181 146.149L137.633 159.697L137.498 160.108L136.784 160.104L129.638 160.09C120.605 160.104 111.572 160.198 102.538 160.301L101.153 157.138L98.2838 150.593C96.3891 146.222 94.3852 141.897 92.4412 137.545L91.6905 135.886C91.9958 135.089 92.2918 134.285 92.5972 133.488L97.7718 120.162L99.1025 116.846L99.1865 116.64L99.3278 116.257C99.4492 115.873 99.4958 115.497 99.4932 115.14C99.4838 114.424 99.2958 113.773 98.9278 113.162C98.7398 112.858 98.5025 112.565 98.1998 112.305L97.9665 112.12L97.8745 112.056L97.6931 111.926L96.9638 111.41L92.2745 108.014C95.3478 105.701 98.4265 103.397 101.512 101.102C102.058 102.914 102.618 104.724 103.156 106.54L103.41 107.396L103.538 107.822L103.57 107.929L103.685 108.244C103.772 108.452 103.873 108.65 103.985 108.83C104.44 109.553 105.024 110.057 105.717 110.409C106.066 110.584 106.448 110.718 106.87 110.794C107.08 110.834 107.304 110.856 107.532 110.86L107.986 110.844L111.553 110.646L118.689 110.289L130.27 109.733C135.642 114.632 140.986 119.562 146.357 124.46L148.885 126.777ZM149.898 127.706C149.92 127.729 149.818 127.644 149.789 127.612C149.773 127.597 149.766 127.586 149.752 127.573L149.816 127.63L149.898 127.706ZM75.9998 157.542L74.5772 160.662L68.3732 160.529C63.6092 160.43 58.8465 160.305 54.0825 160.273L39.7918 160.134L39.3598 160.132L39.1425 159.452L36.9478 152.653C34.1438 144.065 31.2611 135.504 28.3731 126.944L30.9518 124.648L36.2918 119.897C39.8625 116.745 43.3572 113.502 46.8945 110.309L48.1625 109.153C49.0838 109.2 50.0065 109.234 50.9278 109.285L65.1932 110.086L68.7572 110.328C68.8198 110.35 69.9505 110.422 70.5492 110.138C71.2145 109.892 71.7691 109.505 72.2265 108.949C72.4531 108.67 72.6518 108.342 72.7958 107.965C72.8878 107.72 72.8758 107.732 72.9065 107.641L72.9732 107.428L73.2385 106.574L75.0145 101.084C78.1452 103.278 81.2678 105.482 84.3865 107.696C82.8532 108.76 81.3278 109.836 79.7892 110.893L79.0532 111.401L78.6852 111.654C78.6252 111.698 78.5972 111.708 78.3652 111.893C78.1878 112.038 78.0265 112.194 77.8878 112.356C77.3265 113.008 77.0212 113.718 76.8905 114.482C76.8265 114.868 76.8105 115.269 76.8612 115.693C76.8865 115.905 76.9305 116.122 76.9932 116.341L77.1065 116.672L77.1598 116.812L78.4505 120.144L80.9972 126.824L85.0785 137.597C82.0665 144.252 79.0132 150.889 75.9998 157.542V157.542ZM37.4252 160.125H37.4318H37.3918C37.3558 160.126 37.3598 160.125 37.4252 160.125ZM69.1172 105.236L68.8918 105.905L65.5492 105.6L53.4305 104.356L57.4638 100.681L62.7572 95.8771L64.8398 94.0091L65.2438 94.2891C67.2758 95.6851 69.2918 97.1024 71.3145 98.5104L69.1172 105.236ZM19.4732 100.537L17.7118 94.6584C16.3412 90.0971 14.9958 85.5291 13.5625 80.9877L9.30249 67.3518L9.15849 66.9038L9.72115 66.4998L15.4998 62.3024C22.7878 56.9744 30.0265 51.5784 37.2625 46.1784L40.2358 47.9184L46.4025 51.5264C50.5025 53.9477 54.6652 56.2691 58.7932 58.6451L59.5078 59.0518C59.7598 59.8971 60.0225 60.7398 60.2718 61.5864L64.3145 75.3944L65.2865 78.8571L65.5292 79.7224C65.5318 79.7344 65.6198 80.0451 65.6865 80.1944C65.7625 80.3771 65.8492 80.5438 65.9452 80.7024C66.1372 81.0184 66.3625 81.2824 66.6105 81.5118C67.1105 81.9664 67.6945 82.3051 68.4372 82.4624C68.6225 82.5011 68.8158 82.5278 69.0198 82.5344L69.3358 82.5358L69.7852 82.5304L76.2718 82.5211C75.1518 86.1797 74.0198 89.8358 72.8785 93.4878C71.3638 92.3371 69.8412 91.1984 68.3318 90.0397L67.6225 89.4971L67.2665 89.2264C67.2065 89.1824 67.1892 89.1584 66.9412 88.9958C66.7492 88.8718 66.5505 88.7664 66.3545 88.6838C65.5598 88.3518 64.7905 88.2811 64.0225 88.3931C63.6371 88.4504 63.2505 88.5598 62.8625 88.7384C62.6692 88.8291 62.4758 88.9384 62.2878 89.0651L62.0078 89.2744L61.8918 89.3691L59.1212 91.6264L53.5545 96.1117L44.4985 103.38C37.3092 102.578 30.1225 101.734 22.9318 100.932L19.4732 100.537ZM63.7478 25.8158C67.7478 23.1691 71.7625 20.5424 75.7225 17.8411L87.6305 9.77042L88.3318 9.28909L88.7265 9.5771L94.5412 13.8091C101.914 19.1344 109.334 24.3958 116.758 29.6504L116.01 33.0651L114.473 40.0931C113.43 44.7744 112.501 49.4811 111.509 54.1744L111.194 55.6984C110.466 56.1718 109.744 56.6558 109.014 57.1278L97.0025 64.8651L93.9785 66.7637C93.9132 66.7824 92.9571 67.3878 92.6385 67.9718C92.2451 68.5624 92.0238 69.2011 91.9812 69.9184C91.9625 70.2771 91.9932 70.6584 92.0972 71.0491C92.1692 71.3011 92.1718 71.2851 92.1998 71.3771L92.2718 71.5891L92.5572 72.4344L94.3652 77.9704C90.5238 78.0371 86.6812 78.0917 82.8398 78.1357C83.4652 76.3424 84.0772 74.5451 84.7105 72.7544L85.0078 71.9117L85.1558 71.4904L85.1932 71.3851L85.2852 71.0638C85.3372 70.8438 85.3718 70.6237 85.3865 70.4131C85.4425 69.5611 85.2665 68.8104 84.9132 68.1184C84.7345 67.7717 84.5038 67.4384 84.2078 67.1278C84.0612 66.9731 83.8918 66.8238 83.7092 66.6864L83.3332 66.4317L80.3318 64.4958L74.3492 60.5891L63.6972 53.6051C62.0265 46.4798 60.3971 39.3424 58.7265 32.2158L58.1078 29.5438L63.7478 25.8158ZM96.3172 69.9304C96.3185 69.9331 96.3172 69.9344 96.3185 69.9384C96.3052 69.8958 96.2972 69.8691 96.3172 69.9304ZM69.2225 78.1904L69.1678 78.1891L69.2038 78.1877C69.2105 78.1891 69.2145 78.1904 69.2225 78.1904ZM76.9785 78.2077L69.7852 78.1971L69.6758 78.1958L69.5532 77.7131L68.6625 74.2291L65.8452 62.6611L71.2105 65.7184L77.4118 69.2678L79.8492 70.6798L79.7145 71.1304C79.0158 73.4918 78.2918 75.8438 77.5785 78.2011C77.3772 78.2024 77.1785 78.2051 76.9785 78.2077V78.2077ZM88.2305 105.022C84.3451 102.134 80.4718 99.2317 76.6078 96.3157C78.1532 91.7304 79.7172 87.1478 81.2958 82.5718C86.1585 82.6251 91.0212 82.6998 95.8852 82.7878C97.3252 87.3931 98.7491 92.0038 100.157 96.6198C96.1918 99.4358 92.2158 102.236 88.2305 105.022V105.022ZM86.5505 124.518L83.6185 118L82.4852 115.442L82.8758 115.144C84.8038 113.664 86.7478 112.205 88.6838 110.737L94.4172 114.917L94.9545 115.316L93.6158 118.437L88.7625 129.409L86.5505 124.518ZM112.054 93.3851L114.609 95.6224L123.618 103.696L118.213 104.296L111.109 105.069L108.308 105.36L108.152 104.916C107.332 102.601 106.537 100.277 105.73 97.9571L111.509 93.7718L112.054 93.3851ZM107.125 75.3118L106.748 77.0691L106.609 77.7171L105.746 77.7371C103.454 77.7971 101.162 77.8304 98.8718 77.8771L96.6798 71.0944L96.4691 70.4211L99.3505 68.7038L109.754 62.6638L108.596 68.2678L107.125 75.3118ZM176.677 64.2984C176.413 63.3571 175.97 62.4691 175.142 61.6131C174.937 61.4024 174.688 61.1891 174.436 61.0037L174.254 60.8731L173.893 60.6118L172.444 59.5678L160.805 51.2851C156.934 48.5117 153.009 45.8131 149.097 43.0944L143.23 39.0211L142.964 38.8371C142.728 38.6758 142.498 38.5504 142.269 38.4398C141.814 38.2251 141.385 38.0984 140.966 38.0144C140.128 37.8558 139.336 37.8718 138.457 38.0864C138.021 38.1971 137.556 38.3691 137.069 38.6544L136.616 38.9478L135.87 39.4398L132.888 41.4078C128.51 44.2824 124.146 47.1784 119.777 50.0678C120.52 47.3438 121.26 44.6184 121.958 41.8851L123.769 34.9224L124.674 31.4424L124.901 30.5718L125.014 30.1371L125.042 30.0278L125.104 29.7518C125.165 29.4518 125.193 29.1771 125.208 28.9104C125.246 27.8438 125.038 27.0078 124.692 26.1918C124.325 25.3891 123.818 24.5798 122.82 23.8264C115.128 18.0984 107.43 12.3758 99.6852 6.72509L93.8598 2.5051L92.4012 1.45442L92.0358 1.19308L91.9452 1.12642L91.5758 0.881093C91.3092 0.718427 91.0385 0.581083 90.7798 0.474416C89.7305 0.0450827 88.7865 -0.0562487 87.8132 0.0264179C87.3252 0.0717513 86.8278 0.171753 86.3078 0.357086C86.0438 0.453086 85.7812 0.566428 85.5105 0.711761C85.2705 0.833095 84.8625 1.11309 84.8972 1.09176L84.1598 1.60642L82.6865 2.63709L70.9505 10.9558C67.0305 13.7171 63.1625 16.5544 59.2812 19.3691L53.4598 23.5971L52.6798 24.1651C51.7345 24.8664 51.2532 25.6518 50.9092 26.4438C50.5865 27.2424 50.4118 28.0904 50.5065 29.1224C50.5332 29.3811 50.5812 29.6518 50.6545 29.9304L50.7265 30.1718L50.8585 30.6024L51.9078 34.0437C53.3998 38.9811 54.9172 43.9131 56.4278 48.8464C54.4318 47.5384 52.4332 46.2371 50.4185 44.9611L44.3998 41.1144L41.3905 39.1904L40.6372 38.7091L40.2612 38.4691C40.3118 38.4877 39.5852 38.0464 39.1265 37.8998C38.1372 37.5438 37.2825 37.4864 36.4038 37.5664C35.5332 37.6691 34.6118 37.9038 33.5945 38.6158C25.8265 44.1251 18.0612 49.6384 10.3478 55.2251L4.57848 59.4331L3.13849 60.4904L2.32915 61.0891C1.29315 61.9024 0.759819 62.8024 0.402485 63.7131C0.0624852 64.6291 -0.100179 65.6078 0.065154 66.7878C0.107821 67.0784 0.183815 67.3971 0.279815 67.6958L0.349151 67.9078L0.487823 68.3318L1.04515 70.0278L5.59315 83.5704C7.09582 88.0891 8.68515 92.5784 10.2505 97.0771L12.6038 103.822L12.7105 104.126C12.8078 104.396 12.9185 104.633 13.0398 104.857C13.2825 105.298 13.5532 105.653 13.8452 105.966C14.4292 106.589 15.0798 107.041 15.9158 107.384C16.3332 107.55 16.8118 107.685 17.3718 107.74L17.9118 107.77L18.8038 107.81L22.3731 107.97C27.5558 108.216 32.7398 108.434 37.9238 108.664C35.7012 110.446 33.4812 112.232 31.2878 114.048L25.7665 118.586L23.0065 120.854L22.3171 121.422L21.9718 121.705C22.0038 121.665 21.3598 122.217 21.0798 122.608C20.4358 123.44 20.1172 124.233 19.9212 125.092C19.7478 125.95 19.6852 126.898 20.0452 128.086C22.8732 137.185 25.7038 146.282 28.6198 155.352L30.8292 162.146L31.3865 163.842L31.6691 164.702C32.0985 165.962 32.7905 166.781 33.5385 167.417C34.3012 168.036 35.1705 168.505 36.3252 168.73C36.6212 168.782 36.9252 168.817 37.2545 168.822L37.5665 168.824L38.0132 168.822L39.7985 168.813L54.0892 168.65C58.8532 168.61 63.6158 168.478 68.3798 168.372L75.5238 168.206L75.7478 168.202C75.8945 168.201 76.2785 168.182 76.4985 168.144C77.0105 168.065 77.4505 167.926 77.8492 167.757C78.6385 167.409 79.2785 166.95 79.8718 166.29C80.1652 165.957 80.4452 165.568 80.6825 165.082L80.8332 164.746L80.8718 164.641L80.9505 164.432L81.2638 163.596L82.5198 160.249C84.3812 155.326 86.2185 150.396 88.0638 145.465C89.0865 148.164 90.1105 150.862 91.1745 153.544L93.7851 160.197L95.0892 163.522L95.4158 164.354L95.5785 164.77C95.5492 164.726 95.8745 165.509 96.1612 165.897C96.7532 166.766 97.4092 167.314 98.1652 167.766C98.9292 168.197 99.8105 168.549 101.052 168.573C110.578 168.697 120.105 168.814 129.632 168.844L136.777 168.842L138.564 168.837L139.466 168.833C140.797 168.814 141.79 168.41 142.625 167.897C143.452 167.361 144.165 166.68 144.736 165.65C144.876 165.386 145.005 165.108 145.112 164.797L145.209 164.5L145.346 164.073L145.889 162.372L150.15 148.73C151.585 144.189 152.93 139.617 154.301 135.054L156.353 128.208L156.417 127.994C156.461 127.854 156.564 127.484 156.593 127.261C156.677 126.752 156.681 126.289 156.642 125.858C156.556 125 156.317 124.249 155.874 123.481C155.648 123.1 155.364 122.713 154.974 122.336L154.701 122.09L154.614 122.02L154.44 121.881L153.74 121.324L150.945 119.096C146.869 115.828 142.774 112.58 138.686 109.325C141.537 109.189 144.388 109.049 147.234 108.868L154.365 108.442L157.93 108.229L158.822 108.176L159.268 108.149C159.217 108.164 160.064 108.094 160.52 107.944C161.53 107.649 162.256 107.193 162.92 106.613C163.564 106.018 164.172 105.286 164.576 104.113C167.622 95.0891 170.664 86.0638 173.62 77.0118L175.814 70.2144L176.357 68.5144L176.661 67.5544C177.02 66.2864 176.922 65.2451 176.677 64.2984Z" fill="#373A36"/>
</svg>
