<svg width="582" height="260" viewBox="0 0 582 260" fill="none" xmlns="http://www.w3.org/2000/svg">
<g clip-path="url(#clip0)">
<path fill-rule="evenodd" clip-rule="evenodd" d="M78.353 124.268C96.501 124.268 111.363 108.712 111.363 89.527C111.363 69.998 96.326 54.267 77.835 54.267C60.204 54.267 45.86 69.998 45.86 89.355C45.86 108.541 60.376 124.268 78.353 124.268ZM42.056 55.134H34.627C36.351 53.925 37.392 53.058 38.601 51.675H46.205V71.898C51.91 59.108 63.835 50.467 77.835 50.467C98.748 50.467 115.686 68.095 115.686 89.527C115.686 110.959 98.919 128.072 78.18 128.072C64.18 128.072 51.734 120.64 46.205 106.812V153.478C46.205 158.317 46.376 166.438 46.897 171.626H41.365C41.884 166.438 42.056 158.317 42.056 153.478V55.134Z" fill="#9A452C"/>
<path fill-rule="evenodd" clip-rule="evenodd" d="M162.188 124.443C177.398 124.443 185.174 110.959 185.174 98.513V69.652C185.174 64.985 185 56.69 184.655 51.675H189.842C189.495 56.69 189.321 64.985 189.321 69.652V110.44C189.321 117.871 190.185 122.886 191.741 126.861H187.767C186.383 124.095 185.174 119.774 185.174 113.728C181.889 120.982 174.458 128.244 162.188 128.244C147.496 128.244 136.09 118.22 136.09 98.862V55.134H128.657C130.385 54.097 131.594 53.058 132.807 51.675H140.582C140.409 56.69 140.239 64.985 140.239 69.824V98.862C140.239 116.145 150.433 124.443 162.188 124.443Z" fill="#9A452C"/>
<path fill-rule="evenodd" clip-rule="evenodd" d="M251.028 124.268C269.175 124.268 284.04 108.541 284.04 89.355C284.04 69.998 268.832 54.267 250.854 54.267C232.708 54.267 218.361 69.998 218.361 89.355C218.361 108.541 233.053 124.268 251.028 124.268ZM214.733 3.455H207.3C208.509 2.593 210.065 1.209 211.274 0H219.398C219.054 3.114 218.882 11.235 218.882 18.148V72.072C224.758 57.552 238.754 50.467 250.854 50.467C271.596 50.467 288.361 67.751 288.361 89.184C288.361 110.787 271.596 128.072 251.028 128.072C238.066 128.072 224.928 120.982 218.882 106.983C218.882 111.304 219.054 123.057 219.398 126.861H214.214C214.733 121.503 214.733 113.033 214.733 108.712V3.455Z" fill="#9A452C"/>
<path fill-rule="evenodd" clip-rule="evenodd" d="M312.569 108.712C312.569 115.106 312.74 122.886 313.086 126.861H307.901C308.248 122.886 308.42 114.765 308.42 108.712V3.455H300.987C302.715 2.246 303.752 1.209 304.789 0H313.086C312.74 4.146 312.569 12.444 312.569 18.148V108.712Z" fill="#9A452C"/>
<path fill-rule="evenodd" clip-rule="evenodd" d="M340.743 25.406C342.818 25.406 344.198 26.788 344.198 28.863C344.198 30.762 342.818 32.147 340.743 32.147C338.839 32.147 337.46 30.762 337.46 28.863C337.46 26.788 338.839 25.406 340.743 25.406ZM343.161 108.541C343.161 115.106 343.333 123.4 343.68 126.861H338.497C338.839 123.057 339.012 114.765 339.012 108.541V55.135H331.583C333.14 54.097 334.348 53.058 335.729 51.676H343.68C343.333 55.653 343.161 63.258 343.161 69.653V108.541Z" fill="#9A452C"/>
<path fill-rule="evenodd" clip-rule="evenodd" d="M400.372 124.268C409.014 124.268 414.028 123.576 419.037 119.947V125.824C412.991 126.688 408.149 128.072 400.2 128.072C379.806 128.072 363.213 110.959 363.213 89.527C363.213 67.925 379.806 50.467 400.2 50.467C408.67 50.467 412.644 52.198 418.696 52.717V58.763C413.682 55.481 408.495 54.267 400.372 54.267C382.052 54.267 367.531 70.169 367.531 89.527C367.531 108.712 382.398 124.268 400.372 124.268Z" fill="#9A452C"/>
<path fill-rule="evenodd" clip-rule="evenodd" d="M523.106 121.164C522.762 125.486 522.59 130.5 522.59 136.374V139.833H544.191V143.288H522.59V193.411C522.59 207.76 528.465 212.597 535.551 212.597C538.142 212.597 540.392 211.907 541.774 210.522V215.881C539.871 215.881 536.933 216.397 535.207 216.397C526.045 216.397 518.441 211.213 518.441 193.932V143.288H505.477V139.833H518.441V136.374C518.441 130.5 518.268 125.486 517.922 121.164H523.106ZM490.605 196.868C490.605 203.262 490.951 211.56 491.125 215.015H485.942C486.287 211.213 486.461 203.09 486.461 196.868V143.288H452.064V196.868C452.064 202.569 452.236 210.866 452.411 215.015H447.572C447.746 210.866 447.915 202.569 447.915 196.868V143.288H435.644V139.833H447.915V121.337C447.915 96.277 462.262 86.771 474.705 86.771C484.037 86.771 487.672 90.573 490.437 91.268V97.832C486.978 93.857 482.31 90.573 474.534 90.573C463.645 90.573 452.064 99.217 452.064 121.164V139.833H491.125C490.951 143.807 490.605 149.512 490.605 155.903V196.868ZM387.242 212.422C405.737 212.422 420.772 196.694 420.772 177.511C420.772 158.155 405.737 142.425 387.242 142.425C368.75 142.425 353.885 158.155 353.885 177.511C353.885 196.868 368.75 212.422 387.242 212.422ZM387.242 138.622C408.155 138.622 425.095 155.903 425.095 177.511C425.095 198.94 408.155 216.228 387.242 216.228C366.5 216.228 349.566 198.94 349.566 177.511C349.566 156.079 366.5 138.622 387.242 138.622ZM343.51 139.659V145.016C340.4 142.946 336.77 142.425 332.796 142.425C323.463 142.425 312.916 154.522 312.916 169.56V196.868C312.916 202.919 313.092 208.969 313.437 215.015H308.252C308.6 208.969 308.774 202.919 308.774 196.868V143.288H301.514C303.241 142.079 304.278 141.216 305.315 139.833H312.916V157.463C315.685 145.71 324.673 138.622 332.796 138.622C338.152 138.622 340.919 139.659 343.51 139.659ZM250.69 212.422C268.835 212.422 283.701 196.868 283.701 177.681C283.701 158.155 268.664 142.425 250.168 142.425C232.54 142.425 218.193 158.155 218.193 177.511C218.193 196.694 232.713 212.422 250.69 212.422ZM214.392 143.288H206.959C208.688 142.079 209.724 141.216 210.935 139.833H218.541V160.052C224.244 147.262 236.168 138.622 250.168 138.622C271.082 138.622 288.021 156.252 288.021 177.681C288.021 199.116 271.255 216.228 250.515 216.228C236.516 216.228 224.07 208.791 218.541 194.968V241.634C218.541 246.471 218.714 254.598 219.229 259.78H213.699C214.22 254.598 214.392 246.471 214.392 241.634V143.288Z" fill="#9A452C"/>
<path fill-rule="evenodd" clip-rule="evenodd" d="M529.59 81.766V84.628H579.024V251.461H529.59V254.323H581.889V81.766H529.59Z" fill="#7A8C38"/>
<mask id="mask0" mask-type="alpha" maskUnits="userSpaceOnUse" x="0" y="10" width="53" height="190">
<path d="M0.0600586 10.205H52.2971V199.942H0.0600586V10.205Z" fill="white"/>
</mask>
<g mask="url(#mask0)">
<path fill-rule="evenodd" clip-rule="evenodd" d="M0 10.205V199.942H52.297V197.078H2.8638V13.067H52.297V10.205H0Z" fill="#7A8C38"/>
</g>
</g>
<defs>
<clipPath id="clip0">
<rect width="582" height="260" fill="white"/>
</clipPath>
</defs>
</svg>
