<svg width="130" height="39" viewBox="0 0 130 39" fill="none" xmlns="http://www.w3.org/2000/svg">
<g clip-path="url(#clip0)">
<path d="M51.6 25.6C51.6 25.5 51.7 25.4 51.8 25.4H54.5C56 25.4 57.2 26.6 57.2 28.1C57.2 29.6 56 30.8 54.5 30.8H52.8V33.6C52.8 33.7 52.7 33.8 52.6 33.8H51.8C51.7 33.8 51.6 33.7 51.6 33.6V25.6ZM54.5 29.5C55.3 29.5 56 28.8 56 28C56 27.2 55.3 26.5 54.5 26.6H52.9V29.6L54.5 29.5Z" fill="#3777BB"/>
<path d="M60 33.4L63.7 25.3C63.7 25.2 63.8 25.2 63.9 25.2H64C64.1 25.2 64.2 25.3 64.2 25.3L67.9 33.4C68 33.5 67.9 33.6 67.8 33.7H67.7H66.9C66.8 33.7 66.7 33.6 66.6 33.5L65.8 31.9H62C61.8 32.4 61.5 33 61.3 33.5C61.2 33.6 61.1 33.7 61 33.7H60.2C60.1 33.7 60 33.6 60 33.4C60 33.4 60 33.5 60 33.4ZM65.4 30.9L64 27.6H63.9L62.4 30.9H65.4Z" fill="#3777BB"/>
<path d="M71.9 25.6C71.9 25.5 72 25.4 72.1 25.4H75.4C76.8 25.4 78 26.5 78 27.9C78 27.9 78 27.9 78 28C78 29.1 77.3 30.1 76.2 30.4L77.8 33.4C77.9 33.5 77.8 33.6 77.7 33.7H77.6H76.7C76.6 33.7 76.5 33.7 76.5 33.6L74.9 30.4H73V33.5C73 33.6 72.9 33.7 72.8 33.7H72C71.9 33.7 71.8 33.6 71.8 33.5L71.9 25.6ZM75.2 29.4C76 29.4 76.7 28.7 76.7 27.9C76.7 27.1 76 26.5 75.2 26.5H73.1V29.4H75.2Z" fill="#3777BB"/>
<path d="M84 26.5H82C81.9 26.5 81.8 26.4 81.8 26.3V25.6C81.8 25.5 81.9 25.4 82 25.4H87.2C87.3 25.4 87.4 25.5 87.4 25.6V26.3C87.4 26.4 87.3 26.5 87.2 26.5H85.2V33.5C85.2 33.6 85.1 33.7 85 33.7H84.2C84.1 33.7 84.1 33.6 84.1 33.5V26.5H84Z" fill="#3777BB"/>
<path d="M91.9 25.4C91.9 25.3 92 25.2 92.1 25.2H92.4L97.6 31.2V25.5C97.6 25.4 97.7 25.3 97.8 25.3H98.6C98.7 25.3 98.8 25.4 98.8 25.5V33.6C98.8 33.7 98.7 33.8 98.6 33.8H98.3L93.1 27.6V33.4C93.1 33.5 93 33.6 92.9 33.6H92.1C92 33.6 91.9 33.5 91.9 33.4V25.4Z" fill="#3777BB"/>
<path d="M104.1 25.6C104.1 25.5 104.2 25.4 104.3 25.4H109.1C109.2 25.4 109.3 25.5 109.3 25.6V26.3C109.3 26.4 109.2 26.5 109.1 26.5H105.3V28.9H108.5C108.6 28.9 108.7 29 108.7 29.1V29.8C108.7 29.9 108.6 30 108.5 30H105.3V32.6H109.1C109.2 32.6 109.3 32.7 109.3 32.8V33.5C109.3 33.6 109.2 33.7 109.1 33.7H104.3C104.2 33.7 104.1 33.6 104.1 33.5V25.6Z" fill="#3777BB"/>
<path d="M114.3 25.6C114.3 25.5 114.4 25.4 114.5 25.4H117.8C119.2 25.4 120.4 26.5 120.4 27.9C120.4 29 119.7 30 118.6 30.3L120.2 33.3C120.3 33.4 120.2 33.5 120.1 33.6H120H119.1C119 33.6 118.9 33.6 118.9 33.5L117.3 30.3H115.5V33.4C115.5 33.5 115.4 33.6 115.3 33.6H114.5C114.4 33.6 114.3 33.5 114.3 33.4V25.6ZM117.7 29.4C118.5 29.4 119.2 28.7 119.2 27.9C119.2 27.1 118.5 26.5 117.7 26.5H115.6V29.4H117.7Z" fill="#3777BB"/>
<path d="M124.5 32.5C124.6 32.3 124.7 32.2 124.8 32C124.9 31.8 125.1 31.8 125.2 31.9C125.7 32.4 126.4 32.7 127.1 32.7C127.8 32.8 128.4 32.3 128.5 31.7C128.5 31.7 128.5 31.7 128.5 31.6C128.5 30.9 127.9 30.4 126.7 29.9C125.5 29.4 124.5 28.8 124.5 27.4C124.6 26.1 125.7 25.1 127 25.2C127.1 25.2 127.1 25.2 127.2 25.2C128 25.2 128.8 25.5 129.4 25.9C129.5 26 129.6 26.2 129.5 26.3C129.4 26.4 129.3 26.6 129.2 26.8C129.1 26.9 129 27 128.8 26.9C128.8 26.9 128.8 26.9 128.7 26.9C128.2 26.6 127.7 26.4 127.1 26.3C126.1 26.3 125.7 26.9 125.7 27.4C125.7 28.1 126.2 28.5 127.2 28.9C128.6 29.5 129.8 30.1 129.8 31.6C129.7 32.9 128.5 34 127.2 33.9C126.2 33.9 125.3 33.5 124.6 32.9C124.5 32.8 124.5 32.6 124.5 32.5Z" fill="#3777BB"/>
<path d="M51.7 7.6C51.7 7.5 51.8 7.4 51.9 7.4H55.6C57.1 7.4 58.3 8.5 58.3 10C58.3 11.2 57.6 12.3 56.4 12.6L58.1 15.8C58.2 15.9 58.1 16.1 58 16.1H57.9H56.2C56.1 16.1 56 16.1 56 16L54.3 12.7H53.4V15.9C53.4 16 53.3 16.1 53.2 16.1H51.7C51.6 16.1 51.5 16 51.5 15.9L51.7 7.6ZM55.5 11C56 11 56.4 10.5 56.4 10C56.4 9.5 56 9.1 55.5 9.1H53.7V11H55.5Z" fill="#F48120"/>
<path d="M63.7 7.6C63.7 7.5 63.8 7.4 63.9 7.4H69C69.1 7.4 69.2 7.5 69.2 7.6V9C69.2 9.1 69.1 9.2 69 9.2H65.6V10.8H68.4C68.5 10.8 68.6 10.9 68.6 11V12.4C68.6 12.5 68.5 12.6 68.4 12.6H65.6V14.3H69C69.1 14.3 69.2 14.4 69.2 14.5V15.9C69.2 16 69.1 16.1 69 16.1H63.9C63.8 16.1 63.7 16 63.7 15.9V7.6Z" fill="#F48120"/>
<path d="M74 15.7L77.9 7.3C77.9 7.2 78 7.2 78.1 7.2H78.2C78.3 7.2 78.4 7.3 78.4 7.3L82.3 15.7C82.4 15.8 82.3 15.9 82.2 16H82.1H80.7C80.5 16 80.4 15.9 80.3 15.7L79.9 14.7H76.5L76.1 15.7C76 15.9 75.8 16 75.6 16H74.2C74.1 16 74 16 74 15.8V15.7ZM79.1 13L78.2 11L77.2 13H79.1Z" fill="#F48120"/>
<path d="M87.2 7.6C87.2 7.5 87.3 7.4 87.4 7.4H90.4C92.8 7.4 94.7 9.3 94.7 11.7C94.7 14.1 92.9 16 90.5 16H87.5C87.4 16 87.3 15.9 87.3 15.8V7.6H87.2ZM90.4 14.2C91.7 14.2 92.8 13.1 92.8 11.8V11.7C92.9 10.4 91.8 9.2 90.5 9.2H90.4H89.2V14.2H90.4Z" fill="#F48120"/>
<path d="M100.6 7.6C100.6 7.5 100.7 7.4 100.8 7.4H102.3C102.4 7.4 102.5 7.5 102.5 7.6V15.8C102.5 15.9 102.4 16 102.3 16H100.8C100.7 16 100.6 15.9 100.6 15.8V7.6Z" fill="#F48120"/>
<path d="M108.8 7.4C108.8 7.3 108.9 7.2 109 7.2H109.3L114.3 12V7.6C114.3 7.5 114.4 7.4 114.5 7.4H116C116.1 7.4 116.2 7.5 116.2 7.6V16C116.2 16.1 116.1 16.2 116 16.2H115.8C115.7 16.2 115.7 16.2 115.6 16.1L110.7 11.2V15.8C110.7 15.9 110.6 16 110.5 16H109C108.9 16 108.8 15.9 108.8 15.8V7.4Z" fill="#F48120"/>
<path d="M126.6 7.2C127.7 7.2 128.8 7.6 129.6 8.4C129.7 8.5 129.7 8.6 129.6 8.7L128.6 9.7C128.5 9.8 128.4 9.8 128.3 9.7C127.9 9.3 127.3 9.1 126.7 9.1C125.3 9.1 124.2 10.2 124.2 11.6C124.2 13 125.3 14.1 126.7 14.1C127.1 14.1 127.4 14 127.8 13.9V13.2H127C126.9 13.2 126.8 13.1 126.8 13V11.8C126.8 11.7 126.9 11.6 127 11.6H129.5C129.6 11.6 129.7 11.7 129.7 11.8V15.1C129.7 15.2 129.7 15.3 129.6 15.3C128.7 15.8 127.6 16.1 126.5 16.1C124 16 122.1 13.9 122.2 11.4C122.4 9.2 124.2 7.3 126.6 7.2Z" fill="#F48120"/>
<path d="M129.6 20.9H51.8C51.6 20.9 51.5 20.7 51.5 20.5C51.5 20.3 51.6 20.2 51.8 20.2H129.7C129.9 20.2 130 20.4 130 20.6C129.9 20.8 129.8 20.9 129.6 20.9Z" fill="#A8B2B5"/>
<path d="M45.5 31.5C44.6 26.8 43.8 22.8 43 18.6C42.2 14.4 41.4 10.3 40.5 6C40.5 5.8 40.4 5.7 40.2 5.6C40 5.5 39.8 5.5 39.6 5.7C39.1 6 38.2 6.5 38 6.6C37.8 6.7 37.8 6.8 37.9 7C38 7.2 40.6 21.2 41.7 27.3L42.1 29.7C42.1 29.9 42 30.1 41.8 30.1C35.4 30.9 29.3 32.8 23.5 35.6C26.9 32.6 31.9 30.2 38.3 28.5C38.6 28.4 38.9 28.1 38.8 27.7L37.6 21.2L33.7 0.799999C33.6 0.399999 33.5 0.199999 33.2 0.0999994C32.9 -5.75557e-07 32.3 0.399999 32.3 0.399999C28.9 2.7 25.2 4.7 21.4 6.2C18.5 7.4 15.9 9.1 15.8 11.4L16.2 13.7C16.2 13.7 16.2 13.7 16.2 13.8C16.2 13.8 16.2 13.9 16.3 13.9C17.7 15.1 19.2 16.2 20.8 17.2C22.6 18.5 24 19.4 24.4 20.6C24.5 20.9 24.5 21.2 24.4 21.5C24.3 21.7 21.8 29.1 20.1 33.7V33.8V33.9L20.8 37.4C20.8 37.6 20.9 37.7 21 37.8C21.5 38.1 22 38.3 22.6 38.4C22.8 38.4 23 38.4 23.1 38.3C30 35.2 37.4 33.3 44.9 32.6C45.1 32.6 45.3 32.5 45.5 32.3C45.4 31.9 45.5 31.7 45.5 31.5Z" fill="#3777BB"/>
<path d="M23.2 20.8C22.7 19.6 21.4 18.6 19.6 17.4C17 15.7 14.6 13.7 12.4 11.5C12.4 11.5 12 11.1 11.7 11.1C11.4 11.1 11.3 11.3 11.2 11.6L4.9 29.3C4.7 29.8 4.9 30.1 5.3 30.3C8.6 31.6 11.6 33.3 14.4 35.4C14.7 35.7 15.1 36 15.4 36.3C11.4 33.8 7 31.8 2.4 30.5C2.3 30.5 2.2 30.3 2.2 30.2L7.5 15.2L7.6 15C7.6 14.9 7.7 14.8 7.7 14.8C7.7 14.7 7.6 14.6 7.5 14.6C7.2 14.4 7 14.2 6.8 14C6.7 13.9 6.5 13.8 6.3 13.9C6.2 13.9 6.1 14 6.1 14.1L3.1 22.6C2.1 25.4 1.1 28.2 0.100002 31.1C1.52737e-06 31.2 1.52737e-06 31.4 0.100002 31.5C0.200002 31.6 0.300002 31.7 0.500002 31.8C5.9 33.1 11.1 35.3 15.8 38.2C15.9 38.3 16 38.3 16.1 38.3C16.6 38.4 17.1 38.3 17.5 38.1C17.6 38 17.7 37.9 17.7 37.8C17.7 37.6 23.2 22 23.3 21.7C23.3 21.4 23.3 21.1 23.2 20.8ZM17.6 24L16.1 24.5C16 24.5 16 24.6 16 24.6L15.7 26.1C15.7 26.2 15.6 26.2 15.5 26.2H15.4L14.3 25C14.3 25 14.2 24.9 14.2 25L12.5 25.1C12.4 25.1 12.3 25 12.3 25V24.9L13.1 23.6V23.5L12.5 22C12.5 21.9 12.5 21.8 12.6 21.8H12.7L14.3 22.2H14.4L15.6 21.2C15.7 21.1 15.8 21.2 15.8 21.2C15.8 21.2 15.8 21.2 15.8 21.3L16 22.8C16 22.8 16 22.9 16.1 22.9L17.6 23.7C17.7 23.8 17.7 23.9 17.6 24Z" fill="#F48120"/>
</g>
<defs>
<clipPath id="clip0">
<rect width="130" height="38.2" fill="white"/>
</clipPath>
</defs>
</svg>
