<svg width="1027" height="842" viewBox="0 0 1027 842" fill="none" xmlns="http://www.w3.org/2000/svg">
<g clip-path="url(#clip0)">
<path d="M71.5624 701.511L70.4891 701.109C70.2533 701.02 46.7806 692.027 35.785 671.635C24.7889 651.243 30.1732 626.69 30.2289 626.445L30.4823 625.327L31.5551 625.729C31.7909 625.818 55.2631 634.811 66.2592 655.203C77.2553 675.595 71.871 700.148 71.8153 700.393L71.5624 701.511ZM37.5458 670.686C46.8422 687.927 65.391 696.765 70.0908 698.783C70.9843 693.746 73.7866 673.377 64.4985 656.152C55.2114 638.929 36.6552 630.078 31.9535 628.055C31.0595 633.095 28.2582 653.463 37.5458 670.686V670.686Z" fill="#3F3D56"/>
<path d="M44.1884 665.482C63.9489 677.371 71.5593 700.985 71.5593 700.985C71.5593 700.985 47.1316 705.324 27.371 693.435C7.61044 681.547 0 657.933 0 657.933C0 657.933 24.4278 653.594 44.1884 665.482Z" fill="#6CABDD"/>
<path d="M772.258 28.2297H167.258V674.27H772.258V28.2297Z" fill="#3F3D56"/>
<path d="M789.758 702.5H149.758C147.372 702.497 145.085 701.548 143.397 699.861C141.71 698.174 140.761 695.886 140.758 693.5V9C140.761 6.6139 141.71 4.32633 143.397 2.6391C145.085 0.951872 147.372 0.00277099 149.758 0H789.758C792.144 0.00268912 794.432 0.951765 796.119 2.63901C797.807 4.32625 798.756 6.61388 798.758 9V693.5C798.756 695.886 797.807 698.174 796.119 699.861C794.432 701.548 792.144 702.497 789.758 702.5V702.5ZM149.758 2C147.902 2.00208 146.123 2.74025 144.811 4.05255C143.499 5.36486 142.76 7.14412 142.758 9V693.5C142.76 695.356 143.499 697.135 144.811 698.447C146.123 699.76 147.902 700.498 149.758 700.5H789.758C791.614 700.498 793.393 699.76 794.706 698.447C796.018 697.135 796.756 695.356 796.758 693.5V9C796.756 7.14415 796.018 5.36493 794.706 4.05264C793.393 2.74036 791.614 2.00216 789.758 2H149.758Z" fill="#3F3D56"/>
<path d="M690.258 659H250.258C247.872 658.997 245.585 658.048 243.897 656.361C242.21 654.674 241.261 652.386 241.258 650V578C241.261 575.614 242.21 573.326 243.897 571.639C245.585 569.952 247.872 569.003 250.258 569H690.258C692.644 569.003 694.932 569.952 696.619 571.639C698.307 573.326 699.256 575.614 699.258 578V650C699.256 652.386 698.307 654.674 696.619 656.361C694.932 658.048 692.644 658.997 690.258 659V659ZM250.258 571C248.402 571.002 246.623 571.74 245.311 573.053C243.999 574.365 243.26 576.144 243.258 578V650C243.26 651.856 243.999 653.635 245.311 654.947C246.623 656.26 248.402 656.998 250.258 657H690.258C692.114 656.998 693.893 656.26 695.206 654.947C696.518 653.635 697.256 651.856 697.258 650V578C697.256 576.144 696.518 574.365 695.206 573.053C693.893 571.74 692.114 571.002 690.258 571H250.258Z" fill="white"/>
<path d="M350.258 647H296.258C294.668 646.998 293.142 646.366 292.018 645.241C290.893 644.116 290.26 642.591 290.258 641V587C290.26 585.409 290.893 583.884 292.018 582.759C293.142 581.634 294.668 581.002 296.258 581H350.258C351.849 581.002 353.374 581.634 354.499 582.759C355.624 583.884 356.257 585.409 356.258 587V641C356.257 642.591 355.624 644.116 354.499 645.241C353.374 646.366 351.849 646.998 350.258 647V647ZM296.258 583C295.198 583.001 294.181 583.423 293.431 584.173C292.681 584.923 292.259 585.939 292.258 587V641C292.259 642.061 292.681 643.077 293.431 643.827C294.181 644.577 295.198 644.999 296.258 645H350.258C351.319 644.999 352.336 644.577 353.085 643.827C353.835 643.077 354.257 642.061 354.258 641V587C354.257 585.939 353.835 584.923 353.085 584.173C352.336 583.423 351.319 583.001 350.258 583H296.258Z" fill="white"/>
<path d="M448.258 647H394.258C392.668 646.998 391.142 646.366 390.018 645.241C388.893 644.116 388.26 642.591 388.258 641V587C388.26 585.409 388.893 583.884 390.018 582.759C391.142 581.634 392.668 581.002 394.258 581H448.258C449.849 581.002 451.374 581.634 452.499 582.759C453.624 583.884 454.257 585.409 454.258 587V641C454.257 642.591 453.624 644.116 452.499 645.241C451.374 646.366 449.849 646.998 448.258 647V647ZM394.258 583C393.198 583.001 392.181 583.423 391.431 584.173C390.681 584.923 390.259 585.939 390.258 587V641C390.259 642.061 390.681 643.077 391.431 643.827C392.181 644.577 393.198 644.999 394.258 645H448.258C449.319 644.999 450.336 644.577 451.085 643.827C451.835 643.077 452.257 642.061 452.258 641V587C452.257 585.939 451.835 584.923 451.085 584.173C450.336 583.423 449.319 583.001 448.258 583H394.258Z" fill="white"/>
<path d="M546.258 647H492.258C490.668 646.998 489.142 646.366 488.018 645.241C486.893 644.116 486.26 642.591 486.258 641V587C486.26 585.409 486.893 583.884 488.018 582.759C489.142 581.634 490.668 581.002 492.258 581H546.258C547.849 581.002 549.374 581.634 550.499 582.759C551.624 583.884 552.257 585.409 552.258 587V641C552.257 642.591 551.624 644.116 550.499 645.241C549.374 646.366 547.849 646.998 546.258 647ZM492.258 583C491.198 583.001 490.181 583.423 489.431 584.173C488.681 584.923 488.259 585.939 488.258 587V641C488.259 642.061 488.681 643.077 489.431 643.827C490.181 644.577 491.198 644.999 492.258 645H546.258C547.319 644.999 548.336 644.577 549.085 643.827C549.835 643.077 550.257 642.061 550.258 641V587C550.257 585.939 549.835 584.923 549.085 584.173C548.336 583.423 547.319 583.001 546.258 583H492.258Z" fill="white"/>
<path d="M644.258 647H590.258C588.668 646.998 587.142 646.366 586.018 645.241C584.893 644.116 584.26 642.591 584.258 641V587C584.26 585.409 584.893 583.884 586.018 582.759C587.142 581.634 588.668 581.002 590.258 581H644.258C645.849 581.002 647.374 581.634 648.499 582.759C649.624 583.884 650.257 585.409 650.258 587V641C650.257 642.591 649.624 644.116 648.499 645.241C647.374 646.366 645.849 646.998 644.258 647ZM590.258 583C589.198 583.001 588.181 583.423 587.431 584.173C586.681 584.923 586.259 585.939 586.258 587V641C586.259 642.061 586.681 643.077 587.431 643.827C588.181 644.577 589.198 644.999 590.258 645H644.258C645.319 644.999 646.336 644.577 647.086 643.827C647.835 643.077 648.257 642.061 648.258 641V587C648.257 585.939 647.835 584.923 647.086 584.173C646.336 583.423 645.319 583.001 644.258 583H590.258Z" fill="white"/>
<path d="M300.758 109H246.758C243.997 109 241.758 111.239 241.758 114V168C241.758 170.761 243.997 173 246.758 173H300.758C303.52 173 305.758 170.761 305.758 168V114C305.758 111.239 303.52 109 300.758 109Z" fill="white"/>
<path d="M398.758 109H344.758C341.997 109 339.758 111.239 339.758 114V168C339.758 170.761 341.997 173 344.758 173H398.758C401.52 173 403.758 170.761 403.758 168V114C403.758 111.239 401.52 109 398.758 109Z" fill="white"/>
<path d="M496.758 109H442.758C439.997 109 437.758 111.239 437.758 114V168C437.758 170.761 439.997 173 442.758 173H496.758C499.52 173 501.758 170.761 501.758 168V114C501.758 111.239 499.52 109 496.758 109Z" fill="white"/>
<path d="M594.758 109H540.758C537.997 109 535.758 111.239 535.758 114V168C535.758 170.761 537.997 173 540.758 173H594.758C597.52 173 599.758 170.761 599.758 168V114C599.758 111.239 597.52 109 594.758 109Z" fill="white"/>
<path d="M692.758 109H638.758C635.997 109 633.758 111.239 633.758 114V168C633.758 170.761 635.997 173 638.758 173H692.758C695.52 173 697.758 170.761 697.758 168V114C697.758 111.239 695.52 109 692.758 109Z" fill="white"/>
<path d="M301.258 241H247.258C244.497 241 242.258 243.239 242.258 246V300C242.258 302.761 244.497 305 247.258 305H301.258C304.02 305 306.258 302.761 306.258 300V246C306.258 243.239 304.02 241 301.258 241Z" fill="white"/>
<path d="M399.258 241H345.258C342.497 241 340.258 243.239 340.258 246V300C340.258 302.761 342.497 305 345.258 305H399.258C402.02 305 404.258 302.761 404.258 300V246C404.258 243.239 402.02 241 399.258 241Z" fill="white"/>
<path d="M497.258 241H443.258C440.497 241 438.258 243.239 438.258 246V300C438.258 302.761 440.497 305 443.258 305H497.258C500.02 305 502.258 302.761 502.258 300V246C502.258 243.239 500.02 241 497.258 241Z" fill="white"/>
<path d="M595.258 241H541.258C538.497 241 536.258 243.239 536.258 246V300C536.258 302.761 538.497 305 541.258 305H595.258C598.02 305 600.258 302.761 600.258 300V246C600.258 243.239 598.02 241 595.258 241Z" fill="white"/>
<path d="M693.258 241H639.258C636.497 241 634.258 243.239 634.258 246V300C634.258 302.761 636.497 305 639.258 305H693.258C696.02 305 698.258 302.761 698.258 300V246C698.258 243.239 696.02 241 693.258 241Z" fill="white"/>
<path d="M301.758 373H247.758C244.997 373 242.758 375.239 242.758 378V432C242.758 434.761 244.997 437 247.758 437H301.758C304.52 437 306.758 434.761 306.758 432V378C306.758 375.239 304.52 373 301.758 373Z" fill="white"/>
<path d="M399.758 373H345.758C342.997 373 340.758 375.239 340.758 378V432C340.758 434.761 342.997 437 345.758 437H399.758C402.52 437 404.758 434.761 404.758 432V378C404.758 375.239 402.52 373 399.758 373Z" fill="white"/>
<path d="M497.758 373H443.758C440.997 373 438.758 375.239 438.758 378V432C438.758 434.761 440.997 437 443.758 437H497.758C500.52 437 502.758 434.761 502.758 432V378C502.758 375.239 500.52 373 497.758 373Z" fill="white"/>
<path d="M595.758 373H541.758C538.997 373 536.758 375.239 536.758 378V432C536.758 434.761 538.997 437 541.758 437H595.758C598.52 437 600.758 434.761 600.758 432V378C600.758 375.239 598.52 373 595.758 373Z" fill="white"/>
<path d="M693.758 373H639.758C636.997 373 634.758 375.239 634.758 378V432C634.758 434.761 636.997 437 639.758 437H693.758C696.52 437 698.758 434.761 698.758 432V378C698.758 375.239 696.52 373 693.758 373Z" fill="white"/>
<path d="M247.258 41H185.258V46H247.258V41Z" fill="white"/>
<path d="M676.258 41H614.258V46H676.258V41Z" fill="white"/>
<path d="M752.258 41H690.258V46H752.258V41Z" fill="white"/>
<path d="M440.789 550.531C445.5 550.531 449.32 546.711 449.32 542C449.32 537.289 445.5 533.469 440.789 533.469C436.078 533.469 432.258 537.289 432.258 542C432.258 546.711 436.078 550.531 440.789 550.531Z" fill="white"/>
<path d="M470.258 550.531C474.969 550.531 478.789 546.711 478.789 542C478.789 537.289 474.969 533.469 470.258 533.469C465.547 533.469 461.728 537.289 461.728 542C461.728 546.711 465.547 550.531 470.258 550.531Z" fill="white"/>
<path d="M499.727 550.531C504.439 550.531 508.258 546.711 508.258 542C508.258 537.289 504.439 533.469 499.727 533.469C495.016 533.469 491.197 537.289 491.197 542C491.197 546.711 495.016 550.531 499.727 550.531Z" fill="white"/>
<path d="M306.258 113H252.258C249.497 113 247.258 115.239 247.258 118V172C247.258 174.761 249.497 177 252.258 177H306.258C309.02 177 311.258 174.761 311.258 172V118C311.258 115.239 309.02 113 306.258 113Z" fill="#6CABDD"/>
<path d="M404.258 113H350.258C347.497 113 345.258 115.239 345.258 118V172C345.258 174.761 347.497 177 350.258 177H404.258C407.02 177 409.258 174.761 409.258 172V118C409.258 115.239 407.02 113 404.258 113Z" fill="#6CABDD"/>
<path d="M502.258 113H448.258C445.497 113 443.258 115.239 443.258 118V172C443.258 174.761 445.497 177 448.258 177H502.258C505.02 177 507.258 174.761 507.258 172V118C507.258 115.239 505.02 113 502.258 113Z" fill="#6CABDD"/>
<path d="M600.258 113H546.258C543.497 113 541.258 115.239 541.258 118V172C541.258 174.761 543.497 177 546.258 177H600.258C603.02 177 605.258 174.761 605.258 172V118C605.258 115.239 603.02 113 600.258 113Z" fill="#6CABDD"/>
<path d="M698.258 113H644.258C641.497 113 639.258 115.239 639.258 118V172C639.258 174.761 641.497 177 644.258 177H698.258C701.02 177 703.258 174.761 703.258 172V118C703.258 115.239 701.02 113 698.258 113Z" fill="#6CABDD"/>
<path d="M306.258 245H252.258C249.497 245 247.258 247.239 247.258 250V304C247.258 306.761 249.497 309 252.258 309H306.258C309.02 309 311.258 306.761 311.258 304V250C311.258 247.239 309.02 245 306.258 245Z" fill="#6CABDD"/>
<path d="M404.258 245H350.258C347.497 245 345.258 247.239 345.258 250V304C345.258 306.761 347.497 309 350.258 309H404.258C407.02 309 409.258 306.761 409.258 304V250C409.258 247.239 407.02 245 404.258 245Z" fill="#6CABDD"/>
<path d="M502.258 245H448.258C445.497 245 443.258 247.239 443.258 250V304C443.258 306.761 445.497 309 448.258 309H502.258C505.02 309 507.258 306.761 507.258 304V250C507.258 247.239 505.02 245 502.258 245Z" fill="#6CABDD"/>
<path d="M600.258 245H546.258C543.497 245 541.258 247.239 541.258 250V304C541.258 306.761 543.497 309 546.258 309H600.258C603.02 309 605.258 306.761 605.258 304V250C605.258 247.239 603.02 245 600.258 245Z" fill="#6CABDD"/>
<path d="M698.258 245H644.258C641.497 245 639.258 247.239 639.258 250V304C639.258 306.761 641.497 309 644.258 309H698.258C701.02 309 703.258 306.761 703.258 304V250C703.258 247.239 701.02 245 698.258 245Z" fill="#6CABDD"/>
<path d="M306.258 377H252.258C249.497 377 247.258 379.239 247.258 382V436C247.258 438.761 249.497 441 252.258 441H306.258C309.02 441 311.258 438.761 311.258 436V382C311.258 379.239 309.02 377 306.258 377Z" fill="#6CABDD"/>
<path d="M502.258 377H448.258C445.497 377 443.258 379.239 443.258 382V436C443.258 438.761 445.497 441 448.258 441H502.258C505.02 441 507.258 438.761 507.258 436V382C507.258 379.239 505.02 377 502.258 377Z" fill="#6CABDD"/>
<path d="M600.258 377H546.258C543.497 377 541.258 379.239 541.258 382V436C541.258 438.761 543.497 441 546.258 441H600.258C603.02 441 605.258 438.761 605.258 436V382C605.258 379.239 603.02 377 600.258 377Z" fill="#6CABDD"/>
<path d="M698.258 377H644.258C641.497 377 639.258 379.239 639.258 382V436C639.258 438.761 641.497 441 644.258 441H698.258C701.02 441 703.258 438.761 703.258 436V382C703.258 379.239 701.02 377 698.258 377Z" fill="#6CABDD"/>
<path d="M364.185 716.694C364.185 716.694 383.177 753.49 393.86 761.799C404.543 770.108 376.648 780.197 376.648 780.197L344.006 729.157L364.185 716.694Z" fill="#FFB8B8"/>
<path d="M249.048 627.076C249.048 627.076 337.478 650.222 345.193 665.653C352.909 681.084 376.649 718.474 376.649 718.474L341.633 746.368L307.21 694.734L212.251 652.003L249.048 627.076Z" fill="#2F2E41"/>
<path d="M373.681 765.36C373.681 765.36 365.372 758.238 362.998 762.986C360.624 767.734 353.502 792.067 353.502 792.067C353.502 792.067 363.592 801.563 384.364 795.628C384.364 795.628 389.706 791.474 398.014 795.628C406.323 799.783 437.185 791.474 435.998 777.823C434.811 764.173 403.356 765.36 403.356 765.36C403.356 765.36 390.107 750.517 388.423 756.158C386.738 761.799 389.112 762.393 389.112 762.393C389.112 762.393 378.429 773.669 373.681 765.36Z" fill="#2F2E41"/>
<path d="M272.194 752.897L266.259 802.75H295.34C295.34 802.75 292.966 764.173 293.559 759.425C294.153 754.677 272.194 752.897 272.194 752.897Z" fill="#FFB8B8"/>
<path d="M288.811 643.1C288.811 643.1 304.836 666.84 295.34 668.621C285.844 670.401 278.128 643.1 278.128 643.1H288.811Z" fill="#FFB8B8"/>
<path d="M167.739 640.726C167.739 640.726 155.869 675.743 202.755 685.238C249.641 694.734 263.885 702.45 263.885 702.45L269.82 762.986L310.771 765.36C310.771 765.36 330.356 673.369 304.836 661.499C279.316 649.629 225.308 635.979 225.308 635.979L167.739 640.726Z" fill="#2F2E41"/>
<path d="M269.82 795.035C269.82 795.035 278.129 790.88 279.316 790.88C279.316 790.88 284.532 778.848 294.091 780.116L314.925 810.465C314.925 810.465 346.381 833.018 324.421 838.953C302.462 844.888 285.251 840.14 285.251 840.14L276.348 833.612C276.348 833.612 277.535 827.083 269.82 828.27C269.82 828.27 253.796 821.742 254.389 816.994C254.983 812.246 267.589 791.579 267.589 791.579L269.82 795.035Z" fill="#2F2E41"/>
<path d="M274.864 525.292C287.975 525.292 298.604 514.663 298.604 501.552C298.604 488.441 287.975 477.812 274.864 477.812C261.753 477.812 251.125 488.441 251.125 501.552C251.125 514.663 261.753 525.292 274.864 525.292Z" fill="#FFB8B8"/>
<path d="M255.576 494.134C255.576 494.134 234.21 509.564 230.056 510.158C225.901 510.751 249.641 539.833 249.641 539.833C249.641 539.833 260.917 521.434 268.039 519.06C275.161 516.686 255.576 494.134 255.576 494.134Z" fill="#FFB8B8"/>
<path d="M260.258 546L280.502 616.393L295.34 650.222C295.34 650.222 279.315 644.706 278.128 651.322L254.389 616.987L260.258 546Z" fill="#D0CDE1"/>
<path opacity="0.1" d="M260.258 546L280.502 616.393L295.34 650.222C295.34 650.222 279.315 644.706 278.128 651.322L254.389 616.987L260.258 546Z" fill="black"/>
<path d="M269.527 482.083L282.442 483.696C282.195 486.324 282.264 489.58 284.592 490.823C285.687 491.408 287.076 491.378 288.047 492.152C290.38 494.012 288.098 498.013 289.415 500.692L293.192 501.691C293.646 502.54 294.263 503.291 295.008 503.901C295.754 504.51 296.612 504.966 297.534 505.243C298.456 505.519 299.424 505.611 300.381 505.512C301.339 505.413 302.268 505.126 303.114 504.667C305.652 503.143 306.945 500.231 308.087 497.499C309.452 494.236 310.844 490.73 310.161 487.259C309.427 483.531 306.381 480.432 306.243 476.634C306.181 474.935 306.54 472.817 305.108 471.901C304.449 471.592 303.739 471.403 303.013 471.346C299.714 470.656 297.877 467.242 295.416 464.938C290.26 460.11 282.341 460.237 275.29 460.658C273.272 460.665 271.269 461.015 269.367 461.691C267.217 462.769 265.317 464.284 263.787 466.14C260.006 470.174 256.324 474.398 253.829 479.332C251.335 484.265 250.106 490.03 251.462 495.39C251.328 494.874 255.816 491.499 256.375 490.959C258.129 489.26 258.289 488.449 259.238 486.494C261.45 481.938 264.527 481.458 269.527 482.083Z" fill="#2F2E41"/>
<path d="M239.551 513.719C239.551 513.719 230.649 501.849 225.307 501.849C219.966 501.849 188.412 511.236 184.258 551C180.103 590.764 165.958 656.157 165.958 656.157C165.958 656.157 162.397 638.946 202.161 646.068C202.161 646.068 249.641 635.978 257.95 635.978C266.259 635.978 261.258 550 261.258 550L256.306 530.158C256.306 530.158 250.234 541.613 239.551 513.719Z" fill="#D0CDE1"/>
<path d="M321.258 595H267.258C264.497 595 262.258 597.239 262.258 600V654C262.258 656.761 264.497 659 267.258 659H321.258C324.02 659 326.258 656.761 326.258 654V600C326.258 597.239 324.02 595 321.258 595Z" fill="#6CABDD"/>
<path opacity="0.1" d="M231.539 558.528L233.32 600.072L259.72 631.031L235.694 596.511L231.539 558.528Z" fill="black"/>
<path opacity="0.1" d="M184.06 569.804L204.832 617.877L231.539 639.836L203.052 620.251L184.06 569.804Z" fill="black"/>
<path d="M271.546 637.532C271.546 637.532 295.087 653.846 286.883 658.948C278.679 664.051 261.59 641.406 261.59 641.406L271.546 637.532Z" fill="#FFB8B8"/>
<path d="M201.568 516.686C201.568 516.686 184.353 566.544 187.057 573.48C195.562 595.298 205.129 615.8 205.129 615.8L231.955 640.054L268.039 650.222L272.194 646.661C272.194 646.661 273.381 635.385 268.039 634.198C262.698 633.011 254.389 628.263 254.389 628.263L233.023 596.808C233.023 596.808 232.43 518.467 201.568 516.686Z" fill="#D0CDE1"/>
<path d="M1002.55 616.519C1002.58 679.55 965.121 701.574 918.902 701.596C917.828 701.597 916.76 701.585 915.697 701.562C913.555 701.517 911.435 701.42 909.337 701.272C867.622 698.339 835.199 675.219 835.17 616.601C835.141 555.938 912.635 479.345 918.447 473.681C918.452 473.681 918.452 473.681 918.457 473.676C918.678 473.46 918.791 473.352 918.791 473.352C918.791 473.352 1002.52 553.494 1002.55 616.519Z" fill="#6CABDD"/>
<path d="M915.851 691.956L946.44 649.174L915.777 696.651L915.697 701.561C913.555 701.516 911.435 701.42 909.338 701.272L912.605 638.214L912.579 637.726L912.635 637.633L912.946 631.675L882.16 584.109L913.036 627.211L913.114 628.474L915.582 580.831L889.223 531.677L915.901 572.459L918.447 473.681L918.457 473.352L918.458 473.676L918.064 551.572L944.261 520.678L917.954 558.281L917.281 600.94L941.748 559.99L917.187 607.212L916.813 630.933L952.32 573.931L916.679 639.208L915.851 691.956Z" fill="#3F3D56"/>
<path d="M993.67 700.645H835.258V702.519H993.67V700.645Z" fill="#3F3D56"/>
<path d="M101.67 700.645H24.209V702.519H101.67V700.645Z" fill="#3F3D56"/>
<path d="M866.998 351.225C864.773 351.225 862.598 350.565 860.749 349.329C858.899 348.093 857.457 346.336 856.606 344.281C855.754 342.226 855.532 339.964 855.966 337.782C856.4 335.6 857.471 333.596 859.044 332.023C860.617 330.45 862.621 329.379 864.803 328.945C866.985 328.511 869.247 328.733 871.302 329.585C873.358 330.436 875.114 331.878 876.35 333.727C877.586 335.577 878.246 337.752 878.246 339.977C878.243 342.959 877.056 345.818 874.948 347.927C872.839 350.035 869.98 351.222 866.998 351.225V351.225ZM866.998 330.603C865.144 330.603 863.332 331.153 861.79 332.183C860.249 333.213 859.047 334.677 858.338 336.39C857.628 338.102 857.443 339.987 857.804 341.805C858.166 343.624 859.059 345.294 860.37 346.605C861.681 347.916 863.351 348.808 865.169 349.17C866.987 349.532 868.872 349.346 870.585 348.637C872.298 347.927 873.762 346.726 874.792 345.184C875.821 343.643 876.371 341.831 876.371 339.977C876.368 337.492 875.38 335.109 873.623 333.352C871.865 331.594 869.483 330.606 866.998 330.603V330.603Z" fill="#3F3D56"/>
<path d="M1026.8 308.991H1002.43V284.62H1026.8V308.991ZM1004.3 307.116H1024.93V286.495H1004.3V307.116Z" fill="#3F3D56"/>
</g>
<defs>
<clipPath id="clip0">
<rect width="1026.8" height="841.938" fill="white"/>
</clipPath>
</defs>
</svg>
