<svg width="485" height="46" viewBox="0 0 485 46" fill="none" xmlns="http://www.w3.org/2000/svg">
<g clip-path="url(#clip0)">
<path d="M25 27.87C27.197 26.8872 29.0423 25.2582 30.29 23.2C31.5584 20.9844 32.1915 18.462 32.12 15.91C32.1807 13.3439 31.5595 10.8077 30.32 8.56C29.1038 6.45798 27.2856 4.76865 25.1 3.70999C22.5086 2.4989 19.6691 1.91318 16.81 1.99999H1.38C1.014 1.99999 0.662993 2.14539 0.404193 2.40419C0.145392 2.66299 0 3.014 0 3.37999L0 43.21C0 43.3912 0.0356947 43.5707 0.105046 43.7381C0.174398 43.9055 0.276048 44.0577 0.404193 44.1858C0.532337 44.3139 0.684468 44.4156 0.851897 44.485C1.01933 44.5543 1.19878 44.59 1.38 44.59H7.62C7.80122 44.59 7.98067 44.5543 8.1481 44.485C8.31553 44.4156 8.46766 44.3139 8.59581 44.1858C8.72395 44.0577 8.8256 43.9055 8.89495 43.7381C8.9643 43.5707 9 43.3912 9 43.21V29.49H15.57L23.25 43.86C23.368 44.0809 23.5438 44.2656 23.7588 44.3942C23.9737 44.5228 24.2195 44.5905 24.47 44.59H31.25C31.4836 44.5861 31.7123 44.5231 31.9148 44.4067C32.1174 44.2903 32.287 44.1244 32.4079 43.9245C32.5289 43.7247 32.5971 43.4974 32.6062 43.264C32.6153 43.0306 32.565 42.7987 32.46 42.59L24.54 28L25 27.87ZM9 9.35999H15.07C16.5439 9.31076 18.0118 9.56961 19.38 10.12C20.4748 10.5448 21.3967 11.3225 22 12.33C22.5939 13.4276 22.8871 14.6626 22.85 15.91C22.889 17.1385 22.5953 18.3547 22 19.43C21.4076 20.399 20.5109 21.1445 19.45 21.55C18.0824 22.0592 16.6286 22.297 15.17 22.25H9V9.35999Z" fill="#404E6B"/>
<path d="M52.05 44.59H55.51C55.6912 44.59 55.8706 44.5543 56.0381 44.4849C56.2055 44.4156 56.3576 44.3139 56.4858 44.1858C56.6139 44.0576 56.7156 43.9055 56.7849 43.7381C56.8543 43.5707 56.89 43.3912 56.89 43.21V17.64H62.39C62.572 17.6413 62.7526 17.6066 62.9211 17.5378C63.0897 17.4691 63.243 17.3676 63.3722 17.2393C63.5015 17.1111 63.604 16.9585 63.674 16.7904C63.7439 16.6223 63.78 16.4421 63.78 16.26V14C63.78 13.8179 63.7439 13.6376 63.674 13.4696C63.604 13.3015 63.5015 13.1489 63.3722 13.0206C63.243 12.8923 63.0897 12.7909 62.9211 12.7221C62.7526 12.6534 62.572 12.6187 62.39 12.62H56.89V9.77998C56.8174 8.61114 57.1729 7.45586 57.89 6.52998C58.3141 6.1191 58.823 5.80594 59.381 5.61247C59.939 5.419 60.5325 5.34989 61.12 5.40998C61.6817 5.39142 62.2435 5.4486 62.79 5.57998C62.9262 5.64534 63.0754 5.67899 63.2264 5.67841C63.3775 5.67783 63.5265 5.64303 63.6622 5.57663C63.7978 5.51023 63.9167 5.41396 64.0099 5.29503C64.103 5.17611 64.168 5.03763 64.2 4.88998L65 2.16998C65.051 1.99135 65.0655 1.80425 65.0425 1.61989C65.0195 1.43553 64.9595 1.25771 64.8661 1.0971C64.7727 0.936486 64.6479 0.796381 64.4991 0.685184C64.3502 0.573988 64.1805 0.493989 64 0.449984L63.36 0.299985C62.3074 0.0837225 61.2344 -0.0168745 60.16 -1.54985e-05C58.5393 -0.0119211 56.9354 0.329321 55.46 0.999985C54.0439 1.64922 52.8433 2.69022 52 3.99998C51.0794 5.50084 50.6236 7.24056 50.69 8.99998V12.71H47.1C46.749 12.7092 46.411 12.8422 46.1547 13.0819C45.8983 13.3215 45.7429 13.6498 45.72 14V16.23C45.72 16.596 45.8654 16.947 46.1242 17.2058C46.383 17.4646 46.734 17.61 47.1 17.61H50.67V43.21C50.67 43.3912 50.7057 43.5707 50.775 43.7381C50.8444 43.9055 50.946 44.0576 51.0742 44.1858C51.2023 44.3139 51.3544 44.4156 51.5219 44.4849C51.6893 44.5543 51.8687 44.59 52.05 44.59Z" fill="#404E6B"/>
<path d="M70.53 43.18C72.9223 44.5303 75.6229 45.2398 78.37 45.2398C81.1171 45.2398 83.8176 44.5303 86.21 43.18C88.455 41.7926 90.2586 39.7947 91.41 37.42C92.6973 34.7184 93.331 31.7518 93.26 28.76C93.3309 25.7586 92.6972 22.7823 91.41 20.07C90.2678 17.6838 88.4625 15.6772 86.21 14.29C83.8176 12.9397 81.1171 12.2302 78.37 12.2302C75.6229 12.2302 72.9223 12.9397 70.53 14.29C68.2821 15.6828 66.4782 17.6879 65.33 20.07C64.0473 22.7838 63.4139 25.759 63.48 28.76C63.4138 31.7513 64.0473 34.7168 65.33 37.42C66.4859 39.7916 68.2885 41.7883 70.53 43.18ZM70.69 23.12C71.2358 21.5071 72.2232 20.0796 73.54 19C74.9501 17.9859 76.6431 17.4404 78.38 17.4404C80.1169 17.4404 81.8099 17.9859 83.22 19C84.5264 20.0912 85.5087 21.5196 86.06 23.13C86.6928 24.9322 87.0108 26.8299 87 28.74C87.0208 30.659 86.7096 32.5671 86.08 34.38C85.5308 35.983 84.5477 37.4023 83.24 38.48C81.8247 39.4813 80.1337 40.019 78.4 40.019C76.6663 40.019 74.9753 39.4813 73.56 38.48C72.2423 37.4095 71.2543 35.9881 70.71 34.38C70.0722 32.5689 69.7574 30.6599 69.78 28.74C69.7533 26.8279 70.0613 24.9259 70.69 23.12Z" fill="#404E6B"/>
<path d="M102.67 25.08C102.643 23.7931 102.976 22.5242 103.632 21.4163C104.287 20.3085 105.239 19.4058 106.38 18.81C107.59 18.1819 108.937 17.8657 110.3 17.89C110.939 17.8831 111.578 17.9266 112.21 18.02C112.365 18.0746 112.532 18.09 112.694 18.0648C112.857 18.0397 113.011 17.9748 113.143 17.8759C113.274 17.7769 113.379 17.6471 113.449 17.4978C113.518 17.3485 113.549 17.1843 113.54 17.02V13.45C113.543 13.2856 113.512 13.1222 113.45 12.9699C113.388 12.8176 113.296 12.6793 113.179 12.5635C113.063 12.4477 112.924 12.3566 112.771 12.2959C112.618 12.2351 112.454 12.2059 112.29 12.21C111.75 12.21 111.29 12.21 110.9 12.21C109.122 12.1875 107.379 12.7034 105.9 13.69C104.441 14.6595 103.352 16.0937 102.81 17.76H102.48V14C102.48 13.634 102.335 13.283 102.076 13.0242C101.817 12.7654 101.466 12.62 101.1 12.62H97.83C97.464 12.62 97.113 12.7654 96.8542 13.0242C96.5954 13.283 96.45 13.634 96.45 14V43.21C96.45 43.3912 96.4857 43.5707 96.5551 43.7381C96.6244 43.9055 96.7261 44.0577 96.8542 44.1858C96.9824 44.3139 97.1345 44.4156 97.3019 44.485C97.4693 44.5543 97.6488 44.59 97.83 44.59H101.28C101.462 44.5913 101.643 44.5566 101.811 44.4878C101.98 44.4191 102.133 44.3176 102.262 44.1894C102.391 44.0611 102.494 43.9085 102.564 43.7404C102.634 43.5723 102.67 43.3921 102.67 43.21V25.08Z" fill="#404E6B"/>
<path d="M130.75 36.5C130.687 38.1993 131.144 39.8772 132.06 41.31C132.911 42.5579 134.101 43.5363 135.49 44.13C136.936 44.7491 138.498 45.0493 140.07 45.01C140.909 45.006 141.746 44.9257 142.57 44.77L142.8 44.72C143.147 44.6301 143.446 44.4087 143.632 44.1026C143.819 43.7965 143.879 43.4297 143.8 43.08C143.8 43.08 143.18 40.35 143.12 39.99C143.101 39.8807 143.058 39.7767 142.996 39.6848C142.934 39.5929 142.853 39.5152 142.758 39.4567C142.664 39.3982 142.558 39.3603 142.448 39.3453C142.338 39.3304 142.227 39.3388 142.12 39.37C141.689 39.4569 141.249 39.4938 140.81 39.48C140.168 39.4872 139.531 39.3753 138.93 39.15C138.331 38.9222 137.832 38.4901 137.52 37.93C137.108 37.0852 136.922 36.1481 136.98 35.21V17.64H142.15C142.516 17.64 142.867 17.4946 143.126 17.2358C143.385 16.977 143.53 16.626 143.53 16.26V14C143.53 13.634 143.385 13.283 143.126 13.0242C142.867 12.7654 142.516 12.62 142.15 12.62H137V6.37002C136.999 6.18709 136.961 6.00624 136.889 5.83798C136.817 5.66973 136.713 5.51743 136.582 5.38995C136.45 5.26247 136.295 5.16234 136.125 5.0954C135.955 5.02846 135.773 4.99604 135.59 5.00002H132.13C131.764 5.00002 131.413 5.14541 131.154 5.40421C130.895 5.66301 130.75 6.01402 130.75 6.38002V12.66H127.45C127.091 12.6599 126.746 12.7998 126.488 13.05C126.23 13.3002 126.08 13.641 126.07 14V16.23C126.07 16.596 126.215 16.947 126.474 17.2058C126.733 17.4646 127.084 17.61 127.45 17.61H130.75V36.5Z" fill="#404E6B"/>
<path d="M152.35 25.62C152.316 24.1158 152.66 22.6271 153.35 21.29C153.972 20.1292 154.921 19.1765 156.08 18.55C157.295 17.9164 158.65 17.5967 160.02 17.62C160.943 17.5691 161.867 17.7157 162.729 18.0503C163.592 18.3848 164.373 18.8995 165.02 19.56C166.304 21.0718 166.956 23.0201 166.84 25V43.21C166.84 43.3912 166.876 43.5707 166.945 43.7381C167.014 43.9056 167.116 44.0577 167.244 44.1858C167.372 44.314 167.524 44.4156 167.692 44.485C167.859 44.5543 168.039 44.59 168.22 44.59H171.68C171.861 44.59 172.041 44.5543 172.208 44.485C172.376 44.4156 172.528 44.314 172.656 44.1858C172.784 44.0577 172.886 43.9056 172.955 43.7381C173.024 43.5707 173.06 43.3912 173.06 43.21V24.27C173.139 21.9738 172.673 19.6915 171.7 17.61C170.866 15.9142 169.528 14.5173 167.87 13.61C166.099 12.6786 164.12 12.214 162.12 12.26C160.015 12.1716 157.929 12.6999 156.12 13.78C154.595 14.7757 153.401 16.203 152.69 17.88H152.29V3.38002C152.29 3.19624 152.253 3.01431 152.182 2.8449C152.111 2.67548 152.007 2.522 151.875 2.39345C151.744 2.26491 151.588 2.16389 151.417 2.09633C151.246 2.02877 151.064 1.99603 150.88 2.00002H147.51C147.144 2.00002 146.793 2.14541 146.534 2.40421C146.275 2.66301 146.13 3.01402 146.13 3.38002V43.21C146.13 43.3912 146.166 43.5707 146.235 43.7381C146.304 43.9056 146.406 44.0577 146.534 44.1858C146.662 44.314 146.814 44.4156 146.982 44.485C147.149 44.5543 147.329 44.59 147.51 44.59H151C151.182 44.5913 151.363 44.5566 151.531 44.4879C151.7 44.4191 151.853 44.3177 151.982 44.1894C152.111 44.0611 152.214 43.9085 152.284 43.7404C152.354 43.5724 152.39 43.3921 152.39 43.21L152.35 25.62Z" fill="#404E6B"/>
<path d="M203 36.32L199.77 35.73C199.481 35.6806 199.183 35.7247 198.921 35.856C198.658 35.9873 198.444 36.1989 198.31 36.46C197.99 37.0518 197.582 37.5913 197.1 38.06C196.38 38.7458 195.521 39.2678 194.58 39.59C193.543 39.941 192.454 40.1135 191.36 40.1C189.693 40.1404 188.046 39.7329 186.59 38.92C185.217 38.1201 184.114 36.9295 183.42 35.5C182.687 33.9352 182.308 32.228 182.31 30.5H203.62C203.802 30.5 203.982 30.464 204.15 30.394C204.319 30.324 204.471 30.2215 204.599 30.0923C204.728 29.9631 204.829 29.8098 204.898 29.6412C204.967 29.4726 205.001 29.2921 205 29.11V28.29C205.061 25.7737 204.668 23.2669 203.84 20.89C203.168 19.0035 202.078 17.294 200.65 15.89C199.348 14.6429 197.798 13.6853 196.1 13.08C194.416 12.4896 192.644 12.1886 190.86 12.19C188.164 12.1028 185.502 12.8087 183.204 14.2201C180.905 15.6315 179.072 17.6864 177.93 20.13C176.656 22.8358 176.026 25.8 176.09 28.79C176.018 31.7808 176.649 34.7467 177.93 37.45C179.083 39.8259 180.904 41.8138 183.17 43.17C185.648 44.5641 188.459 45.2556 191.3 45.17C193.422 45.2047 195.532 44.8418 197.52 44.1C199.247 43.4566 200.806 42.431 202.08 41.1C202.91 40.2382 203.587 39.2404 204.08 38.15C204.153 37.9592 204.181 37.7546 204.164 37.5512C204.147 37.3479 204.084 37.151 203.98 36.9753C203.876 36.7995 203.734 36.6494 203.565 36.5359C203.395 36.4225 203.202 36.3487 203 36.32ZM183.34 22C184.031 20.6488 185.066 19.5037 186.34 18.68C187.696 17.8029 189.286 17.3566 190.9 17.4C192.379 17.3621 193.839 17.7434 195.11 18.5C196.3 19.2255 197.268 20.2631 197.91 21.5C198.592 22.8509 198.935 24.3471 198.91 25.86H182.32C182.388 24.5163 182.735 23.2016 183.34 22Z" fill="#404E6B"/>
<path d="M245.2 27.89C247.397 26.9072 249.242 25.2781 250.49 23.22C251.758 21.0043 252.392 18.482 252.32 15.93C252.381 13.3639 251.76 10.8277 250.52 8.57999C249.304 6.47798 247.486 4.78865 245.3 3.72999C242.722 2.51849 239.897 1.92608 237.05 1.99999H221.63C221.264 1.99999 220.913 2.14539 220.654 2.40419C220.395 2.66299 220.25 3.01399 220.25 3.37999V43.23C220.25 43.596 220.395 43.947 220.654 44.2058C220.913 44.4646 221.264 44.61 221.63 44.61H227.87C228.236 44.61 228.587 44.4646 228.846 44.2058C229.105 43.947 229.25 43.596 229.25 43.23V29.51H235.83L243.51 43.88C243.626 44.1001 243.8 44.2844 244.014 44.413C244.227 44.5417 244.471 44.6098 244.72 44.61H251.51C251.744 44.6061 251.972 44.5431 252.175 44.4267C252.377 44.3103 252.547 44.1444 252.668 43.9445C252.789 43.7447 252.857 43.5174 252.866 43.284C252.875 43.0506 252.825 42.8187 252.72 42.61L244.79 28.09L245.2 27.89ZM229.25 9.37999H235.33C236.804 9.33076 238.272 9.58961 239.64 10.14C240.713 10.5761 241.612 11.3526 242.2 12.35C242.79 13.4485 243.08 14.6835 243.04 15.93C243.082 17.1576 242.792 18.3737 242.2 19.45C241.608 20.419 240.711 21.1645 239.65 21.57C238.282 22.0792 236.829 22.317 235.37 22.27H229.25V9.37999Z" fill="#404E6B"/>
<path d="M280.63 16.28C279.267 14.9487 277.633 13.9256 275.84 13.28C273.951 12.6016 271.957 12.2631 269.95 12.28C267.081 12.2083 264.247 12.9279 261.76 14.36C259.447 15.7393 257.576 17.7519 256.37 20.16C255.042 22.8501 254.384 25.8209 254.45 28.82C254.374 31.8457 255.033 34.8448 256.37 37.56C257.582 39.9577 259.479 41.9414 261.82 43.26C264.424 44.6546 267.347 45.3441 270.3 45.26C272.69 45.3055 275.066 44.8913 277.3 44.04C279.216 43.3201 280.93 42.1506 282.3 40.63C283.164 39.6401 283.842 38.5017 284.3 37.27C284.381 37.0672 284.412 36.8481 284.393 36.6307C284.373 36.4133 284.302 36.2035 284.186 36.0185C284.071 35.8335 283.913 35.6783 283.726 35.5657C283.539 35.453 283.328 35.386 283.11 35.37L277.52 35C277.261 34.9824 277.002 35.0388 276.773 35.1627C276.545 35.2867 276.356 35.473 276.23 35.7C275.967 36.1772 275.629 36.6093 275.23 36.98C274.629 37.5441 273.912 37.9707 273.13 38.23C272.258 38.5098 271.346 38.6482 270.43 38.64C269.087 38.6758 267.759 38.3549 266.58 37.71C265.501 37.0723 264.634 36.1294 264.09 35C263.474 33.7268 263.172 32.3241 263.21 30.91H283.58C283.765 30.9154 283.948 30.8836 284.12 30.8167C284.292 30.7497 284.449 30.6489 284.582 30.5203C284.714 30.3916 284.819 30.2376 284.891 30.0675C284.963 29.8975 285 29.7147 285 29.53V28.47C285.048 26.0477 284.662 23.6363 283.86 21.35C283.166 19.4447 282.064 17.7142 280.63 16.28ZM263.23 25.42C263.268 24.3131 263.566 23.2307 264.1 22.26C264.679 21.2376 265.517 20.3857 266.53 19.79C267.608 19.1578 268.84 18.836 270.09 18.86C271.279 18.8318 272.454 19.1255 273.49 19.71C274.456 20.2557 275.253 21.0589 275.79 22.03C276.361 23.067 276.647 24.2366 276.62 25.42H263.23Z" fill="#404E6B"/>
<path d="M306.17 26.06L300.38 24.9C299.249 24.7258 298.174 24.291 297.24 23.63C296.952 23.3962 296.72 23.1003 296.563 22.7643C296.405 22.4283 296.326 22.0611 296.33 21.69C296.334 21.2148 296.468 20.7497 296.716 20.3446C296.965 19.9394 297.318 19.6095 297.74 19.39C298.799 18.7892 300.003 18.4917 301.22 18.53C302.13 18.5075 303.034 18.6815 303.87 19.04C304.565 19.3474 305.18 19.8091 305.67 20.39C305.905 20.6811 306.103 21.0002 306.26 21.34C306.371 21.6085 306.562 21.8361 306.807 21.9919C307.052 22.1476 307.34 22.2238 307.63 22.21L313.09 21.87C313.293 21.8601 313.492 21.8051 313.671 21.709C313.85 21.6129 314.006 21.478 314.126 21.3143C314.247 21.1506 314.33 20.9621 314.368 20.7624C314.407 20.5627 314.401 20.357 314.35 20.16C313.754 18.0006 312.433 16.1118 310.61 14.81C308.28 13.1 305.11 12.25 301.07 12.25C298.635 12.1968 296.212 12.6074 293.93 13.46C292.063 14.1325 290.426 15.3221 289.21 16.89C288.074 18.4198 287.483 20.2854 287.53 22.19C287.49 23.2751 287.672 24.3569 288.064 25.3695C288.456 26.3821 289.05 27.3044 289.81 28.08C291.768 29.8344 294.206 30.9628 296.81 31.32L302.34 32.42C303.443 32.5869 304.495 32.9968 305.42 33.62C305.73 33.8534 305.982 34.1555 306.155 34.5025C306.329 34.8495 306.419 35.232 306.42 35.62C306.412 36.1063 306.277 36.5819 306.028 36.9996C305.779 37.4172 305.424 37.7622 305 38C303.86 38.6483 302.56 38.9603 301.25 38.9C299.882 38.9653 298.527 38.6168 297.36 37.9C296.621 37.4199 296.051 36.7205 295.73 35.9C295.627 35.6258 295.44 35.3912 295.196 35.2296C294.952 35.068 294.663 34.9876 294.37 35L288.37 35.31C288.16 35.3042 287.951 35.3468 287.76 35.4347C287.569 35.5226 287.4 35.6533 287.268 35.8168C287.135 35.9802 287.042 36.1719 286.996 36.3771C286.949 36.5823 286.951 36.7955 287 37C287.651 39.2786 289.085 41.2545 291.05 42.58C293.55 44.3533 296.913 45.24 301.14 45.24C303.656 45.2882 306.157 44.8396 308.5 43.92C310.463 43.1476 312.188 41.8714 313.5 40.22C314.727 38.6484 315.376 36.7032 315.34 34.71C315.382 33.6715 315.199 32.6361 314.803 31.6748C314.408 30.7135 313.81 29.8489 313.05 29.14C311.074 27.5157 308.698 26.4519 306.17 26.06Z" fill="#404E6B"/>
<path d="M333.71 37.8C333.298 37.8796 332.88 37.9197 332.46 37.92C331.924 37.9281 331.391 37.833 330.89 37.64C330.438 37.4645 330.064 37.1304 329.84 36.7C329.56 36.1074 329.429 35.4549 329.46 34.8V19.32H334.09C334.272 19.3214 334.453 19.2866 334.621 19.2179C334.79 19.1491 334.943 19.0477 335.072 18.9194C335.201 18.7911 335.304 18.6385 335.374 18.4705C335.444 18.3024 335.48 18.1221 335.48 17.94V14.05C335.48 13.868 335.444 13.6877 335.374 13.5196C335.304 13.3515 335.201 13.199 335.072 13.0707C334.943 12.9424 334.79 12.841 334.621 12.7722C334.453 12.7034 334.272 12.6687 334.09 12.67H329.46V6.39004C329.461 6.20797 329.427 6.02745 329.358 5.85886C329.289 5.69028 329.188 5.53696 329.059 5.40776C328.931 5.27855 328.778 5.17601 328.61 5.10603C328.442 5.03605 328.262 5.00003 328.08 5.00004H322C321.818 4.99872 321.637 5.03344 321.469 5.1022C321.3 5.17096 321.147 5.2724 321.018 5.40068C320.889 5.52895 320.786 5.68153 320.716 5.84961C320.646 6.0177 320.61 6.19797 320.61 6.38004V12.66H317.61C317.244 12.66 316.893 12.8054 316.634 13.0642C316.375 13.323 316.23 13.674 316.23 14.04V17.93C316.23 18.296 316.375 18.647 316.634 18.9058C316.893 19.1646 317.244 19.31 317.61 19.31H320.61V36C320.531 37.8239 320.987 39.6311 321.92 41.2C322.825 42.5642 324.132 43.6128 325.66 44.2C327.445 44.8774 329.354 45.1671 331.26 45.05C332.248 45.026 333.232 44.9122 334.2 44.71L334.79 44.57C335.135 44.4801 335.432 44.2602 335.618 43.9563C335.805 43.6525 335.866 43.2883 335.79 42.94C335.79 42.94 334.92 38.94 334.79 38.47C334.66 38 334.48 37.64 333.71 37.8Z" fill="#404E6B"/>
<path d="M374.69 14.32C372.108 12.9641 369.236 12.2556 366.32 12.2556C363.404 12.2556 360.532 12.9641 357.95 14.32C355.617 15.6815 353.728 17.6889 352.51 20.1C351.189 22.7922 350.534 25.7621 350.6 28.76C350.535 31.745 351.19 34.7018 352.51 37.38C353.74 39.8017 355.647 41.8134 358 43.17C360.582 44.526 363.454 45.2344 366.37 45.2344C369.286 45.2344 372.158 44.526 374.74 43.17C377.074 41.8058 378.964 39.7948 380.18 37.38C381.508 34.7042 382.166 31.7463 382.1 28.76C382.167 25.7608 381.509 22.7897 380.18 20.1C378.949 17.682 377.041 15.674 374.69 14.32ZM372.28 33.67C371.861 35.0001 371.091 36.1922 370.05 37.12C369.011 37.9689 367.701 38.4129 366.36 38.37C365.007 38.411 363.685 37.9677 362.63 37.12C361.573 36.1982 360.788 35.0053 360.36 33.67C359.83 32.0574 359.573 30.3674 359.6 28.67C359.573 26.9727 359.83 25.2828 360.36 23.67C360.788 22.3348 361.573 21.1419 362.63 20.22C363.685 19.3759 365.01 18.9425 366.36 19C367.704 18.9543 369.018 19.4066 370.05 20.27C371.091 21.1978 371.861 22.3899 372.28 23.72C372.814 25.3317 373.071 27.0224 373.04 28.72C373.066 30.401 372.809 32.0743 372.28 33.67Z" fill="#404E6B"/>
<path d="M396.12 8.00001C396.481 7.65852 396.913 7.40012 397.384 7.24293C397.856 7.08574 398.356 7.03355 398.85 7.09001C399.371 7.0695 399.893 7.11996 400.4 7.24001C400.562 7.30904 400.737 7.34036 400.913 7.33161C401.089 7.32285 401.26 7.27424 401.414 7.18946C401.568 7.10467 401.701 6.98594 401.803 6.84224C401.904 6.69854 401.972 6.53364 402 6.36001L403 2.23001C403.042 2.04568 403.046 1.85467 403.011 1.66884C402.976 1.48301 402.903 1.30632 402.798 1.14973C402.692 0.993139 402.555 0.859993 402.395 0.758549C402.235 0.657106 402.057 0.58953 401.87 0.560014L400.73 0.330014C399.499 0.106673 398.251 -0.00378588 397 1.3662e-05C395.14 -0.033816 393.297 0.356026 391.61 1.14001C390.049 1.88596 388.75 3.0847 387.88 4.58001C386.908 6.33983 386.435 8.33119 386.51 10.34V12.65H383.38C383.197 12.65 383.016 12.6863 382.847 12.7569C382.678 12.8275 382.525 12.931 382.397 13.0613C382.269 13.1915 382.167 13.346 382.099 13.5158C382.031 13.6855 381.997 13.8671 382 14.05V17.94C382 18.306 382.145 18.657 382.404 18.9158C382.663 19.1746 383.014 19.32 383.38 19.32H386.51V44.61H395.35V19.32H400.35C400.716 19.32 401.067 19.1746 401.326 18.9158C401.585 18.657 401.73 18.306 401.73 17.94V14.05C401.73 13.684 401.585 13.333 401.326 13.0742C401.067 12.8154 400.716 12.67 400.35 12.67H395.35V10.52C395.296 9.61485 395.569 8.72047 396.12 8.00001Z" fill="#404E6B"/>
<path d="M444.25 28.91C444.28 30.4223 443.911 31.9157 443.18 33.24C442.482 34.5019 441.442 35.5415 440.18 36.24C438.765 36.9499 437.203 37.3196 435.62 37.3196C434.037 37.3196 432.475 36.9499 431.06 36.24C429.795 35.5451 428.755 34.5045 428.06 33.24C427.337 31.9131 426.972 30.4208 427 28.91V3.4C427.003 3.21281 426.968 3.02701 426.896 2.85389C426.825 2.68077 426.719 2.52395 426.586 2.39299C426.452 2.26202 426.293 2.15965 426.118 2.09208C425.944 2.02452 425.757 1.99319 425.57 2H419.32C418.954 2 418.603 2.14539 418.344 2.40419C418.085 2.66299 417.94 3.014 417.94 3.38V29.68C417.852 32.517 418.6 35.3173 420.089 37.7333C421.579 40.1493 423.746 42.0745 426.32 43.27C429.241 44.5565 432.398 45.2208 435.59 45.2208C438.782 45.2208 441.939 44.5565 444.86 43.27C447.436 42.0754 449.606 40.1509 451.099 37.7352C452.592 35.3195 453.343 32.5187 453.26 29.68V3.4C453.263 3.2171 453.229 3.03549 453.161 2.86575C453.093 2.696 452.991 2.54151 452.863 2.41123C452.735 2.28096 452.581 2.17752 452.413 2.10692C452.244 2.03632 452.063 1.99998 451.88 2H445.63C445.264 2 444.913 2.14539 444.654 2.40419C444.395 2.66299 444.25 3.014 444.25 3.38V28.91Z" fill="#404E6B"/>
<path d="M482.44 29.14C480.443 27.5059 478.042 26.4418 475.49 26.06L469.71 24.9C468.578 24.728 467.503 24.293 466.57 23.63C466.281 23.3967 466.047 23.1011 465.888 22.7652C465.729 22.4293 465.647 22.0618 465.65 21.69C465.654 21.2135 465.789 20.7473 466.039 20.3419C466.289 19.9364 466.646 19.6072 467.07 19.39C468.125 18.7891 469.326 18.4915 470.54 18.53C471.45 18.5066 472.354 18.6806 473.19 19.04C473.885 19.3474 474.5 19.8091 474.99 20.39C475.225 20.6831 475.426 21.0018 475.59 21.34C475.698 21.6086 475.887 21.8367 476.131 21.9927C476.375 22.1487 476.661 22.2246 476.95 22.21L482.41 21.87C482.613 21.8601 482.812 21.8051 482.991 21.709C483.17 21.6129 483.326 21.478 483.446 21.3143C483.567 21.1506 483.65 20.9621 483.688 20.7624C483.727 20.5627 483.721 20.357 483.67 20.16C483.077 17.9989 481.756 16.1089 479.93 14.81C477.61 13.0967 474.43 12.2433 470.39 12.25C467.955 12.1968 465.532 12.6074 463.25 13.46C461.384 14.135 459.748 15.3241 458.53 16.89C457.394 18.4198 456.803 20.2854 456.85 22.19C456.81 23.2751 456.992 24.3569 457.384 25.3695C457.776 26.3821 458.37 27.3044 459.13 28.08C461.088 29.8344 463.526 30.9628 466.13 31.32L471.66 32.42C472.763 32.585 473.816 32.995 474.74 33.62C475.052 33.8518 475.305 34.1535 475.478 34.5009C475.652 34.8483 475.742 35.2316 475.74 35.62C475.727 36.1112 475.584 36.5903 475.326 37.0084C475.068 37.4265 474.703 37.7686 474.27 38C473.13 38.6483 471.83 38.9603 470.52 38.9C469.152 38.9635 467.797 38.6151 466.63 37.9C465.896 37.4168 465.33 36.7181 465.01 35.9C464.905 35.625 464.716 35.3901 464.47 35.2285C464.225 35.067 463.934 34.987 463.64 35L457.64 35.31C457.437 35.318 457.238 35.3707 457.058 35.4643C456.878 35.558 456.721 35.6902 456.598 35.8516C456.474 36.013 456.388 36.1996 456.345 36.3982C456.303 36.5967 456.304 36.8022 456.35 37C456.996 39.2674 458.41 41.2399 460.35 42.58C462.85 44.3533 466.217 45.24 470.45 45.24C472.963 45.2874 475.461 44.8388 477.8 43.92C479.763 43.1476 481.487 41.8714 482.8 40.22C484.027 38.6484 484.676 36.7032 484.64 34.71C484.692 33.6784 484.522 32.6476 484.143 31.6869C483.763 30.7262 483.183 29.8578 482.44 29.14Z" fill="#404E6B"/>
</g>
<defs>
<clipPath id="clip0">
<rect width="484.72" height="45.24" fill="white"/>
</clipPath>
</defs>
</svg>
