<svg width="600" height="57" viewBox="0 0 600 57" fill="none" xmlns="http://www.w3.org/2000/svg">
<path d="M30.9502 34.508C33.6701 33.2913 35.9546 31.2745 37.4993 28.7265C39.0695 25.9835 39.8534 22.8608 39.7648 19.7014C39.8399 16.5246 39.071 13.3847 37.5364 10.6021C36.0308 7.99975 33.7798 5.90835 31.074 4.59772C27.8659 3.09837 24.3505 2.37324 20.8109 2.48072H1.70845C1.25534 2.48072 0.820791 2.66072 0.500394 2.98111C0.179997 3.30151 0 3.73606 0 4.18917L0 53.4991C0 53.7234 0.0441904 53.9456 0.130048 54.1529C0.215906 54.3602 0.34175 54.5485 0.500394 54.7071C0.659039 54.8658 0.847377 54.9916 1.05466 55.0775C1.26193 55.1633 1.4841 55.2075 1.70845 55.2075H9.43363C9.65799 55.2075 9.88015 55.1633 10.0874 55.0775C10.2947 54.9916 10.483 54.8658 10.6417 54.7071C10.8003 54.5485 10.9262 54.3602 11.012 54.1529C11.0979 53.9456 11.1421 53.7234 11.1421 53.4991V36.5136H19.2758L28.7837 54.3038C28.9298 54.5773 29.1475 54.8059 29.4136 54.9651C29.6796 55.1243 29.984 55.2081 30.2941 55.2075H38.6878C38.9769 55.2028 39.2601 55.1247 39.5109 54.9806C39.7616 54.8365 39.9716 54.6311 40.1213 54.3837C40.271 54.1362 40.3554 53.8549 40.3667 53.5659C40.378 53.2769 40.3157 52.9898 40.1858 52.7315L30.3807 34.669L30.9502 34.508ZM11.1421 11.5925H18.6568C20.4815 11.5315 22.2988 11.852 23.9926 12.5334C25.348 13.0593 26.4893 14.022 27.2362 15.2694C27.9714 16.6282 28.3345 18.1571 28.2885 19.7014C28.3368 21.2223 27.9732 22.728 27.2362 24.0592C26.5028 25.2588 25.3926 26.1817 24.0793 26.6838C22.3861 27.3142 20.5864 27.6086 18.7806 27.5504H11.1421V11.5925Z" fill="#404E6B"/>
<path d="M64.4383 55.2075H68.7218C68.9461 55.2075 69.1683 55.1633 69.3756 55.0775C69.5829 54.9916 69.7712 54.8658 69.9298 54.7071C70.0885 54.5485 70.2143 54.3602 70.3002 54.1529C70.3861 53.9456 70.4302 53.7234 70.4302 53.4991V21.8432H77.2393C77.4647 21.8448 77.6882 21.8018 77.8969 21.7167C78.1056 21.6316 78.2954 21.506 78.4554 21.3472C78.6153 21.1884 78.7423 20.9995 78.8289 20.7914C78.9155 20.5833 78.9601 20.3601 78.9601 20.1347V17.3368C78.9601 17.1114 78.9155 16.8883 78.8289 16.6802C78.7423 16.4721 78.6153 16.2832 78.4554 16.1244C78.2954 15.9656 78.1056 15.84 77.8969 15.7549C77.6882 15.6697 77.4647 15.6268 77.2393 15.6284H70.4302V12.1124C70.3404 10.6654 70.7805 9.23516 71.6683 8.08891C72.1934 7.58023 72.8234 7.19254 73.5142 6.95302C74.2049 6.7135 74.9397 6.62794 75.667 6.70234C76.3625 6.67936 77.0579 6.75015 77.7345 6.9128C77.9031 6.99371 78.0878 7.03537 78.2749 7.03465C78.4619 7.03393 78.6463 6.99086 78.8143 6.90865C78.9823 6.82645 79.1294 6.70726 79.2447 6.56003C79.3601 6.4128 79.4405 6.24136 79.4801 6.05858L80.4705 2.69119C80.5337 2.47004 80.5516 2.23841 80.5231 2.01017C80.4947 1.78193 80.4204 1.56179 80.3048 1.36295C80.1892 1.16411 80.0346 0.990658 79.8504 0.852995C79.6661 0.715333 79.4559 0.616294 79.2325 0.561816L78.4402 0.376115C77.1371 0.10838 75.8087 -0.0161597 74.4785 0.00471197C72.4721 -0.0100273 70.4865 0.412434 68.6599 1.24272C66.9068 2.04648 65.4204 3.33525 64.3764 4.95675C63.2367 6.81482 62.6724 8.96861 62.7546 11.1468V15.7398H58.3101C57.8757 15.7389 57.4572 15.9035 57.1398 16.2002C56.8224 16.4969 56.63 16.9033 56.6017 17.3368V20.0976C56.6017 20.5507 56.7817 20.9853 57.1021 21.3057C57.4225 21.6261 57.857 21.8061 58.3101 21.8061H62.7298V53.4991C62.7298 53.7234 62.774 53.9456 62.8599 54.1529C62.9457 54.3602 63.0716 54.5485 63.2302 54.7071C63.3889 54.8658 63.5772 54.9916 63.7845 55.0775C63.9918 55.1633 64.2139 55.2075 64.4383 55.2075V55.2075Z" fill="#404E6B"/>
<path d="M87.3168 53.4619C90.2785 55.1336 93.6218 56.012 97.0228 56.012C100.424 56.012 103.767 55.1336 106.729 53.4619C109.508 51.7443 111.741 49.2709 113.166 46.331C114.76 42.9864 115.545 39.3137 115.457 35.6098C115.544 31.894 114.76 28.2094 113.166 24.8516C111.752 21.8975 109.517 19.4132 106.729 17.6959C103.767 16.0242 100.424 15.1458 97.0228 15.1458C93.6218 15.1458 90.2785 16.0242 87.3168 17.6959C84.5339 19.4202 82.3007 21.9025 80.8791 24.8516C79.2912 28.2113 78.507 31.8946 78.5888 35.6098C78.5069 39.3132 79.2912 42.9844 80.8791 46.331C82.3102 49.2671 84.5419 51.739 87.3168 53.4619ZM87.5149 28.6275C88.1906 26.6307 89.413 24.8635 91.0432 23.5269C92.7889 22.2715 94.8849 21.5961 97.0352 21.5961C99.1854 21.5961 101.281 22.2715 103.027 23.5269C104.644 24.8777 105.861 26.6462 106.543 28.6399C107.326 30.871 107.72 33.2204 107.707 35.5851C107.733 37.9608 107.347 40.3231 106.568 42.5675C105.888 44.552 104.671 46.3091 103.052 47.6433C101.3 48.8829 99.2063 49.5486 97.0599 49.5486C94.9136 49.5486 92.8201 48.8829 91.068 47.6433C89.4366 46.318 88.2135 44.5583 87.5396 42.5675C86.7501 40.3253 86.3604 37.962 86.3883 35.5851C86.3553 33.2179 86.7366 30.8633 87.5149 28.6275V28.6275Z" fill="#404E6B"/>
<path d="M127.106 31.054C127.073 29.4607 127.485 27.8898 128.297 26.5183C129.108 25.1468 130.287 24.0293 131.699 23.2917C133.197 22.5141 134.865 22.1226 136.552 22.1527C137.344 22.1442 138.134 22.198 138.917 22.3136C139.109 22.3812 139.315 22.4003 139.517 22.3691C139.718 22.338 139.909 22.2576 140.071 22.1352C140.234 22.0127 140.364 21.8519 140.45 21.6671C140.536 21.4822 140.575 21.2791 140.563 21.0756V16.6559C140.567 16.4523 140.529 16.2502 140.452 16.0616C140.376 15.873 140.262 15.7018 140.117 15.5584C139.972 15.415 139.8 15.3023 139.611 15.2271C139.422 15.1519 139.22 15.1158 139.016 15.1208C138.347 15.1208 137.778 15.1208 137.295 15.1208C135.094 15.0929 132.936 15.7317 131.105 16.953C129.298 18.1533 127.95 19.9289 127.28 21.9917H126.871V17.3368C126.871 16.8837 126.691 16.4492 126.371 16.1288C126.05 15.8084 125.616 15.6284 125.163 15.6284H121.114C120.661 15.6284 120.227 15.8084 119.906 16.1288C119.586 16.4492 119.406 16.8837 119.406 17.3368V53.4991C119.406 53.7234 119.45 53.9456 119.536 54.1529C119.622 54.3601 119.748 54.5485 119.906 54.7071C120.065 54.8658 120.253 54.9916 120.461 55.0775C120.668 55.1633 120.89 55.2075 121.114 55.2075H125.385C125.611 55.2092 125.834 55.1662 126.043 55.0811C126.252 54.9959 126.442 54.8703 126.602 54.7115C126.761 54.5527 126.888 54.3638 126.975 54.1557C127.062 53.9477 127.106 53.7245 127.106 53.4991V31.054Z" fill="#404E6B"/>
<path d="M161.87 45.192C161.792 47.2957 162.358 49.373 163.491 51.1469C164.545 52.6917 166.018 53.903 167.738 54.638C169.527 55.4045 171.461 55.7761 173.408 55.7275C174.446 55.7225 175.482 55.6231 176.503 55.4304L176.788 55.3685C177.217 55.2572 177.587 54.983 177.818 54.6041C178.049 54.2251 178.123 53.7711 178.026 53.3381C178.026 53.3381 177.258 49.9584 177.184 49.5127C177.16 49.3774 177.107 49.2486 177.03 49.1349C176.953 49.0211 176.853 48.9249 176.736 48.8525C176.619 48.78 176.489 48.733 176.352 48.7146C176.216 48.6961 176.078 48.7065 175.946 48.7451C175.412 48.8527 174.868 48.8984 174.324 48.8813C173.53 48.8902 172.74 48.7517 171.996 48.4728C171.255 48.1907 170.637 47.6558 170.251 46.9624C169.741 45.9165 169.511 44.7564 169.582 43.595V21.8432H175.983C176.436 21.8432 176.871 21.6632 177.191 21.3428C177.511 21.0224 177.691 20.5878 177.691 20.1347V17.3368C177.691 16.8837 177.511 16.4492 177.191 16.1288C176.871 15.8084 176.436 15.6284 175.983 15.6284H169.607V7.89083C169.606 7.66436 169.559 7.44046 169.47 7.23216C169.381 7.02386 169.252 6.83531 169.089 6.67749C168.927 6.51967 168.735 6.39571 168.524 6.31284C168.313 6.22997 168.088 6.18983 167.862 6.19476H163.578C163.125 6.19476 162.69 6.37475 162.37 6.69515C162.05 7.01555 161.87 7.4501 161.87 7.90321V15.6779H157.784C157.339 15.6777 156.912 15.8509 156.593 16.1607C156.274 16.4704 156.089 16.8924 156.076 17.3368V20.0976C156.076 20.5507 156.256 20.9853 156.576 21.3057C156.896 21.6261 157.331 21.8061 157.784 21.8061H161.87V45.192Z" fill="#404E6B"/>
<path d="M188.611 31.7225C188.569 29.8602 188.994 28.0172 189.849 26.3619C190.619 24.9249 191.794 23.7454 193.228 22.9698C194.733 22.1854 196.41 21.7896 198.106 21.8184C199.249 21.7553 200.393 21.9369 201.46 22.3511C202.528 22.7653 203.495 23.4025 204.296 24.2202C205.886 26.0917 206.693 28.5038 206.549 30.9549V53.4991C206.549 53.7234 206.594 53.9456 206.679 54.1529C206.765 54.3601 206.891 54.5485 207.05 54.7071C207.208 54.8658 207.397 54.9916 207.604 55.0775C207.811 55.1633 208.034 55.2075 208.258 55.2075H212.541C212.766 55.2075 212.988 55.1633 213.195 55.0775C213.402 54.9916 213.591 54.8658 213.749 54.7071C213.908 54.5485 214.034 54.3601 214.12 54.1529C214.206 53.9456 214.25 53.7234 214.25 53.4991V30.0512C214.347 27.2084 213.771 24.3829 212.566 21.806C211.533 19.7066 209.877 17.9772 207.825 16.854C205.632 15.7009 203.182 15.1257 200.706 15.1827C198.1 15.0733 195.518 15.7273 193.278 17.0645C191.39 18.2972 189.912 20.0642 189.032 22.1403H188.536V4.18918C188.536 3.96166 188.491 3.73643 188.403 3.52669C188.315 3.31695 188.186 3.12694 188.023 2.9678C187.86 2.80866 187.668 2.6836 187.456 2.59996C187.244 2.51632 187.018 2.47578 186.791 2.48073H182.619C182.166 2.48073 181.731 2.66072 181.411 2.98112C181.09 3.30152 180.91 3.73607 180.91 4.18918V53.4991C180.91 53.7234 180.954 53.9456 181.04 54.1529C181.126 54.3601 181.252 54.5485 181.411 54.7071C181.569 54.8658 181.758 54.9916 181.965 55.0775C182.172 55.1633 182.394 55.2075 182.619 55.2075H186.939C187.165 55.2092 187.388 55.1662 187.597 55.0811C187.806 54.9959 187.995 54.8703 188.155 54.7115C188.315 54.5527 188.442 54.3638 188.529 54.1557C188.616 53.9477 188.66 53.7245 188.66 53.4991L188.611 31.7225Z" fill="#404E6B"/>
<path d="M251.316 44.9692L247.317 44.2388C246.959 44.1776 246.59 44.2322 246.265 44.3947C245.94 44.5573 245.675 44.8192 245.509 45.1425C245.114 45.8752 244.609 46.5431 244.011 47.1233C243.12 47.9724 242.056 48.6186 240.892 49.0175C239.608 49.452 238.26 49.6655 236.905 49.6489C234.842 49.6989 232.802 49.1945 231 48.188C229.3 47.1977 227.934 45.7238 227.076 43.954C226.168 42.0168 225.699 39.9033 225.701 37.764H252.083C252.309 37.764 252.532 37.7194 252.74 37.6328C252.948 37.5461 253.137 37.4192 253.296 37.2592C253.455 37.0993 253.58 36.9095 253.665 36.7008C253.75 36.492 253.793 36.2686 253.792 36.0432V35.028C253.868 31.9127 253.381 28.8093 252.356 25.8667C251.524 23.5313 250.174 21.4148 248.406 19.6767C246.795 18.1328 244.875 16.9473 242.773 16.1979C240.689 15.4669 238.495 15.0944 236.286 15.096C232.949 14.9881 229.653 15.862 226.808 17.6093C223.962 19.3566 221.692 21.9006 220.279 24.9258C218.702 28.2756 217.922 31.9453 218.001 35.647C217.912 39.3496 218.693 43.0214 220.279 46.3682C221.706 49.3096 223.961 51.7706 226.766 53.4496C229.833 55.1754 233.313 56.0315 236.831 55.9256C239.458 55.9685 242.07 55.5192 244.531 54.6009C246.669 53.8044 248.599 52.5347 250.177 50.8869C251.205 49.82 252.042 48.5847 252.653 47.2348C252.743 46.9986 252.778 46.7452 252.757 46.4935C252.735 46.2417 252.658 45.998 252.529 45.7804C252.401 45.5628 252.225 45.3769 252.015 45.2365C251.805 45.0961 251.566 45.0047 251.316 44.9692V44.9692ZM226.976 27.2409C227.832 25.5681 229.113 24.1504 230.691 23.1307C232.369 22.0448 234.337 21.4924 236.336 21.5461C238.167 21.4991 239.974 21.9713 241.548 22.9079C243.021 23.8061 244.22 25.0906 245.014 26.6219C245.858 28.2943 246.283 30.1467 246.252 32.0196H225.714C225.797 30.3562 226.227 28.7285 226.976 27.2409V27.2409Z" fill="#404E6B"/>
<path d="M303.56 34.5328C306.28 33.3161 308.564 31.2993 310.109 28.7513C311.679 26.0083 312.463 22.8856 312.374 19.7262C312.45 16.5494 311.681 13.4095 310.146 10.6268C308.64 8.02452 306.389 5.93312 303.684 4.62249C300.492 3.12263 296.995 2.38922 293.47 2.48073H274.38C273.927 2.48073 273.492 2.66073 273.172 2.98112C272.852 3.30152 272.672 3.73607 272.672 4.18918V53.5238C272.672 53.9769 272.852 54.4115 273.172 54.7319C273.492 55.0523 273.927 55.2323 274.38 55.2323H282.105C282.558 55.2323 282.993 55.0523 283.313 54.7319C283.634 54.4115 283.814 53.9769 283.814 53.5238V36.5384H291.96L301.468 54.3285C301.612 54.6011 301.827 54.8292 302.091 54.9885C302.355 55.1477 302.657 55.232 302.966 55.2323H311.372C311.661 55.2275 311.944 55.1494 312.195 55.0053C312.445 54.8612 312.656 54.6559 312.805 54.4084C312.955 54.161 313.039 53.8796 313.051 53.5907C313.062 53.3017 313 53.0146 312.87 52.7563L303.052 34.7804L303.56 34.5328ZM283.814 11.6172H291.341C293.165 11.5563 294.983 11.8767 296.677 12.5581C298.004 13.098 299.118 14.0593 299.846 15.2941C300.577 16.6541 300.935 18.183 300.886 19.7262C300.938 21.2459 300.579 22.7515 299.846 24.084C299.112 25.2836 298.002 26.2065 296.689 26.7086C294.996 27.339 293.196 27.6333 291.39 27.5752H283.814V11.6172Z" fill="#404E6B"/>
<path d="M347.423 20.1595C345.735 18.5112 343.712 17.2447 341.492 16.4455C339.154 15.6056 336.685 15.1864 334.201 15.2075C330.649 15.1186 327.141 16.0095 324.061 17.7825C321.197 19.4901 318.882 21.9817 317.388 24.963C315.745 28.2933 314.93 31.9712 315.011 35.6841C314.917 39.43 315.733 43.1428 317.388 46.5043C318.889 49.4726 321.238 51.9285 324.136 53.561C327.359 55.2875 330.978 56.1411 334.634 56.037C337.593 56.0932 340.535 55.5805 343.3 54.5266C345.672 53.6353 347.794 52.1875 349.49 50.305C350.56 49.0795 351.399 47.6701 351.966 46.1453C352.066 45.8941 352.105 45.623 352.081 45.3538C352.056 45.0846 351.969 44.825 351.825 44.5959C351.682 44.3668 351.487 44.1748 351.255 44.0353C351.023 43.8958 350.762 43.8128 350.493 43.7931L343.572 43.335C343.251 43.3131 342.931 43.383 342.648 43.5364C342.365 43.6899 342.132 43.9206 341.975 44.2016C341.65 44.7924 341.232 45.3273 340.737 45.7863C339.993 46.4846 339.106 47.0127 338.137 47.3338C337.057 47.6801 335.929 47.8515 334.795 47.8414C333.132 47.8856 331.488 47.4883 330.028 46.69C328.692 45.9005 327.62 44.7331 326.946 43.335C326.183 41.7587 325.809 40.0222 325.856 38.2716V38.2716H351.075C351.303 38.2782 351.531 38.2389 351.744 38.156C351.957 38.0731 352.151 37.9483 352.315 37.789C352.479 37.6297 352.609 37.4391 352.698 37.2285C352.787 37.018 352.833 36.7917 352.833 36.5631V35.2508C352.892 32.2519 352.414 29.2666 351.421 26.4362C350.562 24.0773 349.197 21.935 347.423 20.1595V20.1595ZM325.881 31.4749C325.929 30.1045 326.298 28.7644 326.958 27.5628C327.675 26.297 328.713 25.2423 329.967 24.5049C331.301 23.7222 332.827 23.3237 334.374 23.3536C335.846 23.3186 337.301 23.6822 338.583 24.4059C339.78 25.0815 340.765 26.0757 341.431 27.278C342.137 28.5619 342.492 30.0098 342.458 31.4749H325.881Z" fill="#404E6B"/>
<path d="M379.041 32.2672L371.873 30.8311C370.473 30.6155 369.142 30.0772 367.986 29.2589C367.629 28.9694 367.342 28.603 367.147 28.1871C366.952 27.7712 366.854 27.3165 366.859 26.8571C366.865 26.2688 367.03 25.693 367.337 25.1915C367.645 24.6899 368.083 24.2814 368.605 24.0097C369.916 23.2659 371.406 22.8976 372.913 22.945C374.039 22.9172 375.158 23.1326 376.194 23.5764C377.054 23.957 377.816 24.5285 378.422 25.2477C378.713 25.6081 378.959 26.0031 379.153 26.4238C379.29 26.7562 379.527 27.038 379.83 27.2308C380.134 27.4236 380.489 27.5179 380.849 27.5009L387.608 27.08C387.86 27.0677 388.105 26.9996 388.327 26.8806C388.549 26.7616 388.742 26.5947 388.891 26.392C389.04 26.1893 389.143 25.9559 389.191 25.7087C389.239 25.4615 389.231 25.2068 389.168 24.963C388.43 22.2896 386.795 19.9513 384.538 18.3396C381.653 16.2226 377.729 15.1703 372.727 15.1703C369.713 15.1044 366.713 15.6128 363.888 16.6683C361.577 17.5009 359.55 18.9736 358.045 20.9147C356.639 22.8086 355.907 25.1182 355.965 27.4761C355.916 28.8195 356.141 30.1588 356.626 31.4124C357.111 32.666 357.847 33.8077 358.787 34.768C361.211 36.94 364.229 38.337 367.453 38.7791L374.3 40.141C375.665 40.3476 376.967 40.8551 378.113 41.6266C378.496 41.9155 378.808 42.2895 379.023 42.7191C379.237 43.1487 379.35 43.6223 379.351 44.1026C379.341 44.7046 379.174 45.2935 378.865 45.8105C378.557 46.3275 378.118 46.7546 377.593 47.049C376.182 47.8516 374.572 48.2379 372.95 48.1633C371.257 48.2441 369.579 47.8127 368.134 46.9252C367.22 46.3308 366.514 45.465 366.116 44.4492C365.989 44.1098 365.757 43.8193 365.455 43.6193C365.153 43.4192 364.795 43.3197 364.433 43.335L357.005 43.7188C356.744 43.7116 356.486 43.7644 356.249 43.8732C356.012 43.982 355.804 44.1438 355.64 44.3462C355.476 44.5485 355.361 44.7859 355.303 45.0399C355.246 45.2939 355.248 45.5578 355.309 45.811C356.115 48.632 357.89 51.0782 360.322 52.7191C363.417 54.9145 367.581 56.0122 372.814 56.0122C375.929 56.0719 379.025 55.5165 381.926 54.3781C384.356 53.4218 386.491 51.8418 388.116 49.7974C389.634 47.8518 390.438 45.4436 390.394 42.976C390.445 41.6903 390.219 40.4085 389.729 39.2184C389.24 38.0283 388.5 36.9579 387.559 36.0803C385.112 34.0693 382.171 32.7524 379.041 32.2672V32.2672Z" fill="#404E6B"/>
<path d="M413.136 46.8014C412.626 46.8999 412.108 46.9496 411.588 46.95C410.924 46.96 410.265 46.8423 409.645 46.6034C409.085 46.386 408.623 45.9724 408.345 45.4396C407.998 44.706 407.836 43.8982 407.874 43.0874V23.923H413.606C413.832 23.9247 414.055 23.8817 414.264 23.7966C414.473 23.7114 414.663 23.5859 414.822 23.427C414.982 23.2682 415.109 23.0793 415.196 22.8713C415.283 22.6632 415.327 22.44 415.327 22.2146V17.3987C415.327 17.1733 415.283 16.9502 415.196 16.7421C415.109 16.534 414.982 16.3451 414.822 16.1863C414.663 16.0275 414.473 15.9019 414.264 15.8168C414.055 15.7316 413.832 15.6887 413.606 15.6903H407.874V7.91559C407.876 7.69019 407.833 7.4667 407.748 7.25799C407.663 7.04928 407.537 6.85948 407.378 6.69952C407.22 6.53956 407.031 6.41261 406.823 6.32598C406.615 6.23935 406.391 6.19475 406.166 6.19475H398.639C398.414 6.19312 398.19 6.23611 397.981 6.32123C397.773 6.40636 397.583 6.53194 397.423 6.69075C397.263 6.84956 397.136 7.03845 397.049 7.24654C396.963 7.45463 396.918 7.6778 396.918 7.90321V15.6779H393.204C392.751 15.6779 392.316 15.8579 391.996 16.1783C391.676 16.4987 391.496 16.9332 391.496 17.3864V22.2022C391.496 22.6553 391.676 23.0899 391.996 23.4103C392.316 23.7307 392.751 23.9107 393.204 23.9107H396.918V44.573C396.821 46.831 397.384 49.0683 398.54 51.0107C399.66 52.6996 401.278 53.9977 403.17 54.7247C405.38 55.5632 407.743 55.922 410.103 55.777C411.326 55.7472 412.545 55.6063 413.743 55.3561L414.473 55.1828C414.9 55.0714 415.267 54.7992 415.498 54.423C415.729 54.0468 415.805 53.5959 415.711 53.1648C415.711 53.1648 414.634 48.2128 414.473 47.6309C414.312 47.0491 414.089 46.6034 413.136 46.8014Z" fill="#404E6B"/>
<path d="M463.869 17.733C460.673 16.0543 457.117 15.1772 453.507 15.1772C449.897 15.1772 446.341 16.0543 443.145 17.733C440.257 19.4186 437.918 21.9037 436.41 24.8887C434.775 28.2216 433.964 31.8984 434.046 35.6099C433.966 39.3053 434.777 42.9658 436.41 46.2815C437.933 49.2795 440.294 51.7701 443.207 53.4496C446.403 55.1282 449.959 56.0053 453.569 56.0053C457.179 56.0053 460.735 55.1282 463.931 53.4496C466.821 51.7607 469.16 49.2711 470.666 46.2815C472.31 42.9688 473.125 39.3069 473.043 35.6099C473.127 31.8968 472.311 28.2186 470.666 24.8887C469.142 21.8952 466.781 19.4092 463.869 17.733V17.733ZM460.886 41.6885C460.368 43.3351 459.414 44.811 458.125 45.9596C456.839 47.0105 455.217 47.5603 453.557 47.5071C451.882 47.5578 450.245 47.009 448.939 45.9596C447.631 44.8184 446.659 43.3415 446.129 41.6885C445.472 39.692 445.154 37.5998 445.188 35.4984C445.155 33.3971 445.473 31.305 446.129 29.3084C446.659 27.6553 447.631 26.1785 448.939 25.0373C450.245 23.9923 451.886 23.4557 453.557 23.5269C455.221 23.4703 456.848 24.0302 458.125 25.0992C459.414 26.2478 460.368 27.7236 460.886 29.3703C461.548 31.3655 461.866 33.4586 461.827 35.5603C461.859 37.6413 461.541 39.7129 460.886 41.6885V41.6885Z" fill="#404E6B"/>
<path d="M490.4 9.90878C490.847 9.486 491.382 9.16611 491.965 8.9715C492.549 8.7769 493.169 8.71229 493.78 8.78219C494.425 8.75679 495.071 8.81926 495.699 8.96789C495.899 9.05335 496.116 9.09213 496.334 9.08128C496.551 9.07044 496.764 9.01026 496.954 8.9053C497.145 8.80034 497.31 8.65335 497.435 8.47545C497.561 8.29754 497.645 8.0934 497.68 7.87845L498.918 2.76547C498.97 2.53726 498.974 2.30079 498.931 2.07073C498.888 1.84067 498.798 1.62192 498.667 1.42807C498.536 1.23421 498.366 1.06937 498.169 0.943781C497.971 0.818194 497.75 0.734534 497.519 0.697993L496.107 0.413251C494.584 0.136753 493.038 3.8628e-06 491.49 0.00470773C489.187 -0.0371736 486.905 0.445454 484.817 1.41604C482.885 2.33953 481.276 3.82357 480.199 5.67479C478.996 7.85346 478.41 10.3188 478.503 12.8057V15.6655H474.628C474.401 15.6655 474.177 15.7105 473.968 15.7979C473.759 15.8853 473.57 16.0134 473.411 16.1746C473.252 16.3359 473.127 16.5272 473.042 16.7373C472.958 16.9475 472.916 17.1723 472.919 17.3987V22.2146C472.919 22.6677 473.1 23.1023 473.42 23.4226C473.74 23.743 474.175 23.923 474.628 23.923H478.503V55.2323H489.447V23.923H495.637C496.09 23.923 496.525 23.743 496.845 23.4226C497.165 23.1023 497.345 22.6677 497.345 22.2146V17.3987C497.345 16.9456 497.165 16.5111 496.845 16.1907C496.525 15.8703 496.09 15.6903 495.637 15.6903H489.447V13.0286C489.38 11.908 489.719 10.8007 490.4 9.90878V9.90878Z" fill="#404E6B"/>
<path d="M549.986 35.7955C550.023 37.6677 549.566 39.5166 548.661 41.1561C547.796 42.7183 546.509 44.0054 544.947 44.8701C543.195 45.749 541.262 46.2067 539.302 46.2067C537.341 46.2067 535.408 45.749 533.656 44.8701C532.091 44.0098 530.803 42.7216 529.942 41.1561C529.047 39.5134 528.595 37.666 528.63 35.7955V4.21393C528.633 3.9822 528.59 3.75217 528.502 3.53784C528.413 3.32352 528.283 3.12938 528.117 2.96725C527.951 2.80511 527.754 2.67837 527.538 2.59473C527.322 2.51109 527.091 2.4723 526.86 2.48072H519.122C518.669 2.48072 518.234 2.66072 517.914 2.98111C517.594 3.30151 517.414 3.73606 517.414 4.18917V36.7488C517.305 40.2611 518.23 43.7279 520.075 46.7189C521.919 49.7099 524.601 52.0933 527.788 53.5734C531.405 55.166 535.313 55.9885 539.264 55.9885C543.216 55.9885 547.124 55.166 550.741 53.5734C553.93 52.0944 556.616 49.7119 558.465 46.7212C560.313 43.7305 561.243 40.2632 561.14 36.7488V4.21393C561.143 3.9875 561.102 3.76268 561.017 3.55253C560.933 3.34238 560.807 3.15111 560.649 2.98984C560.49 2.82856 560.3 2.7005 560.091 2.6131C559.882 2.52569 559.658 2.4807 559.432 2.48072H551.694C551.241 2.48072 550.806 2.66072 550.486 2.98111C550.166 3.30151 549.986 3.73606 549.986 4.18917V35.7955Z" fill="#404E6B"/>
<path d="M597.265 36.0803C594.793 34.0573 591.82 32.7399 588.661 32.2672L581.505 30.8311C580.104 30.6182 578.773 30.0797 577.618 29.2589C577.259 28.9701 576.971 28.6041 576.774 28.1882C576.577 27.7724 576.476 27.3174 576.479 26.8571C576.484 26.2672 576.651 25.69 576.961 25.1881C577.27 24.6862 577.712 24.2786 578.237 24.0097C579.543 23.2658 581.03 22.8973 582.533 22.945C583.659 22.916 584.778 23.1314 585.813 23.5764C586.674 23.957 587.436 24.5285 588.042 25.2477C588.333 25.6106 588.582 26.0051 588.785 26.4238C588.918 26.7563 589.152 27.0388 589.454 27.2319C589.756 27.4249 590.111 27.519 590.468 27.5009L597.228 27.08C597.479 27.0677 597.725 26.9996 597.947 26.8806C598.169 26.7616 598.361 26.5947 598.511 26.392C598.66 26.1893 598.762 25.9559 598.81 25.7087C598.858 25.4615 598.851 25.2068 598.788 24.963C598.054 22.2875 596.418 19.9477 594.158 18.3396C591.285 16.2185 587.349 15.1621 582.347 15.1703C579.332 15.1044 576.332 15.6128 573.508 16.6683C571.198 17.5039 569.172 18.9761 567.664 20.9147C566.258 22.8086 565.526 25.1182 565.584 27.4761C565.535 28.8195 565.76 30.1588 566.246 31.4124C566.731 32.666 567.466 33.8077 568.407 34.768C570.831 36.94 573.849 38.337 577.073 38.7791L583.919 40.141C585.285 40.3452 586.588 40.8528 587.732 41.6266C588.118 41.9135 588.431 42.2871 588.646 42.7171C588.861 43.1472 588.972 43.6218 588.97 44.1026C588.954 44.7107 588.778 45.3038 588.458 45.8214C588.138 46.339 587.687 46.7626 587.15 47.049C585.739 47.8516 584.13 48.2379 582.508 48.1633C580.815 48.2418 579.137 47.8106 577.692 46.9252C576.784 46.327 576.083 45.462 575.687 44.4492C575.557 44.1088 575.323 43.818 575.019 43.6179C574.714 43.4179 574.354 43.3189 573.99 43.335L566.562 43.7188C566.311 43.7287 566.065 43.794 565.842 43.9099C565.619 44.0258 565.424 44.1895 565.272 44.3893C565.119 44.5892 565.013 44.8202 564.96 45.0659C564.907 45.3117 564.909 45.5661 564.965 45.811C565.765 48.6181 567.516 51.0601 569.917 52.7191C573.012 54.9145 577.18 56.0122 582.421 56.0122C585.532 56.0709 588.624 55.5156 591.521 54.3781C593.951 53.4218 596.086 51.8418 597.711 49.7974C599.229 47.8518 600.033 45.4436 599.989 42.976C600.053 41.6988 599.843 40.4227 599.373 39.2333C598.903 38.044 598.185 36.9689 597.265 36.0803V36.0803Z" fill="#404E6B"/>
</svg>
