<svg width="238" height="60" viewBox="0 0 238 60" fill="none" xmlns="http://www.w3.org/2000/svg">
<mask id="mask0" style="mask-type:alpha" maskUnits="userSpaceOnUse" x="0" y="0" width="70" height="60">
<path fill-rule="evenodd" clip-rule="evenodd" d="M0 0.074707H69.2267V59.9795H0V0.074707Z" fill="white"/>
</mask>
<g mask="url(#mask0)">
<path fill-rule="evenodd" clip-rule="evenodd" d="M58.3823 60L17.2569 49.219L30.0328 27.5728L17.2194 41.2297L0 60H58.3823Z" fill="#38A2CF"/>
<path fill-rule="evenodd" clip-rule="evenodd" d="M40.0354 9.38086L51.2724 50.4288L26.1601 50.1747L44.3804 54.456L69.2267 60.0002L40.0354 9.38086Z" fill="#1A4C76"/>
<path fill-rule="evenodd" clip-rule="evenodd" d="M5.25668 50.694L35.1455 20.4271L47.4819 42.3278L42.075 24.3895L34.448 0.074707L5.25668 50.694Z" fill="#38A2CF"/>
</g>
<path fill-rule="evenodd" clip-rule="evenodd" d="M86.3164 21.9684H79.1203V24.4756H85.4529V29.2884H79.1203V32.1701H86.3164V37.2708H72.7301V16.8677H86.3164V21.9684Z" fill="#1A4C76"/>
<path fill-rule="evenodd" clip-rule="evenodd" d="M96.1042 31.5649C98.925 31.5649 100.796 29.9801 100.796 27.0115C100.796 24.0435 98.925 22.4584 96.1042 22.4584H94.5787V31.5649H96.1042ZM107.273 27.0115C107.273 32.8329 103.185 37.2708 96.68 37.2708H88.1885V16.8677H96.68C103.185 16.8677 107.273 21.1325 107.273 27.0115Z" fill="#1A4C76"/>
<path fill-rule="evenodd" clip-rule="evenodd" d="M108.914 16.8677H115.276V28.366C115.276 30.1239 115.967 31.4208 117.895 31.4208C119.824 31.4208 120.601 30.1239 120.601 28.366V16.8677H126.962V28.366C126.962 34.3887 122.847 37.4725 117.751 37.4725C112.656 37.4725 108.914 34.3887 108.914 28.366V16.8677Z" fill="#1A4C76"/>
<path fill-rule="evenodd" clip-rule="evenodd" d="M138.679 16.6655C144.062 16.6655 147.717 19.8931 148.552 24.7059H141.816C141.212 23.3514 140.003 22.5731 138.564 22.5731C136.405 22.5731 135.081 24.331 135.081 27.04C135.081 29.749 136.405 31.5066 138.564 31.5066C140.003 31.5066 141.212 30.7286 141.816 29.3745H148.552C147.717 34.1866 144.062 37.4145 138.679 37.4145C132.433 37.4145 128.604 33.1204 128.604 27.04C128.604 20.9593 132.433 16.6655 138.679 16.6655Z" fill="#1A4C76"/>
<path fill-rule="evenodd" clip-rule="evenodd" d="M159.636 23.6977L157.793 29.3749H161.478L159.636 23.6977ZM163.032 34.187H156.239L155.232 37.2708H148.525L155.98 16.8677H163.349L170.776 37.2708H164.04L163.032 34.187Z" fill="#1A4C76"/>
<path fill-rule="evenodd" clip-rule="evenodd" d="M168.449 16.8677H185.605V21.9394H180.193V37.2708H173.803V21.9394H168.449V16.8677Z" fill="#1A4C76"/>
<path fill-rule="evenodd" clip-rule="evenodd" d="M187.475 37.2708H193.866V16.8677H187.475V37.2708Z" fill="#1A4C76"/>
<path fill-rule="evenodd" clip-rule="evenodd" d="M206.128 31.5067C208.69 31.5067 210.101 29.6915 210.101 26.9825C210.101 24.216 208.69 22.4291 206.128 22.4291C203.509 22.4291 202.127 24.216 202.127 26.9825C202.127 29.6915 203.509 31.5067 206.128 31.5067ZM206.128 37.4722C200.343 37.4722 195.622 33.1204 195.622 26.9825C195.622 20.8439 200.343 16.5215 206.128 16.5215C211.943 16.5215 216.577 20.8439 216.577 26.9825C216.577 33.1204 211.885 37.4722 206.128 37.4722Z" fill="#1A4C76"/>
<path fill-rule="evenodd" clip-rule="evenodd" d="M237.879 16.8677V37.2708H231.489L224.724 27.0115V37.2708H218.334V16.8677H224.724L231.489 27.2997V16.8677H237.879Z" fill="#1A4C76"/>
<path fill-rule="evenodd" clip-rule="evenodd" d="M72.7301 45.6646H237.879V44.0859H72.7301V45.6646Z" fill="#38A2CF"/>
<path fill-rule="evenodd" clip-rule="evenodd" d="M72.7301 12.1514L73.3783 10.6717C73.9463 11.0248 74.7764 11.241 75.5265 11.241C76.2543 11.241 76.493 11.0817 76.493 10.8197C76.493 9.98897 72.8551 10.9335 72.8551 8.4638C72.8551 7.30311 73.9239 6.41553 75.8561 6.41553C76.7203 6.41553 77.6751 6.5976 78.2888 6.93898L77.641 8.40691C77.0272 8.06553 76.4134 7.95173 75.8679 7.95173C75.1401 7.95173 74.8787 8.15691 74.8787 8.38449C74.8787 9.23794 78.5048 8.31587 78.5048 10.7628C78.5048 11.901 77.4591 12.7886 75.4583 12.7886C74.4126 12.7886 73.3325 12.5269 72.7301 12.1514Z" fill="#38A2CF"/>
<path fill-rule="evenodd" clip-rule="evenodd" d="M82.7689 10.7059V10.171H81.8365C81.1431 10.171 80.8931 10.4214 80.8931 10.7973C80.8931 11.161 81.1886 11.4231 81.7001 11.4231C82.1775 11.4231 82.5984 11.1955 82.7689 10.7059ZM84.9288 9.2607V12.6862H82.9166V11.8897C82.6097 12.4814 81.996 12.7886 81.0977 12.7886C79.6201 12.7886 78.8014 11.9579 78.8014 10.8879C78.8014 9.75001 79.6311 9.04449 81.541 9.04449H82.7688C82.7348 8.41829 82.3139 8.06553 81.4614 8.06553C80.8704 8.06553 80.2108 8.27035 79.7902 8.6007L79.0628 7.13242C79.7675 6.66553 80.8135 6.41553 81.7797 6.41553C83.7804 6.41553 84.9288 7.30311 84.9288 9.2607Z" fill="#38A2CF"/>
<path fill-rule="evenodd" clip-rule="evenodd" d="M92.5689 9.15829V12.6862H90.409V9.51105C90.409 8.62346 90.0225 8.2476 89.397 8.2476C88.7037 8.2476 88.1695 8.68036 88.1695 9.70449V12.6862H86.0096V6.5176H88.0672V7.18932C88.5559 6.67691 89.2493 6.41553 90.0225 6.41553C91.466 6.41553 92.5689 7.24622 92.5689 9.15829Z" fill="#38A2CF"/>
<path fill-rule="evenodd" clip-rule="evenodd" d="M101.085 9.59066C101.085 8.65756 100.528 8.13377 99.8002 8.13377C99.0611 8.13377 98.5042 8.65756 98.5042 9.59066C98.5042 10.5351 99.0611 11.0703 99.8002 11.0703C100.528 11.0703 101.085 10.5351 101.085 9.59066ZM103.21 4.2417V12.6862H101.153V12.0717C100.744 12.561 100.141 12.7886 99.3455 12.7886C97.663 12.7886 96.3104 11.5596 96.3104 9.59067C96.3104 7.63308 97.663 6.41549 99.3455 6.41549C100.062 6.41549 100.641 6.61998 101.05 7.05273V4.2417H103.21Z" fill="#38A2CF"/>
<path fill-rule="evenodd" clip-rule="evenodd" d="M104.314 12.686H106.474V6.51737H104.314V12.686ZM104.076 4.6853C104.076 4.03633 104.598 3.53564 105.394 3.53564C106.19 3.53564 106.713 4.00254 106.713 4.65082C106.713 5.33392 106.19 5.83461 105.394 5.83461C104.598 5.83461 104.076 5.33392 104.076 4.6853Z" fill="#38A2CF"/>
<path fill-rule="evenodd" clip-rule="evenodd" d="M109.339 9.01035H111.863C111.749 8.36139 111.272 7.95173 110.601 7.95173C109.93 7.95173 109.464 8.36139 109.339 9.01035ZM113.852 10.1483H109.373C109.555 10.7741 110.089 11.1386 110.885 11.1386C111.488 11.1386 111.885 10.9679 112.306 10.6035L113.443 11.7872C112.852 12.4472 111.988 12.7886 110.817 12.7886C108.623 12.7886 107.202 11.4341 107.202 9.5907C107.202 7.73553 108.646 6.41553 110.59 6.41553C112.408 6.41553 113.886 7.57622 113.886 9.61346C113.886 9.77277 113.863 9.9776 113.852 10.1483Z" fill="#38A2CF"/>
<path fill-rule="evenodd" clip-rule="evenodd" d="M119.094 9.38587C119.094 8.63449 118.525 8.1338 117.753 8.1338C116.979 8.1338 116.4 8.63449 116.4 9.38587C116.4 10.1373 116.979 10.649 117.753 10.649C118.525 10.649 119.094 10.1373 119.094 9.38587ZM121.231 6.5176V11.5597C121.231 13.8924 119.912 14.9966 117.616 14.9966C116.434 14.9966 115.308 14.7235 114.558 14.1886L115.342 12.6748C115.854 13.0845 116.695 13.3348 117.422 13.3348C118.582 13.3348 119.071 12.8114 119.071 11.8441V11.6393C118.65 12.1286 118.025 12.3676 117.241 12.3676C115.604 12.3676 114.217 11.2066 114.217 9.38587C114.217 7.57622 115.604 6.41553 117.241 6.41553C118.093 6.41553 118.753 6.68863 119.173 7.26898V6.5176H121.231Z" fill="#38A2CF"/>
<path fill-rule="evenodd" clip-rule="evenodd" d="M126.722 9.5907C126.722 8.6576 126.165 8.1338 125.427 8.1338C124.699 8.1338 124.131 8.6576 124.131 9.5907C124.131 10.5352 124.699 11.0704 125.427 11.0704C126.165 11.0704 126.722 10.5352 126.722 9.5907ZM121.948 9.5907C121.948 7.73553 123.415 6.41553 125.427 6.41553C127.462 6.41553 128.905 7.73553 128.905 9.5907C128.905 11.4573 127.462 12.7886 125.427 12.7886C123.415 12.7886 121.948 11.4573 121.948 9.5907Z" fill="#38A2CF"/>
<path fill-rule="evenodd" clip-rule="evenodd" d="M132.26 9.5907C132.26 7.73553 133.726 6.41553 135.795 6.41553C137.194 6.41553 138.262 7.04139 138.683 8.11139L137.011 8.96449C136.716 8.38449 136.284 8.1338 135.784 8.1338C135.034 8.1338 134.443 8.6576 134.443 9.5907C134.443 10.5466 135.034 11.0704 135.784 11.0704C136.284 11.0704 136.716 10.8197 137.011 10.2393L138.683 11.0928C138.262 12.1628 137.194 12.7886 135.795 12.7886C133.726 12.7886 132.26 11.4686 132.26 9.5907Z" fill="#38A2CF"/>
<path fill-rule="evenodd" clip-rule="evenodd" d="M143.538 9.5907C143.538 8.6576 142.981 8.1338 142.242 8.1338C141.515 8.1338 140.946 8.6576 140.946 9.5907C140.946 10.5352 141.515 11.0704 142.242 11.0704C142.981 11.0704 143.538 10.5352 143.538 9.5907ZM138.763 9.5907C138.763 7.73553 140.23 6.41553 142.242 6.41553C144.277 6.41553 145.72 7.73553 145.72 9.5907C145.72 11.4573 144.277 12.7886 142.242 12.7886C140.23 12.7886 138.763 11.4573 138.763 9.5907Z" fill="#38A2CF"/>
<path fill-rule="evenodd" clip-rule="evenodd" d="M152.917 6.51758V12.6862H150.86V12.0262C150.394 12.5386 149.734 12.7886 149.03 12.7886C147.518 12.7886 146.415 11.9238 146.415 9.96654V6.51758H148.575V9.61344C148.575 10.5693 148.95 10.9448 149.598 10.9448C150.235 10.9448 150.758 10.5241 150.758 9.48827V6.51758H152.917Z" fill="#38A2CF"/>
<path fill-rule="evenodd" clip-rule="evenodd" d="M160.58 9.15829V12.6862H158.421V9.51105C158.421 8.62346 158.034 8.2476 157.409 8.2476C156.715 8.2476 156.181 8.68036 156.181 9.70449V12.6862H154.021V6.5176H156.079V7.18932C156.568 6.67691 157.261 6.41553 158.034 6.41553C159.478 6.41553 160.58 7.24622 160.58 9.15829Z" fill="#38A2CF"/>
<path fill-rule="evenodd" clip-rule="evenodd" d="M165.901 12.4358C165.526 12.6748 164.969 12.7886 164.401 12.7886C162.821 12.7886 161.9 12.0148 161.9 10.4327V8.36131H161.002V6.74545H161.9V5.14062H164.06V6.74545H165.47V8.36131H164.06V10.4103C164.06 10.8651 164.322 11.1155 164.708 11.1155C164.947 11.1155 165.185 11.0472 165.367 10.922L165.901 12.4358Z" fill="#38A2CF"/>
<path fill-rule="evenodd" clip-rule="evenodd" d="M172.825 6.51758L170.165 12.9369C169.517 14.53 168.608 14.9965 167.391 14.9965C166.743 14.9965 166.015 14.7803 165.607 14.439L166.357 12.9255C166.607 13.1531 166.971 13.2893 167.312 13.2893C167.732 13.2893 167.971 13.13 168.153 12.7662L165.515 6.51758H167.732L169.244 10.2848L170.767 6.51758H172.825Z" fill="#38A2CF"/>
<path fill-rule="evenodd" clip-rule="evenodd" d="M180.511 9.5907C180.511 8.6576 179.954 8.1338 179.215 8.1338C178.487 8.1338 177.919 8.6576 177.919 9.5907C177.919 10.5352 178.487 11.0704 179.215 11.0704C179.954 11.0704 180.511 10.5352 180.511 9.5907ZM175.737 9.5907C175.737 7.73553 177.203 6.41553 179.215 6.41553C181.25 6.41553 182.693 7.73553 182.693 9.5907C182.693 11.4573 181.25 12.7886 179.215 12.7886C177.203 12.7886 175.737 11.4573 175.737 9.5907Z" fill="#38A2CF"/>
<path fill-rule="evenodd" clip-rule="evenodd" d="M185.764 6.74537H187.23V8.36123H185.821V12.6861H183.661V8.36123H182.763V6.74537H183.661V6.58606C183.661 5.1064 184.582 4.13916 186.23 4.13916C186.753 4.13916 187.31 4.24157 187.663 4.45778L187.128 5.98295C186.946 5.8802 186.708 5.80054 186.48 5.80054C186.025 5.80054 185.764 6.06226 185.764 6.60847V6.74537Z" fill="#38A2CF"/>
<path fill-rule="evenodd" clip-rule="evenodd" d="M193.267 12.686H195.427V6.51737H193.267V12.686ZM193.028 4.6853C193.028 4.03633 193.551 3.53564 194.347 3.53564C195.143 3.53564 195.666 4.00254 195.666 4.65082C195.666 5.33392 195.143 5.83461 194.347 5.83461C193.551 5.83461 193.028 5.33392 193.028 4.6853ZM190.785 6.6084V6.7453H192.251V8.36116H190.842V12.686H188.682V8.36116H187.784V6.7453H188.682V6.58599C188.682 5.10633 189.603 4.13909 191.251 4.13909C191.774 4.13909 192.331 4.24151 192.683 4.45771L192.149 5.98289C191.967 5.88013 191.728 5.80047 191.501 5.80047C191.046 5.80047 190.785 6.0622 190.785 6.6084Z" fill="#38A2CF"/>
<path fill-rule="evenodd" clip-rule="evenodd" d="M196.156 9.5907C196.156 7.73553 197.622 6.41553 199.691 6.41553C201.09 6.41553 202.158 7.04139 202.579 8.11139L200.908 8.96449C200.612 8.38449 200.18 8.1338 199.68 8.1338C198.93 8.1338 198.339 8.6576 198.339 9.5907C198.339 10.5466 198.93 11.0704 199.68 11.0704C200.18 11.0704 200.612 10.8197 200.908 10.2393L202.579 11.0928C202.158 12.1628 201.09 12.7886 199.691 12.7886C197.622 12.7886 196.156 11.4686 196.156 9.5907Z" fill="#38A2CF"/>
<path fill-rule="evenodd" clip-rule="evenodd" d="M204.796 9.01035H207.32C207.206 8.36139 206.729 7.95173 206.058 7.95173C205.388 7.95173 204.921 8.36139 204.796 9.01035ZM209.31 10.1483H204.831C205.012 10.7741 205.547 11.1386 206.343 11.1386C206.945 11.1386 207.343 10.9679 207.763 10.6035L208.9 11.7872C208.309 12.4472 207.445 12.7886 206.274 12.7886C204.08 12.7886 202.66 11.4341 202.66 9.5907C202.66 7.73553 204.103 6.41553 206.047 6.41553C207.866 6.41553 209.344 7.57622 209.344 9.61346C209.344 9.77277 209.321 9.9776 209.31 10.1483Z" fill="#38A2CF"/>
<path fill-rule="evenodd" clip-rule="evenodd" d="M217.473 9.5907C217.473 8.6576 216.916 8.1338 216.177 8.1338C215.449 8.1338 214.881 8.6576 214.881 9.5907C214.881 10.5352 215.449 11.0704 216.177 11.0704C216.916 11.0704 217.473 10.5352 217.473 9.5907ZM212.699 9.5907C212.699 7.73553 214.165 6.41553 216.177 6.41553C218.212 6.41553 219.655 7.73553 219.655 9.5907C219.655 11.4573 218.212 12.7886 216.177 12.7886C214.165 12.7886 212.699 11.4573 212.699 9.5907Z" fill="#38A2CF"/>
<path fill-rule="evenodd" clip-rule="evenodd" d="M222.726 6.74537H224.192V8.36123H222.783V12.6861H220.623V8.36123H219.725V6.74537H220.623V6.58606C220.623 5.1064 221.544 4.13916 223.192 4.13916C223.715 4.13916 224.272 4.24157 224.624 4.45778L224.09 5.98295C223.908 5.8802 223.669 5.80054 223.442 5.80054C222.987 5.80054 222.726 6.06226 222.726 6.60847V6.74537Z" fill="#38A2CF"/>
<path fill-rule="evenodd" clip-rule="evenodd" d="M73.978 53.2621V55.03H76.3914V56.1966H73.978V59.6266H72.7301V52.1187H76.7444V53.2621H73.978Z" fill="#38A2CF"/>
<path fill-rule="evenodd" clip-rule="evenodd" d="M80.7691 59.7797C79.1444 59.7797 78.191 58.5187 78.191 56.9983V52.1069H79.4389V56.9511C79.4389 57.9056 79.8274 58.6011 80.7691 58.6011C81.7462 58.6011 82.0993 57.9056 82.0993 56.9038V52.1069H83.3237V57.0569C83.3237 58.5538 82.3583 59.7797 80.7691 59.7797Z" fill="#38A2CF"/>
<path fill-rule="evenodd" clip-rule="evenodd" d="M87.0808 53.25V59.6266H85.8329V53.25H84.0436V52.1069H88.8821V53.25H87.0808Z" fill="#38A2CF"/>
<path fill-rule="evenodd" clip-rule="evenodd" d="M92.5299 59.7797C90.9052 59.7797 89.9515 58.5187 89.9515 56.9983V52.1069H91.1994V56.9511C91.1994 57.9056 91.5879 58.6011 92.5299 58.6011C93.5067 58.6011 93.8601 57.9056 93.8601 56.9038V52.1069H95.0845V57.0569C95.0845 58.5538 94.1191 59.7797 92.5299 59.7797Z" fill="#38A2CF"/>
<path fill-rule="evenodd" clip-rule="evenodd" d="M98.1704 53.25H97.8408V55.5838H98.1704C99.0653 55.5838 99.6188 55.2538 99.6188 54.37C99.6188 53.5449 99.0301 53.25 98.1704 53.25ZM100.113 59.6266L98.2293 56.7269H97.8407V59.6266H96.6049V52.1187H98.1352C99.5715 52.1187 100.843 52.6373 100.843 54.37C100.843 55.4659 100.313 56.1731 99.5009 56.5031L101.514 59.6266H100.113Z" fill="#38A2CF"/>
<path fill-rule="evenodd" clip-rule="evenodd" d="M102.51 59.6266V52.1187H106.701V53.2621H103.746V55.03H106.289V56.1966H103.746V58.4597H106.713V59.6266H102.51Z" fill="#38A2CF"/>
<path fill-rule="evenodd" clip-rule="evenodd" d="M116.066 59.7797L114.818 56.4559L113.582 59.7797L110.556 52.1069H111.898L113.569 56.2204L114.818 52.8259L116.077 56.2204L117.737 52.1069H119.091L116.066 59.7797Z" fill="#38A2CF"/>
<path fill-rule="evenodd" clip-rule="evenodd" d="M120.1 59.6266V58.5304H120.665V53.2031H120.1V52.1187H122.478V53.2031H121.913V58.5304H122.478V59.6266H120.1Z" fill="#38A2CF"/>
<path fill-rule="evenodd" clip-rule="evenodd" d="M126.632 53.25V59.6266H125.384V53.25H123.594V52.1069H128.433V53.25H126.632Z" fill="#38A2CF"/>
<path fill-rule="evenodd" clip-rule="evenodd" d="M133.564 59.6266V56.2204H130.915V59.6266H129.679V52.1187H130.915V55.0535H133.564V52.1187H134.8V59.6266H133.564Z" fill="#38A2CF"/>
<path fill-rule="evenodd" clip-rule="evenodd" d="M139.725 53.1207C138.301 53.1207 137.63 54.4644 137.63 55.8551C137.63 57.2458 138.289 58.6013 139.725 58.6013C141.185 58.6013 141.833 57.2579 141.833 55.8551C141.833 54.4527 141.174 53.1207 139.725 53.1207ZM139.725 59.78C137.5 59.78 136.37 57.8 136.37 55.8551C136.37 53.9107 137.512 51.9541 139.725 51.9541C141.95 51.9541 143.092 53.8986 143.092 55.8551C143.092 57.8117 141.95 59.78 139.725 59.78Z" fill="#38A2CF"/>
<path fill-rule="evenodd" clip-rule="evenodd" d="M147.109 59.7797C145.484 59.7797 144.531 58.5187 144.531 56.9983V52.1069H145.779V56.9511C145.779 57.9056 146.167 58.6011 147.109 58.6011C148.086 58.6011 148.439 57.9056 148.439 56.9038V52.1069H149.663V57.0569C149.663 58.5538 148.698 59.7797 147.109 59.7797Z" fill="#38A2CF"/>
<path fill-rule="evenodd" clip-rule="evenodd" d="M153.832 53.25V59.6266H152.585V53.25H150.795V52.1069H155.633V53.25H153.832Z" fill="#38A2CF"/>
<path fill-rule="evenodd" clip-rule="evenodd" d="M161.804 56.3262H161.333V58.4714H161.992C162.781 58.4714 163.346 58.1887 163.346 57.4459C163.346 56.6211 162.663 56.3262 161.804 56.3262ZM161.698 53.25H161.333V55.2304H161.663C162.393 55.2304 162.864 54.9121 162.864 54.2049C162.864 53.4742 162.463 53.25 161.698 53.25ZM162.004 59.6266H160.097V52.1187H161.498C162.805 52.1187 164.076 52.5549 164.076 54.1931C164.076 54.7352 163.864 55.2304 163.452 55.5721C164.147 55.9256 164.594 56.6093 164.594 57.4225C164.594 58.99 163.334 59.6266 162.004 59.6266Z" fill="#38A2CF"/>
<path fill-rule="evenodd" clip-rule="evenodd" d="M169.111 53.1207C167.686 53.1207 167.015 54.4644 167.015 55.8551C167.015 57.2458 167.674 58.6013 169.111 58.6013C170.57 58.6013 171.218 57.2579 171.218 55.8551C171.218 54.4527 170.558 53.1207 169.111 53.1207ZM169.11 59.78C166.885 59.78 165.755 57.8 165.755 55.8551C165.755 53.9107 166.897 51.9541 169.11 51.9541C171.335 51.9541 172.477 53.8986 172.477 55.8551C172.477 57.8117 171.335 59.78 169.11 59.78Z" fill="#38A2CF"/>
<path fill-rule="evenodd" clip-rule="evenodd" d="M176.494 59.7797C174.869 59.7797 173.916 58.5187 173.916 56.9983V52.1069H175.164V56.9511C175.164 57.9056 175.552 58.6011 176.494 58.6011C177.471 58.6011 177.824 57.9056 177.824 56.9038V52.1069H179.048V57.0569C179.048 58.5538 178.083 59.7797 176.494 59.7797Z" fill="#38A2CF"/>
<path fill-rule="evenodd" clip-rule="evenodd" d="M181.805 55.1127V59.6269H180.557V51.9541L185.019 56.5269V52.1072H186.267V59.78L181.805 55.1127Z" fill="#38A2CF"/>
<path fill-rule="evenodd" clip-rule="evenodd" d="M189.477 53.2621H189.088V58.4597H189.441C191.195 58.4597 191.972 57.5994 191.972 55.8549C191.972 54.1576 191.184 53.2621 189.477 53.2621ZM189.63 59.6266H187.852V52.1187H189.665C192.02 52.1187 193.209 53.639 193.209 55.8787C193.209 58.1531 191.984 59.6266 189.63 59.6266Z" fill="#38A2CF"/>
<path fill-rule="evenodd" clip-rule="evenodd" d="M196.636 55.1243L196.118 56.5505H197.166L196.636 55.1243ZM198.331 59.6267L197.589 57.6936H195.694L194.952 59.6267H193.622L196.636 51.9419L199.65 59.6267H198.331Z" fill="#38A2CF"/>
<path fill-rule="evenodd" clip-rule="evenodd" d="M202.211 53.25H201.882V55.5838H202.211C203.106 55.5838 203.659 55.2538 203.659 54.37C203.659 53.5449 203.071 53.25 202.211 53.25ZM204.154 59.6266L202.27 56.7269H201.882V59.6266H200.646V52.1187H202.176C203.613 52.1187 204.884 52.6373 204.884 54.37C204.884 55.4659 204.354 56.1731 203.542 56.5031L205.555 59.6266H204.154Z" fill="#38A2CF"/>
<path fill-rule="evenodd" clip-rule="evenodd" d="M206.457 59.6266V58.5304H207.022V53.2031H206.457V52.1187H208.835V53.2031H208.27V58.5304H208.835V59.6266H206.457Z" fill="#38A2CF"/>
<path fill-rule="evenodd" clip-rule="evenodd" d="M210.752 59.6266V52.1187H214.943V53.2621H211.988V55.03H214.531V56.1966H211.988V58.4597H214.955V59.6266H210.752Z" fill="#38A2CF"/>
<path fill-rule="evenodd" clip-rule="evenodd" d="M218.347 59.78C217.381 59.78 216.569 59.4382 215.933 58.9313L216.251 58.0355C217.087 58.6369 219.477 59.12 219.477 57.4344C219.477 55.9496 216.239 56.1969 216.239 53.9458C216.239 52.6731 217.346 51.9541 218.464 51.9541C219.135 51.9541 219.783 52.2251 220.407 52.72L220.112 53.5924C220.112 53.5924 219.394 53.1207 218.57 53.1207C218.017 53.1207 217.499 53.4744 217.499 53.9458C217.499 55.2069 220.736 54.9713 220.736 57.411C220.736 58.8017 219.7 59.78 218.347 59.78Z" fill="#38A2CF"/>
<path fill-rule="evenodd" clip-rule="evenodd" d="M222.462 54.7696C222.106 54.7696 221.806 54.6431 221.572 54.4565L221.689 54.1262C221.998 54.3479 222.879 54.5262 222.879 53.9045C222.879 53.3569 221.684 53.4483 221.684 52.6179C221.684 52.1486 222.093 51.8838 222.505 51.8838C222.753 51.8838 222.991 51.9838 223.221 52.1662L223.113 52.4879C223.113 52.4879 222.848 52.3141 222.544 52.3141C222.34 52.3141 222.149 52.4445 222.149 52.6179C222.149 53.0831 223.343 52.9962 223.343 53.8959C223.343 54.409 222.961 54.7696 222.462 54.7696Z" fill="#38A2CF"/>
<path fill-rule="evenodd" clip-rule="evenodd" d="M225.601 54.7134V53.1489L224.962 53.8789L224.302 53.114V54.7134H223.842V51.8927L224.962 53.1703L226.056 51.8882V54.7134H225.601Z" fill="#38A2CF"/>
</svg>
