<svg width="98" height="37" viewBox="0 0 98 37" fill="none" xmlns="http://www.w3.org/2000/svg">
<g clip-path="url(#clip0)">
<path fill-rule="evenodd" clip-rule="evenodd" d="M51.0186 5.11984L52.0576 3.41822C52.3847 2.87383 53.0055 2.64624 53.4435 2.90952C53.8819 3.17279 53.9717 3.82711 53.6446 4.37149L51.1884 8.45846C51.1382 8.54188 51.0808 8.60457 51.0186 8.67255V9.46333L54.3093 5.56296C54.7179 5.07692 55.3826 4.96265 55.7945 5.30789C56.206 5.65361 56.2089 6.3277 55.8008 6.81422L51.0249 12.5035L51.021 12.8333L53.6726 10.8327C54.18 10.4508 54.8409 10.4716 55.1486 10.88C55.4559 11.2879 55.2943 11.9287 54.7868 12.3111L51.0234 15.1478L51.0196 15.2172C51.0196 15.535 50.762 15.792 50.4441 15.792H50.3867C50.0688 15.792 49.8117 15.535 49.8117 15.2172V0.644707C49.8117 0.327431 50.0688 0.0699463 50.3867 0.0699463H50.4441C50.762 0.0699463 51.0196 0.327431 51.0196 0.644707L51.0186 5.11984Z" fill="#B5CC8E"/>
<path fill-rule="evenodd" clip-rule="evenodd" d="M49.2301 15.8022C45.1652 15.4821 41.9628 12.0832 41.9628 7.93786C41.9628 3.79158 45.1623 0.392679 49.2277 0.072992L49.2258 0.0700989H49.1684C48.851 0.0700989 48.5934 0.327584 48.5934 0.64486L48.5944 5.11999L47.5549 3.41837C47.2278 2.87399 46.6075 2.64591 46.169 2.90967C45.731 3.17246 45.6408 3.82726 45.9679 4.37164L48.4246 8.45862C48.4747 8.54155 48.5321 8.60472 48.5944 8.67271V9.46348L45.3032 5.56312C44.8951 5.07659 44.2304 4.96232 43.8185 5.30804C43.4065 5.65377 43.4036 6.32786 43.8122 6.8139L48.5876 12.5036L48.5915 12.8335L45.9399 10.8329C45.4325 10.4505 44.7721 10.4717 44.4643 10.8801C44.1566 11.2881 44.3182 11.9289 44.8256 12.3108L48.589 15.1479L48.5934 15.2174C48.5934 15.5351 48.851 15.7921 49.1684 15.7921L49.2301 15.8022Z" fill="#265142"/>
<path fill-rule="evenodd" clip-rule="evenodd" d="M10.5312 34.3323L10.6069 34.2841L10.6937 33.3385L10.6397 33.2903L8.16613 33.3549V32.0096L10.824 32.0337L10.8891 31.9768L11.0087 30.972L10.9431 30.9319C9.15353 30.9561 8.57855 30.9561 6.2357 30.9479L6.17059 30.9966C6.2357 31.7907 6.27912 32.4286 6.27912 33.8559C6.27912 34.7846 6.25693 35.7137 6.2357 36.6429L6.28973 36.6829C7.08177 36.6588 7.26604 36.6588 8.22063 36.6588L8.27514 36.6106C8.19893 35.6814 8.18783 35.3989 8.15552 34.3323H10.5312Z" fill="#B5CC8E"/>
<path fill-rule="evenodd" clip-rule="evenodd" d="M19.9616 31.6988C19.7773 31.5208 19.5603 31.3675 19.3109 31.2465C18.7576 30.9716 17.9984 30.8342 17.2391 30.8342C16.5662 30.8342 15.8832 30.9234 15.2971 31.1737C13.9735 31.7393 13.7352 32.6761 13.6484 33.0156C13.5833 33.2904 13.551 33.5648 13.551 33.8396C13.551 34.3888 13.6373 35.4226 14.657 36.1257C15.4814 36.6995 16.6096 36.78 17.1629 36.78C17.9984 36.78 18.8444 36.6348 19.4845 36.239C20.5583 35.5765 20.7753 34.4776 20.7753 33.7909C20.7753 32.5228 20.2327 31.9495 19.9616 31.6988ZM18.2477 32.2157C18.4648 32.4018 18.5622 32.6356 18.6274 32.87C18.7142 33.1771 18.7359 33.4679 18.7465 33.6699C18.7899 34.8816 18.4431 35.7539 17.1846 35.7539C15.6767 35.7539 15.5793 34.4453 15.5793 33.7186C15.5793 32.7489 15.8938 32.248 16.4037 32.0054C16.6965 31.8767 16.9893 31.8444 17.1957 31.8444C17.6076 31.8444 17.9873 31.9818 18.2477 32.2157Z" fill="#B5CC8E"/>
<path fill-rule="evenodd" clip-rule="evenodd" d="M29.9797 30.9314C29.1876 30.9637 28.9706 30.9637 28.3522 30.9555L28.287 31.0042C28.3416 31.998 28.3956 32.9912 28.3956 33.985C28.3956 34.8332 28.3633 35.2209 28.0705 35.4793C27.8317 35.6813 27.4738 35.7705 27.1159 35.7705C26.6711 35.7705 26.2481 35.6249 26.0093 35.3424C25.8463 35.1321 25.7816 34.8491 25.7599 34.3404C25.7382 33.9122 25.7382 33.484 25.7382 33.0559C25.7382 32.4015 25.7488 31.7795 25.7706 30.9796L25.7165 30.9314C24.7942 30.9637 24.5449 30.9637 23.8073 30.9555L23.7422 31.0042C23.7856 32.159 23.7856 32.3856 23.7962 33.6456V34.2435C23.829 35.1162 23.8942 35.5521 24.2738 35.9398C24.6857 36.3762 25.5212 36.7802 26.975 36.7802C27.3653 36.7802 28.5586 36.7802 29.3613 36.15C29.9363 35.6977 29.9797 35.2291 30.0014 34.203V33.3789L30.0337 30.9796L29.9797 30.9314Z" fill="#B5CC8E"/>
<path fill-rule="evenodd" clip-rule="evenodd" d="M39.9195 30.9314C39.236 30.9555 39.0517 30.9637 38.3793 30.9555L38.3248 31.0042L38.4005 32.0944L38.444 33.2092L38.4879 34.5424C38.1729 34.1466 38.1188 34.0819 37.5656 33.4676L36.5787 32.3933C35.7649 31.4729 35.6023 31.2949 35.3308 30.9719L35.255 30.9314C34.3979 30.9637 34.257 30.9637 33.465 30.9555L33.411 31.0042C33.465 32.2564 33.4978 33.1851 33.4978 34.2676C33.4978 35.0593 33.4761 35.8511 33.465 36.6346L33.5195 36.6833C34.2464 36.6587 34.4741 36.6587 35.1031 36.6587L35.1571 36.6105L35.0491 34.8414L35.0163 33.8476L34.9512 32.7651C35.461 33.3953 35.6347 33.6051 36.3722 34.405L37.457 35.5926L38.4227 36.6428L38.4985 36.6833C39.1603 36.6587 39.3551 36.6587 39.9306 36.6587L39.9846 36.6187C39.974 35.447 39.9629 34.6557 39.9629 33.6861C39.9629 32.7815 39.974 31.8846 39.9846 30.9796L39.9195 30.9314Z" fill="#B5CC8E"/>
<path fill-rule="evenodd" clip-rule="evenodd" d="M44.8338 36.6508C45.116 36.659 45.4088 36.659 45.691 36.659C46.9055 36.659 48.8688 36.6267 49.6608 35.1898C49.9541 34.6574 50.0192 34.0128 50.0192 33.6502C50.0192 32.8922 49.7911 32.3121 49.52 31.9495C48.7824 30.9475 47.3831 30.9152 46.1463 30.9152C45.6475 30.9152 45.1483 30.9311 44.6495 30.9475L43.4996 30.9639L43.4345 31.0121C43.4779 31.7851 43.5213 32.4611 43.5213 34.6912C43.5213 35.48 43.5102 35.956 43.4885 36.6185L43.5541 36.6508H44.8338ZM45.4305 35.6088C45.4088 34.8199 45.3977 34.0711 45.3977 33.2982C45.3977 32.8599 45.3977 32.4249 45.4088 31.9895C45.6258 31.9813 45.8535 31.9736 46.0706 31.9736C46.7324 31.9736 48.0227 31.9736 48.0227 33.6902C48.0227 34.6979 47.5133 35.1493 47.2528 35.3103C46.7647 35.6088 46.0161 35.6088 45.4305 35.6088Z" fill="#B5CC8E"/>
<path fill-rule="evenodd" clip-rule="evenodd" d="M56.9745 30.9314C55.9331 30.9555 55.716 30.9555 54.5555 30.9555L54.4792 31.0042C53.9048 32.3774 53.5575 33.1933 51.9628 36.6023L52.0062 36.6587H53.6988L53.7745 36.6105L54.3061 35.1403H56.6489L57.1154 36.6346L57.1916 36.6833C57.9831 36.6587 58.2002 36.651 59.0791 36.6587L59.1331 36.5946C57.8206 33.1369 57.6686 32.7569 57.0503 30.9796L56.9745 30.9314ZM54.6857 34.1625L55.2279 32.7974L55.6075 31.8523L55.9331 32.9025L56.3344 34.1625H54.6857Z" fill="#B5CC8E"/>
<path fill-rule="evenodd" clip-rule="evenodd" d="M65.6689 32.0299L65.7341 31.9894L65.8098 30.9797L65.7558 30.9556H60.3861L60.3104 31.0038L60.2341 31.9976L60.2887 32.0463L62.0565 32.014C62.0676 34.1269 62.0676 34.6347 61.9808 36.6348L62.0459 36.683C62.8486 36.6589 63.0656 36.6507 63.9657 36.6507L64.0308 36.6025C63.9768 35.4737 63.9551 34.3444 63.9551 33.2074C63.9551 32.7638 63.9657 32.514 63.9874 31.9976L65.6689 32.0299Z" fill="#B5CC8E"/>
<path fill-rule="evenodd" clip-rule="evenodd" d="M70.4242 30.9314C69.4913 30.9637 69.2419 30.9637 68.4605 30.9555L68.4176 31.0042C68.4822 31.8764 68.515 32.2882 68.515 34.3486C68.515 35.3019 68.4933 35.7947 68.4499 36.6346L68.5039 36.6833C69.3176 36.6587 69.5347 36.6587 70.4353 36.6587L70.4999 36.6105C70.4459 35.867 70.4242 35.4957 70.4242 34.3245C70.4242 33.2092 70.4459 32.0944 70.4782 30.9796L70.4242 30.9314Z" fill="#B5CC8E"/>
<path fill-rule="evenodd" clip-rule="evenodd" d="M79.9415 31.6988C79.7572 31.5208 79.5402 31.3675 79.2908 31.2465C78.7375 30.9716 77.9778 30.8342 77.2185 30.8342C76.5461 30.8342 75.8626 30.9234 75.277 31.1737C73.9534 31.7393 73.7151 32.6761 73.6283 33.0156C73.5632 33.2904 73.5304 33.5648 73.5304 33.8396C73.5304 34.3888 73.6172 35.4226 74.6369 36.1257C75.4613 36.6995 76.5895 36.78 77.1428 36.78C77.9778 36.78 78.8243 36.6348 79.4644 36.239C80.5382 35.5765 80.7552 34.4776 80.7552 33.7909C80.7552 32.5228 80.2126 31.9495 79.9415 31.6988ZM78.2276 32.2157C78.4442 32.4018 78.5421 32.6356 78.6073 32.87C78.6941 33.1771 78.7158 33.4679 78.7264 33.6699C78.7698 34.8816 78.423 35.7539 77.1645 35.7539C75.6566 35.7539 75.5592 34.4453 75.5592 33.7186C75.5592 32.7489 75.8737 32.248 76.3836 32.0054C76.6764 31.8767 76.9692 31.8444 77.1756 31.8444C77.5875 31.8444 77.9672 31.9818 78.2276 32.2157Z" fill="#B5CC8E"/>
<path fill-rule="evenodd" clip-rule="evenodd" d="M90.2957 30.9314C89.6122 30.9555 89.4279 30.9637 88.7555 30.9555L88.701 31.0042L88.7772 32.0944L88.8201 33.2092L88.8635 34.5424C88.549 34.1466 88.495 34.0819 87.9417 33.4676L86.9543 32.3933C86.1411 31.4729 85.9785 31.2949 85.7074 30.9719L85.6312 30.9314C84.7741 30.9637 84.6332 30.9637 83.8412 30.9555L83.7871 31.0042C83.8412 32.2564 83.874 33.1851 83.874 34.2676C83.874 35.0593 83.8523 35.8511 83.8412 36.6346L83.8957 36.6833C84.6226 36.6587 84.8503 36.6587 85.4793 36.6587L85.5338 36.6105L85.4252 34.8414L85.3924 33.8476L85.3273 32.7651C85.8377 33.3953 86.0108 33.6051 86.7484 34.405L87.8332 35.5926L88.7984 36.6428L88.8746 36.6833C89.5364 36.6587 89.7313 36.6587 90.3063 36.6587L90.3608 36.6187C90.3502 35.447 90.3391 34.6557 90.3391 33.6861C90.3391 32.7815 90.3502 31.8846 90.3608 30.9796L90.2957 30.9314Z" fill="#B5CC8E"/>
<path fill-rule="evenodd" clip-rule="evenodd" d="M28.6895 24.7024L28.7835 24.6219L28.8906 23.0519L28.8236 22.9714L25.763 23.0789V20.844L29.0522 20.884L29.1328 20.79L29.2804 19.1212L29.1993 19.0537C26.9848 19.0942 26.2733 19.0942 23.3738 19.0807L23.2933 19.1617C23.3738 20.4805 23.4274 21.5398 23.4274 23.9107C23.4274 25.4537 23.4008 26.9971 23.3738 28.5401L23.4409 28.6072C24.421 28.5671 24.6492 28.5671 25.8305 28.5671L25.8976 28.4866C25.8035 26.9431 25.79 26.4735 25.75 24.7024H28.6895Z" fill="#265142"/>
<path fill-rule="evenodd" clip-rule="evenodd" d="M37.2374 24.9975C37.2374 24.4744 37.2374 22.3007 35.3581 21.5625C34.7672 21.3344 34.0692 21.3074 33.7205 21.3074C31.3849 21.3074 30.0695 22.5553 30.0695 25.0245C30.0695 25.8833 30.2036 26.7556 30.7004 27.4803C31.0492 28.0035 31.7071 28.7277 33.6264 28.7277C36.4724 28.7277 37.2374 27.0102 37.2374 24.9975ZM34.9153 24.984C34.9153 26.0844 34.7672 27.3057 33.6535 27.3057C33.3042 27.3057 33.0626 27.1447 32.9019 26.9967C32.6733 26.7686 32.4186 26.3125 32.4186 25.011C32.4186 24.6219 32.4186 23.7632 32.6868 23.2935C32.8884 22.9314 33.2372 22.6898 33.667 22.6898C34.0427 22.6898 34.3514 22.8909 34.526 23.1055C34.8483 23.4946 34.9153 24.2593 34.9153 24.984Z" fill="#265142"/>
<path fill-rule="evenodd" clip-rule="evenodd" d="M42.7606 23.5886L43.1363 21.4014L43.0558 21.3074C42.9617 21.3074 42.8682 21.2939 42.7741 21.2939C42.2237 21.2939 41.6063 21.603 41.1765 22.5958L41.217 21.3609L41.1095 21.2539C40.1163 21.4684 39.8611 21.509 38.8814 21.6565L38.8009 21.737C38.8814 22.7433 38.9214 23.347 38.9214 25.2121C38.9214 26.3124 38.9079 27.4128 38.8814 28.5266L38.9615 28.6072C39.9552 28.5671 40.1698 28.5536 41.2436 28.5671L41.3111 28.4731C41.2571 27.3863 41.1765 25.8698 41.1765 24.944C41.1765 24.3398 41.1765 23.4546 42.0896 23.4546C42.3173 23.4546 42.4519 23.5351 42.6395 23.6421L42.7606 23.5886Z" fill="#265142"/>
<path fill-rule="evenodd" clip-rule="evenodd" d="M50.8678 28.4864C50.8143 27.279 50.7738 26.4738 50.7738 24.7158C50.7738 21.1736 50.8273 19.7107 50.8813 17.9392L50.7873 17.8591L48.5723 18.2077L48.5052 18.2883C48.5858 19.5497 48.5993 19.8853 48.5858 21.4147C47.5791 21.3882 46.3172 21.3612 45.297 22.1665C44.3574 22.8907 43.9681 24.0045 43.9681 25.387C43.9681 26.4333 44.2503 27.4801 45.0418 28.1373C45.6327 28.6205 46.3577 28.728 46.8005 28.728C47.7537 28.728 48.25 28.2853 48.5723 28.0033L48.5457 28.5264L48.6128 28.6074C49.5389 28.5669 49.7941 28.5669 50.8008 28.5669L50.8678 28.4864ZM48.5858 23.0252C48.5993 24.8098 48.5858 25.1589 48.5457 26.7824C48.2771 26.9434 48.0089 27.1045 47.6326 27.1045C46.3307 27.1045 46.3307 25.4405 46.3307 25.1719C46.3307 24.1386 46.6259 22.9847 48.1294 22.9847C48.2771 22.9847 48.3976 22.9982 48.5858 23.0252Z" fill="#265142"/>
<path fill-rule="evenodd" clip-rule="evenodd" d="M61.0944 24.7024L61.1885 24.6219L61.2955 23.0519L61.2285 22.9714L58.1679 23.0789V20.844L61.4571 20.884L61.5372 20.79L61.6853 19.1212L61.6043 19.0537C59.3897 19.0942 58.6782 19.0942 55.7787 19.0807L55.6982 19.1617C55.7787 20.4805 55.8323 21.5398 55.8323 23.9107C55.8323 25.4537 55.8053 26.9971 55.7787 28.5401L55.8458 28.6072C56.826 28.5671 57.0541 28.5671 58.2354 28.5671L58.3025 28.4866C58.2084 26.9431 58.1949 26.4735 58.1549 24.7024H61.0944Z" fill="#265142"/>
<path fill-rule="evenodd" clip-rule="evenodd" d="M68.7832 24.5682C68.7967 23.3604 68.7967 22.8372 68.4475 22.274C68.1793 21.8444 67.6424 21.3077 65.9243 21.3077C64.7695 21.3077 64.058 21.5223 63.293 21.7504L63.2124 21.8579L63.1454 23.3203L63.2529 23.3739C63.7227 23.1863 64.5949 22.8372 65.4945 22.8372C65.9908 22.8372 66.1925 22.9177 66.3671 23.0923C66.5012 23.2263 66.5417 23.4679 66.5417 23.669C64.9306 23.884 64.1791 24.0316 63.3735 24.5282C62.622 24.9974 62.3668 25.7626 62.3668 26.3663C62.3668 27.8017 63.4005 28.728 64.7159 28.728C65.7226 28.728 66.3 28.2449 66.5817 28.0168V28.5134L66.6623 28.6075C67.6289 28.567 67.9241 28.5535 68.7967 28.567L68.8638 28.4729C68.7697 27.158 68.7697 26.8224 68.7697 25.561L68.7832 24.5682ZM66.5682 26.7019C66.2865 26.8629 65.9243 27.0505 65.481 27.0505C64.9976 27.0505 64.5949 26.7954 64.5949 26.2322C64.5949 25.3465 65.6556 25.1989 66.5682 25.0784V26.7019Z" fill="#265142"/>
<path fill-rule="evenodd" clip-rule="evenodd" d="M81.2061 28.4729C81.1391 27.225 81.1256 26.8759 81.1256 25.3599V24.3536C81.1391 23.4543 81.1526 22.6226 80.7633 22.0589C80.2395 21.2941 79.3133 21.2941 79.0987 21.2941C77.9979 21.2941 77.2594 21.7908 76.7226 22.1664C76.5345 21.8578 76.1992 21.2941 75.1255 21.2941C74.2394 21.2941 73.6624 21.6968 73.0445 22.1259V21.3747L72.924 21.2541C71.8767 21.4552 71.5815 21.5087 70.6419 21.6428L70.5613 21.7368C70.6689 22.8106 70.7495 23.5483 70.7495 26.2052C70.7495 26.9699 70.7359 27.7481 70.7359 28.5134L70.803 28.5939C71.6621 28.5669 71.9573 28.5534 73.0716 28.5534L73.1521 28.4729C73.058 26.4067 73.0445 25.7895 73.031 23.4543C73.3132 23.2532 73.6219 23.0787 73.9572 23.0787C74.7897 23.0787 74.8167 24.0315 74.8167 25.1853C74.8167 27.1314 74.8032 27.4265 74.7762 28.5134L74.8568 28.6074C75.877 28.5534 76.1587 28.5534 77.0853 28.5534L77.1654 28.4729C77.0853 27.198 77.0718 26.8224 77.0583 25.1988V24.7022L77.0448 23.3468C77.273 23.1997 77.5686 23.0117 77.9709 23.0117C78.7364 23.0117 78.857 23.7364 78.857 24.8903C78.857 25.1453 78.8435 25.4004 78.8435 25.655C78.83 26.1116 78.8165 28.1107 78.8035 28.5134L78.8836 28.5939C79.8907 28.5534 80.1859 28.5534 81.1256 28.5534L81.2061 28.4729Z" fill="#265142"/>
<path fill-rule="evenodd" clip-rule="evenodd" d="M85.552 28.4729C85.485 27.4395 85.4309 26.6478 85.4309 24.7962C85.4309 23.6559 85.458 22.5015 85.4715 21.3612L85.3774 21.2541L83.0688 21.6563L82.9882 21.7368C83.0953 22.7571 83.1358 23.2262 83.1358 25.1318C83.1358 26.5943 83.0953 27.413 83.0553 28.5134L83.1358 28.6074C84.102 28.5669 84.3707 28.5534 85.4579 28.5669L85.552 28.4729ZM85.3374 19.9792L85.3774 18.1542L85.2968 18.0736L83.1088 18.3422L83.0283 18.4358C83.0553 18.9189 83.0688 19.201 83.0688 19.5231C83.0688 19.7777 83.0688 20.0462 83.0553 20.3013L83.1494 20.3818C84.062 20.2208 84.3172 20.1938 85.2703 20.0732L85.3374 19.9792Z" fill="#265142"/>
<path fill-rule="evenodd" clip-rule="evenodd" d="M89.7795 28.4729C89.7125 26.9299 89.6455 25.5209 89.6455 21.2806C89.6455 20.0057 89.659 19.4021 89.7125 17.9531L89.6184 17.8591L87.3229 18.2212L87.2693 18.3017C87.4039 19.9387 87.4174 20.3818 87.4439 22.5555C87.4574 23.3468 87.4575 24.1385 87.4575 24.9303C87.4575 26.3797 87.4304 27.1849 87.3769 28.5134L87.4575 28.6074C88.3571 28.5669 88.7193 28.5534 89.699 28.5669L89.7795 28.4729Z" fill="#265142"/>
<path fill-rule="evenodd" clip-rule="evenodd" d="M97.7123 21.4149L95.8465 21.4554L95.7389 21.5494C95.5108 22.4761 95.4567 22.6782 95.1345 23.7259L94.7858 24.8813L94.4906 25.889L94.2354 24.9353L93.8461 23.5109L93.3092 21.4689L93.2022 21.3878C92.155 21.4689 91.9268 21.4824 90.826 21.5089L90.7585 21.6029C91.2418 22.8792 92.4907 26.2516 93.3228 28.8313C92.7724 30.2287 92.6648 30.4702 92.0609 31.8006L92.1279 31.9081C92.4637 31.8946 92.8394 31.8811 93.1887 31.8811C93.5239 31.8811 93.8731 31.8946 94.2089 31.8946L94.3029 31.8141C95.0409 28.9118 95.4032 27.7835 97.1749 23.1078C97.3765 22.5702 97.5777 22.0465 97.7658 21.5224L97.7123 21.4149Z" fill="#265142"/>
<path fill-rule="evenodd" clip-rule="evenodd" d="M5.53237 24.1228L5.59749 24.0823L5.67322 23.0726L5.6192 23.0485H0.249515L0.173784 23.0967L0.098053 24.0905L0.152078 24.1392L1.91994 24.1064C1.93104 26.2198 1.93104 26.7276 1.84421 28.7277L1.90933 28.7759C2.71199 28.7518 2.92905 28.7436 3.82914 28.7436L3.89426 28.6954C3.84024 27.5661 3.81853 26.4373 3.81853 25.3003C3.81853 24.8567 3.82914 24.6065 3.85085 24.0905L5.53237 24.1228Z" fill="#B5CC8E"/>
<path fill-rule="evenodd" clip-rule="evenodd" d="M12.708 23.0241C11.8403 23.0487 11.6989 23.0487 10.7882 23.0487L10.7337 23.0969C10.8094 24.0097 10.8094 24.244 10.8205 25.1973C10.3435 25.2055 9.86594 25.2132 9.37779 25.2132C8.99816 25.2132 8.60793 25.2055 8.22831 25.2055L8.24953 23.0728L8.19551 23.0241C7.36005 23.0487 7.1975 23.0487 6.25351 23.0487L6.18887 23.0969C6.2429 23.9287 6.30802 24.9224 6.30802 26.9259C6.30802 27.653 6.28631 28.0489 6.2646 28.7273L6.31911 28.776C7.11067 28.7519 7.30603 28.7437 8.26063 28.7519L8.31465 28.7032C8.24953 27.7012 8.23892 27.411 8.22831 26.2393C8.70537 26.2234 9.1067 26.2152 9.52973 26.2152C9.96386 26.2152 10.3975 26.2234 10.8311 26.2316C10.8533 27.3218 10.8533 27.5884 10.7988 28.7273L10.8533 28.776C11.6666 28.7519 11.8837 28.7437 12.8055 28.7519L12.86 28.7032C12.7731 27.3464 12.7408 25.9972 12.7408 24.6399C12.7408 24.0743 12.7514 23.6948 12.7625 23.0728L12.708 23.0241Z" fill="#B5CC8E"/>
<path fill-rule="evenodd" clip-rule="evenodd" d="M19.1642 27.6612C17.884 27.7094 17.5806 27.7176 16.1919 27.7176L16.1702 26.3039H18.7084L18.7846 26.2557L18.8497 25.3429L18.7952 25.2942L16.1702 25.3265V24.042C17.3959 24.042 17.6457 24.042 18.9583 24.0661L19.0123 24.0179L19.0885 23.0805L19.034 23.0487H14.2721L14.207 23.0969C14.2721 23.8804 14.2938 24.1794 14.2938 26.3444C14.2938 27.3623 14.2721 27.8715 14.2393 28.7196L14.2938 28.7519H19.0663L19.1536 28.7032L19.2294 27.7176L19.1642 27.6612Z" fill="#B5CC8E"/>
</g>
<defs>
<clipPath id="clip0">
<rect width="98" height="37" fill="white"/>
</clipPath>
</defs>
</svg>
