<?xml version="1.0" encoding="UTF-8" standalone="no"?>
<!DOCTYPE svg PUBLIC "-//W3C//DTD SVG 1.1//EN" "http://www.w3.org/Graphics/SVG/1.1/DTD/svg11.dtd">
<svg width="100%" height="100%" viewBox="0 0 326 214" version="1.1" xmlns="http://www.w3.org/2000/svg" xmlns:xlink="http://www.w3.org/1999/xlink" xml:space="preserve" xmlns:serif="http://www.serif.com/" style="fill-rule:evenodd;clip-rule:evenodd;stroke-linejoin:round;stroke-miterlimit:2;">
    <g transform="matrix(1,0,0,1,-0.5,-1.1)">
        <path d="M21.3,195.1C15.6,191 15.1,191.4 13,185L5.7,162C4.6,158.6 3.6,154.5 0.5,152.4L0.5,152.2L9.6,152.2C9.4,153.6 10,155.5 10.3,156.7L19.6,185.6L26.9,161.9C28.1,158.1 29.3,154.1 25.9,152.3L25.9,152.1L34.7,152.1C34.3,153.7 34.8,155.6 35.6,158.4L44.3,185.4L51.3,162.6C52.4,159.1 54.5,154 49.6,152.3L49.6,152.1L59.2,152.1L46.1,194.9C40.4,191 39.9,191.3 37.9,184.9L31,163.7L21.3,195.1Z" style="fill-rule:nonzero;"/>
        <path d="M64.5,161.1C64.5,158.2 64.9,153.7 61.8,152.5L61.8,152.3L73.6,152.3L73.6,152.5C70.5,153.7 70.9,158.3 70.9,161.1L70.9,184.6C70.9,187.4 70.5,191.9 73.6,193.1L73.6,193.3L61.7,193.3L61.7,193.1C64.8,192 64.4,187.4 64.4,184.6L64.4,161.1L64.5,161.1Z" style="fill-rule:nonzero;"/>
        <path d="M102.2,159.7C99.8,157.2 95.9,155.8 92.4,155.8C88.9,155.8 84.4,157.2 84.4,161.5C84.4,170 105.8,169.9 105.8,181.4C105.8,188.1 98.8,194.3 89.1,194.3C85.3,194.3 81.5,193.7 78,192.4L76.2,184.6C79.9,187.8 85,189.8 89.8,189.8C93.3,189.8 98.7,187.7 98.7,183.3C98.7,173.6 77.3,175.3 77.3,162.1C77.3,154.3 85.3,151.3 92.9,151.3C96,151.3 99.2,151.7 102.2,152.7L102.2,159.7Z" style="fill-rule:nonzero;"/>
        <path d="M141.5,160C138.1,157.8 134.1,156.5 130,156.5C121.4,156.5 115.4,162.8 115.4,171.8C115.4,181 121.6,189.1 131.2,189.1C135.9,189.1 140.5,187.4 144.5,185.2L144.7,185.2L141.5,192.4C138.6,193.8 135.3,194.3 132.1,194.3C117.4,194.3 108.3,186.1 108.3,172.8C108.3,159.9 117.4,151.4 130.1,151.4C133.9,151.4 137.8,152.1 141.4,153L141.4,160L141.5,160Z" style="fill-rule:nonzero;"/>
        <path d="M189.9,172.3C189.9,185 179.4,194.2 167,194.2C154.7,194.2 144.3,185.4 144.3,172.6C144.3,160.8 154.6,150.9 167.6,151.2C180.7,151.2 189.9,161.1 189.9,172.3ZM151.3,172.1C151.3,180.8 157.5,189.8 167.2,189.8C176.7,189.8 182.7,182.9 182.7,173.6C182.7,164.5 176.9,155.7 167.1,155.7C157.5,155.7 151.3,162.7 151.3,172.1Z" style="fill-rule:nonzero;"/>
        <path d="M199.3,185.2C199.3,188.7 199.2,191.2 202.5,193.1L202.5,193.3L191.5,193.3L191.5,193.1C194.8,191.2 194.8,188.7 194.8,185.2L194.8,160.4C194.8,156.9 194.8,154.4 191.6,152.6L191.6,152.4L200.7,152.4L200.7,152.5C200.9,153.2 201.2,153.6 201.6,154.1L202.5,155.3L225.3,184.1L225.3,160.5C225.3,157 225.4,154.5 222.1,152.7L222.1,152.5L233.1,152.5L233.1,152.7C229.9,154.6 229.9,157.1 229.9,160.5L229.9,195.4C225.5,193.9 223.5,191.9 220.8,188.3L199.4,161.2L199.4,185.2L199.3,185.2Z" style="fill-rule:nonzero;"/>
        <path d="M261.2,159.7C258.8,157.2 254.9,155.8 251.4,155.8C247.9,155.8 243.4,157.2 243.4,161.5C243.4,170 264.8,169.9 264.8,181.4C264.8,188.1 257.8,194.3 248.1,194.3C244.3,194.3 240.5,193.7 237,192.4L235.2,184.6C238.9,187.8 244,189.8 248.8,189.8C252.3,189.8 257.7,187.7 257.7,183.3C257.7,173.6 236.3,175.3 236.3,162.1C236.3,154.3 244.3,151.3 251.9,151.3C255,151.3 258.2,151.7 261.2,152.7L261.2,159.7Z" style="fill-rule:nonzero;"/>
        <path d="M270.7,161.1C270.7,158.2 271.1,153.7 268,152.5L268,152.3L279.8,152.3L279.8,152.5C276.7,153.7 277.1,158.3 277.1,161.1L277.1,184.6C277.1,187.4 276.7,191.9 279.8,193.1L279.8,193.3L268,193.3L268,193.1C271.1,192 270.7,187.4 270.7,184.6L270.7,161.1Z" style="fill-rule:nonzero;"/>
        <path d="M291.8,185.2C291.8,188.7 291.7,191.2 295,193.1L295,193.3L284,193.3L284,193.1C287.3,191.2 287.3,188.7 287.3,185.2L287.3,160.4C287.3,156.9 287.3,154.4 284.1,152.6L284.1,152.4L293.2,152.4L293.2,152.5C293.4,153.2 293.7,153.6 294.1,154.1L295,155.3L317.8,184.1L317.8,160.5C317.8,157 317.9,154.5 314.6,152.7L314.6,152.5L325.6,152.5L325.6,152.7C322.4,154.6 322.4,157.1 322.4,160.5L322.4,195.4C318,193.9 316,191.9 313.3,188.3L291.9,161.2L291.9,185.2L291.8,185.2Z" style="fill-rule:nonzero;"/>
    </g>
    <g transform="matrix(1,0,0,1,-0.5,-1.1)">
        <path d="M11.7,203.2L11.7,210.2C11.7,212.9 13.2,213.7 14.7,213.7C16.4,213.7 17.7,212.9 17.7,210.2L17.7,203.2L19.2,203.2L19.2,210.1C19.2,213.9 17.1,214.9 14.7,214.9C12.3,214.9 10.2,213.7 10.2,210.2L10.2,203.2L11.7,203.2Z" style="fill-rule:nonzero;"/>
        <path d="M22.3,214.8L22.3,203.2L24.3,203.2C26,205.9 29.6,211.7 30.2,212.9C30.1,211.4 30.1,209.6 30.1,207.7L30.1,203.2L31.5,203.2L31.5,214.8L29.6,214.8C28.1,212.3 24.3,206.1 23.6,204.8C23.7,206.1 23.7,208.1 23.7,210.2L23.7,214.8L22.3,214.8Z" style="fill-rule:nonzero;"/>
        <rect x="35.1" y="203.2" width="1.5" height="11.6" style="fill-rule:nonzero;"/>
        <path d="M42.9,214.8L38.7,203.2L40.3,203.2L42.3,209C42.9,210.7 43.5,212.4 43.7,213.5C43.9,212.6 44.6,210.8 45.2,209.1L47.3,203.3L49,203.3L44.6,214.9L42.9,214.9L42.9,214.8Z" style="fill-rule:nonzero;"/>
        <path d="M58.4,209.3L52.7,209.3L52.7,213.4L59,213.4L58.8,214.7L51.2,214.7L51.2,203.1L58.7,203.1L58.7,204.4L52.7,204.4L52.7,207.9L58.4,207.9L58.4,209.3Z" style="fill-rule:nonzero;"/>
        <path d="M63,209.6L63,214.8L61.5,214.8L61.5,203.2L66,203.2C68.4,203.2 69.6,204.5 69.6,206.3C69.6,207.8 68.7,208.7 67.6,209C68.5,209.2 69.4,210 69.4,212L69.4,212.5C69.4,213.3 69.4,214.3 69.6,214.8L68.1,214.8C67.9,214.3 67.9,213.4 67.9,212.3L67.9,212C67.9,210.4 67.4,209.6 65.4,209.6L63,209.6ZM63,208.4L65.5,208.4C67.3,208.4 68,207.7 68,206.4C68,205.2 67.2,204.5 65.6,204.5L63,204.5L63,208.4Z" style="fill-rule:nonzero;"/>
        <path d="M73.3,211.5C73.6,212.9 74.6,213.6 76.2,213.6C78,213.6 78.7,212.8 78.7,211.7C78.7,210.5 78.1,209.9 75.8,209.3C73.1,208.6 72.1,207.7 72.1,206.1C72.1,204.4 73.4,203 75.9,203C78.7,203 79.8,204.6 80,206.1L78.4,206.1C78.2,205.1 77.6,204.2 75.9,204.2C74.5,204.2 73.7,204.8 73.7,205.9C73.7,207 74.3,207.4 76.4,207.9C79.7,208.7 80.3,210 80.3,211.5C80.3,213.4 78.9,214.8 76.1,214.8C73.2,214.8 71.9,213.2 71.7,211.4L73.3,211.4L73.3,211.5Z" style="fill-rule:nonzero;"/>
        <rect x="83" y="203.2" width="1.5" height="11.6" style="fill-rule:nonzero;"/>
        <path d="M90.5,204.5L86.7,204.5L86.7,203.2L95.7,203.2L95.7,204.5L92,204.5L92,214.8L90.5,214.8L90.5,204.5Z" style="fill-rule:nonzero;"/>
        <path d="M101.2,214.8L101.2,210.6C101.2,210.5 101.2,210.4 101.1,210.3L97,203.3L98.8,203.3C99.8,205.2 101.5,208.2 102.1,209.2C102.6,208.2 104.3,205.2 105.4,203.3L107,203.3L102.8,210.3C102.8,210.4 102.7,210.4 102.7,210.6L102.7,214.8L101.2,214.8Z" style="fill-rule:nonzero;"/>
        <path d="M123.5,208.9C123.5,212.1 121.7,214.9 118.1,214.9C114.7,214.9 112.8,212.3 112.8,209C112.8,205.7 114.7,203.1 118.2,203.1C121.5,203 123.5,205.5 123.5,208.9ZM114.4,208.9C114.4,211.4 115.7,213.6 118.2,213.6C120.9,213.6 122,211.4 122,208.9C122,206.4 120.8,204.3 118.2,204.3C115.5,204.3 114.4,206.5 114.4,208.9Z" style="fill-rule:nonzero;"/>
        <path d="M126.3,203.2L133.7,203.2L133.7,204.5L127.8,204.5L127.8,208.3L133.3,208.3L133.3,209.6L127.8,209.6L127.8,214.8L126.3,214.8L126.3,203.2Z" style="fill-rule:nonzero;"/>
        <path d="M142.5,214.8L139.4,203.2L141,203.2C141.9,207 143.1,211.8 143.4,213.1C143.7,211.6 145.3,206.2 146,203.2L147.5,203.2C148.2,205.8 149.8,211.7 150,213C150.4,211 152,205.5 152.6,203.2L154.1,203.2L150.7,214.8L149.1,214.8C148.4,212.1 146.9,206.6 146.6,205.2C146.3,206.9 144.8,212.1 144,214.8L142.5,214.8Z" style="fill-rule:nonzero;"/>
        <rect x="156.5" y="203.2" width="1.5" height="11.6" style="fill-rule:nonzero;"/>
        <path d="M162.2,211.5C162.5,212.9 163.5,213.6 165.1,213.6C166.9,213.6 167.6,212.8 167.6,211.7C167.6,210.5 167,209.9 164.7,209.3C162,208.6 161,207.7 161,206.1C161,204.4 162.3,203 164.8,203C167.6,203 168.7,204.6 168.9,206.1L167.3,206.1C167.1,205.1 166.5,204.2 164.8,204.2C163.4,204.2 162.6,204.8 162.6,205.9C162.6,207 163.2,207.4 165.3,207.9C168.6,208.7 169.2,210 169.2,211.5C169.2,213.4 167.8,214.8 165,214.8C162.1,214.8 160.8,213.2 160.6,211.4L162.2,211.4L162.2,211.5Z" style="fill-rule:nonzero;"/>
        <path d="M181.1,211.5C180.6,213.5 179.1,214.9 176.5,214.9C173,214.9 171.3,212.3 171.3,209C171.3,205.9 173,203 176.6,203C179.3,203 180.8,204.6 181.2,206.5L179.7,206.5C179.3,205.2 178.5,204.3 176.6,204.3C174,204.3 173,206.6 173,209C173,211.3 174,213.7 176.7,213.7C178.5,213.7 179.3,212.7 179.7,211.6L181.1,211.6L181.1,211.5Z" style="fill-rule:nonzero;"/>
        <path d="M193.9,208.9C193.9,212.1 192.1,214.9 188.5,214.9C185.1,214.9 183.2,212.3 183.2,209C183.2,205.7 185.1,203.1 188.6,203.1C191.8,203 193.9,205.5 193.9,208.9ZM184.7,208.9C184.7,211.4 186,213.6 188.5,213.6C191.2,213.6 192.3,211.4 192.3,208.9C192.3,206.4 191.1,204.3 188.5,204.3C185.9,204.3 184.7,206.5 184.7,208.9Z" style="fill-rule:nonzero;"/>
        <path d="M196.6,214.8L196.6,203.2L198.6,203.2C200.3,205.9 203.9,211.7 204.5,212.9C204.4,211.4 204.4,209.6 204.4,207.7L204.4,203.2L205.8,203.2L205.8,214.8L204,214.8C202.5,212.3 198.7,206.1 198,204.8C198.1,206.1 198.1,208.1 198.1,210.2L198.1,214.8L196.6,214.8Z" style="fill-rule:nonzero;"/>
        <path d="M210.1,211.5C210.4,212.9 211.4,213.6 213,213.6C214.8,213.6 215.5,212.8 215.5,211.7C215.5,210.5 214.9,209.9 212.6,209.3C209.9,208.6 208.9,207.7 208.9,206.1C208.9,204.4 210.2,203 212.7,203C215.5,203 216.6,204.6 216.8,206.1L215.2,206.1C215,205.1 214.4,204.2 212.7,204.2C211.3,204.2 210.5,204.8 210.5,205.9C210.5,207 211.1,207.4 213.2,207.9C216.5,208.7 217.1,210 217.1,211.5C217.1,213.4 215.7,214.8 212.9,214.8C210,214.8 208.7,213.2 208.5,211.4L210.1,211.4L210.1,211.5Z" style="fill-rule:nonzero;"/>
        <rect x="219.8" y="203.2" width="1.5" height="11.6" style="fill-rule:nonzero;"/>
        <path d="M224.8,214.8L224.8,203.2L226.8,203.2C228.5,205.9 232.1,211.7 232.7,212.9C232.6,211.4 232.6,209.6 232.6,207.7L232.6,203.2L234,203.2L234,214.8L232.1,214.8C230.6,212.3 226.8,206.1 226.1,204.8C226.2,206.1 226.2,208.1 226.2,210.2L226.2,214.8L224.8,214.8Z" style="fill-rule:nonzero;"/>
        <rect x="236.8" y="209.8" width="6.6" height="1.3" style="fill-rule:nonzero;"/>
        <path d="M256.1,209.8C256.1,207.6 256.1,205.5 256.2,204.2L256.1,204.2C255.6,206.1 253.7,211 252.4,214.7L251,214.7C250,211.7 248.1,206.2 247.5,204.2C247.6,205.5 247.6,208.1 247.6,210.1L247.6,214.7L246.2,214.7L246.2,203.1L248.5,203.1C249.8,206.7 251.4,211.3 251.8,212.8C252.1,211.7 254,206.6 255.3,203.1L257.5,203.1L257.5,214.7L256,214.7L256,209.8L256.1,209.8Z" style="fill-rule:nonzero;"/>
        <path d="M262.6,211.3L261.4,214.8L259.9,214.8L264,203.2L265.9,203.2L270.2,214.8L268.6,214.8L267.3,211.3L262.6,211.3ZM266.8,210C265.7,207 265.1,205.3 264.8,204.5C264.5,205.5 263.8,207.4 263,210L266.8,210Z" style="fill-rule:nonzero;"/>
        <path d="M272.3,203.2L276.4,203.2C279.7,203.2 281.9,205.4 281.9,208.9C281.9,212.3 279.8,214.8 276.4,214.8L272.3,214.8L272.3,203.2ZM273.8,213.5L276.2,213.5C278.9,213.5 280.2,211.5 280.2,208.9C280.2,206.6 279,204.5 276.2,204.5L273.8,204.5L273.8,213.5Z" style="fill-rule:nonzero;"/>
        <rect x="284.7" y="203.2" width="1.5" height="11.6" style="fill-rule:nonzero;"/>
        <path d="M290.3,211.5C290.6,212.9 291.6,213.6 293.2,213.6C295,213.6 295.7,212.8 295.7,211.7C295.7,210.5 295.1,209.9 292.8,209.3C290.1,208.6 289.1,207.7 289.1,206.1C289.1,204.4 290.4,203 292.9,203C295.7,203 296.8,204.6 297,206.1L295.4,206.1C295.2,205.1 294.6,204.2 292.9,204.2C291.5,204.2 290.7,204.8 290.7,205.9C290.7,207 291.3,207.4 293.4,207.9C296.7,208.7 297.3,210 297.3,211.5C297.3,213.4 295.9,214.8 293.1,214.8C290.2,214.8 288.9,213.2 288.7,211.4L290.3,211.4L290.3,211.5Z" style="fill-rule:nonzero;"/>
        <path d="M310.1,208.9C310.1,212.1 308.3,214.9 304.7,214.9C301.3,214.9 299.4,212.3 299.4,209C299.4,205.7 301.3,203.1 304.8,203.1C308.1,203 310.1,205.5 310.1,208.9ZM301,208.9C301,211.4 302.3,213.6 304.8,213.6C307.5,213.6 308.6,211.4 308.6,208.9C308.6,206.4 307.4,204.3 304.8,204.3C302.2,204.3 301,206.5 301,208.9Z" style="fill-rule:nonzero;"/>
        <path d="M312.9,214.8L312.9,203.2L314.9,203.2C316.6,205.9 320.2,211.7 320.8,212.9C320.7,211.4 320.7,209.6 320.7,207.7L320.7,203.2L322.1,203.2L322.1,214.8L320.2,214.8C318.7,212.3 314.9,206.1 314.2,204.8C314.3,206.1 314.3,208.1 314.3,210.2L314.3,214.8L312.9,214.8Z" style="fill-rule:nonzero;"/>
    </g>
    <g transform="matrix(1,0,0,1,-0.5,-1.1)">
        <path d="M211.4,52C211.1,49 210.6,46 210,43.1C209.4,40.4 208.7,37.7 207.7,35.1C206.7,32.3 205.5,29.6 204.1,27.1C202.7,24.7 201.1,22.5 199.3,20.4C194.4,15 188.2,12 181.5,11.9L181.4,11.9C180.3,9.5 177.3,7.5 174.6,7.2C174.6,7.2 173.2,1.2 166.8,1.1C160.4,1.1 159,7.2 159,7.2C156.4,7.6 153.3,9.5 152.2,11.9L152.1,11.9C145.3,12 139.2,15 134.3,20.4C132.4,22.4 130.9,24.7 129.5,27.1C128.1,29.6 126.9,32.4 125.9,35.1C125,37.7 124.2,40.4 123.6,43.1C123,46 122.5,49 122.2,52C118.5,88.8 135,134 164.7,140.9C165.2,141.6 166.2,143 166.8,143C167.4,143 168.4,141.6 168.9,140.9C198.6,134 215.1,88.8 211.4,52ZM166.8,2.5C172,2.5 173.2,6.9 173.2,7C170.6,7.2 168.2,8.7 166.9,11L166.8,11.2C166.7,11.2 166.7,11.1 166.7,11C165.4,8.7 163,7.2 160.4,7C160.4,6.9 161.5,2.5 166.8,2.5ZM163.7,9.5C165,10.3 165.9,11.5 166.3,12.9C166.4,13.3 166.6,13.6 166.7,13.6C166.8,13.6 167,13.3 167.1,12.9C167.5,11.5 168.4,10.2 169.7,9.5C173.5,7.2 177.8,8.7 179.5,12.1C178.6,12.2 177.8,12.5 176.8,12.8C175.3,13.3 174,14 172.9,14.9C170.5,17.1 168.4,20.5 168,24.8C166.9,36.7 180.6,34.8 181.2,34.8C183,34.8 184.3,32 184.3,28.3C184.3,24.6 182.9,21.8 181.2,21.8C180.1,21.8 178.3,22.6 178.1,25.9C178,28.2 179.1,31.3 180.6,31.5C181.4,31.6 182.1,30.3 182.3,28.9C182.5,27.7 182.4,25.9 181.3,25.6C181,25.5 180.6,25.7 180.5,26.1C180.4,26.4 181.2,26.9 181.1,28.3C181.1,30.3 179,29.3 179.3,26.1C179.5,23.2 181,23.4 181.1,23.4C181.9,23.4 183.2,25.1 183.2,28.3C183.2,31.1 181.8,34.2 179.2,32.6C177,31 176.1,27.3 176.7,24.4C177,23.1 178.1,19.5 181.8,19.5C187.1,19.5 192,22.3 196,27.5C195.6,28.9 192.8,34.2 184.2,39.2C184,39.3 183.7,39.5 183.7,39.4C181.1,38.3 178.6,37.6 175.7,37.8C173.1,37.9 170.6,38.4 168.2,39C167.7,39.1 167.2,39.2 166.7,39.2C166.2,39.2 165.7,39.1 165.2,39C162.7,38.4 160.2,37.9 157.7,37.8C154.8,37.6 152.3,38.3 149.7,39.4C149.7,39.4 149.4,39.2 149.2,39.2C140.5,34.1 137.8,28.9 137.4,27.5C141.3,22.3 146.3,19.5 151.6,19.5C155.3,19.5 156.4,23.1 156.7,24.4C157.3,27.3 156.4,31 154.2,32.6C151.6,34.2 150.2,31.1 150.2,28.3C150.2,25.1 151.4,23.4 152.3,23.4C152.4,23.4 153.8,23.2 154.1,26.1C154.4,29.3 152.3,30.3 152.3,28.3C152.3,26.9 153,26.4 152.9,26.1C152.8,25.8 152.5,25.6 152.1,25.6C151,25.9 150.9,27.7 151.1,28.9C151.3,30.3 152,31.6 152.8,31.5C154.3,31.3 155.4,28.2 155.3,25.9C155.1,22.6 153.3,21.8 152.2,21.8C150.5,21.8 149.1,24.6 149.1,28.3C149.1,32 150.4,34.8 152.2,34.8C152.9,34.9 166.5,36.7 165.4,24.8C165,20.5 162.9,17.1 160.5,14.9C159.4,13.9 158.2,13.3 156.6,12.8C155.5,12.5 154.8,12.3 153.9,12.1C155.6,8.7 159.9,7.1 163.7,9.5ZM138.1,58.5C133.7,58.1 130.3,56.6 128.7,55.8C129.4,43.9 132.4,34.6 136.8,28.4C137.6,30.4 141,35.5 148.8,40.1C142.1,44 139.1,52.3 138.1,58.5ZM149.6,41.4C151.6,40.2 154.1,39.6 156.7,39.4C161.2,39.1 164.5,40.8 166.7,40.9L166.8,40.9C169,40.8 172.3,39.1 176.8,39.4C179.4,39.6 182,40.1 183.9,41.4C193,47.2 194.3,60.5 194.4,64.9C195,80.4 190.2,92.4 188.6,95.8C182.3,109.6 174.7,119.4 167.2,122.7L166.6,123L166,122.7C158.5,119.4 150.9,109.6 144.6,95.8C143.1,92.5 138.2,80.4 138.8,64.9C139.2,60.6 140.5,47.2 149.6,41.4ZM137.9,59.3C137.6,61.6 137.4,63.5 137.4,64.7C137.2,69 137.4,73.3 138,77.6C138.6,81.6 139.5,85.6 140.7,89.5C142.4,94.8 144.7,99.8 147.4,104.7C144.6,107.2 140.4,108.2 139,108.5C131.5,93.5 127.6,74.2 128.5,56.8C130.4,57.6 133.7,59 137.9,59.3ZM147.9,105.4C152.9,114 157.9,119.2 161.6,121.9C160.2,125.4 157,128.1 155.8,129C149.3,124.6 143.8,117.7 139.4,109.3C141.2,108.9 145.1,107.9 147.9,105.4ZM162.4,122.4C164.4,123.9 166.5,124.7 166.7,124.8C167,124.7 169,123.9 171,122.4C172.4,125.8 175.4,128.4 176.7,129.5C174.8,130.7 172.9,131.7 170.9,132.4L170.9,132.2C170.5,130.1 167.7,129.6 166.7,129.6C165.7,129.6 162.9,130 162.5,132.2L162.5,132.4C160.5,131.7 158.5,130.7 156.7,129.5C158,128.4 161,125.8 162.4,122.4ZM171.9,121.9C175.7,119.2 180.6,114 185.6,105.4C188.4,107.9 192.3,108.9 194,109.2C189.7,117.6 184.1,124.5 177.6,128.9C176.5,128.1 173.2,125.4 171.9,121.9ZM186,104.6C188.7,99.8 191,94.7 192.7,89.4C193.9,85.5 194.8,81.5 195.4,77.5C196,73.2 196.2,68.9 196,64.6C196,63.4 195.8,61.5 195.5,59.2C199.8,58.8 203.1,57.5 204.8,56.6C205.7,74 201.8,93.4 194.3,108.3C193,108.2 188.8,107.2 186,104.6ZM195.4,58.5C194.4,52.3 191.3,44.2 184.7,40C192.5,35.4 195.9,30.3 196.7,28.3C201.1,34.5 204.1,43.8 204.8,55.7C203.3,56.6 199.9,58.1 195.4,58.5ZM161.9,138.3C158.5,137.2 155.3,135.6 152.4,133.5C150.5,132.2 148.8,130.8 147.1,129.2C145.8,127.9 144.5,126.6 143.3,125.2C142.5,124.2 141.7,123.3 140.9,122.3C137.3,117.5 134.2,112.1 131.8,106.6C129.5,101.2 127.6,95.7 126.2,90C124.8,84.2 123.8,78.3 123.3,72.4C122.8,66.6 122.7,60.6 123.2,54.8C123.5,51.7 123.8,48.5 124.4,45.4C125,42.3 125.7,39.3 126.7,36.3C127.6,33.6 128.7,30.9 130.1,28.4C131.5,25.8 133.2,23.3 135.2,21.2C137.1,19.2 139.2,17.5 141.6,16.2C142.6,15.7 143.7,15.2 144.7,14.8C145.2,14.6 145.8,14.4 146.4,14.3C146.9,14.2 147.5,13.9 148.1,13.9C149.5,13.6 150.9,13.5 152.3,13.5C153.4,13.5 156.2,13.7 158.6,15.2C161.3,17.1 163.6,20.2 164,25C164.6,32.3 157.2,33.5 155.7,33.5C155.5,33.5 155.4,33.3 156.1,32.5C157.8,30.3 158.4,26.9 157.8,24.2C157.1,20.8 154.7,18.2 151.3,18.2C146.1,18.2 141.5,20.8 138.1,24.5C134.8,28.1 132.5,32.7 130.8,37.3C128.7,43.2 127.6,49.5 127.2,55.8C126.8,61.6 127,67.4 127.6,73.1C128.2,78.9 129.3,84.7 130.8,90.3C132.3,95.8 134.2,101.2 136.5,106.3C138.9,111.5 141.8,116.5 145.4,121C149,125.5 153.5,129.5 158.6,132.2C159.8,132.8 161,133.3 162.2,133.8C162.1,135.7 162.6,137.4 163.3,138.8C162.6,138.6 162.6,138.5 161.9,138.3ZM167.3,140.8C167.3,140.8 167,141.1 166.8,141.1C166.5,141.1 166.3,140.8 166.3,140.8C165,139.2 163.1,136.1 163.8,132.4C164,131.4 165.8,130.9 166.8,130.9C167.8,130.9 169.6,131.4 169.8,132.4C170.4,136.1 168.5,139.2 167.3,140.8ZM210.2,72.4C209.7,78.3 208.7,84.2 207.3,90C205.9,95.7 204.1,101.2 201.7,106.6C199.3,112.1 196.3,117.5 192.6,122.3C191.8,123.3 191.1,124.3 190.2,125.2C189,126.6 187.7,127.9 186.4,129.2C184.8,130.7 183,132.2 181.1,133.5C178.2,135.5 174.9,137.2 171.6,138.3C170.9,138.5 170.9,138.6 170.1,138.7C170.8,137.3 171.3,135.6 171.2,133.7C172.4,133.3 173.6,132.7 174.8,132.1C180,129.5 184.4,125.4 188,120.9C191.6,116.4 194.5,111.4 196.9,106.2C199.3,101 201.2,95.7 202.6,90.2C204.1,84.6 205.2,78.8 205.8,73C206.4,67.3 206.6,61.5 206.2,55.7C205.8,49.4 204.7,43.1 202.6,37.2C201,32.6 198.7,28 195.3,24.4C191.9,20.7 187.3,18.1 182.1,18.1C178.7,18.1 176.3,20.7 175.6,24.1C175,26.8 175.6,30.2 177.3,32.4C178,33.2 177.9,33.4 177.7,33.4C176.2,33.4 168.7,32.3 169.4,24.9C169.8,20.1 172.2,17 174.8,15.1C177.2,13.6 180,13.4 181.1,13.4C182.5,13.4 183.9,13.5 185.3,13.8C185.8,13.8 186.5,14 187,14.2C187.6,14.4 188.1,14.5 188.7,14.7C189.8,15.1 190.8,15.6 191.8,16.1C194.2,17.4 196.4,19.2 198.2,21.1C200.2,23.2 201.9,25.7 203.3,28.3C204.7,30.8 205.8,33.5 206.7,36.2C207.7,39.2 208.5,42.2 209,45.3C209.6,48.4 209.9,51.5 210.2,54.7C210.8,60.6 210.7,66.5 210.2,72.4Z" style="fill-rule:nonzero;"/>
    </g>
    <g transform="matrix(1,0,0,1,-0.5,-1.1)">
        <path d="M180.3,54.4L180.3,57.4L180.9,57.3L181.2,57.3C181.5,57.3 182.1,57.4 182.5,57.8C182.9,58.2 183,58.8 182.8,59.6C182.8,59.6 176.7,85.9 175.6,90.9C174.3,84.6 167,50 167,50L167,49.9L165.6,49.9L165.6,50.1C165.6,50.1 160.4,83.8 159.3,90.5C157.9,84.7 152.1,59.7 152.1,59.7L152.1,59.2C152.1,58.5 152.3,58 152.6,57.7C153,57.3 153.7,57.3 153.8,57.3L154.4,57.4L154.4,54.5L144.3,54.5L144.3,57.4L144.7,57.5C144.9,57.5 146.1,57.8 146.2,58.9C146.2,58.9 158.1,109.9 158.6,112L158.6,112.1L160.4,112.1L160.4,111.9C160.5,111.5 165.3,79.9 166.2,74C167.3,79.9 173.5,111.5 173.6,111.9L173.6,112L175.2,112L187,58.7C187.3,57.6 188.2,57.5 188.6,57.5L189.3,57.5L189.3,54.4L180.3,54.4Z" style="fill-rule:nonzero;"/>
    </g>
</svg>
