<svg width="390" height="499" viewBox="0 0 390 499" fill="none" xmlns="http://www.w3.org/2000/svg">
<g clip-path="url(#clip0)">
<path fill-rule="evenodd" clip-rule="evenodd" d="M0 15C0 6.7 6.7 0 15 0H375C383.3 0 390 6.7 390 15V483.8C390 492.1 383.3 498.8 375 498.8H15C6.7 498.8 0 492.1 0 483.8V15Z" fill="#231F20" stroke="#231F20" stroke-width="0.2868" stroke-miterlimit="3.8637"/>
<path fill-rule="evenodd" clip-rule="evenodd" d="M32.4 453H49.4V417C49.4 404.9 57.6 402.7 60.9 402.7C71.7 402.7 71.2 411 71.2 418.2V453H88.2V418.4C88.2 410.6 90 402.7 99.6 402.7C109.3 402.7 110 409.5 110 417.8V453H127V411.5C127 395.4 117.5 389.3 104.3 389.3C95.7 389.3 89.2 394.2 85.6 399.6C82.2 392.2 75.3 389.3 67.5 389.3C59.5 389.3 53 393 48.5 399.4H48.3V391H32.4V453Z" fill="white"/>
<path fill-rule="evenodd" clip-rule="evenodd" d="M199.3 426.1C200.5 407 190.3 389.3 169.2 389.3C150.4 389.3 137.5 403.5 137.5 422.1C137.5 441.3 149.6 454.7 169.2 454.7C183.2 454.7 193.4 448.5 198.2 433.8H183.2C182.1 437.6 176.6 441.8 169.8 441.8C160.3 441.8 155 436.9 154.6 426.1H199.3V426.1ZM154.6 415.3C154.8 410.5 158 402.1 168.8 402.1C177.1 402.1 180.8 406.7 182.4 415.3H154.6Z" fill="white"/>
<path fill-rule="evenodd" clip-rule="evenodd" d="M231 372.4H214V391H203.7V402.4H214V439C214 451.4 223.1 453.8 233.6 453.8C237 453.8 240.7 453.7 243.6 453.2V439.9C241.8 440.3 240.1 440.4 238.3 440.4C232.5 440.4 231.1 439 231.1 433.2V402.5H243.6V391H231V372.4Z" fill="white"/>
<path fill-rule="evenodd" clip-rule="evenodd" d="M251.5 453H268.5V425C268.5 414.1 272.8 405.1 285.3 405.1C287.3 405.1 289.9 405.3 291.4 405.7V389.9C290.3 389.5 288.9 389.3 287.7 389.3C279.4 389.3 271 394.7 267.9 402.5H267.7V391H251.5V453V453Z" fill="white"/>
<path fill-rule="evenodd" clip-rule="evenodd" d="M294.1 422C294.1 441.7 306.7 454.6 326.1 454.6C345.7 454.6 358.3 441.6 358.3 422C358.3 402.2 345.7 389.2 326.1 389.2C306.7 389.3 294.1 402.2 294.1 422ZM311.1 422C311.1 412 314.6 402.1 326.1 402.1C337.7 402.1 341.2 412.1 341.2 422C341.2 431.8 337.7 441.8 326.1 441.8C314.6 441.8 311.1 431.9 311.1 422Z" fill="white"/>
<path fill-rule="evenodd" clip-rule="evenodd" d="M32.4 356.5H96.5V144.5H97.4L164.4 356.5H225.6L292.6 142.4H293.5V356.5H357.6V30.2H261.2L197.3 249.1H196.5L128.8 30.2H32.4V356.5Z" fill="white"/>
</g>
<defs>
<clipPath id="clip0">
<rect width="390" height="498.7" fill="white"/>
</clipPath>
</defs>
</svg>
